<svg width="87" height="57" viewBox="0 0 87 57" fill="none" xmlns="http://www.w3.org/2000/svg">
<path d="M66.4771 25.8724L67.1516 37.4199C67.2516 39.1009 66.2273 40.6601 64.0788 42.0974C61.9304 43.5348 58.995 44.6737 55.2727 45.5142C51.5504 46.3547 47.5158 46.7749 43.1689 46.7749C38.822 46.7749 34.7874 46.3547 31.0651 45.5142C27.3428 44.6737 24.4074 43.5348 22.259 42.0974C20.1105 40.6601 19.0863 39.1009 19.1862 37.4199L19.8607 25.8724L41.3702 32.4866C41.9198 32.6572 42.5194 32.7424 43.1689 32.7424C43.8184 32.7424 44.418 32.6572 44.9676 32.4866L66.4771 25.8724ZM86.3378 14.0325C86.3378 14.5928 86.063 14.9704 85.5134 15.1653L43.5436 28.0284C43.4437 28.0528 43.3188 28.0649 43.1689 28.0649C43.019 28.0649 42.8941 28.0528 42.7942 28.0284L18.3618 20.5006C17.2875 21.3289 16.4007 22.6871 15.7012 24.5751C15.0017 26.4632 14.577 28.6375 14.4271 31.098C16.001 31.975 16.7879 33.3028 16.7879 35.0812C16.7879 36.7622 16.0634 38.0655 14.6145 38.9913L16.7879 54.8144C16.8379 55.1554 16.7379 55.4599 16.4881 55.7279C16.2633 55.9959 15.9635 56.1299 15.5888 56.1299H8.39395C8.01922 56.1299 7.71944 55.9959 7.4946 55.7279C7.24478 55.4599 7.14485 55.1554 7.19482 54.8144L9.36825 38.9913C7.9193 38.0655 7.19482 36.7622 7.19482 35.0812C7.19482 33.3028 8.00673 31.9507 9.63056 31.0249C9.90537 25.982 11.1295 21.9623 13.3029 18.9658L0.824406 15.1653C0.274802 14.9704 0 14.5928 0 14.0325C0 13.4722 0.274802 13.0945 0.824406 12.8996L42.7942 0.0365429C42.8941 0.012181 43.019 0 43.1689 0C43.3188 0 43.4437 0.012181 43.5436 0.0365429L85.5134 12.8996C86.063 13.0945 86.3378 13.4722 86.3378 14.0325Z" fill="#152B15"/>
</svg>
