<svg width="377" height="220" viewBox="0 0 377 220" fill="none" xmlns="http://www.w3.org/2000/svg">
<g clip-path="url(#clip0_792_398)">
<rect width="97.6965" height="50.7759" rx="20" transform="matrix(0.839299 -0.54367 0.546572 0.837412 2.58496 177.114)" fill="#459963"/>
<path d="M45.3955 186.986C44.2904 187.702 43.2026 188.109 42.132 188.207C41.0662 188.281 40.0615 188.068 39.1177 187.568C38.1648 187.053 37.3377 186.258 36.6362 185.184C35.9439 184.123 35.5479 183.059 35.4484 181.992C35.3627 180.915 35.5449 179.914 35.9948 178.987C36.4586 178.051 37.1732 177.27 38.1383 176.645C39.0756 176.038 40.005 175.724 40.9266 175.703C41.8622 175.672 42.7508 175.921 43.5925 176.448C44.439 176.952 45.2038 177.728 45.887 178.774L46.338 179.465L38.3856 184.617L37.5931 183.402L44.2865 179.067L44.1211 179.591C43.4105 178.502 42.6262 177.819 41.768 177.541C40.9007 177.248 40.0054 177.401 39.0822 178C38.4107 178.434 37.942 178.966 37.6759 179.596C37.4007 180.211 37.3239 180.886 37.4456 181.621C37.5582 182.343 37.8559 183.073 38.3387 183.813L38.4207 183.938C38.9673 184.776 39.5602 185.395 40.1995 185.795C40.8436 186.172 41.5201 186.339 42.229 186.297C42.9288 186.241 43.6563 185.968 44.4117 185.479C45.0132 185.089 45.5345 184.622 45.9756 184.079C46.4216 183.512 46.7643 182.863 47.0037 182.132L48.452 183.07C48.2637 183.788 47.8878 184.508 47.3244 185.23C46.7659 185.93 46.1229 186.515 45.3955 186.986ZM57.8885 184.255C56.9792 184.844 56.0601 185.281 55.131 185.565C54.2019 185.849 53.2793 185.96 52.3632 185.898L52.0698 184.122C52.6717 184.13 53.2346 184.093 53.7587 184.011C54.3059 183.935 54.8236 183.798 55.3119 183.601C55.8142 183.395 56.3032 183.138 56.7788 182.83C57.7719 182.186 58.3448 181.448 58.4973 180.614C58.673 179.786 58.4419 178.883 57.8043 177.906L56.3285 175.645L56.5174 175.522C56.8317 176.431 56.7964 177.337 56.4116 178.242C56.0408 179.137 55.4077 179.875 54.5125 180.455C53.5893 181.053 52.6483 181.365 51.6896 181.39C50.7218 181.401 49.803 181.153 48.9334 180.644C48.0547 180.121 47.2874 179.357 46.6315 178.352C45.9666 177.333 45.5769 176.324 45.4627 175.326C45.3394 174.314 45.4838 173.376 45.8959 172.513C46.3081 171.651 46.9757 170.92 47.899 170.322C48.8082 169.733 49.7489 169.452 50.7209 169.477C51.693 169.503 52.532 169.843 53.2379 170.498L53.0491 170.62L51.505 168.255L53.3725 167.045L59.5077 176.445C60.191 177.492 60.583 178.489 60.6839 179.436C60.7988 180.374 60.6204 181.245 60.1487 182.047C59.677 182.849 58.9236 183.585 57.8885 184.255ZM53.9483 178.676C54.8855 178.069 55.4174 177.268 55.5439 176.272C55.6704 175.277 55.3784 174.235 54.6678 173.146C53.9482 172.043 53.1106 171.355 52.1552 171.08C51.1906 170.792 50.2397 170.951 49.3025 171.558C48.3652 172.165 47.8264 172.971 47.6859 173.975C47.5503 174.957 47.8423 175.999 48.5619 177.101C49.2725 178.19 50.11 178.879 51.0746 179.167C52.0532 179.447 53.0111 179.283 53.9483 178.676ZM69.2157 176.918C68.3065 177.507 67.3873 177.943 66.4582 178.228C65.5291 178.512 64.6065 178.623 63.6904 178.561L63.3971 176.785C63.9989 176.792 64.5619 176.755 65.086 176.674C65.6332 176.597 66.1509 176.461 66.6392 176.264C67.1415 176.057 67.6304 175.8 68.106 175.492C69.0992 174.849 69.672 174.11 69.8246 173.277C70.0002 172.448 69.7692 171.545 69.1315 170.568L67.6558 168.307L67.8446 168.185C68.1589 169.093 68.1237 170 67.7389 170.904C67.368 171.8 66.735 172.538 65.8397 173.118C64.9165 173.716 63.9755 174.027 63.0168 174.053C62.049 174.064 61.1303 173.815 60.2607 173.306C59.382 172.783 58.6147 172.019 57.9588 171.014C57.2938 169.995 56.9042 168.987 56.79 167.989C56.6666 166.976 56.811 166.039 57.2232 165.176C57.6353 164.313 58.303 163.583 59.2262 162.985C60.1355 162.396 61.0761 162.114 62.0482 162.14C63.0202 162.166 63.8592 162.506 64.5652 163.16L64.3764 163.283L62.8323 160.917L64.6997 159.707L70.835 169.107C71.5182 170.154 71.9103 171.151 72.0112 172.099C72.126 173.037 71.9476 173.907 71.476 174.709C71.0043 175.511 70.2509 176.247 69.2157 176.918ZM65.2756 171.338C66.2128 170.731 66.7446 169.93 66.8712 168.935C66.9977 167.939 66.7056 166.897 65.9951 165.809C65.2754 164.706 64.4379 164.017 63.4824 163.743C62.5178 163.454 61.5669 163.613 60.6297 164.22C59.6925 164.828 59.1536 165.633 59.0131 166.638C58.8775 167.619 59.1695 168.661 59.8892 169.764C60.5997 170.852 61.4373 171.541 62.4019 171.83C63.3805 172.109 64.3384 171.946 65.2756 171.338ZM77.0133 166.505C76.4818 166.85 75.9253 167.141 75.344 167.378C74.7766 167.607 74.2169 167.771 73.6649 167.87C73.1177 167.946 72.5967 167.956 72.1019 167.9L71.8076 166.214C72.3073 166.247 72.8121 166.228 73.3222 166.156C73.8232 166.07 74.3109 165.932 74.7852 165.744C75.2595 165.556 75.7065 165.326 76.1261 165.054C76.8955 164.556 77.3849 164.041 77.5944 163.508C77.8039 162.975 77.7583 162.478 77.4577 162.018C77.2026 161.627 76.8739 161.413 76.4715 161.376C76.0739 161.315 75.5659 161.406 74.9475 161.648L72.7365 162.514C71.7417 162.881 70.8747 162.985 70.1356 162.829C69.4014 162.649 68.8019 162.203 68.3373 161.491C67.9274 160.863 67.74 160.21 67.7751 159.532C67.8151 158.831 68.0608 158.156 68.5124 157.506C68.9639 156.856 69.5883 156.273 70.3856 155.756C70.8612 155.448 71.3547 155.198 71.8661 155.006C72.3775 154.813 72.8883 154.681 73.3984 154.609C73.9085 154.537 74.392 154.561 74.8491 154.682L75.1088 156.361C74.6791 156.281 74.2417 156.267 73.7966 156.317C73.3516 156.367 72.9199 156.468 72.5015 156.62C72.0741 156.758 71.6785 156.944 71.3148 157.18C70.5594 157.669 70.0816 158.187 69.8812 158.734C69.6948 159.272 69.7565 159.778 70.0662 160.252C70.303 160.615 70.6108 160.843 70.9895 160.935C71.3821 161.018 71.8667 160.953 72.4432 160.738L74.6542 159.872C75.6909 159.478 76.5813 159.348 77.3253 159.482C78.0602 159.602 78.6645 160.024 79.1382 160.75C79.5573 161.392 79.7422 162.057 79.6931 162.744C79.658 163.422 79.4077 164.09 78.9422 164.749C78.4816 165.385 77.8386 165.971 77.0133 166.505Z" fill="black"/>
<rect width="121.472" height="50.7759" rx="20" transform="matrix(0.959406 0.282027 -0.278704 0.960377 127.554 135.985)" fill="#6CAE79"/>
<path d="M144.493 174.204C143.438 173.894 142.611 173.364 142.013 172.615C141.414 171.866 141.117 171.006 141.122 170.034L141.362 170.105L140.574 172.818L138.44 172.19L143.352 155.264L145.534 155.905L143.249 163.78L142.985 163.703C143.492 162.914 144.195 162.374 145.095 162.082C146 161.775 146.972 161.774 148.012 162.08C149.051 162.385 149.883 162.899 150.506 163.621C151.15 164.331 151.548 165.204 151.699 166.238C151.87 167.262 151.775 168.397 151.413 169.646C151.055 170.878 150.526 171.895 149.824 172.697C149.128 173.482 148.324 174.01 147.412 174.281C146.506 174.535 145.532 174.51 144.493 174.204ZM144.491 172.328C145.546 172.638 146.493 172.517 147.33 171.964C148.172 171.395 148.797 170.406 149.206 168.997C149.615 167.589 149.614 166.425 149.204 165.505C148.794 164.585 148.062 163.97 147.006 163.66C145.951 163.35 145.005 163.471 144.167 164.024C143.33 164.577 142.707 165.558 142.298 166.967C141.89 168.375 141.888 169.547 142.293 170.483C142.703 171.402 143.436 172.017 144.491 172.328ZM151.318 175.976L154.711 164.283L156.845 164.911L156.037 167.696L155.797 167.625C156.332 166.74 157.005 166.156 157.816 165.874C158.631 165.575 159.602 165.548 160.729 165.792L161.493 165.938L161.111 167.885L159.709 167.603C158.621 167.404 157.705 167.509 156.963 167.916C156.236 168.328 155.726 169.038 155.433 170.046L153.524 176.625L151.318 175.976ZM163.617 179.826C162.465 179.488 161.538 178.946 160.835 178.2C160.131 177.455 159.68 176.558 159.481 175.509C159.282 174.461 159.361 173.32 159.719 172.088C160.077 170.855 160.617 169.859 161.341 169.099C162.07 168.323 162.93 167.811 163.921 167.564C164.913 167.317 165.984 167.363 167.135 167.701C168.287 168.04 169.214 168.582 169.918 169.327C170.621 170.072 171.072 170.969 171.271 172.018C171.475 173.05 171.398 174.183 171.04 175.416C170.682 176.648 170.139 177.652 169.411 178.428C168.682 179.204 167.822 179.716 166.831 179.963C165.839 180.21 164.768 180.164 163.617 179.826ZM164.118 178.097C165.174 178.408 166.12 178.286 166.957 177.733C167.799 177.164 168.425 176.175 168.833 174.767C169.242 173.358 169.242 172.194 168.832 171.275C168.422 170.355 167.689 169.74 166.634 169.43C165.594 169.124 164.648 169.246 163.795 169.794C162.957 170.347 162.334 171.328 161.926 172.736C161.517 174.145 161.515 175.317 161.92 176.253C162.346 177.177 163.079 177.792 164.118 178.097ZM175.935 183.447C174.752 183.099 173.8 182.55 173.081 181.8C172.366 181.034 171.909 180.127 171.71 179.078C171.516 178.013 171.6 176.857 171.962 175.608C172.32 174.376 172.86 173.38 173.584 172.62C174.308 171.86 175.172 171.366 176.174 171.14C177.177 170.914 178.27 170.974 179.453 171.322C180.189 171.538 180.871 171.878 181.501 172.341C182.146 172.809 182.633 173.343 182.962 173.943L181.797 175.268C181.454 174.716 181.04 174.256 180.557 173.888C180.074 173.52 179.584 173.263 179.089 173.117C177.921 172.774 176.911 172.877 176.058 173.425C175.205 173.973 174.581 174.928 174.186 176.288C173.791 177.649 173.799 178.815 174.211 179.787C174.628 180.744 175.42 181.393 176.587 181.737C177.083 181.882 177.633 181.931 178.237 181.883C178.841 181.835 179.438 181.662 180.027 181.367L180.293 183.139C179.695 183.467 178.991 183.65 178.181 183.69C177.387 183.735 176.638 183.654 175.935 183.447ZM185.651 186.303C184.467 185.955 183.516 185.406 182.797 184.656C182.082 183.89 181.625 182.983 181.426 181.934C181.232 180.87 181.316 179.713 181.678 178.464C182.036 177.232 182.576 176.236 183.3 175.476C184.024 174.716 184.887 174.222 185.89 173.996C186.893 173.77 187.986 173.83 189.169 174.178C189.905 174.395 190.587 174.734 191.216 175.197C191.862 175.665 192.349 176.199 192.678 176.799L191.512 178.124C191.169 177.572 190.756 177.112 190.273 176.744C189.79 176.376 189.3 176.119 188.805 175.973C187.637 175.63 186.627 175.733 185.774 176.281C184.92 176.829 184.296 177.784 183.902 179.144C183.507 180.505 183.515 181.671 183.927 182.644C184.344 183.6 185.136 184.25 186.303 184.593C186.799 184.738 187.349 184.787 187.953 184.739C188.557 184.691 189.153 184.519 189.743 184.223L190.009 185.995C189.411 186.323 188.707 186.507 187.897 186.546C187.103 186.591 186.354 186.51 185.651 186.303ZM195.271 189.131C194.119 188.793 193.192 188.251 192.488 187.505C191.785 186.76 191.334 185.863 191.135 184.814C190.936 183.766 191.015 182.625 191.373 181.393C191.731 180.16 192.271 179.164 192.995 178.404C193.724 177.628 194.584 177.116 195.575 176.869C196.567 176.622 197.638 176.668 198.789 177.006C199.941 177.345 200.868 177.886 201.571 178.632C202.275 179.377 202.726 180.274 202.925 181.323C203.129 182.355 203.052 183.488 202.694 184.721C202.336 185.953 201.793 186.957 201.065 187.733C200.336 188.509 199.476 189.021 198.485 189.268C197.493 189.515 196.422 189.469 195.271 189.131ZM195.772 187.402C196.828 187.712 197.774 187.591 198.611 187.038C199.453 186.469 200.078 185.48 200.487 184.072C200.896 182.663 200.895 181.499 200.486 180.58C200.076 179.66 199.343 179.045 198.288 178.735C197.248 178.429 196.302 178.551 195.449 179.099C194.611 179.652 193.988 180.633 193.58 182.041C193.171 183.45 193.169 184.622 193.574 185.558C194 186.482 194.733 187.097 195.772 187.402ZM206.245 192.357C204.998 191.99 204.165 191.363 203.746 190.476C203.347 189.577 203.343 188.455 203.733 187.111L207.503 174.122L209.685 174.763L205.965 187.584C205.807 188.128 205.744 188.614 205.776 189.04C205.829 189.455 205.974 189.793 206.211 190.054C206.464 190.319 206.814 190.518 207.262 190.649C207.438 190.701 207.616 190.745 207.796 190.781C207.993 190.821 208.178 190.841 208.352 190.84L207.788 192.602C207.514 192.591 207.244 192.564 206.979 192.521C206.73 192.482 206.485 192.428 206.245 192.357ZM212.598 178.251L213.281 175.898L215.895 176.667L215.212 179.02L212.598 178.251ZM208.606 192.816L211.999 181.124L214.181 181.765L210.788 193.458L208.606 192.816Z" fill="black"/>
<rect width="111.543" height="50.7759" rx="20" transform="matrix(0.98504 -0.172322 0.175732 0.984438 235.905 20.9313)" fill="#84D074"/>
<path d="M267.785 48.2116C266.324 48.4672 265.165 48.2808 264.308 47.6524C263.448 47.0077 262.89 45.9716 262.635 44.5441L261.555 38.4898L259.215 38.8991L258.908 37.1763L261.247 36.7671L260.597 33.1246L262.838 32.7326L263.488 36.375L267.256 35.7159L267.563 37.4387L263.796 38.0978L264.841 43.9552C265.002 44.8576 265.313 45.5055 265.772 45.8988C266.232 46.2922 266.897 46.4127 267.767 46.2605C268.03 46.2146 268.28 46.1454 268.517 46.0531C268.768 45.9416 269.003 45.8329 269.221 45.727L269.889 47.3359C269.685 47.5238 269.378 47.6961 268.965 47.8528C268.573 48.0231 268.179 48.1426 267.785 48.2116ZM275.383 46.8825C274.201 47.0893 273.129 47.0144 272.168 46.658C271.207 46.3016 270.405 45.6975 269.762 44.8455C269.119 43.9936 268.685 42.936 268.459 41.6726C268.234 40.4092 268.277 39.2765 268.589 38.2744C268.898 37.2559 269.443 36.4162 270.222 35.7554C271.001 35.0945 271.982 34.6607 273.164 34.4539C274.346 34.2472 275.417 34.322 276.378 34.6784C277.339 35.0348 278.141 35.6389 278.784 36.4909C279.424 37.3264 279.857 38.3758 280.083 39.6392C280.308 40.9026 280.267 42.0435 279.957 43.062C279.648 44.0805 279.104 44.9202 278.325 45.581C277.545 46.2419 276.565 46.6757 275.383 46.8825ZM275.066 45.1105C276.15 44.9209 276.944 44.3928 277.45 43.526C277.953 42.6429 278.075 41.4794 277.817 40.0355C277.559 38.5917 277.043 37.5484 276.268 36.9057C275.493 36.263 274.564 36.0364 273.48 36.2259C272.413 36.4126 271.619 36.9408 271.097 37.8104C270.591 38.6771 270.467 39.8324 270.725 41.2763C270.983 42.7201 271.5 43.7716 272.278 44.4307C273.07 45.0706 273.999 45.2972 275.066 45.1105ZM282.843 45.3489L280.704 33.3633L282.896 32.9799L283.361 35.5887L283.09 35.6361C283.195 34.9917 283.4 34.4313 283.705 33.9551C284.006 33.4624 284.4 33.0635 284.888 32.7583C285.388 32.4338 285.959 32.2156 286.599 32.1036C287.617 31.9255 288.482 32.028 289.194 32.4111C289.902 32.7778 290.451 33.4347 290.841 34.3818L290.496 34.4421C290.63 33.488 291.028 32.6824 291.69 32.0252C292.367 31.3652 293.215 30.9462 294.233 30.7681C295.136 30.6101 295.907 30.6614 296.546 30.9218C297.199 31.163 297.736 31.6105 298.157 32.2643C298.576 32.9017 298.882 33.7618 299.075 34.8447L300.402 42.2772L298.161 42.6692L296.852 35.3352C296.664 34.2851 296.346 33.5456 295.897 33.1165C295.448 32.6875 294.796 32.5477 293.943 32.697C293.319 32.8061 292.803 33.0486 292.396 33.4243C291.989 33.8001 291.711 34.2802 291.562 34.8647C291.412 35.4493 291.405 36.1189 291.539 36.8736L292.743 43.617L290.502 44.0091L289.193 36.675C289.005 35.6249 288.687 34.8854 288.238 34.4563C287.789 34.0273 287.138 33.8875 286.284 34.0368C285.66 34.1459 285.145 34.3884 284.738 34.7641C284.331 35.1399 284.053 35.62 283.903 36.2045C283.753 36.7891 283.746 37.4587 283.881 38.2134L285.084 44.9568L282.843 45.3489ZM306.63 41.416C305.81 41.5596 305.033 41.5262 304.302 41.3158C303.586 41.1025 302.99 40.75 302.513 40.2582C302.052 39.7635 301.76 39.1717 301.637 38.4826C301.479 37.5966 301.576 36.8605 301.929 36.2743C302.281 35.6881 302.964 35.1965 303.976 34.7994C304.986 34.3859 306.378 34.024 308.151 33.7138L309.308 33.5114L309.563 34.9388L308.455 35.1327C307.502 35.2992 306.712 35.4714 306.084 35.649C305.455 35.8266 304.965 36.0223 304.614 36.236C304.263 36.4498 304.028 36.7022 303.911 36.9935C303.791 37.2683 303.764 37.5944 303.832 37.9718C303.946 38.6117 304.261 39.0979 304.778 39.4306C305.311 39.7603 305.971 39.8563 306.759 39.7184C307.383 39.6093 307.907 39.3654 308.33 38.9868C308.75 38.5918 309.055 38.1155 309.243 37.5581C309.429 36.9842 309.461 36.3609 309.341 35.6882L308.836 32.858C308.663 31.8899 308.342 31.2271 307.871 30.8694C307.398 30.4954 306.694 30.3902 305.758 30.5539C305.069 30.6745 304.398 30.9018 303.747 31.2357C303.112 31.5668 302.472 32.017 301.829 32.5863L300.829 31.1116C301.204 30.7415 301.642 30.4025 302.146 30.0944C302.663 29.7671 303.207 29.4943 303.778 29.276C304.365 29.0549 304.937 28.8955 305.495 28.7979C306.563 28.6112 307.472 28.6298 308.223 28.8538C308.971 29.0613 309.58 29.4876 310.051 30.1328C310.519 30.7616 310.849 31.6175 311.042 32.7004L312.378 40.1821L310.26 40.5526L309.773 37.8208L309.994 37.782C309.971 38.412 309.819 38.9802 309.537 39.4863C309.254 39.9925 308.865 40.416 308.367 40.7569C307.882 41.0785 307.304 41.2982 306.63 41.416ZM319.687 39.1318C318.226 39.3874 317.067 39.2011 316.21 38.5727C315.35 37.9279 314.792 36.8918 314.538 35.4644L313.457 29.4101L311.117 29.8194L310.81 28.0966L313.149 27.6873L312.499 24.0449L314.74 23.6529L315.39 27.2953L319.158 26.6362L319.466 28.3589L315.698 29.0181L316.743 34.8755C316.905 35.7779 317.215 36.4257 317.675 36.8191C318.134 37.2124 318.799 37.333 319.669 37.1808C319.932 37.1348 320.182 37.0657 320.419 36.9734C320.67 36.8618 320.905 36.7531 321.123 36.6473L321.791 38.2562C321.588 38.4441 321.28 38.6164 320.868 38.7731C320.475 38.9433 320.081 39.0629 319.687 39.1318ZM327.285 37.8027C326.103 38.0095 325.031 37.9347 324.07 37.5783C323.109 37.2219 322.307 36.6177 321.664 35.7658C321.021 34.9139 320.587 33.8562 320.362 32.5929C320.136 31.3295 320.179 30.1968 320.491 29.1947C320.801 28.1762 321.345 27.3365 322.124 26.6756C322.903 26.0148 323.884 25.581 325.066 25.3742C326.248 25.1674 327.32 25.2422 328.281 25.5986C329.242 25.955 330.044 26.5592 330.687 27.4111C331.327 28.2466 331.759 29.2961 331.985 30.5595C332.211 31.8228 332.169 32.9637 331.86 33.9823C331.55 35.0008 331.006 35.8404 330.227 36.5013C329.448 37.1621 328.467 37.5959 327.285 37.8027ZM326.968 36.0307C328.052 35.8412 328.847 35.313 329.352 34.4463C329.855 33.5631 329.977 32.3996 329.719 30.9558C329.462 29.5119 328.945 28.4687 328.17 27.8259C327.395 27.1832 326.466 26.9566 325.382 27.1462C324.315 27.3329 323.521 27.861 322.999 28.7306C322.493 29.5974 322.369 30.7527 322.627 32.1965C322.885 33.6404 323.403 34.6918 324.181 35.351C324.972 35.9908 325.901 36.2174 326.968 36.0307Z" fill="black"/>
<rect width="86.7774" height="51.9799" rx="20" transform="matrix(0.752493 0.6586 -0.65599 0.75477 316.983 67.1107)" fill="#90D881"/>
<path d="M316.096 109.569C315.193 108.779 314.579 107.898 314.253 106.926C313.927 105.955 313.894 104.951 314.154 103.916C314.413 102.88 314.964 101.878 315.806 100.91C316.647 99.9412 317.556 99.2638 318.532 98.8777C319.519 98.4789 320.514 98.3755 321.518 98.5673C322.522 98.7591 323.475 99.2501 324.378 100.04C325.281 100.831 325.895 101.712 326.221 102.684C326.547 103.655 326.58 104.659 326.321 105.694C326.072 106.717 325.527 107.713 324.685 108.681C323.843 109.65 322.929 110.334 321.942 110.732C320.955 111.131 319.96 111.234 318.956 111.043C317.952 110.851 316.999 110.36 316.096 109.569ZM317.277 108.211C318.105 108.935 319.015 109.222 320.007 109.072C321.01 108.909 321.992 108.273 322.954 107.166C323.916 106.059 324.404 105.003 324.418 103.996C324.432 102.989 324.025 102.124 323.197 101.399C322.382 100.686 321.472 100.399 320.467 100.538C319.475 100.689 318.498 101.318 317.536 102.425C316.574 103.532 316.081 104.595 316.056 105.614C316.055 106.632 316.462 107.497 317.277 108.211ZM324.704 117.103C324.077 116.555 323.616 115.929 323.32 115.228C323.037 114.537 322.937 113.852 323.021 113.171C323.116 112.502 323.394 111.903 323.853 111.375C324.443 110.696 325.077 110.309 325.755 110.216C326.433 110.122 327.244 110.345 328.188 110.884C329.144 111.41 330.299 112.266 331.654 113.452L332.538 114.226L331.587 115.32L330.74 114.579C330.013 113.942 329.383 113.435 328.85 113.057C328.317 112.68 327.857 112.421 327.47 112.282C327.083 112.143 326.74 112.119 326.439 112.21C326.15 112.289 325.88 112.473 325.628 112.763C325.202 113.253 325.021 113.804 325.087 114.415C325.164 115.037 325.504 115.611 326.106 116.138C326.583 116.555 327.101 116.809 327.662 116.901C328.233 116.981 328.795 116.919 329.347 116.715C329.91 116.499 330.416 116.134 330.864 115.618L332.75 113.448C333.395 112.706 333.709 112.039 333.693 111.449C333.687 110.846 333.327 110.231 332.612 109.606C332.085 109.145 331.487 108.765 330.818 108.468C330.162 108.181 329.41 107.966 328.563 107.823L329.084 106.119C329.606 106.178 330.146 106.307 330.702 106.506C331.281 106.703 331.835 106.955 332.363 107.262C332.904 107.58 333.387 107.926 333.814 108.299C334.629 109.012 335.185 109.732 335.482 110.457C335.79 111.169 335.841 111.911 335.634 112.683C335.438 113.442 334.98 114.236 334.258 115.067L329.273 120.803L327.655 119.387L329.475 117.292L329.644 117.44C329.14 117.818 328.602 118.056 328.03 118.154C327.459 118.252 326.885 118.215 326.307 118.041C325.753 117.866 325.218 117.553 324.704 117.103ZM334.678 125.833C333.562 124.856 332.98 123.837 332.931 122.775C332.893 121.701 333.349 120.617 334.301 119.522L338.335 114.881L336.548 113.316L337.696 111.995L339.483 113.56L341.91 110.767L343.622 112.265L341.195 115.058L344.073 117.577L342.925 118.898L340.047 116.379L336.144 120.87C335.542 121.562 335.233 122.21 335.215 122.815C335.198 123.419 335.521 124.012 336.186 124.594C336.386 124.77 336.597 124.921 336.818 125.048C337.063 125.173 337.294 125.288 337.514 125.391L336.681 126.921C336.407 126.881 336.079 126.749 335.699 126.527C335.319 126.328 334.979 126.097 334.678 125.833ZM339.84 130.351C339.364 129.934 338.932 129.478 338.544 128.984C338.169 128.501 337.859 128.007 337.612 127.504C337.389 126.998 337.237 126.5 337.156 126.008L338.697 125.264C338.801 125.754 338.958 126.234 339.167 126.705C339.387 127.163 339.652 127.595 339.963 128C340.274 128.405 340.617 128.772 340.993 129.101C341.683 129.705 342.313 130.034 342.883 130.09C343.453 130.146 343.918 129.966 344.279 129.551C344.585 129.199 344.701 128.824 344.626 128.427C344.576 128.028 344.349 127.564 343.948 127.035L342.51 125.146C341.885 124.289 341.547 123.484 341.496 122.73C341.468 121.975 341.733 121.276 342.29 120.635C342.782 120.069 343.359 119.71 344.021 119.558C344.706 119.405 345.423 119.456 346.172 119.713C346.92 119.969 347.652 120.411 348.367 121.036C348.793 121.409 349.169 121.816 349.494 122.255C349.819 122.694 350.085 123.149 350.294 123.62C350.504 124.091 350.612 124.563 350.621 125.036L349.078 125.745C349.036 125.31 348.93 124.885 348.761 124.47C348.591 124.056 348.376 123.668 348.115 123.308C347.866 122.934 347.578 122.605 347.252 122.319C346.574 121.727 345.945 121.409 345.365 121.365C344.797 121.333 344.327 121.531 343.955 121.959C343.671 122.286 343.536 122.644 343.551 123.033C343.578 123.434 343.774 123.882 344.138 124.378L345.576 126.268C346.238 127.157 346.606 127.978 346.681 128.73C346.767 129.47 346.526 130.167 345.957 130.821C345.454 131.4 344.866 131.759 344.191 131.9C343.53 132.052 342.818 131.994 342.057 131.726C341.319 131.457 340.58 130.999 339.84 130.351Z" fill="black"/>
<rect width="112.75" height="50.7759" rx="20" transform="matrix(0.603978 -0.797001 0.799087 0.601216 -2.25781 89.9907)" fill="#89CD8F"/>
<path d="M40.0904 91.8137L26.7656 81.7884L28.1094 80.0151L30.3469 81.6985L30.1959 81.8977C29.6245 81.1341 29.3555 80.2748 29.3892 79.3198C29.4228 78.3648 29.7718 77.449 30.4362 76.5723C31.0905 75.7088 31.8656 75.1136 32.7617 74.7867C33.6444 74.4497 34.6012 74.3874 35.6322 74.5999C36.6498 74.8024 37.678 75.2945 38.7168 76.076C39.7423 76.8476 40.5054 77.7033 41.006 78.6431C41.5034 79.5596 41.7119 80.4987 41.6315 81.4602C41.5479 82.3984 41.1789 83.2992 40.5246 84.1626C39.8703 85.026 39.0869 85.6046 38.1742 85.8982C37.2616 86.1919 36.3652 86.1744 35.485 85.8458L35.6511 85.6267L41.4644 90.0005L40.0904 91.8137ZM38.7692 83.4988C39.4336 82.6221 39.6557 81.6943 39.4357 80.7153C39.2023 79.7263 38.4996 78.7909 37.3276 77.9091C36.1556 77.0274 35.067 76.615 34.0618 76.6721C33.0566 76.7293 32.2218 77.1962 31.5574 78.0729C30.893 78.9496 30.6709 79.8774 30.8909 80.8564C31.111 81.8354 31.807 82.7658 32.979 83.6475C34.151 84.5293 35.2462 84.9467 36.2648 84.8996C37.27 84.8425 38.1048 84.3755 38.7692 83.4988ZM48.1787 74.0623C47.3835 75.1117 46.4992 75.8647 45.5259 76.3212C44.5493 76.7545 43.5321 76.8964 42.4742 76.7471C41.4031 76.5877 40.3547 76.1222 39.3292 75.3507C38.317 74.5891 37.5824 73.7235 37.1252 72.7539C36.6782 71.7709 36.5083 70.7671 36.6156 69.7425C36.733 68.7045 37.139 67.7273 37.8336 66.8107C38.508 65.9207 39.2749 65.3089 40.1343 64.9751C41.0037 64.6281 41.9238 64.5591 42.8946 64.7681C43.8622 64.9538 44.8454 65.4225 45.8443 66.174L46.5035 66.67L40.7808 74.2216L39.6222 73.3498L44.4389 66.9937L44.4619 67.5429C43.4231 66.7613 42.4529 66.3859 41.5512 66.4167C40.6363 66.4374 39.8467 66.8862 39.1823 67.7629C38.6991 68.4005 38.4395 69.0603 38.4036 69.7424C38.3543 70.4145 38.5121 71.0755 38.877 71.7254C39.2285 72.3653 39.7572 72.9508 40.4631 73.4819L40.5829 73.5721C41.382 74.1733 42.1502 74.5531 42.8875 74.7116C43.6216 74.8467 44.3147 74.7738 44.9668 74.4927C45.6056 74.2016 46.1968 73.6974 46.7404 72.9801C47.1732 72.409 47.5044 71.7926 47.7339 71.131C47.9602 70.4461 48.0614 69.7192 48.0376 68.9504L49.7189 69.3395C49.7863 70.0784 49.6781 70.8834 49.3944 71.7545C49.1074 72.6023 48.7022 73.3716 48.1787 74.0623ZM55.5083 71.4684L42.1835 61.4431L43.5274 59.6698L45.7648 61.3532L45.6138 61.5524C45.0424 60.7888 44.7735 59.9295 44.8071 58.9745C44.8407 58.0195 45.1897 57.1036 45.8541 56.2269C46.5084 55.3635 47.2836 54.7683 48.1796 54.4414C49.0624 54.1044 50.0192 54.0421 51.0501 54.2546C52.0677 54.4571 53.0959 54.9491 54.1347 55.7307C55.1602 56.5023 55.9233 57.358 56.424 58.2978C56.9214 59.2143 57.1299 60.1533 57.0495 61.1149C56.9659 62.0531 56.5969 62.9539 55.9426 63.8173C55.2883 64.6807 54.5048 65.2592 53.5922 65.5529C52.6796 65.8465 51.7832 65.8291 50.9029 65.5005L51.069 65.2813L56.8824 69.6552L55.5083 71.4684ZM54.1871 63.1535C54.8515 62.2768 55.0737 61.349 54.8536 60.37C54.6203 59.381 53.9176 58.4456 52.7456 57.5638C51.5736 56.682 50.485 56.2697 49.4798 56.3268C48.4745 56.3839 47.6398 56.8509 46.9754 57.7276C46.311 58.6043 46.0888 59.5321 46.3089 60.5111C46.5289 61.4901 47.2249 62.4204 48.3969 63.3022C49.5689 64.184 50.6642 64.6014 51.6827 64.5543C52.688 64.4971 53.5228 64.0302 54.1871 63.1535ZM63.6154 60.7703L50.2906 50.7451L51.6345 48.9717L53.8719 50.6551L53.7209 50.8544C53.1495 50.0908 52.8806 49.2314 52.9142 48.2764C52.9478 47.3215 53.2968 46.4056 53.9612 45.5289C54.6155 44.6655 55.3907 44.0703 56.2867 43.7433C57.1695 43.4063 58.1263 43.3441 59.1572 43.5566C60.1748 43.7591 61.203 44.2511 62.2418 45.0327C63.2673 45.8043 64.0304 46.6599 64.5311 47.5998C65.0285 48.5163 65.237 49.4553 65.1566 50.4168C65.073 51.355 64.704 52.2558 64.0497 53.1193C63.3954 53.9827 62.6119 54.5612 61.6993 54.8549C60.7867 55.1485 59.8903 55.1311 59.01 54.8025L59.1761 54.5833L64.9895 58.9572L63.6154 60.7703ZM62.2942 52.4555C62.9586 51.5788 63.1808 50.651 62.9607 49.672C62.7274 48.683 62.0247 47.7476 60.8527 46.8658C59.6807 45.984 58.5921 45.5717 57.5869 45.6288C56.5817 45.6859 55.7469 46.1528 55.0825 47.0295C54.4181 47.9062 54.1959 48.8341 54.416 49.8131C54.636 50.792 55.3321 51.7224 56.5041 52.6042C57.676 53.486 58.7713 53.9033 59.7898 53.8562C60.7951 53.7991 61.6299 53.3322 62.2942 52.4555ZM71.7038 43.019C70.9086 44.0684 70.0243 44.8213 69.051 45.2779C68.0744 45.7111 67.0572 45.8531 65.9993 45.7037C64.9281 45.5443 63.8798 45.0789 62.8543 44.3073C61.8421 43.5458 61.1074 42.6802 60.6503 41.7105C60.2032 40.7276 60.0334 39.7238 60.1407 38.6991C60.2581 37.6612 60.6641 36.6839 61.3586 35.7674C62.0331 34.8774 62.8 34.2655 63.6593 33.9318C64.5287 33.5848 65.4489 33.5158 66.4197 33.7248C67.3873 33.9105 68.3705 34.3791 69.3694 35.1306L70.0286 35.6266L64.3059 43.1782L63.1472 42.3065L67.964 35.9504L67.9869 36.4995C66.9481 35.7179 65.9779 35.3425 65.0763 35.3733C64.1614 35.3941 63.3717 35.8428 62.7073 36.7195C62.2242 37.3571 61.9646 38.017 61.9287 38.6991C61.8794 39.3712 62.0372 40.0322 62.402 40.6821C62.7536 41.322 63.2823 41.9075 63.9881 42.4386L64.108 42.5288C64.9071 43.13 65.6753 43.5098 66.4126 43.6682C67.1466 43.8034 67.8397 43.7304 68.4919 43.4494C69.1307 43.1583 69.7219 42.6541 70.2655 41.9368C70.6983 41.3656 71.0295 40.7492 71.259 40.0876C71.4853 39.4027 71.5865 38.6759 71.5626 37.9071L73.244 38.2961C73.3113 39.0351 73.2032 39.8401 72.9194 40.7112C72.6325 41.559 72.2273 42.3283 71.7038 43.019ZM75.4375 37.7196L65.7086 30.3998L67.0525 28.6264L69.3698 30.37L69.2188 30.5692C68.5808 29.7555 68.2734 28.9193 68.2966 28.0608C68.3066 27.1923 68.6255 26.2747 69.2535 25.308L69.6616 24.6453L71.3455 25.6932L70.5848 26.9041C70.0136 27.8509 69.7866 28.7438 69.9036 29.5827C70.0308 30.4084 70.5138 31.1369 71.3529 31.7681L76.8266 35.8865L75.4375 37.7196Z" fill="black"/>
<rect width="89.695" height="50.776" rx="20" transform="matrix(0.947519 -0.3197 0.322974 0.946408 68.5693 85.2543)" fill="#95F09D"/>
<path d="M102.349 108.913L98.4168 97.3907L100.525 96.6793L101.381 99.1873L101.12 99.2752C101.126 98.6223 101.244 98.0375 101.472 97.5206C101.696 96.9879 102.025 96.5338 102.46 96.1582C102.906 95.7616 103.437 95.4593 104.053 95.2515C105.032 94.9212 105.902 94.8914 106.664 95.1621C107.42 95.417 108.062 95.9831 108.591 96.8602L108.259 96.9721C108.247 96.0087 108.518 95.152 109.073 94.4022C109.643 93.647 110.417 93.1042 111.396 92.7739C112.265 92.4808 113.035 92.4145 113.706 92.5751C114.387 92.7145 114.986 93.0754 115.502 93.6577C116.012 94.2243 116.445 95.0281 116.8 96.0691L119.239 103.215L117.083 103.942L114.677 96.8911C114.332 95.8816 113.906 95.1989 113.397 94.8429C112.888 94.4869 112.223 94.4474 111.401 94.7245C110.801 94.927 110.329 95.2448 109.983 95.6779C109.638 96.111 109.436 96.6278 109.377 97.2283C109.317 97.8287 109.412 98.4917 109.659 99.2173L111.872 105.7L109.716 106.428L107.31 99.3768C106.965 98.3673 106.539 97.6845 106.03 97.3285C105.521 96.9726 104.856 96.9331 104.035 97.2102C103.434 97.4127 102.962 97.7305 102.616 98.1636C102.271 98.5967 102.069 99.1135 102.01 99.7139C101.95 100.314 102.045 100.977 102.292 101.703L104.505 108.186L102.349 108.913ZM116.43 88.2258L115.639 85.9071L118.221 85.0359L119.012 87.3546L116.43 88.2258ZM121.52 102.445L117.588 90.9221L119.744 90.1948L123.676 101.717L121.52 102.445ZM129.702 99.9217C128.47 100.337 127.427 100.302 126.575 99.8158C125.732 99.3084 125.085 98.3923 124.633 97.0673L120.265 84.2672L122.42 83.5398L126.732 96.1744C126.915 96.7107 127.142 97.1441 127.414 97.4747C127.695 97.7842 128.008 97.9778 128.351 98.0554C128.711 98.1277 129.111 98.0892 129.554 97.94C129.727 97.8814 129.898 97.8149 130.067 97.7405C130.251 97.6608 130.414 97.5706 130.555 97.47L131.106 99.2369C130.874 99.3852 130.638 99.5178 130.396 99.6346C130.17 99.7461 129.938 99.8418 129.702 99.9217ZM131.898 98.9432L126.205 82.2628L128.361 81.5355L131.857 91.7803L131.904 91.7643L135.356 84.9271L138.057 84.0159L133.925 92.1906L133.562 91.1259L142.439 95.3866L139.738 96.2977L132.276 92.8527L132.229 92.8687L134.053 98.2159L131.898 98.9432Z" fill="black"/>
<rect width="82.3141" height="50.7757" rx="20" transform="matrix(0.999671 0.0256602 -0.0221941 0.999754 259.113 161.557)" fill="#3FA14C"/>
<path d="M286.839 195.721C286.206 195.705 285.583 195.63 284.969 195.498C284.371 195.366 283.817 195.185 283.305 194.955C282.811 194.709 282.375 194.423 281.999 194.096L282.709 192.539C283.102 192.849 283.529 193.118 283.991 193.347C284.453 193.559 284.933 193.721 285.431 193.834C285.928 193.947 286.427 194.01 286.927 194.023C287.843 194.046 288.538 193.897 289.012 193.576C289.486 193.255 289.729 192.819 289.741 192.269C289.752 191.803 289.601 191.44 289.29 191.182C288.996 190.908 288.526 190.696 287.879 190.546L285.566 190.011C284.538 189.752 283.763 189.348 283.242 188.801C282.738 188.238 282.495 187.532 282.514 186.682C282.53 185.932 282.745 185.287 283.157 184.748C283.586 184.192 284.17 183.774 284.91 183.492C285.65 183.211 286.495 183.083 287.444 183.107C288.011 183.122 288.559 183.194 289.09 183.325C289.62 183.455 290.117 183.634 290.578 183.863C291.04 184.092 291.425 184.385 291.734 184.743L291 186.275C290.69 185.967 290.337 185.707 289.942 185.497C289.546 185.287 289.133 185.126 288.702 185.015C288.272 184.888 287.84 184.818 287.407 184.807C286.507 184.784 285.82 184.941 285.346 185.279C284.888 185.618 284.653 186.07 284.64 186.637C284.631 187.07 284.756 187.431 285.016 187.722C285.293 188.012 285.73 188.232 286.327 188.38L288.641 188.915C289.718 189.176 290.527 189.572 291.065 190.103C291.604 190.617 291.863 191.307 291.844 192.173C291.827 192.94 291.604 193.593 291.175 194.132C290.763 194.671 290.179 195.081 289.423 195.362C288.683 195.627 287.822 195.746 286.839 195.721ZM297.346 195.991C296.513 195.969 295.758 195.783 295.082 195.432C294.423 195.082 293.909 194.619 293.538 194.042C293.184 193.466 293.015 192.828 293.03 192.129C293.05 191.229 293.291 190.526 293.752 190.021C294.214 189.516 294.98 189.169 296.051 188.98C297.122 188.774 298.558 188.694 300.357 188.741L301.532 188.771L301.5 190.22L300.375 190.191C299.409 190.167 298.6 190.179 297.949 190.229C297.297 190.279 296.778 190.374 296.392 190.514C296.005 190.654 295.726 190.856 295.553 191.118C295.381 191.364 295.291 191.678 295.282 192.061C295.268 192.711 295.481 193.25 295.922 193.678C296.379 194.107 297.007 194.331 297.807 194.352C298.44 194.368 299.002 194.233 299.492 193.945C299.982 193.641 300.374 193.234 300.669 192.725C300.964 192.199 301.119 191.594 301.134 190.911L301.198 188.037C301.22 187.054 301.036 186.341 300.645 185.897C300.256 185.437 299.586 185.195 298.636 185.17C297.936 185.152 297.234 185.243 296.53 185.441C295.842 185.64 295.126 185.955 294.383 186.386L293.694 184.743C294.134 184.454 294.631 184.209 295.186 184.006C295.758 183.788 296.345 183.628 296.947 183.526C297.566 183.426 298.159 183.382 298.725 183.397C299.808 183.425 300.696 183.623 301.388 183.99C302.08 184.342 302.593 184.88 302.927 185.605C303.262 186.314 303.417 187.219 303.392 188.318L303.224 195.916L301.074 195.861L301.136 193.087L301.361 193.093C301.214 193.706 300.952 194.233 300.576 194.673C300.199 195.114 299.733 195.452 299.178 195.688C298.639 195.907 298.029 196.008 297.346 195.991ZM309.422 196.301C308.122 196.267 307.156 195.876 306.522 195.126C305.906 194.36 305.613 193.277 305.644 191.877L305.944 178.356L308.218 178.414L307.922 191.761C307.91 192.327 307.974 192.812 308.115 193.216C308.273 193.604 308.5 193.893 308.796 194.084C309.108 194.275 309.498 194.377 309.964 194.389C310.148 194.394 310.331 194.39 310.515 194.378C310.715 194.366 310.899 194.338 311.067 194.292L310.976 196.14C310.708 196.2 310.44 196.243 310.173 196.27C309.922 196.297 309.672 196.307 309.422 196.301ZM316.62 196.485C315.137 196.447 314.037 196.036 313.321 195.25C312.606 194.448 312.264 193.323 312.296 191.873L312.433 185.724L310.058 185.663L310.097 183.914L312.471 183.975L312.554 180.276L314.828 180.334L314.746 184.033L318.569 184.131L318.531 185.881L314.707 185.783L314.575 191.731C314.554 192.648 314.731 193.344 315.104 193.821C315.476 194.297 316.104 194.546 316.987 194.569C317.254 194.576 317.513 194.558 317.764 194.514C318.032 194.454 318.283 194.394 318.518 194.333L318.855 196.043C318.619 196.187 318.283 196.295 317.848 196.367C317.429 196.456 317.02 196.496 316.62 196.485Z" fill="black"/>
<rect width="81.5313" height="53.1188" rx="20" transform="matrix(0.979006 0.203832 -0.20044 0.979706 144.894 2.45581)" fill="#AAE7C3"/>
<path d="M161.82 39.9693L164.26 28.0413L166.438 28.4949L165.857 31.336L165.612 31.2851C166.074 30.3597 166.697 29.7234 167.483 29.3763C168.272 29.0128 169.237 28.9074 170.38 29.0602L171.154 29.1447L170.929 31.1153L169.509 30.9473C168.409 30.8373 167.505 31.0151 166.797 31.4807C166.106 31.9496 165.655 32.6984 165.444 33.7271L164.071 40.4381L161.82 39.9693ZM172.341 26.7362L172.832 24.3359L175.5 24.8914L175.009 27.2916L172.341 26.7362ZM169.535 41.5756L171.975 29.6477L174.203 30.1114L171.762 42.0393L169.535 41.5756ZM179.239 43.8257C178.031 43.5744 177.039 43.1038 176.261 42.4142C175.487 41.7083 174.958 40.8407 174.676 39.8114C174.396 38.7658 174.387 37.6063 174.647 36.3326C174.905 35.0753 175.363 34.0388 176.024 33.2229C176.684 32.407 177.505 31.8459 178.486 31.5395C179.467 31.2331 180.562 31.2056 181.769 31.457C182.52 31.6132 183.227 31.8967 183.892 32.3075C184.572 32.7216 185.101 33.2147 185.477 33.7867L184.422 35.2014C184.036 34.6783 183.587 34.2529 183.076 33.9251C182.565 33.5973 182.056 33.3808 181.55 33.2755C180.359 33.0275 179.36 33.2111 178.554 33.8263C177.748 34.4415 177.202 35.4431 176.918 36.831C176.635 38.219 176.737 39.3809 177.226 40.3169C177.718 41.2365 178.56 41.8204 179.751 42.0684C180.257 42.1737 180.809 42.1779 181.407 42.0812C182.005 41.9844 182.586 41.7649 183.15 41.4225L183.558 43.1674C182.988 43.5424 182.301 43.7824 181.497 43.8874C180.709 43.9958 179.956 43.9752 179.239 43.8257ZM189.496 45.9613C188.206 45.6929 187.147 45.217 186.317 44.5335C185.507 43.837 184.943 42.979 184.624 41.9593C184.308 40.9232 184.279 39.7766 184.537 38.5193C184.79 37.2783 185.257 36.2434 185.937 35.4146C186.634 34.5892 187.468 34.0053 188.439 33.6628C189.427 33.3238 190.484 33.2715 191.61 33.5059C192.703 33.7335 193.585 34.1639 194.255 34.7971C194.941 35.4337 195.398 36.2353 195.626 37.202C195.873 38.1557 195.871 39.2449 195.621 40.4695L195.455 41.2778L186.179 39.3465L186.47 37.9259L194.277 39.5514L193.791 39.8077C194.052 38.5341 193.975 37.4966 193.56 36.6953C193.149 35.8777 192.405 35.3568 191.328 35.1326C190.545 34.9695 189.838 35.018 189.206 35.278C188.578 35.5218 188.048 35.9478 187.618 36.5561C187.19 37.1481 186.888 37.8768 186.711 38.7422L186.681 38.8891C186.481 39.8689 186.467 40.7257 186.64 41.4597C186.833 42.1808 187.196 42.7756 187.729 43.2442C188.266 43.6965 188.975 44.0144 189.856 44.1978C190.558 44.3439 191.257 44.3787 191.953 44.3024C192.669 44.213 193.369 43.9928 194.053 43.6415L194.423 45.3273C193.784 45.705 193.01 45.9525 192.102 46.0698C191.213 46.1741 190.344 46.1379 189.496 45.9613Z" fill="black"/>
<path d="M246.385 134.679C239.791 139.678 231.545 141.988 223.314 141.141C215.083 140.294 207.48 136.354 202.042 130.117C196.604 123.879 193.736 115.81 194.019 107.54C194.302 99.2703 197.714 91.4159 203.565 85.5647C209.416 79.7135 217.27 76.3017 225.54 76.019C233.81 75.7362 241.879 78.6036 248.117 84.0415C254.354 89.4794 258.294 97.0824 259.141 105.314C259.988 113.545 257.678 121.791 252.679 128.385L269.88 145.586C270.318 145.994 270.669 146.486 270.912 147.032C271.155 147.578 271.286 148.168 271.297 148.766C271.307 149.364 271.197 149.957 270.973 150.512C270.749 151.066 270.416 151.57 269.993 151.993C269.57 152.416 269.067 152.749 268.512 152.973C267.958 153.197 267.364 153.307 266.766 153.297C266.168 153.286 265.578 153.155 265.032 152.912C264.486 152.668 263.994 152.318 263.586 151.88L246.385 134.679ZM250.405 108.655C250.405 102.356 247.903 96.3152 243.449 91.8612C238.995 87.4072 232.954 84.905 226.655 84.905C220.356 84.905 214.315 87.4072 209.861 91.8612C205.407 96.3152 202.905 102.356 202.905 108.655C202.905 114.954 205.407 120.995 209.861 125.449C214.315 129.903 220.356 132.405 226.655 132.405C232.954 132.405 238.995 129.903 243.449 125.449C247.903 120.995 250.405 114.954 250.405 108.655Z" fill="#6CAE79"/>
</g>
<defs>
<clipPath id="clip0_792_398">
<rect width="377" height="220" fill="white"/>
</clipPath>
</defs>
</svg>
