<svg width="938" height="1142" viewBox="0 0 938 1142" fill="none" xmlns="http://www.w3.org/2000/svg">
<path d="M691.57 483.617C701.168 481.417 709.569 483.551 715.483 486.372L716.049 486.647L716.178 486.712C716.036 486.641 716.098 486.68 716.603 486.892C716.85 486.996 717.134 487.112 717.543 487.278L718.962 487.858L719.007 487.876L719.052 487.896C729.578 492.282 739.793 497.111 749.725 502.249L749.724 502.25C752.621 503.747 755.011 505.312 756.529 506.335C758.758 507.836 758.53 507.727 759.594 508.419L759.599 508.422C784.043 524.343 805.659 543.188 825.009 564.095L826.694 565.93C843.464 584.341 857.709 604.518 869.531 626.302L870.705 628.485L870.707 628.488C879.283 644.592 886.237 661.329 891.643 678.645L892.161 680.322L892.163 680.33C898.282 700.361 902.095 720.807 903.704 741.607L903.705 741.613C906.649 779.736 902.032 816.933 890.555 853.025L890.556 853.026C886.242 866.602 880.811 882.065 872.414 896.985L872.411 896.99C865.542 909.19 858.322 921.063 850.982 932.629L850.979 932.635C845.607 941.095 839.546 950.191 832.562 958.994L832.562 958.993C802.061 997.441 765.361 1028.58 723.602 1053.22L723.601 1053.22C720.168 1055.25 716.854 1056.89 714.353 1058.11C711.502 1059.5 709.925 1060.23 708.194 1061.14C680.116 1075.91 650.74 1087.14 620.282 1095.14L620.283 1095.14C597.147 1101.22 573.62 1105.34 549.739 1107.44L549.74 1107.44C526.682 1109.48 503.499 1109.74 480.216 1107.99V1107.99C430.008 1104.23 381.72 1091.89 335.864 1069.99V1069.99C321.249 1063.01 306.944 1055.06 293.175 1045.94L293.17 1045.94C248.327 1016.22 210.972 978.216 184.199 929.869L184.195 929.861C167.017 898.82 155.415 865.603 149.961 830.25L149.96 830.243C147.356 813.342 146.187 796.099 146.877 778.58H146.876C147.434 764.355 149.127 750.426 151.67 736.767L151.673 736.755C155.343 717.081 161.027 698.058 168.682 679.647L168.685 679.641C168.861 679.217 169.911 676.59 171.215 674.187C172.63 671.579 176.472 665.041 184.469 660.397C192.577 655.69 200.267 655.637 203.421 655.746C206.193 655.842 209.024 656.286 209.454 656.349H209.455C218.005 657.564 224.001 658.609 230.687 659.384L232.034 659.535L232.05 659.537C241.497 660.569 250.862 660.592 260.172 659.569H260.173C268.281 658.679 275.002 657.605 281.054 655.901L281.06 655.899C287.599 654.06 294.419 650.779 302.644 645.913C311.23 640.825 318.529 635.738 324.698 630.091L324.705 630.085C328.501 626.613 332.22 622.551 336.228 617.71L336.246 617.688L336.264 617.665C340.876 612.114 344.649 607.289 347.864 602.354C352.801 593.561 355.223 589.81 357.117 584.921C358.779 580.631 359.439 577.379 359.531 574.71L359.533 574.632C359.543 574.368 359.554 574.141 359.562 573.978C359.569 573.848 359.575 573.728 359.579 573.659L359.594 573.266L359.634 572.71C359.737 571.26 360.015 567.654 361.221 563.601C362.445 559.482 365.81 550.869 375.039 544.71C384.363 538.488 393.719 538.73 398.168 539.254C402.378 539.75 405.806 540.928 407.203 541.422L410.199 542.461C416.551 544.631 422.028 546.276 427.244 547.332L428.444 547.564L428.453 547.566C435.794 548.936 441.556 550.019 447.195 550.64L447.215 550.642C462.338 552.314 476.268 553.451 489.828 553.191L492.625 553.132C506.579 552.803 520.095 552.011 533.31 550.388L533.322 550.386C537.375 549.89 541.417 549.492 544.923 549.137C548.573 548.767 551.768 548.433 554.851 548.025L554.863 548.023C562.777 546.98 570.828 544.928 581.128 542.245L581.13 542.244C593.13 539.119 604.284 535.82 614.771 531.788L616.86 530.972C629.245 526.046 640.408 520.089 650.278 512.743L650.281 512.74C657.134 507.641 663.403 502.372 671.335 495.968C671.561 495.781 672.043 495.349 672.847 494.497L672.851 494.493C676.117 491.031 682.237 485.757 691.57 483.617ZM426.011 688.808C424.968 688.64 424.166 688.748 423.343 689.069L423.342 689.068C421.218 689.899 420.022 690.928 419.101 692.328L418.92 692.613C416.137 697.16 413.865 702.874 411.619 710.633L411.616 710.643C410.278 715.261 409.744 720.763 409.302 729.743V729.745C408.896 737.984 410.445 743.768 413.569 748.65L414.126 749.508C416.452 753.04 417.654 754.236 418.252 754.713L418.487 754.888L418.497 754.895C419.962 755.907 420.832 756.389 421.288 756.612C422.113 756.663 422.919 756.619 425.898 756.621C426.613 756.475 427.125 756.345 427.494 756.232C427.619 756.194 427.714 756.16 427.782 756.136C429.425 755.057 430.64 753.789 431.563 752.299L431.571 752.287C435.963 745.205 438.565 737.614 439.503 729.021C440.53 719.556 440.538 713.157 439.395 707.795L438.839 705.2C438.338 702.875 437.98 701.281 437.543 699.727C437.022 697.874 436.672 697.186 436.599 697.053L436.598 697.051C433.436 691.314 430.41 689.529 426.011 688.808ZM623.513 674.007C623.205 674.162 622.732 674.431 622.098 674.882L622.085 674.89L622.073 674.898C620.922 675.713 619.472 677.131 617.797 679.917L617.794 679.923C613.951 686.314 611.859 693.877 611.533 703.567V703.574C611.339 709.301 612.285 715.744 614.371 724.012C615.677 729.161 617.649 733.515 620.252 737.239H620.251C622.978 741.136 625.35 742.501 627.904 743.167H627.903C628.747 743.385 629.326 743.503 629.701 743.564C629.806 743.582 629.884 743.59 629.935 743.597C630.814 743.589 632.22 743.381 634.369 742.371L635.033 742.044C636.495 741.289 637.346 740.597 637.84 740.104C638.357 739.588 638.804 738.976 639.205 738.008C641.517 732.399 642.734 727.14 642.895 721.588C642.905 721.098 642.917 720.624 642.927 720.218C642.94 719.707 642.95 719.29 642.958 718.889V718.881C643.164 708.789 641.716 699.454 638.53 690.697L638.528 690.691C635.453 682.235 630.926 677.389 624.045 674.229V674.228C623.833 674.131 623.656 674.061 623.513 674.007Z" fill="#98E094" stroke="white" stroke-width="65"/>
<mask id="path-2-outside-1_1190_166" maskUnits="userSpaceOnUse" x="155.791" y="0" width="699" height="526" fill="black">
<rect fill="white" x="155.791" width="699" height="526"/>
<path d="M566.002 452.385C553.692 455.635 541.372 457.555 528.962 458.995C512.662 460.885 496.292 461.115 479.932 460.395C461.392 459.585 442.982 457.555 424.942 452.805C417.952 450.965 410.792 449.785 403.742 448.175C394.202 445.985 384.882 443.095 375.932 439.075C371.902 437.265 367.892 435.385 363.962 433.355C359.232 430.905 356.172 426.965 354.772 421.845C351.772 410.945 348.882 400.025 345.902 389.115C344.992 385.805 343.942 382.525 342.952 379.235C342.072 376.315 342.232 376.025 345.052 375.165C347.042 374.555 349.022 373.925 351.002 373.285C351.522 373.115 352.142 373.045 352.512 372.705C354.522 370.855 357.242 370.775 359.582 369.755C365.702 367.095 371.932 364.635 377.322 360.545C378.092 359.955 379.082 359.655 379.892 359.115C382.892 357.095 385.872 355.065 388.822 352.975C390.722 351.625 390.972 351.625 392.842 352.995C405.672 362.355 419.552 369.285 435.092 373.235C448.072 376.545 461.002 376.685 474.122 375.605C475.202 375.515 476.272 375.295 477.322 375.025C477.772 374.905 478.142 374.495 478.622 374.165C477.842 373.015 476.752 373.165 475.832 373.005C471.292 372.195 466.712 371.575 462.212 370.615C447.982 367.585 434.882 361.785 422.672 353.965C418.792 351.475 415.052 348.775 411.242 346.165C405.742 342.405 401.202 337.625 396.802 332.685C396.442 332.275 396.132 331.825 395.752 331.445C394.532 330.225 393.862 330.135 392.412 331.015C391.872 331.345 391.402 331.785 390.872 332.125C381.912 337.915 373.122 343.985 363.942 349.415C353.732 355.455 342.482 358.845 330.822 360.985C318.042 363.335 305.602 362.105 293.392 357.995C290.242 356.935 287.242 355.375 284.242 353.915C277.692 350.735 272.662 345.705 269.022 339.595C264.302 331.655 261.482 322.975 261.562 313.575C261.582 311.135 261.612 308.685 261.832 306.255C262.032 304.055 261.232 302.705 259.242 301.735C255.752 300.035 252.252 298.295 248.942 296.275C240.322 290.995 233.082 284.195 228.032 275.395C218.692 259.145 218.422 242.485 227.022 225.895C234.422 211.605 245.932 201.385 260.192 194.175C270.382 189.025 281.242 185.875 292.492 184.335C299.022 183.445 305.672 183.455 312.222 184.555C320.352 185.925 328.342 187.875 336.052 190.855C337.732 191.505 339.382 192.275 340.992 193.095C342.682 193.955 344.042 193.775 345.352 192.345C350.162 187.095 356.142 183.625 362.732 181.095C367.072 179.425 371.532 178.365 376.162 178.015C377.152 177.945 378.162 177.895 379.112 177.645C380.262 177.345 380.502 176.505 379.762 175.605C379.372 175.125 378.852 174.725 378.332 174.365C370.462 168.985 362.122 167.475 353.172 171.385C350.612 172.505 348.122 173.815 345.652 175.135C344.302 175.855 343.042 176.195 341.532 175.635C335.152 173.265 328.502 171.885 321.832 170.655C318.612 170.065 318.102 169.735 317.842 166.535C317.192 158.575 317.822 150.795 322.022 143.705C327.462 134.505 335.112 127.765 344.532 122.725C357.152 115.985 369.422 117.705 381.692 123.435C383.732 124.385 385.642 125.625 387.642 126.695C389.592 127.735 390.282 127.545 391.432 125.715C391.672 125.335 391.872 124.925 392.072 124.525C399.182 110.395 409.572 99.1253 422.372 90.0053C438.802 78.2953 457.222 71.3553 476.952 67.7553C493.062 64.8153 509.292 64.2053 525.582 66.0353C532.852 66.8553 540.112 67.8153 547.382 68.6953C548.562 68.8353 549.612 69.0853 550.522 70.0353C551.092 70.6253 552.092 70.8952 552.952 71.1252C567.042 74.8052 580.412 80.2453 593.052 87.4353C610.102 97.1153 624.632 109.665 635.932 125.795C638.772 129.855 638.792 129.885 634.882 132.945C630.212 136.595 626.182 140.865 622.802 145.705C621.512 147.545 620.042 148.325 617.802 148.115C603.932 146.805 592.312 152.015 582.002 160.765C576.992 165.015 573.472 170.335 571.592 176.655C571.162 178.115 570.912 179.655 570.822 181.175C570.752 182.355 571.582 182.765 572.652 182.165C573.272 181.815 573.782 181.255 574.372 180.855C578.402 178.115 582.242 175.015 586.522 172.735C596.182 167.565 606.412 166.425 616.992 169.695C618.632 170.205 620.272 170.725 621.922 171.195C624.362 171.895 624.742 171.725 626.292 169.735C628.522 166.885 630.682 163.975 633.082 161.275C638.142 155.565 643.882 150.505 650.212 146.325C653.992 143.835 658.482 142.215 662.852 140.865C673.332 137.625 684.002 137.035 694.672 140.085C706.472 143.465 715.012 150.805 720.422 161.775C721.622 164.205 722.612 166.745 723.522 169.295C724.242 171.315 725.482 172.645 727.422 173.525C736.532 177.645 744.932 182.935 752.712 189.215C767.662 201.285 779.242 215.865 785.392 234.265C791.782 253.375 790.972 272.175 782.142 290.445C774.732 305.765 763.112 317.175 748.602 325.695C730.042 336.595 709.802 341.375 688.392 341.145C677.062 341.025 665.872 339.285 654.792 336.895C647.992 335.425 641.172 334.015 634.672 331.395C632.122 330.365 630.822 330.985 629.452 333.685C627.152 338.215 624.702 342.625 621.372 346.505C617.122 351.445 612.772 356.255 607.632 360.325C601.782 364.945 595.222 368.065 588.072 369.985C584.932 370.825 581.732 371.465 578.542 372.085C572.952 373.165 567.392 373.045 561.862 371.595C560.732 371.295 559.562 371.045 558.402 370.965C557.852 370.925 556.942 371.195 556.782 371.575C556.562 372.125 556.632 373.085 556.992 373.535C557.832 374.575 558.852 375.515 559.932 376.305C562.832 378.405 566.132 379.695 569.612 380.415C577.892 382.115 586.202 382.925 594.672 381.735C602.662 380.605 609.792 377.475 616.332 372.935C621.322 369.475 625.952 365.525 629.882 360.885C632.262 358.075 634.282 354.935 636.352 351.875C637.842 349.675 637.962 349.545 640.522 350.285C647.122 352.195 653.692 354.255 660.342 355.945C664.622 357.035 669.032 357.585 673.392 358.355C674.102 358.485 674.842 358.465 675.552 358.585C677.382 358.895 677.712 359.295 677.292 361.155C676.592 364.245 675.772 367.295 675.012 370.375C672.482 380.555 669.882 390.715 667.492 400.935C666.672 404.455 664.952 407.245 662.322 409.615C658.342 413.205 653.992 416.235 649.302 418.845C630.932 429.095 611.712 437.505 591.932 444.575C583.492 447.555 574.792 449.755 566.002 452.385Z"/>
</mask>
<path d="M566.002 452.385C553.692 455.635 541.372 457.555 528.962 458.995C512.662 460.885 496.292 461.115 479.932 460.395C461.392 459.585 442.982 457.555 424.942 452.805C417.952 450.965 410.792 449.785 403.742 448.175C394.202 445.985 384.882 443.095 375.932 439.075C371.902 437.265 367.892 435.385 363.962 433.355C359.232 430.905 356.172 426.965 354.772 421.845C351.772 410.945 348.882 400.025 345.902 389.115C344.992 385.805 343.942 382.525 342.952 379.235C342.072 376.315 342.232 376.025 345.052 375.165C347.042 374.555 349.022 373.925 351.002 373.285C351.522 373.115 352.142 373.045 352.512 372.705C354.522 370.855 357.242 370.775 359.582 369.755C365.702 367.095 371.932 364.635 377.322 360.545C378.092 359.955 379.082 359.655 379.892 359.115C382.892 357.095 385.872 355.065 388.822 352.975C390.722 351.625 390.972 351.625 392.842 352.995C405.672 362.355 419.552 369.285 435.092 373.235C448.072 376.545 461.002 376.685 474.122 375.605C475.202 375.515 476.272 375.295 477.322 375.025C477.772 374.905 478.142 374.495 478.622 374.165C477.842 373.015 476.752 373.165 475.832 373.005C471.292 372.195 466.712 371.575 462.212 370.615C447.982 367.585 434.882 361.785 422.672 353.965C418.792 351.475 415.052 348.775 411.242 346.165C405.742 342.405 401.202 337.625 396.802 332.685C396.442 332.275 396.132 331.825 395.752 331.445C394.532 330.225 393.862 330.135 392.412 331.015C391.872 331.345 391.402 331.785 390.872 332.125C381.912 337.915 373.122 343.985 363.942 349.415C353.732 355.455 342.482 358.845 330.822 360.985C318.042 363.335 305.602 362.105 293.392 357.995C290.242 356.935 287.242 355.375 284.242 353.915C277.692 350.735 272.662 345.705 269.022 339.595C264.302 331.655 261.482 322.975 261.562 313.575C261.582 311.135 261.612 308.685 261.832 306.255C262.032 304.055 261.232 302.705 259.242 301.735C255.752 300.035 252.252 298.295 248.942 296.275C240.322 290.995 233.082 284.195 228.032 275.395C218.692 259.145 218.422 242.485 227.022 225.895C234.422 211.605 245.932 201.385 260.192 194.175C270.382 189.025 281.242 185.875 292.492 184.335C299.022 183.445 305.672 183.455 312.222 184.555C320.352 185.925 328.342 187.875 336.052 190.855C337.732 191.505 339.382 192.275 340.992 193.095C342.682 193.955 344.042 193.775 345.352 192.345C350.162 187.095 356.142 183.625 362.732 181.095C367.072 179.425 371.532 178.365 376.162 178.015C377.152 177.945 378.162 177.895 379.112 177.645C380.262 177.345 380.502 176.505 379.762 175.605C379.372 175.125 378.852 174.725 378.332 174.365C370.462 168.985 362.122 167.475 353.172 171.385C350.612 172.505 348.122 173.815 345.652 175.135C344.302 175.855 343.042 176.195 341.532 175.635C335.152 173.265 328.502 171.885 321.832 170.655C318.612 170.065 318.102 169.735 317.842 166.535C317.192 158.575 317.822 150.795 322.022 143.705C327.462 134.505 335.112 127.765 344.532 122.725C357.152 115.985 369.422 117.705 381.692 123.435C383.732 124.385 385.642 125.625 387.642 126.695C389.592 127.735 390.282 127.545 391.432 125.715C391.672 125.335 391.872 124.925 392.072 124.525C399.182 110.395 409.572 99.1253 422.372 90.0053C438.802 78.2953 457.222 71.3553 476.952 67.7553C493.062 64.8153 509.292 64.2053 525.582 66.0353C532.852 66.8553 540.112 67.8153 547.382 68.6953C548.562 68.8353 549.612 69.0853 550.522 70.0353C551.092 70.6253 552.092 70.8952 552.952 71.1252C567.042 74.8052 580.412 80.2453 593.052 87.4353C610.102 97.1153 624.632 109.665 635.932 125.795C638.772 129.855 638.792 129.885 634.882 132.945C630.212 136.595 626.182 140.865 622.802 145.705C621.512 147.545 620.042 148.325 617.802 148.115C603.932 146.805 592.312 152.015 582.002 160.765C576.992 165.015 573.472 170.335 571.592 176.655C571.162 178.115 570.912 179.655 570.822 181.175C570.752 182.355 571.582 182.765 572.652 182.165C573.272 181.815 573.782 181.255 574.372 180.855C578.402 178.115 582.242 175.015 586.522 172.735C596.182 167.565 606.412 166.425 616.992 169.695C618.632 170.205 620.272 170.725 621.922 171.195C624.362 171.895 624.742 171.725 626.292 169.735C628.522 166.885 630.682 163.975 633.082 161.275C638.142 155.565 643.882 150.505 650.212 146.325C653.992 143.835 658.482 142.215 662.852 140.865C673.332 137.625 684.002 137.035 694.672 140.085C706.472 143.465 715.012 150.805 720.422 161.775C721.622 164.205 722.612 166.745 723.522 169.295C724.242 171.315 725.482 172.645 727.422 173.525C736.532 177.645 744.932 182.935 752.712 189.215C767.662 201.285 779.242 215.865 785.392 234.265C791.782 253.375 790.972 272.175 782.142 290.445C774.732 305.765 763.112 317.175 748.602 325.695C730.042 336.595 709.802 341.375 688.392 341.145C677.062 341.025 665.872 339.285 654.792 336.895C647.992 335.425 641.172 334.015 634.672 331.395C632.122 330.365 630.822 330.985 629.452 333.685C627.152 338.215 624.702 342.625 621.372 346.505C617.122 351.445 612.772 356.255 607.632 360.325C601.782 364.945 595.222 368.065 588.072 369.985C584.932 370.825 581.732 371.465 578.542 372.085C572.952 373.165 567.392 373.045 561.862 371.595C560.732 371.295 559.562 371.045 558.402 370.965C557.852 370.925 556.942 371.195 556.782 371.575C556.562 372.125 556.632 373.085 556.992 373.535C557.832 374.575 558.852 375.515 559.932 376.305C562.832 378.405 566.132 379.695 569.612 380.415C577.892 382.115 586.202 382.925 594.672 381.735C602.662 380.605 609.792 377.475 616.332 372.935C621.322 369.475 625.952 365.525 629.882 360.885C632.262 358.075 634.282 354.935 636.352 351.875C637.842 349.675 637.962 349.545 640.522 350.285C647.122 352.195 653.692 354.255 660.342 355.945C664.622 357.035 669.032 357.585 673.392 358.355C674.102 358.485 674.842 358.465 675.552 358.585C677.382 358.895 677.712 359.295 677.292 361.155C676.592 364.245 675.772 367.295 675.012 370.375C672.482 380.555 669.882 390.715 667.492 400.935C666.672 404.455 664.952 407.245 662.322 409.615C658.342 413.205 653.992 416.235 649.302 418.845C630.932 429.095 611.712 437.505 591.932 444.575C583.492 447.555 574.792 449.755 566.002 452.385Z" fill="#98E094"/>
<path d="M566.002 452.385C553.692 455.635 541.372 457.555 528.962 458.995C512.662 460.885 496.292 461.115 479.932 460.395C461.392 459.585 442.982 457.555 424.942 452.805C417.952 450.965 410.792 449.785 403.742 448.175C394.202 445.985 384.882 443.095 375.932 439.075C371.902 437.265 367.892 435.385 363.962 433.355C359.232 430.905 356.172 426.965 354.772 421.845C351.772 410.945 348.882 400.025 345.902 389.115C344.992 385.805 343.942 382.525 342.952 379.235C342.072 376.315 342.232 376.025 345.052 375.165C347.042 374.555 349.022 373.925 351.002 373.285C351.522 373.115 352.142 373.045 352.512 372.705C354.522 370.855 357.242 370.775 359.582 369.755C365.702 367.095 371.932 364.635 377.322 360.545C378.092 359.955 379.082 359.655 379.892 359.115C382.892 357.095 385.872 355.065 388.822 352.975C390.722 351.625 390.972 351.625 392.842 352.995C405.672 362.355 419.552 369.285 435.092 373.235C448.072 376.545 461.002 376.685 474.122 375.605C475.202 375.515 476.272 375.295 477.322 375.025C477.772 374.905 478.142 374.495 478.622 374.165C477.842 373.015 476.752 373.165 475.832 373.005C471.292 372.195 466.712 371.575 462.212 370.615C447.982 367.585 434.882 361.785 422.672 353.965C418.792 351.475 415.052 348.775 411.242 346.165C405.742 342.405 401.202 337.625 396.802 332.685C396.442 332.275 396.132 331.825 395.752 331.445C394.532 330.225 393.862 330.135 392.412 331.015C391.872 331.345 391.402 331.785 390.872 332.125C381.912 337.915 373.122 343.985 363.942 349.415C353.732 355.455 342.482 358.845 330.822 360.985C318.042 363.335 305.602 362.105 293.392 357.995C290.242 356.935 287.242 355.375 284.242 353.915C277.692 350.735 272.662 345.705 269.022 339.595C264.302 331.655 261.482 322.975 261.562 313.575C261.582 311.135 261.612 308.685 261.832 306.255C262.032 304.055 261.232 302.705 259.242 301.735C255.752 300.035 252.252 298.295 248.942 296.275C240.322 290.995 233.082 284.195 228.032 275.395C218.692 259.145 218.422 242.485 227.022 225.895C234.422 211.605 245.932 201.385 260.192 194.175C270.382 189.025 281.242 185.875 292.492 184.335C299.022 183.445 305.672 183.455 312.222 184.555C320.352 185.925 328.342 187.875 336.052 190.855C337.732 191.505 339.382 192.275 340.992 193.095C342.682 193.955 344.042 193.775 345.352 192.345C350.162 187.095 356.142 183.625 362.732 181.095C367.072 179.425 371.532 178.365 376.162 178.015C377.152 177.945 378.162 177.895 379.112 177.645C380.262 177.345 380.502 176.505 379.762 175.605C379.372 175.125 378.852 174.725 378.332 174.365C370.462 168.985 362.122 167.475 353.172 171.385C350.612 172.505 348.122 173.815 345.652 175.135C344.302 175.855 343.042 176.195 341.532 175.635C335.152 173.265 328.502 171.885 321.832 170.655C318.612 170.065 318.102 169.735 317.842 166.535C317.192 158.575 317.822 150.795 322.022 143.705C327.462 134.505 335.112 127.765 344.532 122.725C357.152 115.985 369.422 117.705 381.692 123.435C383.732 124.385 385.642 125.625 387.642 126.695C389.592 127.735 390.282 127.545 391.432 125.715C391.672 125.335 391.872 124.925 392.072 124.525C399.182 110.395 409.572 99.1253 422.372 90.0053C438.802 78.2953 457.222 71.3553 476.952 67.7553C493.062 64.8153 509.292 64.2053 525.582 66.0353C532.852 66.8553 540.112 67.8153 547.382 68.6953C548.562 68.8353 549.612 69.0853 550.522 70.0353C551.092 70.6253 552.092 70.8952 552.952 71.1252C567.042 74.8052 580.412 80.2453 593.052 87.4353C610.102 97.1153 624.632 109.665 635.932 125.795C638.772 129.855 638.792 129.885 634.882 132.945C630.212 136.595 626.182 140.865 622.802 145.705C621.512 147.545 620.042 148.325 617.802 148.115C603.932 146.805 592.312 152.015 582.002 160.765C576.992 165.015 573.472 170.335 571.592 176.655C571.162 178.115 570.912 179.655 570.822 181.175C570.752 182.355 571.582 182.765 572.652 182.165C573.272 181.815 573.782 181.255 574.372 180.855C578.402 178.115 582.242 175.015 586.522 172.735C596.182 167.565 606.412 166.425 616.992 169.695C618.632 170.205 620.272 170.725 621.922 171.195C624.362 171.895 624.742 171.725 626.292 169.735C628.522 166.885 630.682 163.975 633.082 161.275C638.142 155.565 643.882 150.505 650.212 146.325C653.992 143.835 658.482 142.215 662.852 140.865C673.332 137.625 684.002 137.035 694.672 140.085C706.472 143.465 715.012 150.805 720.422 161.775C721.622 164.205 722.612 166.745 723.522 169.295C724.242 171.315 725.482 172.645 727.422 173.525C736.532 177.645 744.932 182.935 752.712 189.215C767.662 201.285 779.242 215.865 785.392 234.265C791.782 253.375 790.972 272.175 782.142 290.445C774.732 305.765 763.112 317.175 748.602 325.695C730.042 336.595 709.802 341.375 688.392 341.145C677.062 341.025 665.872 339.285 654.792 336.895C647.992 335.425 641.172 334.015 634.672 331.395C632.122 330.365 630.822 330.985 629.452 333.685C627.152 338.215 624.702 342.625 621.372 346.505C617.122 351.445 612.772 356.255 607.632 360.325C601.782 364.945 595.222 368.065 588.072 369.985C584.932 370.825 581.732 371.465 578.542 372.085C572.952 373.165 567.392 373.045 561.862 371.595C560.732 371.295 559.562 371.045 558.402 370.965C557.852 370.925 556.942 371.195 556.782 371.575C556.562 372.125 556.632 373.085 556.992 373.535C557.832 374.575 558.852 375.515 559.932 376.305C562.832 378.405 566.132 379.695 569.612 380.415C577.892 382.115 586.202 382.925 594.672 381.735C602.662 380.605 609.792 377.475 616.332 372.935C621.322 369.475 625.952 365.525 629.882 360.885C632.262 358.075 634.282 354.935 636.352 351.875C637.842 349.675 637.962 349.545 640.522 350.285C647.122 352.195 653.692 354.255 660.342 355.945C664.622 357.035 669.032 357.585 673.392 358.355C674.102 358.485 674.842 358.465 675.552 358.585C677.382 358.895 677.712 359.295 677.292 361.155C676.592 364.245 675.772 367.295 675.012 370.375C672.482 380.555 669.882 390.715 667.492 400.935C666.672 404.455 664.952 407.245 662.322 409.615C658.342 413.205 653.992 416.235 649.302 418.845C630.932 429.095 611.712 437.505 591.932 444.575C583.492 447.555 574.792 449.755 566.002 452.385Z" stroke="white" stroke-width="130" mask="url(#path-2-outside-1_1190_166)"/>
<path d="M85.0269 471.979C85.0548 472.001 85.1038 472.038 85.2231 472.126C85.2951 472.18 85.3553 472.224 85.478 472.315C85.581 472.391 85.7428 472.51 85.9165 472.64C86.4956 473.073 88.2456 474.376 90.1421 476.237L90.229 476.322L90.3159 476.408C94.0844 480.161 94.8474 481.097 97.3101 483.454L97.3159 483.459L97.3228 483.465C103.685 489.56 109.915 494.536 116.333 498.393L117.289 498.956C127.187 504.656 137.541 506.848 149.209 505.693C157.529 504.864 165.269 502.516 172.711 498.551L172.725 498.543C176.665 496.447 180.727 493.784 185.514 490.352C195.356 483.288 205.579 477.766 214.246 473.205L214.25 473.203C227.292 466.342 240.9 461.651 254.774 458.725L254.782 458.723C281.558 453.083 307.576 456.115 331.998 466.262L333.16 466.751L333.165 466.753C343.065 470.969 351.776 476.321 358.502 480.5H358.503C370.133 487.725 378.011 497.457 382.723 503.318L383.25 503.977C387.945 509.918 391.492 515.991 394.197 520.899L395.344 523L396.394 524.935L397.174 526.994C399.586 533.362 400.38 535.98 401.832 539.405L402.13 540.102L402.135 540.111L402.139 540.12C404.208 544.87 405.284 549.234 405.89 551.854C406.503 554.507 406.63 555.206 406.78 555.833L406.957 556.508L406.962 556.527L406.967 556.545C409.404 565.209 408.316 572.527 407.649 576.101L407.633 576.187L407.617 576.273C407.124 578.834 406.798 581.552 406.274 585.866L406.271 585.892L406.267 585.918C405.233 594.317 402.934 603.546 398.304 612.566L398.302 612.571C391.474 625.869 382.714 640.312 370.205 653.169L370.204 653.168C350.603 673.33 327.292 688.816 300.013 698.339L300.012 698.338C291.817 701.2 282.061 704.193 271.258 705.703L271.257 705.702C268.309 706.115 265.706 706.23 264.053 706.284C261.63 706.363 261.854 706.326 260.747 706.378L260.696 706.38L260.644 706.383C257.148 706.539 257.521 706.459 255.931 706.564L255.93 706.563C237.955 707.78 219.875 706.643 201.847 702.682V702.683C201.839 702.681 201.83 702.679 201.822 702.677C201.802 702.673 201.782 702.669 201.762 702.665V702.664C199.931 702.262 198.435 701.804 197.756 701.593C197.568 701.535 197.395 701.48 197.277 701.443C197.139 701.399 197.075 701.379 197.007 701.358L197.103 701.384L175.888 695.323L174.032 676.758C170.141 676.652 166.216 676.386 162.265 675.938V675.937C155.858 675.212 148.821 674.2 143.47 673.505L143.431 673.5L143.392 673.495C136.617 672.599 128.868 669.96 121.893 664.006L120.543 662.862C113.589 656.994 103.632 649.016 95.3999 641.283C84.5456 631.087 74.6312 619.676 66.0601 606.958L66.0542 606.95L66.0493 606.941C65.1822 605.653 64.6278 604.959 62.7603 602.363C61.2648 600.284 59.0864 597.178 57.0552 593.48L57.0513 593.474L57.0474 593.467C54.8679 589.495 49.7634 580.915 46.5786 571.627L46.5757 571.618L46.5728 571.609C44.0327 564.188 40.6084 554.731 37.9155 545.387L37.5142 543.949C35.577 536.775 34.6944 529.92 34.1274 524.653L34.1255 524.629C33.2985 516.892 32.9444 508.414 32.5776 502.696L32.5796 502.695C32.4148 500.131 32.5512 498.029 32.5991 497.289C32.6183 496.992 32.6602 496.403 32.6616 496.383C32.6735 496.212 32.6786 496.121 32.6821 496.05L35.812 433.907L85.0269 471.979Z" fill="#98E094" stroke="white" stroke-width="65"/>
<path d="M659.505 389.986C675.077 380.378 690.281 384.945 697.117 388.003L697.118 388.001C705.337 391.673 711.045 397.134 714.857 401.859L715.594 402.794L715.614 402.819L715.633 402.844C723.383 412.93 728.093 425.104 728.575 438.429L728.608 439.722V439.752C728.716 447.171 727.624 453.906 726.701 458.723L726.698 458.738L726.695 458.753C724.285 471.262 721.618 483.83 719.152 495.787C718.836 497.331 717.955 502.181 716.573 506.683L716.574 506.684C714.953 511.968 712.084 517.74 707.57 522.848L707.571 522.849C694.121 538.09 678.525 549.68 662.436 558.941L662.429 558.945L662.421 558.95C647.771 567.374 631.402 575.678 613.123 581.407L613.116 581.409C599.807 585.578 585.748 589.221 570.991 591.519H570.989C563.036 592.756 549.775 595.088 540.547 596.468L540.535 596.47L540.521 596.472C534.128 597.422 527.645 597.822 523.309 598.146L523.286 598.146L523.262 598.148C515.683 598.703 506.996 599.403 498.338 599.74L498.325 599.741C491.365 600.01 483.473 599.742 478.9 599.704H478.899C473.891 599.662 466.571 599.737 459.863 599.444L459.855 599.443C453.908 599.182 448.077 598.603 442.434 597.804L442.423 597.803L442.413 597.801C434.079 596.615 425.866 595.252 417.866 593.853V593.854C413.253 593.05 408.497 591.984 403.706 590.572V590.573C398.631 589.08 389.267 585.972 386.025 584.977V584.978C380.902 583.407 374.746 580.409 369.403 574.73C364.214 569.216 361.752 563.244 360.504 558.95V558.951C355.169 540.606 344.986 526.594 329.195 515.874C329.103 515.822 328.771 515.63 327.96 515.172C326.912 514.579 324.344 513.145 321.684 511.237L321.634 511.202L321.585 511.166C315.717 506.925 311.88 501.746 309.536 497.691L309.483 497.6C303.463 487.108 300.843 476.339 299.239 469.592L299.238 469.593C298.34 465.827 297.469 461.397 297.014 456.56L297.012 456.533L297.009 456.507C296.265 448.451 296.645 435.651 305.102 423.381L305.126 423.346L305.152 423.31C306.995 420.651 309.535 417.564 312.926 414.675L312.973 414.635L313.02 414.596C316.261 411.856 324.006 405.834 335.572 404.954C346.951 404.088 355.427 408.722 358.914 410.793C364.573 414.145 369.077 416.896 373.939 419.643C375.112 420.304 376.693 421.053 379.338 422.194L380.863 422.841C388.483 426.032 396.374 428.772 404.535 431.121C421.613 435.992 439.215 439.155 457.593 440.945C468.405 441.424 478.68 441.905 488.988 442.277C489.079 442.274 489.281 442.266 489.625 442.242C490.084 442.211 490.488 442.178 491.26 442.119C491.876 442.072 492.691 442.012 493.582 441.96C493.619 441.957 493.67 441.953 493.755 441.945C493.855 441.936 494.025 441.921 494.203 441.905C494.853 441.849 496.439 441.715 498.341 441.715H498.508L498.675 441.717C514.289 441.877 530.294 439.883 547.424 436.732L549.679 436.31C572.94 431.866 595.03 425.162 615.846 415.523C626.646 410.521 637.213 404.481 647.849 397.617L647.852 397.615C649.588 396.495 655.864 392.244 659.453 390.02L659.505 389.986Z" fill="#98E094" stroke="white" stroke-width="65"/>
<path d="M249.333 370.988C265.075 368.897 280.285 370.353 294.598 374.22L294.597 374.221C299.304 375.489 303.624 377.3 306.54 378.606L308.956 379.708L308.967 379.713L308.978 379.719C320.387 384.946 331.138 391.684 340.933 400.163L341.878 400.989L342.047 401.139L342.214 401.29C346.412 405.1 348.729 409.079 349.733 410.925C350.285 411.94 350.7 412.808 350.909 413.251C351.016 413.478 351.116 413.694 351.159 413.785C351.216 413.909 351.223 413.923 351.219 413.916L360.852 434.277L346.144 449.438L346.151 449.493L346.153 449.507L346.155 449.521C346.466 451.94 346.546 450.979 347.919 457.932H347.92C348.275 459.706 348.847 462.49 349.307 465.495L349.497 466.794L349.504 466.854L349.512 466.912C349.676 468.134 350.148 471.619 349.88 475.65C349.636 479.331 348.41 489.969 339.017 498.611C329.536 507.334 318.724 507.614 314.911 507.51C310.988 507.403 307.643 506.644 306.37 506.347V506.348C306.348 506.343 306.327 506.337 306.306 506.332C306.277 506.325 306.248 506.32 306.221 506.313V506.312C305.779 506.209 305.408 506.116 305.149 506.049C305.13 506.044 305.111 506.038 305.092 506.033C294.561 503.78 285.482 502.898 277.042 503.67H277.04C270.389 504.278 263.566 506.169 256.209 509.421L256.181 509.434L256.153 509.445C255.607 509.685 255.101 509.902 254.694 510.074C254.491 510.16 254.289 510.246 254.122 510.316C253.945 510.391 253.797 510.453 253.657 510.513C253.374 510.633 253.189 510.713 253.05 510.774C252.933 510.826 252.88 510.851 252.874 510.854L252.833 510.874L252.792 510.894C247.947 513.194 241.625 514.985 234.287 514.539C226.946 514.093 220.869 511.548 216.303 508.647L216.266 508.623L216.228 508.599C214.591 507.552 212.882 506.503 210.891 505.284C208.984 504.117 206.774 502.767 204.56 501.361L204.532 501.343L204.503 501.325C204.089 501.061 203.436 500.724 202.328 500.402C202.02 500.45 201.722 500.497 201.44 500.54C200.759 500.644 200.171 500.733 199.59 500.823C198.431 501.004 197.551 501.153 196.798 501.298C196.059 501.44 195.56 501.558 195.219 501.65C194.889 501.74 194.755 501.791 194.761 501.789L194.594 501.854L194.426 501.918C191.239 503.122 188.411 503.637 186.363 503.877C184.437 504.103 182.883 504.116 182.289 504.118C182.213 504.118 182.064 504.117 181.905 504.116L140.942 505.879L149.128 465.319C149.144 465.228 149.149 465.197 149.181 465.011C149.205 464.869 149.244 464.645 149.29 464.394C149.444 463.532 149.874 461.156 150.828 458.364L150.857 458.277L150.887 458.191C154.242 448.553 158.827 439.664 164.456 431.464L164.458 431.459C168.775 425.173 173.484 418.896 178.729 412.772L178.734 412.767L178.739 412.76C190.245 399.34 204.069 388.574 220.121 380.797L220.13 380.792L220.141 380.787C225.147 378.366 230.171 376.278 235.06 374.456C235.077 374.45 235.094 374.444 235.111 374.438C235.131 374.43 235.15 374.421 235.17 374.414V374.415C240.527 372.413 245.566 371.488 249.333 370.987V370.988ZM203.599 500.207L203.587 500.209C203.595 500.208 203.602 500.207 203.61 500.206L203.599 500.207ZM285.086 475.552C285.105 475.708 285.111 475.737 285.096 475.615C285.093 475.594 285.089 475.573 285.086 475.552Z" fill="#98E094" stroke="white" stroke-width="65"/>
<path d="M375.982 619.218C380.172 611.718 384.662 604.578 387.712 596.708C390.312 589.998 392.052 583.098 392.302 575.878C392.312 575.608 392.332 575.338 392.342 575.068C392.602 571.428 393.362 570.938 396.722 572.128C405.262 575.128 413.872 577.898 422.782 579.558C429.802 580.868 436.842 582.208 443.932 582.988C459.482 584.708 475.062 586.028 490.742 585.728C506.392 585.428 522.012 584.598 537.562 582.688C544.832 581.798 552.142 581.248 559.402 580.288C569.642 578.938 579.632 576.338 589.612 573.738C603.012 570.248 616.292 566.328 629.152 561.218C643.662 555.448 657.422 548.198 669.972 538.858C677.512 533.248 684.722 527.208 692.042 521.298C693.722 519.938 695.292 518.418 696.782 516.838C698.282 515.248 699.832 514.778 701.862 515.788C703.472 516.598 705.172 517.248 706.842 517.938C716.442 521.938 725.842 526.378 735.082 531.158C737.562 532.438 739.802 534.168 742.152 535.698C764.092 549.988 783.692 567.028 801.452 586.218C817.572 603.628 831.152 622.858 842.312 643.808C850.162 658.548 856.492 673.908 861.372 689.868C866.782 707.578 870.162 725.678 871.592 744.158C874.202 777.958 870.132 810.968 859.872 843.228C855.732 856.258 851.102 869.148 844.382 881.088C837.862 892.668 830.952 904.038 823.832 915.258C818.702 923.338 813.342 931.338 807.392 938.838C779.532 973.958 745.932 1002.52 707.372 1025.28C702.872 1027.94 698.012 1029.98 693.382 1032.41C667.572 1045.99 640.502 1056.35 612.312 1063.75C590.932 1069.37 569.212 1073.17 547.172 1075.11C525.772 1077 504.362 1077.24 482.942 1075.63C436.542 1072.15 392.202 1060.79 350.162 1040.71C336.762 1034.31 323.792 1027.09 311.412 1018.89C270.392 991.708 236.872 957.418 212.922 914.168C197.532 886.358 187.222 856.778 182.372 825.338C180.052 810.278 179.042 795.128 179.642 779.898C180.132 767.418 181.622 755.058 183.912 742.758C187.162 725.338 192.192 708.498 198.982 692.168C200.742 687.938 200.752 687.938 205.172 688.568C213.052 689.688 220.902 691.028 228.812 691.888C240.532 693.168 252.272 693.208 264.012 691.918C272.842 690.948 281.592 689.638 290.152 687.228C300.602 684.288 310.202 679.418 319.482 673.928C329.222 668.158 338.552 661.778 346.932 654.108C352.212 649.278 356.982 643.998 361.552 638.478C366.662 632.328 371.582 626.098 375.982 619.218ZM675.672 722.568C675.692 721.578 675.722 720.578 675.742 719.588C676.022 705.888 674.052 692.518 669.362 679.628C663.602 663.788 653.402 651.858 637.902 644.738C625.722 639.148 614.322 640.798 603.582 648.418C598.032 652.348 593.712 657.428 590.232 663.218C582.962 675.308 579.812 688.538 579.342 702.518C579.002 712.568 580.712 722.348 583.152 732.018C585.322 740.588 588.822 748.628 593.902 755.898C600.392 765.178 608.912 771.768 619.992 774.658C623.112 775.468 626.382 776.088 629.592 776.138C636.182 776.238 642.502 774.638 648.482 771.828C658.122 767.298 665.442 760.338 669.522 750.488C673.122 741.768 675.382 732.618 675.672 722.568ZM428.882 789.178C434.552 788.318 440.152 786.958 445.022 783.918C450.892 780.248 455.802 775.398 459.482 769.458C466.502 758.138 470.652 745.878 472.102 732.588C473.252 721.998 473.702 711.488 471.462 701.018C470.022 694.308 468.692 687.468 465.352 681.408C457.962 667.998 446.932 659.298 431.552 656.778C424.812 655.678 418.112 656.378 411.812 658.838C403.262 662.178 396.322 667.798 391.492 675.688C386.552 683.758 383.312 692.588 380.692 701.638C378.182 710.298 377.572 719.248 377.132 728.188C376.462 741.778 379.032 754.578 386.502 766.238C390.292 772.148 394.412 777.598 400.302 781.668C405.522 785.278 410.982 788.178 417.322 788.898C420.982 789.308 424.702 789.138 428.882 789.178Z" fill="#98E094"/>
<path d="M566.292 452.428C553.982 455.678 541.662 457.598 529.252 459.038C512.952 460.928 496.582 461.158 480.222 460.438C461.682 459.628 443.272 457.598 425.232 452.848C418.242 451.008 411.082 449.828 404.032 448.218C394.492 446.028 385.172 443.138 376.222 439.118C372.192 437.308 368.182 435.428 364.252 433.398C359.522 430.948 356.462 427.008 355.062 421.888C352.062 410.988 349.172 400.068 346.192 389.158C345.282 385.848 344.232 382.568 343.242 379.278C342.362 376.358 342.522 376.068 345.342 375.208C347.332 374.598 349.312 373.968 351.292 373.328C351.812 373.158 352.432 373.088 352.802 372.748C354.812 370.898 357.532 370.818 359.872 369.798C365.992 367.138 372.222 364.678 377.612 360.588C378.382 359.998 379.372 359.698 380.182 359.158C383.182 357.138 386.162 355.108 389.112 353.018C391.012 351.668 391.262 351.668 393.132 353.038C405.962 362.398 419.842 369.328 435.382 373.278C448.362 376.588 461.292 376.728 474.412 375.648C475.492 375.558 476.562 375.338 477.612 375.068C478.062 374.948 478.432 374.538 478.912 374.208C478.132 373.058 477.042 373.208 476.122 373.048C471.582 372.238 467.002 371.618 462.502 370.658C448.272 367.628 435.172 361.828 422.962 354.008C419.082 351.518 415.342 348.818 411.532 346.208C406.032 342.448 401.492 337.668 397.092 332.728C396.732 332.318 396.422 331.868 396.042 331.488C394.822 330.268 394.152 330.178 392.702 331.058C392.162 331.388 391.692 331.828 391.162 332.168C382.202 337.958 373.412 344.028 364.232 349.458C354.022 355.498 342.772 358.888 331.112 361.028C318.332 363.378 305.892 362.148 293.682 358.038C290.532 356.978 287.532 355.418 284.532 353.958C277.982 350.778 272.952 345.748 269.312 339.638C264.592 331.698 261.772 323.018 261.852 313.618C261.872 311.178 261.902 308.728 262.122 306.298C262.322 304.098 261.522 302.748 259.532 301.778C256.042 300.078 252.542 298.338 249.232 296.318C240.612 291.038 233.372 284.238 228.322 275.438C218.982 259.188 218.712 242.528 227.312 225.938C234.712 211.648 246.222 201.428 260.482 194.218C270.672 189.068 281.532 185.918 292.782 184.378C299.312 183.488 305.962 183.498 312.512 184.598C320.642 185.968 328.632 187.918 336.342 190.898C338.022 191.548 339.672 192.318 341.282 193.138C342.972 193.998 344.332 193.818 345.642 192.388C350.452 187.138 356.432 183.668 363.022 181.138C367.362 179.468 371.822 178.408 376.452 178.058C377.442 177.988 378.452 177.938 379.402 177.688C380.552 177.388 380.792 176.548 380.052 175.648C379.662 175.168 379.142 174.768 378.622 174.408C370.752 169.028 362.412 167.518 353.462 171.428C350.902 172.548 348.412 173.858 345.942 175.178C344.592 175.898 343.332 176.238 341.822 175.678C335.442 173.308 328.792 171.928 322.122 170.698C318.902 170.108 318.392 169.778 318.132 166.578C317.482 158.618 318.112 150.838 322.312 143.748C327.752 134.548 335.402 127.808 344.822 122.768C357.442 116.028 369.712 117.748 381.982 123.478C384.022 124.428 385.932 125.668 387.932 126.738C389.882 127.778 390.572 127.588 391.722 125.758C391.962 125.378 392.162 124.968 392.362 124.568C399.472 110.438 409.862 99.1682 422.662 90.0482C439.092 78.3382 457.512 71.3982 477.242 67.7982C493.352 64.8582 509.582 64.2482 525.872 66.0782C533.142 66.8982 540.402 67.8582 547.672 68.7382C548.852 68.8782 549.902 69.1282 550.812 70.0782C551.382 70.6682 552.382 70.9382 553.242 71.1682C567.332 74.8482 580.702 80.2882 593.342 87.4782C610.392 97.1582 624.922 109.708 636.222 125.838C639.062 129.898 639.082 129.928 635.172 132.988C630.502 136.638 626.472 140.908 623.092 145.748C621.802 147.588 620.332 148.368 618.092 148.158C604.222 146.848 592.602 152.058 582.292 160.808C577.282 165.058 573.762 170.378 571.882 176.698C571.452 178.158 571.202 179.698 571.112 181.218C571.042 182.398 571.872 182.808 572.942 182.208C573.562 181.858 574.072 181.298 574.662 180.898C578.692 178.158 582.532 175.058 586.812 172.778C596.472 167.608 606.702 166.468 617.282 169.738C618.922 170.248 620.562 170.768 622.212 171.238C624.652 171.938 625.032 171.768 626.582 169.778C628.812 166.928 630.972 164.018 633.372 161.318C638.432 155.608 644.172 150.548 650.502 146.368C654.282 143.878 658.772 142.258 663.142 140.908C673.622 137.668 684.292 137.078 694.962 140.128C706.762 143.508 715.302 150.848 720.712 161.818C721.912 164.248 722.902 166.788 723.812 169.338C724.532 171.358 725.772 172.688 727.712 173.568C736.822 177.688 745.222 182.978 753.002 189.258C767.952 201.328 779.532 215.908 785.682 234.308C792.072 253.418 791.262 272.218 782.432 290.488C775.022 305.808 763.402 317.218 748.892 325.738C730.332 336.638 710.092 341.418 688.682 341.188C677.352 341.068 666.162 339.328 655.082 336.938C648.282 335.468 641.462 334.058 634.962 331.438C632.412 330.408 631.112 331.028 629.742 333.728C627.442 338.258 624.992 342.668 621.662 346.548C617.412 351.488 613.062 356.298 607.922 360.368C602.072 364.988 595.512 368.108 588.362 370.028C585.222 370.868 582.022 371.508 578.832 372.128C573.242 373.208 567.682 373.088 562.152 371.638C561.022 371.338 559.852 371.088 558.692 371.008C558.142 370.968 557.232 371.238 557.072 371.618C556.852 372.168 556.922 373.128 557.282 373.578C558.122 374.618 559.142 375.558 560.222 376.348C563.122 378.448 566.422 379.738 569.902 380.458C578.182 382.158 586.492 382.968 594.962 381.778C602.952 380.648 610.082 377.518 616.622 372.978C621.612 369.518 626.242 365.568 630.172 360.928C632.552 358.118 634.572 354.978 636.642 351.918C638.132 349.718 638.252 349.588 640.812 350.328C647.412 352.238 653.982 354.298 660.632 355.988C664.912 357.078 669.322 357.628 673.682 358.398C674.392 358.528 675.132 358.508 675.842 358.628C677.672 358.938 678.002 359.338 677.582 361.198C676.882 364.288 676.062 367.338 675.302 370.418C672.772 380.598 670.172 390.758 667.782 400.978C666.962 404.498 665.242 407.288 662.612 409.658C658.632 413.248 654.282 416.278 649.592 418.888C631.222 429.138 612.002 437.548 592.222 444.618C583.782 447.598 575.082 449.798 566.292 452.428Z" fill="#98E094"/>
<path d="M367.072 538.548C368.962 543.538 370.582 548.438 372.632 553.138C374.352 557.088 374.822 561.318 375.972 565.388C376.422 566.988 376.302 568.518 375.992 570.178C375.242 574.078 374.782 578.038 374.302 581.988C373.622 587.508 372.192 592.878 369.682 597.768C363.592 609.628 356.562 620.928 347.202 630.548C330.872 647.348 311.792 659.948 289.592 667.698C282.232 670.268 274.782 672.478 267.052 673.558C264.562 673.908 262.012 673.838 259.492 673.958C257.692 674.038 255.882 674.058 254.072 674.178C238.912 675.208 223.892 674.238 209.042 670.968C208.122 670.768 207.232 670.438 206.322 670.178C206.302 669.978 206.282 669.768 206.272 669.568C206.942 669.228 207.602 668.848 208.292 668.538C218.972 663.768 229.282 658.338 238.402 650.918C243.202 647.018 247.302 642.448 251.072 637.568C251.402 637.148 251.662 636.658 251.882 636.168C251.992 635.938 251.942 635.648 251.972 635.378C251.002 634.108 249.802 634.768 248.732 635.008C245.292 635.778 241.902 636.848 238.432 637.418C230.412 638.728 222.362 639.908 214.302 640.958C206.142 642.028 197.972 642.998 189.782 643.788C181.942 644.548 174.062 644.578 166.222 643.688C160.122 642.998 154.032 642.108 147.942 641.318C146.202 641.088 144.652 640.498 143.282 639.328C134.822 632.108 126.032 625.238 117.942 617.638C108.712 608.968 100.412 599.388 93.3017 588.838C90.8317 585.168 87.9517 581.738 85.8317 577.878C82.8417 572.428 79.6417 567.048 77.6117 561.128C74.8017 552.918 71.8317 544.748 69.4317 536.418C68.0117 531.498 67.2817 526.328 66.7317 521.218C66.0017 514.388 65.7417 507.518 65.3017 500.658C65.2517 499.898 65.3617 499.118 65.4317 497.728C66.4917 498.548 67.1417 498.958 67.6717 499.478C70.1717 501.968 72.5817 504.538 75.1317 506.978C82.7317 514.258 90.8717 520.878 99.8917 526.298C116.162 536.068 133.812 539.948 152.702 538.078C165.272 536.828 177.112 533.228 188.282 527.278C194.052 524.208 199.442 520.608 204.742 516.808C212.612 511.158 221.102 506.518 229.672 502.008C239.842 496.658 250.582 492.928 261.772 490.568C282.042 486.298 301.692 488.598 320.722 496.698C328.072 499.828 334.882 503.948 341.642 508.148C348.112 512.168 352.992 517.888 357.712 523.758C361.372 528.298 364.222 533.298 367.072 538.548ZM239.812 561.508C246.102 558.728 252.422 556.028 258.662 553.148C272.262 546.868 286.132 541.438 301.092 539.428C310.792 538.118 320.502 537.028 330.142 539.988C330.832 540.198 331.602 540.118 332.812 540.218C328.742 535.158 324.322 531.598 318.722 529.608C312.802 527.498 306.652 526.528 300.462 525.638C296.742 525.098 293.082 525.718 289.382 525.868C280.562 526.228 271.922 527.458 263.572 530.428C250.772 534.978 238.362 540.438 226.072 546.198C217.232 550.338 208.532 554.788 199.732 559.038C193.382 562.108 187.062 565.258 180.112 566.848C173.132 568.438 166.102 569.518 158.932 569.938C146.382 570.688 134.212 568.898 122.332 564.958C115.112 562.558 108.032 559.818 101.402 556.018C100.602 555.558 99.7817 554.888 98.2317 555.388C99.0917 556.298 99.7117 557.028 100.392 557.668C105.262 562.208 110.882 565.668 116.712 568.798C127.042 574.338 138.202 577.308 149.682 579.208C153.782 579.888 157.932 580.428 162.072 580.628C173.632 581.178 184.992 579.768 196.192 576.858C208.732 573.598 220.852 569.108 232.902 564.438C235.132 563.568 237.262 562.588 239.812 561.508Z" fill="#98E094"/>
<path d="M455.572 473.418C466.662 473.908 477.502 474.418 488.342 474.808C490.862 474.898 493.392 474.578 495.922 474.438C496.822 474.388 497.722 474.258 498.632 474.258C517.162 474.448 535.442 472.078 553.602 468.738C579.932 463.888 605.452 456.328 629.792 445.058C642.292 439.268 654.202 432.428 665.762 424.968C669.482 422.568 673.102 420.018 676.862 417.688C679.212 416.238 681.772 416.648 684.152 417.718C686.592 418.808 688.532 420.588 690.152 422.688C694.132 427.868 696.302 433.808 696.402 440.268C696.462 444.388 695.852 448.578 695.072 452.648C692.712 464.898 690.122 477.098 687.602 489.318C687.062 491.958 686.582 494.628 685.792 497.198C685.332 498.698 684.532 500.218 683.492 501.388C672.912 513.378 660.322 522.868 646.512 530.818C632.842 538.678 618.782 545.708 603.692 550.438C591.432 554.278 579.002 557.468 566.282 559.448C556.192 561.018 546.132 562.858 536.032 564.368C531.122 565.098 526.142 565.408 521.182 565.778C513.252 566.358 505.312 566.998 497.362 567.308C491.402 567.538 485.432 567.298 479.462 567.248C473.502 567.198 467.522 567.278 461.572 567.018C456.792 566.808 452.012 566.338 447.282 565.668C439.412 564.548 431.562 563.248 423.732 561.878C420.172 561.258 416.632 560.458 413.172 559.438C407.362 557.728 401.642 555.728 395.842 553.948C393.722 553.298 392.632 552.088 392.002 549.918C384.542 524.268 369.742 503.928 347.622 488.948C345.462 487.478 343.032 486.388 340.912 484.868C339.722 484.008 338.702 482.748 337.962 481.468C334.502 475.438 332.732 468.788 331.142 462.098C330.472 459.288 329.932 456.428 329.662 453.558C329.282 449.448 329.712 445.408 332.152 441.868C332.762 440.988 333.482 440.148 334.292 439.458C337.332 436.888 339.232 436.768 342.642 438.798C347.842 441.878 353.012 445.028 358.272 447.998C361.022 449.548 363.922 450.858 366.822 452.108C376.292 456.168 386.002 459.568 395.912 462.418C415.372 467.968 435.202 471.478 455.572 473.418Z" fill="#98E094"/>
<path d="M322.132 427.858C314.992 435.218 312.952 444.008 314.212 453.718C314.672 457.288 315.642 460.798 316.342 464.348C316.802 466.648 317.272 468.958 317.592 471.278C318.102 475.078 317.542 475.558 313.902 474.708C313.552 474.628 313.202 474.518 312.852 474.438C300.162 471.678 287.382 470.158 274.372 471.348C263.542 472.338 253.272 475.358 243.362 479.738C241.952 480.358 240.522 480.918 239.142 481.578C237.352 482.428 235.722 482.338 234.022 481.258C230.142 478.778 226.162 476.438 222.272 473.968C218.102 471.308 213.582 469.568 208.782 468.488C205.482 467.738 202.172 467.618 198.822 468.148C193.552 468.978 188.252 469.598 183.232 471.558C182.782 471.728 182.232 471.628 181.302 471.668C181.522 470.578 181.602 469.708 181.872 468.918C184.232 462.138 187.472 455.828 191.542 449.898C195.332 444.378 199.342 439.048 203.702 433.958C212.362 423.858 222.632 415.878 234.582 410.088C238.552 408.168 242.652 406.458 246.792 404.918C249.052 404.068 251.492 403.568 253.902 403.248C264.892 401.788 275.752 402.758 286.412 405.638C289.612 406.498 292.692 407.918 295.732 409.308C304.812 413.468 313.162 418.778 320.662 425.398C321.312 425.988 321.692 426.928 322.132 427.858ZM237.692 437.248C244.962 436.398 252.232 435.468 259.512 434.718C265.282 434.128 271.062 434.138 276.812 435.148C283.252 436.268 289.522 437.938 295.632 440.248C296.652 440.638 297.692 441.498 299.072 440.438C298.772 439.888 298.612 439.228 298.202 438.878C295.162 436.328 292.222 433.618 288.972 431.358C278.522 424.078 266.972 422.098 254.582 424.728C252.992 425.068 251.452 425.708 249.852 425.888C244.692 426.488 239.732 427.858 234.872 429.588C229.462 431.508 224.452 434.198 220.032 437.888C219.032 438.718 217.472 439.598 218.312 441.148C219.122 442.628 220.572 441.598 221.732 441.308C226.912 439.998 232.072 438.668 237.692 437.248Z" fill="#98E094"/>
</svg>
