<svg width="16" height="16" viewBox="0 0 16 16" fill="none" xmlns="http://www.w3.org/2000/svg">
<path d="M11.3048 1.27832L10.6204 1.09557C8.68534 0.579558 7.71782 0.32227 6.95599 0.760161C6.19345 1.19734 5.93401 2.15984 5.41513 4.08341L4.68268 6.80464C4.16381 8.72893 3.90437 9.69071 4.34513 10.449C4.78517 11.2065 5.75269 11.4645 7.68772 11.9798L8.37144 12.1625C10.3065 12.6786 11.274 12.9358 12.0365 12.4979C12.7984 12.0608 13.0578 11.0983 13.576 9.1747L14.3091 6.45347C14.828 4.52918 15.0867 3.5674 14.6467 2.80915C14.2066 2.0509 13.2406 1.79361 11.3048 1.27832Z" stroke="#4B4B4B" stroke-width="1.07502"/>
<path d="M11.1829 4.43041C11.1829 5.01379 10.7071 5.4868 10.1201 5.4868C9.53386 5.4868 9.05798 5.01379 9.05798 4.43041C9.05798 3.84703 9.53386 3.37402 10.1201 3.37402C10.7078 3.37402 11.1829 3.84703 11.1829 4.43041Z" stroke="#4B4B4B" stroke-width="1.07502"/>
<path d="M7.7043 14.115L7.02202 14.3014C5.09128 14.8267 4.12663 15.0897 3.36551 14.6432C2.60583 14.1975 2.34639 13.217 1.82967 11.2548L1.09794 8.47979C0.580495 6.51824 0.321774 5.53711 0.761099 4.76453C1.14094 4.09586 1.97085 4.12023 3.04587 4.12023" stroke="#4B4B4B" stroke-width="1.07502" stroke-linecap="round"/>
</svg>
