<svg width="475" height="513" viewBox="0 0 475 513" fill="none" xmlns="http://www.w3.org/2000/svg">
<path d="M188.287 76.8281C211.884 42.7882 262.214 42.7882 285.811 76.8281L299.842 97.0692C309.945 111.643 326.038 120.935 343.711 122.397L368.256 124.428C409.534 127.844 434.699 171.431 417.018 208.886L406.505 231.158C398.935 247.195 398.935 265.777 406.505 281.814L417.018 304.086C434.699 341.542 409.534 385.129 368.256 388.545L343.711 390.576C326.038 392.038 309.945 401.329 299.842 415.903L285.811 436.145C262.214 470.185 211.884 470.185 188.287 436.145L174.255 415.903C164.152 401.329 148.06 392.038 130.386 390.576L105.841 388.545C64.5633 385.129 39.3983 341.542 57.0792 304.086L67.5928 281.814C75.163 265.777 75.163 247.195 67.5928 231.158L57.0792 208.886C39.3983 171.431 64.5633 127.844 105.841 124.428L130.386 122.397C148.06 120.935 164.152 111.644 174.255 97.0692L188.287 76.8281Z" fill="#f6f8f6" stroke="#f6f8f6" stroke-width="102.596"/>
</svg>
