<svg width="899" height="960" viewBox="0 0 899 960" fill="none" xmlns="http://www.w3.org/2000/svg">
<path d="M323.135 147.111C388.593 67.9634 509.927 67.9634 575.385 147.11V147.11C600.419 177.38 635.505 197.637 674.237 204.183V204.183C775.509 221.297 836.176 326.375 800.362 422.637V422.637C786.665 459.453 786.665 499.966 800.362 536.781V536.781C836.176 633.043 775.509 738.122 674.237 755.236V755.236C635.505 761.782 600.42 782.039 575.385 812.308V812.308C509.927 891.456 388.593 891.456 323.135 812.308V812.308C298.101 782.039 263.015 761.782 224.283 755.236V755.236C123.011 738.122 62.3441 633.043 98.1585 536.781V536.781C111.856 499.966 111.856 459.453 98.1585 422.637V422.637C62.3441 326.376 123.011 221.297 224.283 204.183V204.183C263.015 197.637 298.101 177.38 323.135 147.111V147.111Z" fill="#D0FFD4" stroke="#D0FFD4" stroke-width="175.5"/>
</svg>
