<svg width="610" height="659" viewBox="0 0 610 659" fill="none" xmlns="http://www.w3.org/2000/svg">
<path d="M244.118 98.1372C274.735 54.677 339.333 55.1657 369.288 99.0843L387.101 125.2C399.926 144.004 420.49 156.085 443.16 158.133L474.643 160.978C527.589 165.763 559.464 221.951 536.407 269.852L522.697 298.336C512.825 318.845 512.645 342.695 522.205 363.351L535.483 392.039C557.812 440.284 525.09 495.983 472.078 499.966L440.555 502.334C417.858 504.039 397.113 515.808 384.004 534.416L365.798 560.258C335.182 603.719 270.584 603.23 240.629 559.311L222.816 533.196C209.991 514.392 189.426 502.311 166.757 500.262L135.274 497.417C82.328 492.632 50.4527 436.445 73.5095 388.543L87.2198 360.06C97.0916 339.55 97.2721 315.701 87.7118 295.044L74.4341 266.356C52.1049 218.111 84.8268 162.413 137.839 158.43L169.362 156.061C192.059 154.356 212.804 142.588 225.913 123.98L244.118 98.1372Z" fill="#F6F8F6" stroke="#F6F8F6" stroke-width="131.683"/>
</svg>
