<svg width="1465" height="1556" viewBox="0 0 1465 1556" fill="none" xmlns="http://www.w3.org/2000/svg">
<path d="M516.329 206.074C637.801 92.5433 826.466 92.5433 947.938 206.074L968.549 225.337C1003.8 258.284 1046.13 282.723 1092.29 296.778L1119.28 304.996C1278.33 353.43 1372.67 516.818 1335.08 678.781L1328.71 706.263C1317.8 753.266 1317.8 802.142 1328.71 849.145L1335.08 876.627C1372.67 1038.59 1278.33 1201.98 1119.28 1250.41L1092.29 1258.63C1046.13 1272.69 1003.8 1297.12 968.549 1330.07L947.938 1349.33C826.466 1462.86 637.801 1462.86 516.329 1349.33L495.718 1330.07C460.465 1297.12 418.137 1272.69 371.978 1258.63L344.99 1250.41C185.933 1201.98 91.601 1038.59 129.185 876.627L135.562 849.145C146.469 802.142 146.469 753.266 135.562 706.263L129.185 678.781C91.6009 516.818 185.933 353.43 344.99 304.996L371.978 296.778C418.137 282.723 460.465 258.284 495.718 225.337L516.329 206.074Z" fill="#B5FFBB" stroke="#B5FFBB" stroke-width="241.852"/>
</svg>
