<svg width="1032" height="1099" viewBox="0 0 1032 1099" fill="none" xmlns="http://www.w3.org/2000/svg">
<path d="M378.991 147.493C456.846 77.4594 574.997 77.4595 652.853 147.493L683.142 174.739C704.425 193.884 729.486 208.353 756.708 217.212L795.449 229.82C895.027 262.229 954.102 364.55 932.38 466.992L923.928 506.846C917.99 534.85 917.99 563.788 923.928 591.792L932.38 631.647C954.102 734.089 895.027 836.41 795.449 868.818L756.708 881.427C729.486 890.286 704.425 904.755 683.142 923.9L652.853 951.146C574.997 1021.18 456.846 1021.18 378.991 951.146L348.701 923.9C327.418 904.755 302.357 890.286 275.136 881.427L236.395 868.818C136.817 836.41 77.7414 734.089 99.4642 631.647L107.915 591.792C113.854 563.788 113.854 534.85 107.915 506.846L99.4642 466.992C77.7414 364.55 136.817 262.229 236.395 229.82L275.136 217.212C302.357 208.353 327.418 193.884 348.701 174.739L378.991 147.493Z" fill="#C0FFC5" stroke="#C0FFC5" stroke-width="189.935"/>
</svg>
