<svg width="1163" height="1235" viewBox="0 0 1163 1235" fill="none" xmlns="http://www.w3.org/2000/svg">
<path d="M407.621 181.66C502.294 82.6581 660.432 82.6581 755.104 181.66V181.66C786.791 214.795 827.292 238.179 871.831 249.052V249.052C1004.91 281.54 1083.97 418.491 1045.57 549.981V549.981C1032.72 593.99 1032.72 640.757 1045.57 684.766V684.766C1083.97 816.256 1004.91 953.207 871.831 985.695V985.695C827.292 996.569 786.791 1019.95 755.104 1053.09V1053.09C660.432 1152.09 502.294 1152.09 407.621 1053.09V1053.09C375.935 1019.95 335.434 996.569 290.894 985.695V985.695C157.82 953.207 78.7512 816.256 117.153 684.766V684.766C130.006 640.757 130.006 593.99 117.153 549.981V549.981C78.7512 418.491 157.82 281.54 290.894 249.052V249.052C335.434 238.179 375.935 214.795 407.621 181.66V181.66Z" fill="#B0FFB7" stroke="#B0FFB7" stroke-width="214.817"/>
</svg>
