<svg width="1310" height="1391" viewBox="0 0 1310 1391" fill="none" xmlns="http://www.w3.org/2000/svg">
<path d="M458.921 204.522C565.508 93.0606 743.547 93.0606 850.135 204.522V204.522C885.809 241.827 931.407 268.153 981.552 280.396V280.396C1131.37 316.972 1220.39 471.159 1177.16 619.197V619.197C1162.69 668.744 1162.69 721.396 1177.16 770.944V770.944C1220.39 918.982 1131.37 1073.17 981.552 1109.75V1109.75C931.407 1121.99 885.809 1148.31 850.135 1185.62V1185.62C743.547 1297.08 565.508 1297.08 458.921 1185.62V1185.62C423.247 1148.31 377.648 1121.99 327.504 1109.75V1109.75C177.682 1073.17 88.6622 918.982 131.897 770.944V770.944C146.367 721.397 146.367 668.744 131.897 619.197V619.197C88.6622 471.159 177.682 316.972 327.504 280.396V280.396C377.648 268.153 423.247 241.827 458.921 204.522V204.522Z" fill="#A4FFAB" stroke="#A4FFAB" stroke-width="241.852"/>
</svg>
