<svg width="758" height="814" viewBox="0 0 758 814" fill="none" xmlns="http://www.w3.org/2000/svg">
<path d="M286.859 124.423C332.874 63.6199 424.244 63.6199 470.259 124.423L481.49 139.263C500.216 164.008 528.148 180.134 558.94 183.979L577.408 186.285C653.072 195.734 698.758 274.863 669.108 345.114L661.871 362.261C649.805 390.851 649.805 423.103 661.871 451.693L669.108 468.839C698.758 539.091 653.072 618.22 577.408 627.669L558.94 629.975C528.148 633.82 500.216 649.946 481.49 674.691L470.259 689.531C424.244 750.334 332.874 750.334 286.859 689.531L275.628 674.691C256.902 649.946 228.97 633.82 198.178 629.975L179.71 627.669C104.046 618.22 58.3603 539.091 88.01 468.839L95.2466 451.693C107.313 423.103 107.313 390.851 95.2467 362.261L88.01 345.115C58.3603 274.863 104.046 195.734 179.71 186.285L198.178 183.979C228.97 180.134 256.902 164.008 275.628 139.263L286.859 124.423Z" fill="#E1FFE4" stroke="#E1FFE4" stroke-width="157.641"/>
</svg>
