<svg width="377" height="220" viewBox="0 0 377 220" fill="none" xmlns="http://www.w3.org/2000/svg">
<path d="M204.21 127.284L190.181 175.579C189.71 177.201 189.474 178.012 189.112 178.218C188.798 178.395 188.415 178.395 188.101 178.218C187.738 178.012 187.503 177.201 187.032 175.579L173.003 127.284C172.823 126.667 172.734 126.359 172.566 126.105C172.418 125.881 172.226 125.689 172.001 125.54C171.748 125.373 171.439 125.283 170.822 125.104L170.822 125.104L122.528 111.075C120.906 110.604 120.094 110.368 119.889 110.005C119.712 109.692 119.712 109.308 119.889 108.995C120.094 108.632 120.906 108.397 122.528 107.925L170.822 93.8964C171.439 93.7172 171.748 93.6276 172.001 93.4599C172.226 93.3116 172.418 93.1194 172.566 92.895C172.734 92.6416 172.823 92.3331 173.003 91.7162L173.003 91.7161L187.032 43.4217C187.503 41.7993 187.738 40.9881 188.101 40.7826C188.415 40.6052 188.798 40.6052 189.112 40.7826C189.474 40.9881 189.71 41.7993 190.181 43.4217L204.21 91.7161C204.389 92.3331 204.479 92.6415 204.647 92.895C204.795 93.1194 204.987 93.3116 205.212 93.4599C205.465 93.6276 205.774 93.7172 206.39 93.8964L206.39 93.8964L254.685 107.925C256.307 108.397 257.118 108.632 257.324 108.995C257.501 109.308 257.501 109.692 257.324 110.005C257.118 110.368 256.307 110.604 254.685 111.075L206.39 125.104L206.39 125.104C205.774 125.283 205.465 125.373 205.212 125.54C204.987 125.689 204.795 125.881 204.647 126.105C204.479 126.359 204.389 126.667 204.21 127.284Z" stroke="#89CD8F" stroke-width="3"/>
<path d="M147.504 68.9223L142.792 83.2819C142.709 83.5343 142.352 83.5343 142.269 83.2819L137.558 68.9223C137.476 68.673 137.28 68.4775 137.031 68.3957L122.671 63.684C122.419 63.6011 122.419 63.2442 122.671 63.1614L137.031 58.4496C137.28 58.3678 137.476 58.1723 137.558 57.923L142.269 43.5634C142.352 43.3111 142.709 43.3111 142.792 43.5634L147.504 57.923C147.585 58.1723 147.781 58.3678 148.03 58.4496L162.39 63.1614C162.642 63.2442 162.642 63.6011 162.39 63.684L148.03 68.3957C147.781 68.4775 147.585 68.673 147.504 68.9223Z" fill="#89CD8F"/>
<path d="M239.658 161.078L234.946 175.438C234.863 175.69 234.506 175.69 234.424 175.438L229.712 161.078C229.63 160.829 229.434 160.633 229.185 160.551L214.826 155.84C214.573 155.757 214.573 155.4 214.826 155.317L229.185 150.605C229.434 150.523 229.63 150.328 229.712 150.079L234.424 135.719C234.506 135.467 234.863 135.467 234.946 135.719L239.658 150.079C239.74 150.328 239.935 150.523 240.185 150.605L254.544 155.317C254.796 155.4 254.796 155.757 254.544 155.84L240.185 160.551C239.935 160.633 239.74 160.829 239.658 161.078Z" fill="#89CD8F"/>
<path d="M205.776 127.197L189.368 177.204C189.285 177.456 188.928 177.456 188.845 177.204L172.437 127.197C172.355 126.947 172.159 126.752 171.91 126.67L121.903 110.261C121.65 110.179 121.65 109.822 121.903 109.739L171.91 93.3302C172.159 93.2484 172.355 93.0529 172.437 92.8036L188.845 42.7964C188.928 42.5441 189.285 42.5441 189.368 42.7964L205.776 92.8036C205.858 93.0529 206.054 93.2484 206.303 93.3302L256.31 109.739C256.562 109.822 256.562 110.179 256.31 110.261L206.303 126.67C206.054 126.752 205.858 126.947 205.776 127.197Z" fill="#89CD8F"/>
<path d="M12.1064 37L12.1064 13H35.1064" stroke="#89CD8F" stroke-width="4" stroke-linecap="round" stroke-linejoin="round"/>
<path d="M341.106 13L366.106 13L366.106 35" stroke="#89CD8F" stroke-width="4" stroke-linecap="round" stroke-linejoin="round"/>
<path d="M366.106 184L366.106 208H343.106" stroke="#89CD8F" stroke-width="4" stroke-linecap="round" stroke-linejoin="round"/>
<path d="M36.1064 207H11.1064L11.1064 185" stroke="#89CD8F" stroke-width="4" stroke-linecap="round" stroke-linejoin="round"/>
</svg>
