<svg width="127" height="188" viewBox="0 0 127 188" fill="none" xmlns="http://www.w3.org/2000/svg">
<path d="M23.0365 4.2493C24.0026 3.2629 23.9862 1.68008 22.9998 0.713961C22.0134 -0.252153 20.4305 -0.235706 19.4644 0.750696L21.2505 2.5L23.0365 4.2493ZM126.035 162.542C126.163 161.167 125.152 159.949 123.777 159.822L101.373 157.745C99.998 157.618 98.7802 158.629 98.6527 160.004C98.5253 161.379 99.5365 162.597 100.911 162.724L120.826 164.57L118.98 184.485C118.853 185.859 119.864 187.077 121.239 187.205C122.613 187.332 123.831 186.321 123.959 184.946L126.035 162.542ZM32.9464 108.479L33.6803 110.868L32.9464 108.479ZM21.3928 79.4999L20.053 77.3892C19.9089 77.4807 19.7745 77.5868 19.652 77.7056L21.3928 79.4999ZM52.0776 179.443L51.2697 181.809C70.1171 188.245 88.6765 183.723 102.319 177.782C109.164 174.801 114.848 171.43 118.823 168.804C120.812 167.49 122.379 166.359 123.454 165.551C123.992 165.147 124.407 164.824 124.691 164.599C124.833 164.486 124.943 164.398 125.018 164.337C125.056 164.306 125.086 164.282 125.107 164.265C125.117 164.256 125.125 164.25 125.131 164.244C125.134 164.242 125.137 164.24 125.139 164.238C125.14 164.237 125.141 164.237 125.141 164.236C125.142 164.235 125.143 164.235 123.546 162.311C121.949 160.388 121.949 160.387 121.95 160.387C121.95 160.387 121.95 160.387 121.95 160.387C121.95 160.387 121.949 160.388 121.948 160.389C121.945 160.391 121.941 160.395 121.934 160.4C121.92 160.411 121.898 160.429 121.868 160.454C121.807 160.503 121.713 160.579 121.587 160.679C121.335 160.879 120.953 161.176 120.451 161.553C119.447 162.307 117.963 163.379 116.067 164.632C112.27 167.14 106.841 170.358 100.322 173.198C87.2356 178.897 70.0608 182.942 52.8854 177.077L52.0776 179.443ZM21.2505 2.5L19.4644 0.750696C0.523918 20.0889 -2.68015 49.4436 1.78758 72.6992C4.02718 84.3569 8.23963 94.76 13.6276 101.839C18.9545 108.838 26.0118 113.223 33.6803 110.868L32.9464 108.479L32.2125 106.089C27.559 107.518 22.4553 105.182 17.6062 98.8107C12.8182 92.52 8.83977 82.9055 6.69779 71.7559C2.40234 49.397 5.67226 21.9782 23.0365 4.2493L21.2505 2.5ZM32.9464 108.479L33.6803 110.868C41.5632 108.448 46.6888 104.143 49.2896 99.0572C51.8804 93.9906 51.8311 88.3953 49.8137 83.7074C47.798 79.0233 43.7964 75.2012 38.4705 73.7115C33.114 72.2133 26.7261 73.1532 20.053 77.3892L21.3928 79.4999L22.7327 81.6105C28.4482 77.9824 33.3842 77.4807 37.1236 78.5267C40.8936 79.5812 43.76 82.2891 45.2209 85.6839C46.6802 89.0749 46.7162 93.1074 44.8379 96.7808C42.9694 100.435 39.0713 103.982 32.2125 106.089L32.9464 108.479ZM21.3928 79.4999L19.652 77.7056C3.72879 93.155 2.5384 116.228 9.63622 136.578C16.7284 156.912 32.3457 175.348 51.2697 181.809L52.0776 179.443L52.8854 177.077C35.7866 171.239 21.0884 154.23 14.3573 134.932C7.63185 115.649 9.1105 94.9001 23.1337 81.2942L21.3928 79.4999Z" fill="#152B15"/>
</svg>
