<svg width="112" height="143" viewBox="0 0 112 143" fill="none" xmlns="http://www.w3.org/2000/svg">
<path d="M55.6181 130.947C79.7098 130.947 99.2361 116.408 99.2361 90.9639C99.2361 80.0594 95.6013 61.8852 81.0619 47.3459C82.8794 58.2504 71.9748 61.8852 71.9748 61.8852C77.4271 43.711 62.8877 18.2672 41.0787 14.6323C43.674 29.1717 44.7136 43.711 26.5394 58.2504C17.4523 65.5201 12 78.0893 12 90.9639C12 116.408 31.5264 130.947 55.6181 130.947ZM55.6181 123.677C43.5722 123.677 33.809 116.408 33.809 103.686C33.809 98.2336 35.6265 89.1465 42.8961 81.8768C41.9874 87.3291 48.3484 90.9639 48.3484 90.9639C45.6223 81.8768 51.9832 67.3375 62.8878 65.5201C61.5865 72.7897 61.0703 80.0594 70.1574 87.3291C74.701 90.9639 77.4271 97.2449 77.4271 103.686C77.4271 116.408 67.6639 123.677 55.6181 123.677Z" fill="#FFDF3F"/>
<path d="M55.6181 123.677C43.5722 123.677 33.809 116.408 33.809 103.686C33.809 98.2336 35.6265 89.1465 42.8961 81.8768C41.9874 87.3291 48.3484 90.9639 48.3484 90.9639C45.6223 81.8768 51.9832 67.3375 62.8878 65.5201C61.5865 72.7897 61.0703 80.0594 70.1574 87.3291C74.701 90.9639 77.4271 97.2449 77.4271 103.686C77.4271 116.408 67.6639 123.677 55.6181 123.677Z" fill="#FFB33A"/>
<path d="M42.0654 8.71436C55.0224 10.874 65.4576 19.418 71.8379 29.6265C71.9255 29.7666 72.0094 29.9092 72.0957 30.0503L72.0654 29.8638L85.3047 43.103C101.275 59.0734 105.236 78.9606 105.236 90.9644C105.236 105.348 99.6563 117.031 90.3828 125.039C81.2097 132.959 68.8305 136.947 55.6182 136.947C42.4058 136.947 30.0266 132.959 20.8535 125.039C11.58 117.031 6.00011 105.348 6 90.9644C6 76.5631 12.0645 62.1462 22.791 53.5649C30.9955 47.0013 34.4163 40.8427 35.7529 35.0845C37.1439 29.0921 36.4535 22.867 35.1719 15.687L33.6777 7.31592L42.0654 8.71436Z" stroke="white" stroke-width="12"/>
</svg>
