<svg width="808" height="1012" viewBox="0 0 808 1012" fill="none" xmlns="http://www.w3.org/2000/svg">
<path d="M310.693 554.175C314.883 546.675 319.373 539.535 322.423 531.665C325.023 524.955 326.763 518.055 327.013 510.835C327.023 510.565 327.043 510.295 327.053 510.025C327.313 506.385 328.073 505.895 331.433 507.085C339.973 510.085 348.583 512.855 357.493 514.515C364.513 515.825 371.553 517.165 378.643 517.945C394.193 519.665 409.773 520.985 425.453 520.685C441.103 520.385 456.723 519.555 472.273 517.645C479.543 516.755 486.853 516.205 494.113 515.245C504.353 513.895 514.343 511.295 524.323 508.695C537.723 505.205 551.003 501.285 563.863 496.175C578.373 490.405 592.133 483.155 604.683 473.815C612.223 468.205 619.433 462.165 626.753 456.255C628.433 454.895 630.003 453.375 631.493 451.795C632.993 450.205 634.543 449.735 636.573 450.745C638.183 451.555 639.883 452.205 641.553 452.895C651.153 456.895 660.553 461.335 669.793 466.115C672.273 467.395 674.513 469.125 676.863 470.655C698.803 484.945 718.403 501.985 736.163 521.175C752.283 538.585 765.863 557.815 777.023 578.765C784.873 593.505 791.203 608.865 796.083 624.825C801.493 642.535 804.873 660.635 806.303 679.115C808.913 712.915 804.843 745.925 794.583 778.185C790.443 791.215 785.813 804.105 779.093 816.045C772.573 827.625 765.663 838.995 758.543 850.215C753.413 858.295 748.053 866.295 742.103 873.795C714.243 908.915 680.643 937.475 642.083 960.235C637.583 962.895 632.723 964.935 628.093 967.365C602.283 980.945 575.213 991.305 547.023 998.705C525.643 1004.33 503.923 1008.13 481.883 1010.07C460.483 1011.96 439.073 1012.2 417.653 1010.59C371.253 1007.11 326.913 995.745 284.873 975.665C271.473 969.265 258.503 962.045 246.123 953.845C205.103 926.665 171.583 892.375 147.633 849.125C132.243 821.315 121.933 791.735 117.083 760.295C114.763 745.235 113.753 730.085 114.353 714.855C114.843 702.375 116.333 690.015 118.623 677.715C121.873 660.295 126.903 643.455 133.693 627.125C135.453 622.895 135.463 622.895 139.883 623.525C147.763 624.645 155.613 625.985 163.523 626.845C175.243 628.125 186.983 628.165 198.723 626.875C207.553 625.905 216.303 624.595 224.863 622.185C235.313 619.245 244.913 614.375 254.193 608.885C263.933 603.115 273.263 596.735 281.643 589.065C286.923 584.235 291.693 578.955 296.263 573.435C301.373 567.285 306.293 561.055 310.693 554.175ZM610.383 657.525C610.403 656.535 610.433 655.535 610.453 654.545C610.733 640.845 608.763 627.475 604.073 614.585C598.313 598.745 588.113 586.815 572.613 579.695C560.433 574.105 549.033 575.755 538.293 583.375C532.743 587.305 528.423 592.385 524.943 598.175C517.673 610.265 514.523 623.495 514.053 637.475C513.713 647.525 515.423 657.305 517.863 666.975C520.033 675.545 523.533 683.585 528.613 690.855C535.103 700.135 543.623 706.725 554.703 709.615C557.823 710.425 561.093 711.045 564.303 711.095C570.893 711.195 577.213 709.595 583.193 706.785C592.833 702.255 600.153 695.295 604.233 685.445C607.833 676.725 610.093 667.575 610.383 657.525ZM363.593 724.135C369.263 723.275 374.863 721.915 379.733 718.875C385.603 715.205 390.513 710.355 394.193 704.415C401.213 693.095 405.363 680.835 406.813 667.545C407.963 656.955 408.413 646.445 406.173 635.975C404.733 629.265 403.403 622.425 400.063 616.365C392.673 602.955 381.643 594.255 366.263 591.735C359.523 590.635 352.823 591.335 346.523 593.795C337.973 597.135 331.033 602.755 326.203 610.645C321.263 618.715 318.023 627.545 315.403 636.595C312.893 645.255 312.283 654.205 311.843 663.145C311.173 676.735 313.743 689.535 321.213 701.195C325.003 707.105 329.123 712.555 335.013 716.625C340.233 720.235 345.693 723.135 352.033 723.855C355.693 724.265 359.413 724.095 363.593 724.135Z" fill="white"/>
<path d="M501.003 387.385C488.693 390.635 476.373 392.555 463.963 393.995C447.663 395.885 431.293 396.115 414.933 395.395C396.393 394.585 377.983 392.555 359.943 387.805C352.953 385.965 345.793 384.785 338.743 383.175C329.203 380.985 319.883 378.095 310.933 374.075C306.903 372.265 302.893 370.385 298.963 368.355C294.233 365.905 291.173 361.965 289.773 356.845C286.773 345.945 283.883 335.025 280.903 324.115C279.993 320.805 278.943 317.525 277.953 314.235C277.073 311.315 277.233 311.025 280.053 310.165C282.043 309.555 284.023 308.925 286.003 308.285C286.523 308.115 287.143 308.045 287.513 307.705C289.523 305.855 292.243 305.775 294.583 304.755C300.703 302.095 306.933 299.635 312.323 295.545C313.093 294.955 314.083 294.655 314.893 294.115C317.893 292.095 320.873 290.065 323.823 287.975C325.723 286.625 325.973 286.625 327.843 287.995C340.673 297.355 354.553 304.285 370.093 308.235C383.073 311.545 396.003 311.685 409.123 310.605C410.203 310.515 411.273 310.295 412.323 310.025C412.773 309.905 413.143 309.495 413.623 309.165C412.843 308.015 411.753 308.165 410.833 308.005C406.293 307.195 401.713 306.575 397.213 305.615C382.983 302.585 369.883 296.785 357.673 288.965C353.793 286.475 350.053 283.775 346.243 281.165C340.743 277.405 336.203 272.625 331.803 267.685C331.443 267.275 331.133 266.825 330.753 266.445C329.533 265.225 328.863 265.135 327.413 266.015C326.873 266.345 326.403 266.785 325.873 267.125C316.913 272.915 308.123 278.985 298.943 284.415C288.733 290.455 277.483 293.845 265.823 295.985C253.043 298.335 240.603 297.105 228.393 292.995C225.243 291.935 222.243 290.375 219.243 288.915C212.693 285.735 207.663 280.705 204.023 274.595C199.303 266.655 196.483 257.975 196.563 248.575C196.583 246.135 196.613 243.685 196.833 241.255C197.033 239.055 196.233 237.705 194.243 236.735C190.753 235.035 187.253 233.295 183.943 231.275C175.323 225.995 168.083 219.195 163.033 210.395C153.693 194.145 153.423 177.485 162.023 160.895C169.423 146.605 180.933 136.385 195.193 129.175C205.383 124.025 216.243 120.875 227.493 119.335C234.023 118.445 240.673 118.455 247.223 119.555C255.353 120.925 263.343 122.875 271.053 125.855C272.733 126.505 274.383 127.275 275.993 128.095C277.683 128.955 279.043 128.775 280.353 127.345C285.163 122.095 291.143 118.625 297.733 116.095C302.073 114.425 306.533 113.365 311.163 113.015C312.153 112.945 313.163 112.895 314.113 112.645C315.263 112.345 315.503 111.505 314.763 110.605C314.373 110.125 313.853 109.725 313.333 109.365C305.463 103.985 297.123 102.475 288.173 106.385C285.613 107.505 283.123 108.815 280.653 110.135C279.303 110.855 278.043 111.195 276.533 110.635C270.153 108.265 263.503 106.885 256.833 105.655C253.613 105.065 253.103 104.735 252.843 101.535C252.193 93.5752 252.823 85.7953 257.023 78.7053C262.463 69.5053 270.113 62.7653 279.533 57.7253C292.153 50.9853 304.423 52.7053 316.693 58.4353C318.733 59.3853 320.643 60.6253 322.643 61.6953C324.593 62.7353 325.283 62.5453 326.433 60.7153C326.673 60.3353 326.873 59.9253 327.073 59.5253C334.183 45.3953 344.573 34.1253 357.373 25.0053C373.803 13.2953 392.223 6.35525 411.953 2.75525C428.063 -0.184749 444.293 -0.79475 460.583 1.03525C467.853 1.85525 475.113 2.81525 482.383 3.69525C483.563 3.83525 484.613 4.08525 485.523 5.03525C486.093 5.62525 487.093 5.89525 487.953 6.12525C502.043 9.80525 515.413 15.2453 528.053 22.4353C545.103 32.1153 559.633 44.6653 570.933 60.7953C573.773 64.8553 573.793 64.8853 569.883 67.9453C565.213 71.5953 561.183 75.8653 557.803 80.7053C556.513 82.5453 555.043 83.3253 552.803 83.1153C538.933 81.8053 527.313 87.0153 517.003 95.7653C511.993 100.015 508.473 105.335 506.593 111.655C506.163 113.115 505.913 114.655 505.823 116.175C505.753 117.355 506.583 117.765 507.653 117.165C508.273 116.815 508.783 116.255 509.373 115.855C513.403 113.115 517.243 110.015 521.523 107.735C531.183 102.565 541.413 101.425 551.993 104.695C553.633 105.205 555.273 105.725 556.923 106.195C559.363 106.895 559.743 106.725 561.293 104.735C563.523 101.885 565.683 98.9752 568.083 96.2752C573.143 90.5652 578.883 85.5053 585.213 81.3253C588.993 78.8353 593.483 77.2153 597.853 75.8653C608.333 72.6253 619.003 72.0352 629.673 75.0852C641.473 78.4652 650.013 85.8052 655.423 96.7752C656.623 99.2052 657.613 101.745 658.523 104.295C659.243 106.315 660.483 107.645 662.423 108.525C671.533 112.645 679.933 117.935 687.713 124.215C702.663 136.285 714.243 150.865 720.393 169.265C726.783 188.375 725.973 207.175 717.143 225.445C709.733 240.765 698.113 252.175 683.603 260.695C665.043 271.595 644.803 276.375 623.393 276.145C612.063 276.025 600.873 274.285 589.793 271.895C582.993 270.425 576.173 269.015 569.673 266.395C567.123 265.365 565.823 265.985 564.453 268.685C562.153 273.215 559.703 277.625 556.373 281.505C552.123 286.445 547.773 291.255 542.633 295.325C536.783 299.945 530.223 303.065 523.073 304.985C519.933 305.825 516.733 306.465 513.543 307.085C507.953 308.165 502.393 308.045 496.863 306.595C495.733 306.295 494.563 306.045 493.403 305.965C492.853 305.925 491.943 306.195 491.783 306.575C491.563 307.125 491.633 308.085 491.993 308.535C492.833 309.575 493.853 310.515 494.933 311.305C497.833 313.405 501.133 314.695 504.613 315.415C512.893 317.115 521.203 317.925 529.673 316.735C537.663 315.605 544.793 312.475 551.333 307.935C556.323 304.475 560.953 300.525 564.883 295.885C567.263 293.075 569.283 289.935 571.353 286.875C572.843 284.675 572.963 284.545 575.523 285.285C582.123 287.195 588.693 289.255 595.343 290.945C599.623 292.035 604.033 292.585 608.393 293.355C609.103 293.485 609.843 293.465 610.553 293.585C612.383 293.895 612.713 294.295 612.293 296.155C611.593 299.245 610.773 302.295 610.013 305.375C607.483 315.555 604.883 325.715 602.493 335.935C601.673 339.455 599.953 342.245 597.323 344.615C593.343 348.205 588.993 351.235 584.303 353.845C565.933 364.095 546.713 372.505 526.933 379.575C518.493 382.555 509.793 384.755 501.003 387.385Z" fill="white"/>
<path d="M301.783 473.505C303.673 478.495 305.293 483.395 307.343 488.095C309.063 492.045 309.533 496.275 310.683 500.345C311.133 501.945 311.013 503.475 310.703 505.135C309.953 509.035 309.493 512.995 309.013 516.945C308.333 522.465 306.903 527.835 304.393 532.725C298.303 544.585 291.273 555.885 281.913 565.505C265.583 582.305 246.503 594.905 224.303 602.655C216.943 605.225 209.493 607.435 201.763 608.515C199.273 608.865 196.723 608.795 194.203 608.915C192.403 608.995 190.593 609.015 188.783 609.135C173.623 610.165 158.603 609.195 143.753 605.925C142.833 605.725 141.943 605.395 141.033 605.135C141.013 604.935 140.993 604.725 140.983 604.525C141.653 604.185 142.313 603.805 143.003 603.495C153.683 598.725 163.993 593.295 173.113 585.875C177.913 581.975 182.013 577.405 185.783 572.525C186.113 572.105 186.373 571.615 186.593 571.125C186.703 570.895 186.653 570.605 186.683 570.335C185.713 569.065 184.513 569.725 183.443 569.965C180.003 570.735 176.613 571.805 173.143 572.375C165.123 573.685 157.073 574.865 149.013 575.915C140.853 576.985 132.683 577.955 124.493 578.745C116.653 579.505 108.773 579.535 100.933 578.645C94.8326 577.955 88.7426 577.065 82.6526 576.275C80.9126 576.045 79.3626 575.455 77.9926 574.285C69.5326 567.065 60.7426 560.195 52.6526 552.595C43.4226 543.925 35.1226 534.345 28.0126 523.795C25.5426 520.125 22.6626 516.695 20.5426 512.835C17.5526 507.385 14.3526 502.005 12.3226 496.085C9.51262 487.875 6.5426 479.705 4.1426 471.375C2.7226 466.455 1.99262 461.285 1.44262 456.175C0.712617 449.345 0.452624 442.475 0.0126241 435.615C-0.0373759 434.855 0.0725984 434.075 0.142598 432.685C1.2026 433.505 1.85262 433.915 2.38262 434.435C4.88262 436.925 7.29261 439.495 9.84261 441.935C17.4426 449.215 25.5826 455.835 34.6026 461.255C50.8726 471.025 68.5226 474.905 87.4126 473.035C99.9826 471.785 111.823 468.185 122.993 462.235C128.763 459.165 134.153 455.565 139.453 451.765C147.323 446.115 155.813 441.475 164.383 436.965C174.553 431.615 185.293 427.885 196.483 425.525C216.753 421.255 236.403 423.555 255.433 431.655C262.783 434.785 269.593 438.905 276.353 443.105C282.823 447.125 287.703 452.845 292.423 458.715C296.083 463.255 298.933 468.255 301.783 473.505ZM174.523 496.465C180.813 493.685 187.133 490.985 193.373 488.105C206.973 481.825 220.843 476.395 235.803 474.385C245.503 473.075 255.213 471.985 264.853 474.945C265.543 475.155 266.313 475.075 267.523 475.175C263.453 470.115 259.033 466.555 253.433 464.565C247.513 462.455 241.363 461.485 235.173 460.595C231.453 460.055 227.793 460.675 224.093 460.825C215.273 461.185 206.633 462.415 198.283 465.385C185.483 469.935 173.073 475.395 160.783 481.155C151.943 485.295 143.243 489.745 134.443 493.995C128.093 497.065 121.773 500.215 114.823 501.805C107.843 503.395 100.813 504.475 93.6426 504.895C81.0926 505.645 68.9226 503.855 57.0426 499.915C49.8226 497.515 42.7426 494.775 36.1126 490.975C35.3126 490.515 34.4926 489.845 32.9426 490.345C33.8026 491.255 34.4226 491.985 35.1026 492.625C39.9726 497.165 45.5926 500.625 51.4226 503.755C61.7526 509.295 72.9126 512.265 84.3926 514.165C88.4926 514.845 92.6426 515.385 96.7826 515.585C108.343 516.135 119.703 514.725 130.903 511.815C143.443 508.555 155.563 504.065 167.613 499.395C169.843 498.525 171.973 497.545 174.523 496.465Z" fill="white"/>
<path d="M390.283 408.375C401.373 408.865 412.213 409.375 423.053 409.765C425.573 409.855 428.103 409.535 430.633 409.395C431.533 409.345 432.433 409.215 433.343 409.215C451.873 409.405 470.153 407.035 488.313 403.695C514.643 398.845 540.163 391.285 564.503 380.015C577.003 374.225 588.913 367.385 600.473 359.925C604.193 357.525 607.813 354.975 611.573 352.645C613.923 351.195 616.483 351.605 618.863 352.675C621.303 353.765 623.243 355.545 624.863 357.645C628.843 362.825 631.013 368.765 631.113 375.225C631.173 379.345 630.563 383.535 629.783 387.605C627.423 399.855 624.833 412.055 622.313 424.275C621.773 426.915 621.293 429.585 620.503 432.155C620.043 433.655 619.243 435.175 618.203 436.345C607.623 448.335 595.033 457.825 581.223 465.775C567.553 473.635 553.493 480.665 538.403 485.395C526.143 489.235 513.713 492.425 500.993 494.405C490.903 495.975 480.843 497.815 470.743 499.325C465.833 500.055 460.853 500.365 455.893 500.735C447.963 501.315 440.023 501.955 432.073 502.265C426.113 502.495 420.143 502.255 414.173 502.205C408.213 502.155 402.233 502.235 396.283 501.975C391.503 501.765 386.723 501.295 381.993 500.625C374.123 499.505 366.273 498.205 358.443 496.835C354.883 496.215 351.343 495.415 347.883 494.395C342.073 492.685 336.353 490.685 330.553 488.905C328.433 488.255 327.343 487.045 326.713 484.875C319.253 459.225 304.453 438.885 282.333 423.905C280.173 422.435 277.743 421.345 275.623 419.825C274.433 418.965 273.413 417.705 272.673 416.425C269.213 410.395 267.443 403.745 265.853 397.055C265.183 394.245 264.643 391.385 264.373 388.515C263.993 384.405 264.423 380.365 266.863 376.825C267.473 375.945 268.193 375.105 269.003 374.415C272.043 371.845 273.943 371.725 277.353 373.755C282.553 376.835 287.723 379.985 292.983 382.955C295.733 384.505 298.633 385.815 301.533 387.065C311.003 391.125 320.713 394.525 330.623 397.375C350.083 402.925 369.913 406.435 390.283 408.375Z" fill="white"/>
<path d="M256.843 362.815C249.703 370.175 247.663 378.965 248.923 388.675C249.383 392.245 250.353 395.755 251.053 399.305C251.513 401.605 251.983 403.915 252.303 406.235C252.813 410.035 252.253 410.515 248.613 409.665C248.263 409.585 247.913 409.475 247.563 409.395C234.873 406.635 222.093 405.115 209.083 406.305C198.253 407.295 187.983 410.315 178.073 414.695C176.663 415.315 175.233 415.875 173.853 416.535C172.063 417.385 170.433 417.295 168.733 416.215C164.853 413.735 160.873 411.395 156.983 408.925C152.813 406.265 148.293 404.525 143.493 403.445C140.193 402.695 136.883 402.575 133.533 403.105C128.263 403.935 122.963 404.555 117.943 406.515C117.493 406.685 116.943 406.585 116.013 406.625C116.233 405.535 116.313 404.665 116.583 403.875C118.943 397.095 122.183 390.785 126.253 384.855C130.043 379.335 134.053 374.005 138.413 368.915C147.073 358.815 157.343 350.835 169.293 345.045C173.263 343.125 177.363 341.415 181.503 339.875C183.763 339.025 186.203 338.525 188.613 338.205C199.603 336.745 210.463 337.715 221.123 340.595C224.323 341.455 227.403 342.875 230.443 344.265C239.523 348.425 247.873 353.735 255.373 360.355C256.023 360.945 256.403 361.885 256.843 362.815ZM172.403 372.205C179.673 371.355 186.943 370.425 194.223 369.675C199.993 369.085 205.773 369.095 211.523 370.105C217.963 371.225 224.233 372.895 230.343 375.205C231.363 375.595 232.403 376.455 233.783 375.395C233.483 374.845 233.323 374.185 232.913 373.835C229.873 371.285 226.933 368.575 223.683 366.315C213.233 359.035 201.683 357.055 189.293 359.685C187.703 360.025 186.163 360.665 184.563 360.845C179.403 361.445 174.443 362.815 169.583 364.545C164.173 366.465 159.163 369.155 154.743 372.845C153.743 373.675 152.183 374.555 153.023 376.105C153.833 377.585 155.283 376.555 156.443 376.265C161.623 374.955 166.783 373.625 172.403 372.205Z" fill="white"/>
</svg>
