<svg width="92" height="92" viewBox="0 0 92 92" fill="none" xmlns="http://www.w3.org/2000/svg">
<path d="M36.4517 7.84864C37.197 4.60557 41.5328 3.9525 43.2003 6.83216L56.0296 28.9723C56.2814 29.4087 56.6203 29.7886 57.0254 30.0883C57.4304 30.388 57.8928 30.6011 58.3838 30.7142L83.3252 36.452C86.5683 37.1973 87.2213 41.5331 84.3417 43.2006L62.2015 56.0299C61.7651 56.2817 61.3852 56.6207 61.0855 57.0257C60.7858 57.4307 60.5728 57.8931 60.4596 58.3841L54.7218 83.3255C53.9765 86.5686 49.6407 87.2216 47.9732 84.342L35.1439 62.2018C34.8921 61.7654 34.5532 61.3855 34.1481 61.0858C33.7431 60.7861 33.2807 60.5731 32.7897 60.4599L7.84833 54.7221C4.60525 53.9768 3.95219 49.641 6.83185 47.9735L28.972 35.1442C29.4084 34.8925 29.7883 34.5535 30.088 34.1484C30.3877 33.7434 30.6008 33.281 30.7139 32.79L36.4517 7.84864Z" stroke="#323C32" stroke-width="10" stroke-linecap="round" stroke-linejoin="round"/>
</svg>
