<svg width="125" height="136" viewBox="0 0 125 136" fill="none" xmlns="http://www.w3.org/2000/svg">
<path d="M44.8936 14.536C53.2455 2.48799 71.0592 2.48798 79.411 14.536L81.0747 16.9359C84.6506 22.0943 90.3464 25.3828 96.6016 25.9004L99.5119 26.1412C114.122 27.3501 123.029 42.7772 116.771 56.0342L115.524 58.6749C112.845 64.3509 112.845 70.9279 115.524 76.6039L116.771 79.2446C123.029 92.5016 114.122 107.929 99.5119 109.138L96.6017 109.378C90.3464 109.896 84.6506 113.184 81.0747 118.343L79.411 120.743C71.0592 132.791 53.2455 132.791 44.8936 120.743L43.23 118.343C39.6541 113.184 33.9583 109.896 27.703 109.378L24.7928 109.138C10.183 107.929 1.27614 92.5016 7.53408 79.2447L8.78065 76.6039C11.46 70.9279 11.46 64.3509 8.78066 58.6749L7.53408 56.0342C1.27614 42.7772 10.183 27.3501 24.7928 26.1412L27.703 25.9004C33.9583 25.3828 39.6541 22.0943 43.23 16.9359L44.8936 14.536Z" fill="#98E094" stroke="white" stroke-width="11"/>
</svg>
