<svg width="377" height="220" viewBox="0 0 377 220" fill="none" xmlns="http://www.w3.org/2000/svg">
<g clip-path="url(#clip0_792_462)">
<rect width="86.8984" height="52.0524" rx="20" transform="matrix(0.964022 -0.265823 0.269161 0.963095 13.6689 82.6075)" fill="#90D881"/>
<path d="M48.6608 106.718C47.504 107.037 46.4302 107.066 45.4396 106.803C44.449 106.54 43.5929 106.015 42.8712 105.229C42.1496 104.442 41.616 103.431 41.2706 102.195C40.9252 100.959 40.8598 99.8276 41.0746 98.8002C41.2848 97.7568 41.7462 96.8689 42.4587 96.1365C43.1711 95.4041 44.1058 94.8784 45.2626 94.5594C46.4195 94.2404 47.4932 94.2123 48.4838 94.4751C49.4744 94.7379 50.3306 95.2625 51.0522 96.049C51.7694 96.8194 52.3007 97.8226 52.6461 99.0585C52.9915 100.295 53.0591 101.434 52.8489 102.478C52.6386 103.521 52.1772 104.409 51.4648 105.141C50.7523 105.874 49.8176 106.399 48.6608 106.718ZM48.1763 104.985C49.2367 104.692 49.9771 104.091 50.3973 103.18C50.8131 102.252 50.8236 101.082 50.4288 99.6699C50.0341 98.2574 49.4202 97.2683 48.5872 96.7027C47.7542 96.1371 46.8075 96.0006 45.7471 96.293C44.7028 96.5809 43.9624 97.1827 43.5261 98.0983C43.1058 99.0095 43.0931 100.171 43.4879 101.584C43.8826 102.996 44.4988 103.993 45.3362 104.575C46.1852 105.136 47.1319 105.273 48.1763 104.985ZM59.6885 103.678C58.8851 103.899 58.1092 103.94 57.3608 103.801C56.6284 103.657 56.0011 103.363 55.4791 102.919C54.9731 102.471 54.6258 101.91 54.4374 101.236C54.1952 100.369 54.2214 99.6269 54.5162 99.0097C54.8109 98.3924 55.4433 97.8377 56.4133 97.3455C57.3787 96.8372 58.7291 96.3439 60.4643 95.8654L61.5971 95.553L61.9874 96.9495L60.9028 97.2486C59.9709 97.5055 59.2007 97.7525 58.592 97.9895C57.9833 98.2265 57.5144 98.4682 57.1852 98.7145C56.8561 98.9609 56.647 99.2346 56.5581 99.5358C56.4648 99.8209 56.4697 100.148 56.5728 100.517C56.7478 101.143 57.1083 101.597 57.6542 101.879C58.2162 102.156 58.8829 102.188 59.6541 101.976C60.2646 101.807 60.7625 101.514 61.1477 101.097C61.5284 100.663 61.7858 100.16 61.9199 99.5874C62.0495 98.9984 62.0223 98.3748 61.8384 97.7167L61.0645 94.9478C60.7998 94.0008 60.4164 93.3718 59.9141 93.0607C59.4074 92.7337 58.6961 92.6964 57.7803 92.949C57.1055 93.135 56.4598 93.4254 55.8433 93.8202C55.2429 94.2105 54.6498 94.7198 54.064 95.3482L52.9277 93.9758C53.2646 93.5717 53.6691 93.1922 54.141 92.8374C54.6245 92.462 55.1397 92.1384 55.6867 91.8665C56.2498 91.5903 56.8045 91.3768 57.3508 91.2262C58.3951 90.9382 59.3018 90.8697 60.0708 91.0207C60.8354 91.1557 61.4828 91.5217 62.0131 92.1189C62.5389 92.7 62.9499 93.5203 63.2459 94.5797L65.2916 101.899L63.2189 102.471L62.472 99.7982L62.6889 99.7384C62.7263 100.368 62.6289 100.948 62.3965 101.479C62.1642 102.01 61.8165 102.468 61.3536 102.855C60.9023 103.222 60.3472 103.496 59.6885 103.678ZM72.4667 100.154C71.0367 100.548 69.8651 100.474 68.9518 99.9304C68.034 99.371 67.3799 98.393 66.9896 96.9965L65.3343 91.0734L63.0448 91.7048L62.5737 90.0194L64.8633 89.388L63.8674 85.8246L66.0605 85.2198L67.0564 88.7833L70.7438 87.7665L71.2148 89.4519L67.5275 90.4687L69.129 96.1991C69.3757 97.082 69.7466 97.6971 70.2418 98.0447C70.7369 98.3922 71.4103 98.4486 72.2618 98.2138C72.5189 98.1429 72.7612 98.0502 72.9888 97.9355C73.2279 97.8005 73.451 97.6698 73.658 97.5436L74.477 99.0811C74.2925 99.2876 74.0025 99.4886 73.6072 99.684C73.2325 99.8911 72.8523 100.048 72.4667 100.154ZM79.0798 98.3306C78.4693 98.499 77.8511 98.6089 77.2252 98.6605C76.6154 98.7076 76.0323 98.6955 75.4759 98.6242C74.931 98.5324 74.4313 98.3849 73.9765 98.1819L74.2033 96.4855C74.6696 96.6681 75.1569 96.8018 75.6651 96.8864C76.1688 96.9549 76.6751 96.9709 77.184 96.9343C77.693 96.8977 78.1884 96.813 78.6705 96.6801C79.5541 96.4364 80.1761 96.092 80.5362 95.6469C80.8964 95.2018 81.0024 94.7144 80.8544 94.1847C80.7288 93.7353 80.4797 93.4323 80.1071 93.2757C79.7462 93.0986 79.2344 93.0323 78.5719 93.0766L76.2027 93.2372C75.1437 93.2872 74.2854 93.1262 73.6277 92.7543C72.9816 92.362 72.5441 91.7565 72.3154 90.9378C72.1135 90.2155 72.1313 89.5363 72.3689 88.9003C72.6181 88.2438 73.0557 87.6736 73.6819 87.1897C74.3081 86.7059 75.0792 86.3377 75.995 86.0851C76.5413 85.9345 77.0872 85.8445 77.6327 85.8151C78.1783 85.7857 78.7051 85.8133 79.2133 85.8979C79.7215 85.9825 80.1754 86.1513 80.5748 86.4042L80.3172 88.083C79.9312 87.8783 79.5185 87.7328 79.079 87.6465C78.6396 87.5602 78.1975 87.5265 77.7529 87.5454C77.3037 87.5482 76.8703 87.6072 76.4525 87.7224C75.5849 87.9616 74.9733 88.3118 74.6176 88.773C74.278 89.2297 74.1845 89.7309 74.337 90.2766C74.4536 90.694 74.6786 91.0037 75.0119 91.2056C75.3614 91.4032 75.8432 91.4864 76.4575 91.4554L78.8267 91.2948C79.9339 91.2315 80.8221 91.3756 81.4914 91.727C82.1562 92.0624 82.6052 92.6474 82.8385 93.4821C83.0448 94.2204 83.0212 94.9098 82.7675 95.5503C82.53 96.1863 82.0901 96.7485 81.4478 97.2368C80.8171 97.7046 80.0278 98.0692 79.0798 98.3306Z" fill="black"/>
<rect width="112.907" height="50.8467" rx="20" transform="matrix(0.930363 0.366639 -0.363416 0.931627 250.545 7.55273)" fill="#89CD8F"/>
<path d="M260.237 48.8408L266.297 33.3059L268.367 34.1217L267.349 36.7303L267.117 36.6386C267.698 35.8824 268.453 35.3917 269.382 35.1665C270.31 34.9413 271.286 35.0304 272.31 35.4337C273.318 35.8308 274.1 36.4168 274.656 37.1914C275.219 37.9505 275.537 38.8551 275.61 39.9052C275.69 40.9397 275.493 42.0625 275.021 43.2736C274.554 44.4692 273.936 45.4348 273.166 46.1703C272.418 46.8965 271.57 47.3506 270.622 47.5325C269.696 47.705 268.729 47.5926 267.722 47.1954C266.714 46.7983 265.945 46.1999 265.416 45.4003C264.887 44.6007 264.663 43.7328 264.741 42.7965L264.997 42.8973L262.353 49.6749L260.237 48.8408ZM267.887 45.326C268.911 45.7293 269.864 45.693 270.747 45.2171C271.637 44.7256 272.348 43.7967 272.881 42.4303C273.414 41.0639 273.518 39.9045 273.191 38.9519C272.865 37.9993 272.191 37.3214 271.167 36.9181C270.144 36.5148 269.19 36.5511 268.307 37.027C267.424 37.503 266.715 38.4241 266.182 39.7905C265.649 41.1569 265.543 42.3241 265.863 43.2922C266.189 44.2448 266.864 44.9227 267.887 45.326ZM279.512 51.8418C278.287 51.3591 277.323 50.7106 276.621 49.8965C275.941 49.073 275.53 48.1317 275.388 47.0728C275.253 45.9983 275.418 44.8633 275.885 43.6677C276.345 42.4876 276.98 41.5467 277.791 40.845C278.617 40.1494 279.537 39.7151 280.553 39.5421C281.584 39.3752 282.635 39.5026 283.705 39.9242C284.744 40.3336 285.54 40.9071 286.093 41.6445C286.661 42.3881 286.976 43.2556 287.037 44.2468C287.119 45.2286 286.933 46.3018 286.478 47.4663L286.179 48.2349L277.363 44.761L277.89 43.4101L285.31 46.3341L284.787 46.5043C285.26 45.2932 285.36 44.2577 285.087 43.3978C284.82 42.5224 284.175 41.883 283.152 41.4797C282.407 41.1864 281.702 41.1144 281.035 41.2638C280.375 41.3976 279.781 41.7278 279.253 42.2545C278.732 42.7656 278.311 43.4326 277.99 44.2555L277.935 44.3953C277.572 45.3269 277.413 46.1691 277.46 46.9218C277.527 47.6651 277.785 48.3128 278.231 48.865C278.684 49.4016 279.329 49.8349 280.166 50.1649C280.833 50.4276 281.516 50.5803 282.215 50.6229C282.935 50.656 283.662 50.5575 284.396 50.3272L284.475 52.0511C283.782 52.3153 282.977 52.4282 282.062 52.39C281.168 52.3423 280.318 52.1596 279.512 51.8418ZM283.987 58.2001L290.047 42.6653L292.117 43.481L291.099 46.0896L290.866 45.9979C291.448 45.2417 292.203 44.751 293.131 44.5258C294.06 44.3006 295.036 44.3897 296.059 44.793C297.067 45.1902 297.85 45.7761 298.406 46.5507C298.969 47.3099 299.287 48.2144 299.36 49.2645C299.44 50.299 299.243 51.4218 298.771 52.6329C298.304 53.8285 297.686 54.7941 296.916 55.5297C296.168 56.2558 295.32 56.7099 294.372 56.8918C293.446 57.0643 292.479 56.952 291.471 56.5548C290.463 56.1576 289.695 55.5592 289.166 54.7596C288.637 53.96 288.412 53.0921 288.491 52.1558L288.747 52.2567L286.103 59.0342L283.987 58.2001ZM291.637 54.6853C292.66 55.0887 293.614 55.0523 294.497 54.5764C295.387 54.0849 296.098 53.156 296.631 51.7896C297.164 50.4232 297.267 49.2638 296.941 48.3112C296.615 47.3587 295.94 46.6807 294.917 46.2774C293.893 45.8741 292.94 45.9104 292.057 46.3864C291.173 46.8623 290.465 47.7834 289.932 49.1498C289.399 50.5162 289.293 51.6835 289.613 52.6515C289.939 53.6041 290.614 54.282 291.637 54.6853ZM296.475 63.1215L302.535 47.5866L304.605 48.4024L303.587 51.0109L303.355 50.9193C303.936 50.1631 304.691 49.6723 305.619 49.4471C306.548 49.222 307.524 49.311 308.548 49.7143C309.555 50.1115 310.338 50.6974 310.894 51.4721C311.457 52.2312 311.775 53.1358 311.848 54.1858C311.928 55.2203 311.731 56.3431 311.259 57.5542C310.792 58.7498 310.174 59.7154 309.404 60.451C308.656 61.1772 307.808 61.6312 306.86 61.8131C305.934 61.9856 304.967 61.8733 303.959 61.4761C302.952 61.0789 302.183 60.4805 301.654 59.6809C301.125 58.8813 300.9 58.0134 300.979 57.0772L301.235 57.178L298.591 63.9556L296.475 63.1215ZM304.125 59.6067C305.149 60.01 306.102 59.9737 306.985 59.4977C307.875 59.0063 308.586 58.0774 309.119 56.711C309.652 55.3446 309.755 54.1851 309.429 53.2326C309.103 52.28 308.428 51.6021 307.405 51.1988C306.382 50.7955 305.428 50.8318 304.545 51.3077C303.661 51.7836 302.953 52.7048 302.42 54.0712C301.887 55.4376 301.781 56.6048 302.101 57.5729C302.427 58.5255 303.102 59.2034 304.125 59.6067ZM315.75 66.1225C314.525 65.6397 313.561 64.9913 312.859 64.1772C312.179 63.3536 311.767 62.4124 311.626 61.3534C311.491 60.279 311.656 59.1439 312.122 57.9483C312.583 56.7683 313.218 55.8274 314.029 55.1257C314.854 54.43 315.775 53.9957 316.791 53.8227C317.822 53.6558 318.873 53.7832 319.942 54.2048C320.981 54.6143 321.777 55.1877 322.331 55.9252C322.899 56.6688 323.214 57.5362 323.274 58.5274C323.357 59.5093 323.17 60.5824 322.716 61.747L322.416 62.5156L313.601 59.0417L314.128 57.6908L321.548 60.6147L321.025 60.785C321.498 59.5739 321.597 58.5384 321.325 57.6785C321.058 56.803 320.413 56.1637 319.389 55.7604C318.645 55.4671 317.94 55.3951 317.273 55.5444C316.613 55.6783 316.019 56.0085 315.491 56.5351C314.97 57.0462 314.549 57.7132 314.228 58.5362L314.173 58.6759C313.81 59.6075 313.651 60.4497 313.697 61.2024C313.765 61.9457 314.023 62.5935 314.469 63.1456C314.922 63.6823 315.567 64.1156 316.404 64.4455C317.071 64.7083 317.754 64.861 318.453 64.9035C319.173 64.9367 319.9 64.8381 320.634 64.6078L320.713 66.3318C320.02 66.5959 319.215 66.7089 318.3 66.6706C317.406 66.6229 316.556 66.4402 315.75 66.1225ZM321.86 68.2885L326.284 56.9459L328.354 57.7617L327.301 60.4634L327.068 60.3717C327.679 59.5379 328.402 59.0164 329.235 58.8072C330.074 58.5825 331.043 58.6422 332.144 58.9862L332.892 59.2004L332.337 61.1046L330.966 60.6986C329.9 60.404 328.979 60.4261 328.203 60.7651C327.442 61.1102 326.871 61.7719 326.489 62.7501L324 69.1317L321.86 68.2885Z" fill="black"/>
<path d="M65.2524 56.4433C64.9448 56.902 65.0675 57.5232 65.5262 57.8307C65.985 58.1383 66.6061 58.0157 66.9137 57.5569L66.083 57.0001L65.2524 56.4433ZM134.083 27L133.701 27.9242L134.083 27ZM170.597 93.8743C171.08 94.1425 171.689 93.9686 171.957 93.4858L176.328 85.6184C176.596 85.1356 176.422 84.5268 175.939 84.2586C175.457 83.9903 174.848 84.1643 174.58 84.6471L170.694 91.6403L163.701 87.7552C163.218 87.487 162.61 87.6609 162.341 88.1437C162.073 88.6265 162.247 89.2353 162.73 89.5035L170.597 93.8743ZM66.083 57.0001C66.9137 57.5569 66.9136 57.557 66.9136 57.557C66.9138 57.5567 66.9139 57.5565 66.9143 57.556C66.9149 57.555 66.916 57.5533 66.9176 57.551C66.9208 57.5463 66.9258 57.5389 66.9327 57.5288C66.9464 57.5086 66.9674 57.4777 66.9957 57.4365C67.0523 57.3542 67.1379 57.2308 67.2517 57.0695C67.4793 56.747 67.82 56.2732 68.2678 55.6739C69.1636 54.4753 70.4877 52.7761 72.1941 50.7833C75.6094 46.795 80.5438 41.6455 86.6289 36.9812C98.8197 27.637 115.433 20.3736 133.701 27.9242L134.083 27L134.465 26.0759C115.233 18.1265 97.8463 25.8631 85.4122 35.3939C79.1848 40.1672 74.1504 45.4239 70.675 49.4825C68.9361 51.5132 67.5844 53.2475 66.6658 54.4766C66.2064 55.0913 65.8551 55.5798 65.6177 55.9162C65.499 56.0845 65.4087 56.2147 65.3476 56.3036C65.317 56.348 65.2937 56.3822 65.2778 56.4056C65.2699 56.4173 65.2638 56.4263 65.2595 56.4326C65.2574 56.4358 65.2557 56.4383 65.2546 56.44C65.254 56.4409 65.2534 56.4417 65.2531 56.4422C65.2527 56.4428 65.2524 56.4433 66.083 57.0001ZM134.083 27L133.701 27.9242C150.857 35.0151 159.204 48.5976 163.645 61.8104C165.867 68.4216 167.105 74.9228 167.974 80.4493C168.411 83.2305 168.748 85.7079 169.08 87.8936C169.407 90.0445 169.727 91.8931 170.121 93.2748L171.083 93.0001L172.045 92.7254C171.689 91.4822 171.385 89.7519 171.057 87.5931C170.734 85.469 170.385 82.9058 169.95 80.1385C169.073 74.5677 167.815 67.9397 165.541 61.1731C160.989 47.6303 152.336 33.4627 134.465 26.0759L134.083 27Z" fill="black"/>
<path d="M348.569 88.3338C348.477 87.7892 347.961 87.4221 347.417 87.5139C346.872 87.6057 346.505 88.1215 346.597 88.6662L347.583 88.5L348.569 88.3338ZM343.083 139L342.293 138.387V138.387L343.083 139ZM269.037 148.662C268.574 148.964 268.444 149.583 268.745 150.046L273.659 157.586C273.961 158.049 274.581 158.179 275.043 157.878C275.506 157.576 275.637 156.957 275.335 156.494L270.967 149.792L277.669 145.424C278.132 145.122 278.262 144.502 277.961 144.04C277.659 143.577 277.04 143.446 276.577 143.748L269.037 148.662ZM347.583 88.5C346.597 88.6662 346.597 88.6661 346.597 88.6662C346.597 88.6665 346.597 88.6667 346.597 88.6672C346.597 88.6681 346.597 88.6695 346.598 88.6715C346.598 88.6755 346.6 88.6817 346.601 88.6901C346.604 88.7069 346.608 88.7325 346.613 88.7665C346.625 88.8345 346.641 88.9366 346.662 89.0708C346.704 89.3393 346.765 89.7364 346.838 90.2476C346.985 91.2701 347.184 92.7485 347.389 94.5666C347.8 98.2043 348.237 103.194 348.342 108.606C348.446 114.023 348.218 119.836 347.31 125.132C346.398 130.445 344.818 135.134 342.293 138.387L343.083 139L343.873 139.613C346.692 135.982 348.347 130.916 349.281 125.47C350.219 120.005 350.447 114.054 350.341 108.567C350.235 103.076 349.792 98.0218 349.377 94.3422C349.169 92.5015 348.967 91.0028 348.818 89.9628C348.743 89.4427 348.681 89.0373 348.638 88.7609C348.616 88.6228 348.599 88.5169 348.587 88.4451C348.582 88.4092 348.577 88.3818 348.574 88.3632C348.572 88.3539 348.571 88.3468 348.57 88.3419C348.57 88.3394 348.57 88.3375 348.57 88.3362C348.569 88.3355 348.569 88.3349 348.569 88.3346C348.569 88.3342 348.569 88.3338 347.583 88.5ZM343.083 139L342.293 138.387C338.145 143.73 331.62 147.096 324.027 149.098C316.443 151.098 307.896 151.711 299.84 151.627C291.791 151.544 284.273 150.767 278.765 150.01C276.012 149.632 273.764 149.259 272.206 148.981C271.427 148.842 270.82 148.726 270.41 148.646C270.205 148.606 270.048 148.575 269.944 148.553C269.892 148.543 269.853 148.535 269.827 148.529C269.814 148.527 269.804 148.525 269.798 148.523C269.795 148.523 269.792 148.522 269.791 148.522C269.79 148.522 269.79 148.522 269.79 148.522C269.789 148.522 269.789 148.522 269.583 149.5C269.377 150.478 269.377 150.479 269.378 150.479C269.378 150.479 269.379 150.479 269.38 150.479C269.382 150.48 269.385 150.48 269.389 150.481C269.396 150.483 269.407 150.485 269.421 150.488C269.449 150.494 269.491 150.502 269.545 150.513C269.654 150.535 269.816 150.568 270.026 150.609C270.447 150.691 271.064 150.808 271.854 150.95C273.435 151.232 275.71 151.609 278.492 151.992C284.055 152.756 291.661 153.543 299.819 153.627C307.971 153.712 316.714 153.095 324.537 151.032C332.352 148.971 339.35 145.439 343.873 139.613L343.083 139Z" fill="black"/>
<path d="M195.833 109C190.408 108.998 185.111 110.641 180.64 113.713C176.168 116.784 172.734 121.14 170.79 126.204C168.768 125.621 166.718 125.14 164.648 124.761C160.39 123.99 156.07 123.611 151.744 123.63L150.905 123.65L150.671 123.659L150.574 123.664C149.674 123.713 148.824 124.093 148.187 124.73C147.551 125.367 147.171 126.216 147.122 127.116L147.107 127.452C147.098 127.647 147.091 127.925 147.088 128.286C147.078 128.998 147.083 130.016 147.127 131.269C147.224 133.775 147.502 137.256 148.219 141.19C148.872 144.773 149.915 148.819 151.583 152.875H150.72C149.755 152.875 148.83 153.258 148.148 153.94C147.466 154.622 147.083 155.547 147.083 156.512L147.083 157.75C147.083 162.845 147.863 167.759 149.316 172.375H242.35C243.834 167.642 244.587 162.71 244.583 157.75L244.583 156.512C244.583 155.547 244.2 154.622 243.518 153.94C242.836 153.258 241.911 152.875 240.946 152.875H239.693L239.703 152.266C239.7 146.989 237.943 141.862 234.708 137.693C231.472 133.524 226.943 130.549 221.831 129.236C220.368 123.45 217.015 118.318 212.305 114.653C207.595 110.987 201.796 108.998 195.828 109M195.828 116.313C199.728 116.313 203.538 117.482 206.766 119.669C209.995 121.856 212.493 124.961 213.939 128.583C209.747 128.936 205.724 130.395 202.279 132.81C198.835 135.225 196.092 138.51 194.332 142.331C193.017 140.383 191.52 138.564 189.861 136.9C186.21 133.249 181.964 130.611 177.664 128.695C179.096 125.043 181.595 121.908 184.837 119.699C188.078 117.49 191.91 116.31 195.833 116.313M232.391 152.266C232.391 152.471 232.386 152.674 232.376 152.875H199.572L199.484 152.632L199.484 152.266C199.484 147.902 201.218 143.717 204.303 140.632C207.389 137.546 211.574 135.813 215.938 135.813C220.301 135.813 224.486 137.546 227.572 140.632C230.657 143.717 232.391 147.902 232.391 152.266ZM184.694 142.072C187.828 145.202 190.1 148.97 191.738 152.875H181.501L172.823 144.198C172.488 143.839 172.085 143.55 171.636 143.351C171.188 143.151 170.703 143.043 170.213 143.035C169.722 143.026 169.234 143.116 168.779 143.3C168.323 143.484 167.91 143.758 167.563 144.105C167.216 144.452 166.942 144.866 166.758 145.321C166.574 145.776 166.484 146.264 166.492 146.755C166.501 147.246 166.608 147.73 166.808 148.178C167.008 148.627 167.296 149.031 167.656 149.365L171.166 152.875H159.612C157.467 148.605 156.18 144.037 155.419 139.874C154.886 136.94 154.56 133.971 154.444 130.991L154.444 130.982C156.687 131.065 159.817 131.313 163.331 131.957C170.449 133.258 178.732 136.1 184.694 142.072ZM152.285 179.688C156.348 187.752 162.571 194.529 170.261 199.263C177.95 203.997 186.803 206.503 195.833 206.5C204.863 206.503 213.716 203.997 221.405 199.263C229.095 194.529 235.318 187.752 239.381 179.688H152.285Z" fill="#7ECA6F"/>
</g>
<defs>
<clipPath id="clip0_792_462">
<rect width="377" height="220" fill="white"/>
</clipPath>
</defs>
</svg>
