<svg width="59" height="85" viewBox="0 0 59 85" fill="none" xmlns="http://www.w3.org/2000/svg">
<path d="M0.00239891 38.4278C0.00239891 37.8609 -0.00185585 37.3341 0.00523282 36.8067C0.00735942 36.6713 0.0201191 36.5253 0.073993 36.404C0.149842 36.232 0.174653 36.0614 0.1704 35.8794C0.165438 35.6714 0.168982 35.4634 0.16969 35.2554C0.16969 35.1722 0.153386 35.0826 0.178197 35.0072C0.294451 34.6546 0.241286 34.2928 0.251919 33.9346C0.254046 33.8521 0.261844 33.7612 0.232781 33.6878C0.135666 33.4453 0.176779 33.1942 0.173943 32.9467C0.173235 32.8529 0.191666 32.7493 0.234907 32.6675C0.332022 32.487 0.3384 32.298 0.337692 32.1027C0.334856 31.5343 0.332729 30.9653 0.339818 30.3969C0.341945 30.2333 0.38235 30.0704 0.39511 29.9061C0.403616 29.7975 0.418504 29.6812 0.390149 29.5797C0.302959 29.2722 0.308629 28.9803 0.462453 28.6947C0.487972 28.6474 0.505694 28.5868 0.500023 28.5353C0.463162 28.2131 0.572327 27.9056 0.595011 27.589C0.616277 27.3027 0.700633 27.0207 0.731114 26.7344C0.804127 26.0455 1.02387 25.389 1.17699 24.7184C1.24717 24.4102 1.36059 24.112 1.45699 23.8094C1.61578 23.3102 1.77102 22.8095 1.93831 22.3124C2.01345 22.0903 2.10135 21.8703 2.20627 21.6609C2.42389 21.2272 2.62804 20.7893 2.79533 20.3324C2.87118 20.1251 2.98106 19.929 3.09022 19.7358C3.53397 18.9538 3.97276 18.1676 4.43636 17.3969C4.68518 16.9829 4.97085 16.5895 5.25794 16.1995C5.65136 15.6657 6.01997 15.1136 6.48286 14.6313C6.75932 14.3429 6.99891 14.0185 7.25552 13.7118C7.29097 13.6694 7.33066 13.63 7.36965 13.5905C7.91122 13.051 8.44288 12.4996 9.00004 11.9764C9.34172 11.6548 9.72096 11.3728 10.0882 11.0787C10.4334 10.8023 10.7836 10.5323 11.1337 10.2615C11.2535 10.1691 11.379 10.0831 11.5038 9.99635C11.5378 9.97237 11.5839 9.96321 11.6122 9.9357C11.9645 9.59935 12.4069 9.38358 12.7819 9.07613C13.1554 8.76939 13.5595 8.49932 13.9465 8.2081C14.425 7.84777 14.8376 7.42468 15.2196 6.9614C15.5734 6.53197 15.8867 6.08208 16.1688 5.60611C16.2184 5.5229 16.2695 5.43899 16.3311 5.36495C16.5374 5.12026 16.6955 4.84455 16.8628 4.57378C17.4434 3.63593 18.199 2.84405 19.0064 2.10083C19.3431 1.79127 19.755 1.57902 20.1378 1.3287C20.6191 1.0142 21.1493 0.804772 21.6838 0.615088C22.1261 0.458546 22.5897 0.360531 23.0462 0.247002C23.3007 0.183539 23.5602 0.13841 23.8196 0.0932806C23.9281 0.0742417 24.0408 0.0777675 24.1521 0.0721263C24.3725 0.0601388 24.5987 0.106679 24.8127 0.012189C24.8475 -0.00332416 24.8999 -0.00402949 24.9354 0.0100734C25.192 0.11232 25.4599 0.0784727 25.7208 0.0671903C26.0596 0.0516771 26.3836 0.123602 26.7111 0.179308C26.9564 0.220912 27.1995 0.273798 27.4433 0.325979C27.5383 0.346428 27.6326 0.371813 27.7233 0.40566C28.3989 0.660923 29.078 0.909135 29.716 1.25184C29.9102 1.3562 30.0917 1.48594 30.2696 1.61781C30.5588 1.83217 30.8431 2.05359 31.1238 2.27853C31.2833 2.40616 31.4293 2.55001 31.5853 2.68187C31.7455 2.81726 31.9007 2.95476 31.9971 3.14515C32.0092 3.16913 32.0311 3.18958 32.051 3.20791C32.5529 3.67401 32.9073 4.25646 33.3248 4.78885C33.5467 5.07161 33.7905 5.33815 34.0372 5.59906C34.3045 5.88182 34.5767 6.16176 34.8666 6.42126C35.0814 6.61376 35.3252 6.77595 35.5613 6.94448C35.6967 7.04108 35.847 7.11653 35.9824 7.21243C36.6395 7.67783 37.3434 8.06707 38.0374 8.47112C38.0856 8.49932 38.1324 8.52823 38.1784 8.55996C38.9958 9.13043 39.8528 9.64589 40.629 10.2721C41.0267 10.5929 41.4725 10.8601 41.8085 11.255C42.7421 12.0074 43.5339 12.9058 44.3824 13.7456C44.7638 14.1229 45.0778 14.5678 45.4223 14.9824C45.4578 15.0247 45.484 15.0762 45.523 15.1143C46.0525 15.6291 46.4353 16.2609 46.8883 16.8363C47.4348 17.5308 47.9268 18.2691 48.4832 18.9559C48.8398 19.3959 49.202 19.8324 49.5444 20.2837C49.8202 20.6476 50.1065 21.0008 50.4177 21.3379C50.7353 21.6813 50.9877 22.084 51.2705 22.4591C51.4286 22.6685 51.598 22.8702 51.7483 23.0853C52.265 23.825 52.7286 24.5999 53.0845 25.4256C53.3347 26.0074 53.4928 26.6286 53.6884 27.2336C53.731 27.3648 53.76 27.5002 53.7955 27.6334C53.8167 27.7131 53.8571 27.7928 53.8586 27.8725C53.8621 28.0946 53.9209 28.3125 53.933 28.5283C53.9564 28.9415 53.9762 29.354 54.0259 29.7658C54.0535 29.9964 54.0493 30.2333 53.9663 30.4646C53.9309 30.564 53.9443 30.6846 53.95 30.7946C53.9706 31.1987 53.9195 31.5943 53.8118 31.9828C53.8004 32.023 53.7891 32.0632 53.7856 32.1041C53.7551 32.4468 53.7317 32.7909 53.6948 33.1329C53.6743 33.324 53.6516 33.52 53.5927 33.7019C53.5311 33.893 53.5311 34.0827 53.5304 34.2766C53.5297 34.9705 53.5382 35.6636 53.5275 36.3575C53.5176 37.0514 53.602 37.7325 53.7558 38.4081C53.7678 38.4617 53.7813 38.5181 53.7785 38.5717C53.7508 39.0349 53.9195 39.4686 53.9826 39.9185C53.9918 39.9862 54.028 40.0532 54.0273 40.1195C54.0195 40.5813 54.1797 41.015 54.2484 41.4628C54.3108 41.871 54.4193 42.2694 54.4625 42.6834C54.5143 43.1749 54.6362 43.6586 54.7283 44.1458C54.7893 44.4702 54.8453 44.7939 54.8772 45.1246C54.9112 45.4793 55.0105 45.8276 55.0757 46.1795C55.1834 46.7612 55.3224 47.3366 55.3798 47.9282C55.4131 48.2688 55.5194 48.6017 55.5811 48.9408C55.6357 49.2384 55.7165 49.5303 55.7122 49.8399C55.7094 50.043 55.7675 50.2489 55.8094 50.4506C55.9348 51.057 56.1014 51.6585 56.1851 52.2705C56.2751 52.927 56.4062 53.5729 56.5282 54.2224C56.5707 54.4501 56.5657 54.6864 56.6161 54.9184C56.7295 55.443 56.8181 55.9725 56.9159 56.5007C56.9684 56.7849 57.0286 57.0655 57.052 57.3567C57.0789 57.698 57.1661 58.0351 57.2363 58.3722C57.3008 58.6824 57.3618 58.9899 57.388 59.3086C57.4178 59.6774 57.5248 60.0384 57.5801 60.4058C57.6453 60.8409 57.7318 61.2745 57.7821 61.7103C57.8218 62.0537 57.8658 62.3915 57.9395 62.7293C57.9948 62.9838 57.9452 63.2553 58.0437 63.5063C58.0728 64.5295 58.1763 65.5498 58.1295 66.5751C57.9913 66.9594 58.1096 67.3769 57.9735 67.7612C57.9742 68.3048 57.8034 68.821 57.7127 69.3492C57.7013 69.4169 57.695 69.4867 57.6751 69.5522C57.4313 70.3744 57.1817 71.1952 56.8287 71.9786C56.6352 72.4074 56.3935 72.8142 56.1744 73.231C56.0837 73.403 55.9979 73.5772 55.9044 73.7472C55.8243 73.8924 55.7434 74.0384 55.6506 74.1752C55.3954 74.5524 55.1402 74.9304 54.8722 75.2992C54.7021 75.5333 54.51 75.7519 54.3264 75.9768C53.7537 76.6763 53.088 77.2877 52.4493 77.9251C52.3232 78.0514 52.1665 78.1466 52.0304 78.2643C51.3704 78.8369 50.6417 79.3192 49.9364 79.8304C49.5784 80.0899 49.19 80.3099 48.8051 80.5307C48.2755 80.8346 47.7453 81.1399 47.1988 81.4121C46.4785 81.771 45.7378 82.0883 44.9864 82.381C44.8439 82.4367 44.705 82.4994 44.5604 82.5481C43.8905 82.773 43.2178 82.9874 42.55 83.218C42.1289 83.3632 41.6951 83.4514 41.2627 83.5487C41.128 83.579 40.9891 83.5973 40.8587 83.6389C40.5808 83.7285 40.305 83.7955 40.0073 83.8152C39.6373 83.8399 39.2722 83.9393 38.905 84.0077C38.8504 84.0176 38.798 84.043 38.7441 84.0479C38.3996 84.0797 38.0437 84.0648 37.7127 84.1474C37.2612 84.2588 36.794 84.1488 36.3503 84.2905C36.2737 84.3152 36.1844 84.3018 36.1007 84.3018C35.0693 84.3025 34.0379 84.3039 33.0065 84.2997C32.8697 84.299 32.7322 84.2679 32.5954 84.251C32.5132 84.2404 32.4302 84.2306 32.348 84.2193C32.1977 84.1988 32.0474 84.1763 31.8964 84.1586C31.8 84.1473 31.7029 84.1361 31.6058 84.1368C31.3272 84.1389 31.0543 84.1255 30.7793 84.0606C30.5248 84.0007 30.2625 83.9774 29.9981 83.9577C29.6423 83.9309 29.2885 83.8427 28.9398 83.756C28.5237 83.6523 28.1189 83.4986 27.7 83.4098C27.3547 83.3364 27.0435 83.1869 26.7189 83.0678C26.3411 82.9289 25.9689 82.7765 25.5953 82.6263C25.4925 82.5847 25.3905 82.5382 25.2934 82.4839C24.8936 82.2604 24.486 82.0495 24.101 81.8034C23.7282 81.5651 23.3745 81.2964 23.0221 81.0285C22.8024 80.8614 22.6011 80.6689 22.3905 80.4898C22.3168 80.427 22.2353 80.3727 22.1658 80.3057C21.9964 80.1435 21.8298 79.9785 21.6675 79.81C21.5909 79.731 21.5243 79.6422 21.4541 79.5561C21.2188 79.267 20.9749 78.9843 20.7502 78.6867C20.4589 78.3003 20.1718 77.9103 19.9045 77.5077C19.6749 77.1622 19.4693 76.8004 19.263 76.4408C19.022 76.0205 18.7867 75.5968 18.5584 75.1694C18.4358 74.9396 18.333 74.6991 18.221 74.4636C18.1792 74.3761 18.1381 74.288 18.0934 74.2013C17.7227 73.4877 17.3448 72.7776 16.9798 72.0612C16.4949 71.1092 16.02 70.1516 15.5401 69.1969C15.0481 68.2188 14.554 67.2422 14.0656 66.2627C13.9607 66.0526 13.8756 65.8326 13.7778 65.6189C13.7438 65.5435 13.6998 65.4723 13.6608 65.3989C13.5354 65.1676 13.3986 64.9413 13.288 64.7037C13.1944 64.5034 13.1016 64.3053 13.0002 64.1085C12.7861 63.6925 12.5834 63.2715 12.3608 62.859C12.158 62.4825 11.9844 62.0904 11.7965 61.7061C11.7363 61.5827 11.6689 61.4621 11.6044 61.3408C11.5654 61.2675 11.5172 61.1977 11.4882 61.1208C11.3556 60.7718 11.1798 60.446 10.9891 60.1252C10.863 59.9129 10.7651 59.683 10.656 59.4602C10.198 58.5266 9.74365 57.5916 9.28218 56.6594C8.93767 55.9627 8.58111 55.2716 8.23731 54.5749C8.06647 54.2287 7.91548 53.8733 7.74606 53.5264C7.661 53.3529 7.54687 53.1943 7.45684 53.0222C7.28955 52.7021 7.13502 52.3763 6.96843 52.0562C6.63598 51.4166 6.30352 50.777 5.96255 50.1424C5.86473 49.9605 5.73642 49.7948 5.62159 49.6213C5.38553 49.2638 5.17145 48.8894 4.90705 48.5537C4.64051 48.2166 4.39525 47.8662 4.14147 47.5214C4.10886 47.477 4.06633 47.4396 4.02947 47.398C3.83808 47.1794 3.64456 46.9629 3.456 46.7422C3.24972 46.5003 3.03777 46.2627 2.8485 46.0081C2.5848 45.6527 2.35087 45.2755 2.08576 44.9215C1.76819 44.4977 1.50874 44.0401 1.28687 43.5648C0.947318 42.8378 0.643923 42.0918 0.4582 41.3112C0.366047 40.9254 0.287364 40.5327 0.241996 40.1336C0.210806 39.8593 0.17111 39.5878 0.168983 39.3107C0.168274 39.2437 0.159057 39.1661 0.125031 39.1111C-0.00114681 38.9094 -0.00539863 38.6908 0.00239891 38.4278ZM27.5943 7.00864C27.5681 6.93319 27.5582 6.84576 27.5128 6.7837C27.3661 6.58415 27.1414 6.49741 26.9174 6.41985C26.0724 6.1258 25.2026 6.08279 24.3222 6.19209C23.9068 6.24356 23.5042 6.35356 23.12 6.52421C22.8385 6.64902 22.5756 6.80345 22.3516 7.0157C22.1687 7.18916 22.0857 7.39365 22.1389 7.65244C22.1694 7.79982 22.1694 7.95495 22.1687 8.10656C22.168 9.11774 22.1637 10.1282 22.1587 11.1394C22.1573 11.4715 22.1474 11.8036 22.0822 12.1463C21.9404 12.2006 21.8022 12.2726 21.6562 12.3071C20.68 12.5384 19.7394 12.8684 18.8171 13.2612C17.7914 13.6984 16.8125 14.2202 15.8725 14.8174C15.1573 15.2715 14.4612 15.7581 13.8409 16.3307C13.3745 16.7608 12.896 17.1804 12.465 17.6535C11.9326 18.2381 11.4045 18.8212 10.926 19.4516C10.2455 20.3486 9.64582 21.2942 9.12552 22.2899C8.90789 22.7073 8.72997 23.1445 8.52014 23.5662C8.22313 24.1634 8.00551 24.791 7.78505 25.4172C7.61492 25.8995 7.47456 26.3924 7.3179 26.8797C7.14352 27.4219 7.02514 27.9733 7.02585 28.5459C7.02585 28.6291 7.03365 28.718 7.00671 28.7934C6.93866 28.9824 6.95213 29.1756 6.94504 29.3688C6.92661 29.8793 6.98899 30.3941 6.86849 30.8997C6.85573 30.9526 6.86494 31.0104 6.86494 31.0654C6.86494 32.0364 6.86352 33.0067 6.86494 33.9776C6.86494 34.0876 6.87487 34.1984 6.88621 34.3084C6.90251 34.4727 6.93582 34.6363 6.94008 34.8006C6.94929 35.1609 6.9337 35.5219 6.94929 35.8822C6.97127 36.3864 6.89046 36.8758 6.75861 37.3567C6.67921 37.6465 6.66716 37.9258 6.74089 38.2149C6.76711 38.3178 6.76428 38.4285 6.77491 38.5315C6.71821 38.5653 6.6863 38.5935 6.64873 38.6062C6.43324 38.6796 6.35385 38.8312 6.35172 39.0526C6.34959 39.3043 6.36661 39.5476 6.45451 39.7873C6.51618 39.9552 6.56296 40.13 6.59911 40.3056C6.70261 40.8042 6.94929 41.2364 7.22859 41.6517C7.30514 41.7653 7.40864 41.8654 7.51639 41.9507C7.70069 42.0974 7.8928 42.2342 8.08986 42.3639C8.49462 42.6305 8.94688 42.7602 9.42749 42.7687C9.79894 42.7757 9.80036 42.7877 9.96056 43.1142C9.98466 43.1643 10.0109 43.2129 10.0357 43.263C10.9842 45.1768 11.9305 47.0919 12.8818 49.0043C14.5994 52.456 16.3212 55.9056 18.0409 59.3558C19.8046 62.8943 21.5668 66.4334 23.3326 69.9711C24.1875 71.6846 25.0502 73.3939 25.9079 75.106C25.976 75.2421 26.0348 75.3831 26.0972 75.522C26.195 75.7392 26.312 75.9514 26.5126 76.0826C26.7671 76.2497 27.0343 76.4041 27.3115 76.5297C27.7411 76.7243 28.182 76.8949 28.6222 77.0663C29.0752 77.2426 29.5345 77.3998 30.0165 77.4809C30.4397 77.5521 30.8587 77.6466 31.2833 77.708C31.7901 77.7813 32.2991 77.8553 32.8102 77.8828C33.3936 77.9139 33.9805 77.8962 34.5653 77.8927C34.6433 77.892 34.7206 77.8504 34.8694 77.8229C35.2565 77.8638 35.6428 77.9216 36.0334 77.8807C36.4892 77.8328 36.9436 77.7728 37.4001 77.7362C37.9984 77.6882 38.5846 77.569 39.1666 77.4407C40.595 77.1255 41.9886 76.6954 43.3312 76.1066C44.3534 75.6588 45.3394 75.149 46.2786 74.5482C47.1009 74.0222 47.8623 73.4193 48.581 72.7642C49.1049 72.2861 49.5579 71.7403 49.9945 71.1825C50.4595 70.5888 50.8225 69.9344 51.133 69.2504C51.2131 69.0742 51.2861 68.8922 51.3385 68.7068C51.5193 68.0644 51.649 67.4135 51.6044 66.7401C51.6008 66.6851 51.5973 66.6287 51.6037 66.5737C51.61 66.5201 51.6108 66.4482 51.6448 66.4172C51.8447 66.2345 51.788 66.0047 51.7525 65.7931C51.6341 65.0837 51.4966 64.3779 51.369 63.6706C51.2514 63.017 51.1351 62.3633 51.021 61.7096C50.8927 60.9741 50.7679 60.238 50.6389 59.5025C50.5439 58.9574 50.444 58.4138 50.349 57.8687C50.22 57.1332 50.0952 56.397 49.9648 55.6616C49.8464 54.9945 49.7188 54.3289 49.6032 53.6611C49.4494 52.7754 49.3091 51.8876 49.1524 51.002C49.0035 50.1579 48.8362 49.3167 48.6881 48.4726C48.4776 47.2739 48.2805 46.073 48.0714 44.8743C47.8573 43.648 47.6361 42.4232 47.4171 41.1983C47.2881 40.477 47.1534 39.7563 47.0244 39.0349C46.9322 38.5174 46.8457 37.9991 46.7557 37.4815C46.6281 36.746 46.4991 36.0106 46.3708 35.2744C46.2375 34.5121 46.0185 33.7661 45.9391 32.9926C45.9178 32.7817 45.9575 32.6083 46.1092 32.463C46.2 32.377 46.2935 32.2938 46.3914 32.2155C46.5757 32.0681 46.7671 31.9292 46.9492 31.7804C47.2434 31.54 47.4745 31.2466 47.651 30.911C47.7907 30.6465 47.858 30.3659 47.8233 30.0683C47.7765 29.6699 47.741 29.2687 47.6645 28.8759C47.5716 28.4006 47.4504 27.931 47.2498 27.4847C47.1825 27.3352 47.096 27.2231 46.9244 27.1349C46.6076 26.4904 46.789 26.6371 46.2382 26.3127C45.6782 25.9834 45.0955 25.6682 44.744 25.0829C44.2499 24.5731 43.855 23.9836 43.4396 23.4146C42.7946 22.5303 42.1793 21.6242 41.5711 20.7146C40.8076 19.5729 40.0087 18.4602 39.0383 17.4794C38.9802 17.4208 38.9383 17.3461 38.8816 17.2854C38.7391 17.1345 38.5952 16.9836 38.445 16.8405C38.345 16.7453 38.2302 16.6656 38.1246 16.5761C37.8715 16.3603 37.6234 16.1375 37.3661 15.9266C36.9797 15.6107 36.5856 15.3054 36.1986 14.9902C35.7562 14.6299 35.294 14.3027 34.7815 14.0439C34.4221 13.8627 34.0783 13.6511 33.726 13.4558C33.1426 13.1314 32.5571 12.8078 31.9014 12.647C31.2407 12.4848 30.5815 12.3184 29.9159 12.1788C29.3736 12.0652 28.8271 11.9588 28.2196 11.9186C28.0147 11.908 27.8098 11.8981 27.5858 11.8121C27.583 11.6887 27.5773 11.5646 27.5773 11.4412C27.5809 10.1197 27.5858 8.79901 27.5887 7.47757C27.5908 7.34218 27.5816 7.20467 27.5943 7.00864Z" fill="white"/>
<path d="M34.7979 77.8274C34.7206 77.85 34.6426 77.8916 34.5654 77.8923C33.9798 77.8958 33.3936 77.9134 32.8102 77.8824C32.2998 77.8549 31.7901 77.7809 31.2833 77.7075C30.8587 77.6462 30.4398 77.5517 30.0166 77.4805C29.5338 77.3994 29.0752 77.2421 28.6222 77.0659C28.182 76.8945 27.7418 76.7239 27.3115 76.5292C27.0344 76.4037 26.7671 76.2493 26.5126 76.0822C26.3127 75.9503 26.1951 75.7388 26.0972 75.5216C26.0348 75.3827 25.976 75.2416 25.908 75.1056C25.0502 73.3935 24.1883 71.6842 23.3326 69.9707C21.5669 66.433 19.8046 62.8938 18.041 59.3554C16.3212 55.9051 14.5994 52.4556 12.8818 49.0039C11.9298 47.0915 10.9842 45.1764 10.0357 43.2626C10.0109 43.2125 9.98468 43.1639 9.96058 43.1138C9.80109 42.7873 9.79896 42.7753 9.42751 42.7683C8.9469 42.7591 8.49394 42.6301 8.08988 42.3635C7.89352 42.2338 7.70071 42.097 7.51641 41.9503C7.40866 41.8643 7.30516 41.7642 7.22861 41.6513C6.94931 41.236 6.70263 40.8037 6.59913 40.3052C6.56298 40.1296 6.5162 39.9547 6.45452 39.7869C6.36592 39.5472 6.34961 39.3039 6.35174 39.0522C6.35316 38.8307 6.43326 38.6791 6.64875 38.6058C6.68632 38.5931 6.71822 38.5656 6.77493 38.5311C6.76501 38.4281 6.76784 38.3174 6.7409 38.2145C6.66718 37.9253 6.67923 37.6454 6.75863 37.3563C6.89048 36.8754 6.972 36.386 6.94931 35.8818C6.93372 35.5222 6.94931 35.1605 6.9401 34.8001C6.93584 34.6358 6.90253 34.4722 6.88623 34.3079C6.87559 34.1979 6.86496 34.0872 6.86496 33.9772C6.86354 33.0062 6.86425 32.036 6.86496 31.065C6.86496 31.0093 6.85574 30.9515 6.8685 30.8993C6.98901 30.393 6.92663 29.8789 6.94506 29.3684C6.95215 29.1752 6.93868 28.982 7.00673 28.793C7.03367 28.7175 7.02587 28.6287 7.02587 28.5455C7.02445 27.9729 7.14283 27.4215 7.31792 26.8792C7.47458 26.392 7.61494 25.8991 7.78507 25.4168C8.00553 24.7906 8.22315 24.163 8.52016 23.5658C8.72999 23.1441 8.90791 22.7062 9.12553 22.2894C9.64513 21.2938 10.2455 20.3475 10.9261 19.4512C11.4045 18.8208 11.9326 18.2377 12.465 17.6531C12.8967 17.18 13.3745 16.7604 13.8409 16.3303C14.4612 15.7577 15.1573 15.2711 15.8725 14.817C16.8125 14.2205 17.7907 13.6979 18.8172 13.2608C19.7394 12.868 20.6801 12.538 21.6562 12.3067C21.8029 12.2721 21.9404 12.2002 22.1198 12.1755C22.151 12.3243 22.1446 12.4435 22.1042 12.5613C21.686 12.5352 21.3308 12.6741 20.975 12.7798C19.9747 13.0767 19.0022 13.4462 18.0707 13.9243C17.1832 14.3798 16.3907 14.9552 15.7208 15.6893C15.3593 16.0856 15.1318 16.5425 15.1282 17.1094C15.1247 17.6461 15.3827 18.0141 15.791 18.2835C16.3957 18.6819 17.0918 18.8512 17.8056 18.873C18.4556 18.8928 19.1078 18.9153 19.7621 18.818C20.2009 18.7531 20.6347 18.6685 21.0707 18.5931C21.4109 18.5345 21.7483 18.4556 22.0943 18.4238C22.085 22.8627 22.0694 27.2635 22.0496 31.6644C22.0489 31.8985 22.0177 32.1319 21.9709 32.3646C21.8632 32.3089 21.7739 32.2651 21.7079 32.1989C21.4534 31.9436 21.1954 31.6954 20.9764 31.4042C20.6864 31.0177 20.3412 30.6722 20.0499 30.2865C19.4998 29.5588 18.9426 28.8346 18.467 28.054C18.3011 27.7825 18.1423 27.5054 17.9942 27.2241C17.7035 26.6719 17.4838 26.0895 17.2492 25.512C16.899 24.651 16.6133 23.7717 16.3964 22.8705C16.2447 22.2408 16.1263 21.6033 15.9753 20.9729C15.8463 20.4328 15.6556 19.9138 15.3076 19.4682C15.2232 19.3603 15.136 19.2446 15.0247 19.1678C14.6526 18.9111 14.2542 18.7411 13.7778 18.7891C13.5425 18.8124 13.3497 18.8758 13.1795 19.0373C13.0704 19.1417 12.9541 19.246 12.8237 19.3194C12.5253 19.4879 12.275 19.71 12.112 20.0027C11.7413 20.6676 11.3826 21.3389 11.0416 22.0194C10.8566 22.3896 10.7162 22.7823 10.5596 23.1666C10.4554 23.4226 10.3597 23.6821 10.2569 23.9395C9.98043 24.6341 9.73233 25.3357 9.60898 26.0775C9.53455 26.526 9.42751 26.9688 9.34103 27.4151C9.20918 28.0907 9.08088 28.7676 8.9547 29.4439C8.91926 29.6335 8.8909 29.8246 8.86822 30.0157C8.81221 30.4959 8.75622 30.9761 8.77819 31.4613C8.78103 31.529 8.7711 31.6009 8.74984 31.6651C8.68533 31.8569 8.68817 32.0437 8.75055 32.2355C8.77536 32.3124 8.77748 32.3991 8.77961 32.4816C8.79308 32.8955 8.79804 33.3066 8.84908 33.7213C8.91359 34.2438 9.00007 34.7585 9.13121 35.2648C9.26447 35.7768 9.46154 36.2697 9.81597 36.673C10.2115 37.1236 10.6751 37.498 11.2011 37.7998C11.1692 37.8605 11.1472 37.9 11.1004 37.9521C10.9253 38.1044 10.7892 38.2652 10.622 38.3816C10.2562 38.6347 9.98185 38.9802 9.65931 39.2757C9.56007 39.3667 9.5303 39.4816 9.49344 39.6064C8.90508 39.483 8.34224 39.3984 7.79995 39.2235C7.78436 39.2186 7.75742 39.2475 7.72694 39.2665C7.7397 39.3011 7.74466 39.3462 7.76876 39.3737C8.24725 39.9209 8.78599 40.3969 9.44452 40.7227C9.54377 40.7713 9.64584 40.8298 9.75217 40.8446C10.2321 40.9123 10.7028 41.0513 11.1947 41.0245C11.2635 41.0209 11.3329 41.0357 11.4017 41.0435C11.5803 41.0625 11.759 41.0978 11.9376 41.0992C13.1221 41.1048 14.3066 41.1112 15.4912 41.0992C16.0178 41.0936 16.5445 41.0449 17.0705 41.0153C17.0847 41.0146 17.0989 41.0139 17.1116 41.0096C17.5277 40.8806 17.9665 40.9596 18.3911 40.8658C18.7264 40.7918 19.0802 40.8002 19.4247 40.7636C19.6862 40.7353 19.9464 40.6966 20.2058 40.6557C20.4518 40.6169 20.6957 40.5654 20.9416 40.5238C21.5016 40.4293 22.0652 40.356 22.6202 40.2396C23.4071 40.0739 24.1875 39.8814 24.9694 39.6924C25.5223 39.5585 26.0731 39.4188 26.6218 39.2686C27.4249 39.0493 28.2302 38.8357 29.0249 38.5889C29.7543 38.3625 30.4716 38.0974 31.1933 37.845C31.4556 37.7533 31.715 37.6539 31.973 37.5509C32.6053 37.2992 33.2369 37.0467 33.8664 36.7879C34.6752 36.4551 35.489 36.1322 36.2865 35.7746C37.1109 35.4052 37.9197 34.999 38.7342 34.6083C39.75 34.1211 40.7495 33.6007 41.72 33.0295C42.5089 32.5655 43.2915 32.091 44.0394 31.56C44.605 31.1588 45.1594 30.7448 45.6931 30.3034C45.7768 30.2343 45.8796 30.1835 45.9802 30.1398C46.0221 30.1222 46.0816 30.1476 46.1546 30.1553C46.0795 30.4416 45.9115 30.6412 45.7364 30.8365C45.4387 31.1686 45.1027 31.4627 44.7433 31.7215C44.0351 32.2327 43.3184 32.7341 42.555 33.1642C41.9383 33.5118 41.3166 33.851 40.707 34.212C39.8578 34.7148 38.9993 35.1992 38.1083 35.6252C37.3179 36.0031 36.5296 36.3853 35.7385 36.7611C35.4373 36.9043 35.1332 37.0418 34.8241 37.1666C34.206 37.4155 33.5836 37.6532 32.9633 37.8971C31.7866 38.3604 30.5943 38.7743 29.3843 39.1438C28.2692 39.4844 27.157 39.8363 26.0299 40.1353C25.5344 40.2671 25.0396 40.4068 24.5377 40.509C23.2625 40.7692 21.983 41.0118 20.7056 41.2593C20.5291 41.2938 20.3512 41.3241 20.1732 41.3495C19.7075 41.4165 19.2411 41.4821 18.7746 41.5449C18.4181 41.5928 18.0622 41.6612 17.7042 41.6767C17.2187 41.6979 16.7402 41.8142 16.2504 41.7747C16.1965 41.7705 16.1412 41.7931 16.0866 41.8001C15.9491 41.817 15.8123 41.8424 15.6748 41.8467C15.3962 41.8551 15.1176 41.8594 14.839 41.8523C13.797 41.8262 12.7542 41.9066 11.7115 41.7825C11.2174 41.724 10.7191 41.695 10.2264 41.6118C10.152 41.5991 10.0705 41.6252 9.9705 41.6358C9.99815 41.8199 10.0712 41.9348 10.2122 42.0244C10.6716 42.317 11.1465 42.5687 11.6867 42.683C11.9291 42.7344 12.1715 42.7951 12.3452 42.9347C12.1673 42.9375 12.0276 42.934 11.8887 42.9417C11.7554 42.9495 11.6115 42.9065 11.4846 43.0052C11.4846 43.051 11.4726 43.0955 11.4868 43.1293C11.5995 43.3973 11.7065 43.6688 11.8355 43.929C13.0066 46.2898 14.1819 48.6492 15.3565 51.0086C16.9642 54.2375 18.5733 57.4649 20.1789 60.6952C21.0494 62.4468 21.9156 64.2005 22.7804 65.9542C23.3447 67.0986 23.8983 68.248 24.4675 69.3904C25.4763 71.4141 26.4928 73.4344 27.5093 75.4546C27.5773 75.5893 27.6596 75.7212 27.7581 75.834C27.8162 75.901 27.9211 75.9658 28.0041 75.9651C28.3032 75.9637 28.5705 76.1019 28.8845 76.1414C28.9724 76.1739 29.0355 76.1992 29.1163 76.2486C29.1957 76.3043 29.2545 76.3438 29.319 76.3685C29.9932 76.6251 30.6822 76.8395 31.3804 77.0193C32.4664 77.2993 33.5517 77.582 34.6653 77.7379C34.7135 77.7463 34.7546 77.7971 34.7979 77.8274Z" fill="#D5CEE1"/>
<path d="M34.8329 77.8253C34.7535 77.7971 34.7131 77.7463 34.6656 77.74C33.552 77.5842 32.466 77.3014 31.3807 77.0215C30.6825 76.8416 29.9942 76.6266 29.3194 76.3706C29.2549 76.3459 29.1967 76.3064 29.1535 76.25C29.6192 76.2952 30.0658 76.3664 30.5131 76.4312C30.8243 76.4764 31.1369 76.5137 31.4842 76.5582C31.9641 76.6745 32.4242 76.6809 32.8765 76.7133C33.457 76.7556 34.0425 76.7253 34.6649 76.7281C35.344 76.7725 35.977 76.6675 36.6136 76.64C36.6547 76.6379 36.6965 76.6301 36.7369 76.623C37.0092 76.5758 37.2814 76.5286 37.5812 76.4813C37.6457 76.4785 37.6826 76.475 37.7535 76.47C37.9923 76.4383 38.1993 76.4164 38.4021 76.3762C39.381 76.1809 40.3465 75.9257 41.2893 75.6041C42.1272 75.3178 42.9495 74.9885 43.7271 74.5471C44.2708 74.239 44.8102 73.9287 45.3185 73.5677C45.5297 73.4175 45.7785 73.3046 45.9494 73.0599C46.1564 72.9013 46.3442 72.7617 46.5193 72.6072C46.9935 72.1891 47.4692 71.7716 47.9307 71.3394C48.1405 71.1427 48.3205 70.9135 48.5091 70.6956C48.7338 70.4361 48.9585 70.1759 49.174 69.9087C49.2761 69.7824 49.3562 69.6379 49.4696 69.4863C49.5476 69.4073 49.6093 69.3495 49.6553 69.2811C49.9205 68.8911 50.1849 68.5012 50.4415 68.1056C50.5393 67.9547 50.613 67.789 50.6988 67.631C50.7548 67.5281 50.7477 67.4279 50.7271 67.3116C50.6215 66.7136 50.5308 66.1128 50.4344 65.5135C50.3422 64.9409 50.2529 64.3676 50.1579 63.7957C50.0566 63.183 49.9509 62.5709 49.846 61.9581C49.7758 61.5499 49.7057 61.1416 49.632 60.734C49.5405 60.2312 49.4434 59.7292 49.3527 59.2264C49.247 58.6418 49.1485 58.0566 49.0429 57.4727C48.9543 56.9833 48.8564 56.4961 48.7685 56.0067C48.6417 55.3001 48.5254 54.5915 48.3943 53.8849C48.2135 52.9069 48.0221 51.931 47.8392 50.9536C47.7173 50.3021 47.6053 49.6484 47.482 48.9968C47.3253 48.169 47.1608 47.3426 47.0013 46.5154C46.8652 45.8103 46.7306 45.1051 46.5952 44.3993C46.5094 43.9515 46.4222 43.5038 46.3357 43.056C46.1869 42.2825 46.0437 41.5082 45.8898 40.7361C45.6814 39.6932 45.4652 38.6509 45.2526 37.6087C45.0378 36.5524 44.857 35.4891 44.577 34.4469C44.538 34.3002 44.521 34.1486 44.4856 34.0012C44.4544 33.8722 44.4423 33.7326 44.3211 33.6099C43.4769 34.174 42.6475 34.7275 41.7905 35.2916C41.4984 35.4489 41.2326 35.5948 40.9689 35.745C40.6095 35.9495 40.2522 36.1568 39.8666 36.3719C39.6667 36.472 39.4966 36.5658 39.3229 36.6526C38.7274 36.9508 38.1285 37.2414 37.5365 37.5446C37.2551 37.6884 36.9361 37.7681 36.6739 38.0093C36.5775 38.0332 36.5094 38.0452 36.447 38.0706C36.1195 38.2053 35.7927 38.3421 35.4667 38.481C35.2412 38.5769 35.0172 38.6777 34.7642 38.7863C34.1226 39.019 33.5109 39.2433 32.8977 39.464C32.1144 39.7453 31.3354 40.0394 30.545 40.2982C29.795 40.5443 29.033 40.7565 28.2745 40.9765C27.0503 41.3312 25.8083 41.6126 24.5579 41.8608C24.3417 41.9038 24.1297 41.968 23.8816 42.0215C23.1267 42.1428 22.4086 42.2761 21.6863 42.3826C21.1546 42.4609 20.6308 42.5927 20.0899 42.6089C20.0268 42.611 19.9652 42.6548 19.8645 42.6794C19.3704 42.7133 18.9061 42.7062 18.4588 42.7902C18.0044 42.8755 17.5387 42.7944 17.0935 42.9305C16.5229 42.9143 15.9551 42.965 15.349 43.0172C14.5005 43.013 13.691 43.0102 12.8573 42.9869C12.683 42.9559 12.5327 42.9453 12.3831 42.9347C12.1705 42.7965 11.9287 42.7359 11.6863 42.6851C11.1461 42.5709 10.6712 42.3191 10.2119 42.0265C10.0715 41.9369 9.99848 41.822 9.97012 41.6379C10.0701 41.6274 10.1509 41.6013 10.226 41.614C10.718 41.6972 11.217 41.7254 11.7111 41.7846C12.7538 41.9087 13.7966 41.8283 14.8386 41.8544C15.1172 41.8615 15.3958 41.8572 15.6744 41.8488C15.8119 41.8446 15.9494 41.8199 16.0862 41.8022C16.1415 41.7952 16.1968 41.7726 16.25 41.7769C16.7391 41.8163 17.2183 41.7 17.7039 41.6788C18.0618 41.6633 18.4177 41.5949 18.7743 41.547C19.2407 41.4835 19.7071 41.4186 20.1729 41.3517C20.3508 41.3263 20.5287 41.296 20.7052 41.2614C21.9833 41.0132 23.2621 40.7713 24.5373 40.5111C25.0392 40.4089 25.534 40.2686 26.0295 40.1374C27.1573 39.8384 28.2688 39.4865 29.3839 39.146C30.5939 38.7765 31.7862 38.3618 32.9629 37.8993C33.5832 37.6553 34.2056 37.4184 34.8237 37.1687C35.1328 37.0439 35.4369 36.9057 35.7382 36.7633C36.53 36.3874 37.3175 36.0052 38.1079 35.6273C38.9989 35.2014 39.8574 34.7169 40.7066 34.2142C41.3155 33.8538 41.9372 33.514 42.5546 33.1663C43.3181 32.7362 44.034 32.2341 44.7429 31.7236C45.1016 31.4648 45.4383 31.1708 45.736 30.8386C45.9111 30.6433 46.0784 30.4445 46.1542 30.1575C46.0812 30.149 46.021 30.1236 45.9799 30.142C45.8792 30.185 45.7764 30.2357 45.6928 30.3055C45.159 30.7477 44.6047 31.1609 44.039 31.5621C43.2911 32.0931 42.5085 32.5677 41.7196 33.0316C40.7491 33.6021 39.7496 34.1225 38.7338 34.6105C37.9186 35.0018 37.1105 35.4073 36.2861 35.7768C35.4886 36.1343 34.6749 36.4572 33.866 36.7901C33.2366 37.0489 32.605 37.3013 31.9727 37.553C31.7146 37.656 31.4552 37.7554 31.1929 37.8471C30.4713 38.0995 29.7539 38.364 29.0245 38.591C28.2298 38.8378 27.4246 39.0515 26.6214 39.2708C26.0728 39.4203 25.5213 39.5606 24.969 39.6946C24.1879 39.8835 23.4067 40.076 22.6199 40.2418C22.0648 40.3588 21.5006 40.4314 20.9413 40.5259C20.6953 40.5675 20.4514 40.6183 20.2055 40.6578C19.946 40.6994 19.6852 40.7375 19.4243 40.7657C19.0798 40.8031 18.7268 40.7946 18.3908 40.8679C17.9661 40.961 17.5274 40.882 17.1113 41.0118C17.0985 41.016 17.0836 41.0167 17.0701 41.0174C16.5435 41.047 16.0175 41.0957 15.4908 41.1013C14.3063 41.114 13.1217 41.107 11.9372 41.1013C11.7586 41.1006 11.58 41.0647 11.4013 41.0456C11.3326 41.0386 11.2624 41.0231 11.1943 41.0266C10.7024 41.0527 10.2317 40.9145 9.7518 40.8468C9.64547 40.832 9.54268 40.7734 9.44415 40.7248C8.78561 40.399 8.24758 39.923 7.76838 39.3758C7.74428 39.3483 7.73932 39.3032 7.72656 39.2687C7.75704 39.2496 7.78398 39.2207 7.79957 39.2256C8.34186 39.4005 8.9047 39.4851 9.50227 39.6389C9.62065 39.8109 9.7525 39.8391 9.89569 39.8532C10.2126 39.8842 10.5358 39.8913 10.8449 39.9604C11.3099 40.0641 11.7841 40.0168 12.252 40.0887C12.6461 40.1501 13.0572 40.0993 13.4996 40.1014C13.7952 40.1014 14.0525 40.0979 14.3467 40.0979C14.5785 40.0965 14.7798 40.1226 14.9662 40.081C15.1881 40.0316 15.4071 40.0366 15.629 40.0239C16.1139 39.9964 16.598 39.9632 17.0829 39.9322C17.1105 39.9301 17.1375 39.9223 17.1651 39.9188C17.5217 39.8709 17.8782 39.8215 18.2355 39.7771C18.5382 39.7397 18.8437 39.7214 19.1443 39.6727C19.7185 39.5796 20.2877 39.4612 20.8626 39.3723C21.8224 39.2242 22.7701 39.0197 23.7143 38.7983C24.9031 38.5205 26.0883 38.2265 27.2587 37.8774C28.2029 37.5961 29.1535 37.3351 30.0927 37.0383C30.9802 36.7576 31.8543 36.4368 32.7375 36.1427C33.8455 35.774 34.9272 35.3375 35.9983 34.8763C36.9553 34.4645 37.891 34.0033 38.8338 33.5605C38.9451 33.5083 39.0471 33.435 39.179 33.3581C39.3279 33.282 39.4462 33.2065 39.5745 33.1579C40.3408 32.8638 41.0483 32.4548 41.7557 32.048C42.6198 31.5515 43.4471 30.998 44.2573 30.4184C44.509 30.2386 44.7181 30.0221 44.93 29.8049C44.974 29.7598 44.986 29.6822 45.0413 29.6194C45.1937 29.6258 45.2731 29.5496 45.3525 29.4721C45.5099 29.319 45.6531 29.1463 45.8289 29.0187C46.2726 28.6971 46.6143 28.3121 46.7667 27.7734C46.8043 27.6401 46.8411 27.5125 46.8454 27.3517C46.8787 27.2854 46.9021 27.2417 46.9248 27.1973C47.0956 27.2241 47.1821 27.3362 47.2495 27.4857C47.4501 27.9313 47.5713 28.4017 47.6641 28.8769C47.7407 29.2697 47.7761 29.6709 47.8229 30.0693C47.8577 30.3669 47.7903 30.6475 47.6507 30.912C47.4742 31.2476 47.2431 31.541 46.9489 31.7814C46.766 31.9309 46.5753 32.0698 46.391 32.2165C46.2932 32.2948 46.1989 32.3773 46.1089 32.464C45.9572 32.6086 45.9168 32.782 45.9387 32.9936C46.0174 33.7671 46.2372 34.5124 46.3705 35.2754C46.4988 36.0109 46.6278 36.7463 46.7554 37.4825C46.8454 38.0001 46.9312 38.5184 47.024 39.036C47.153 39.7573 47.2877 40.478 47.4167 41.1993C47.6365 42.4242 47.8577 43.649 48.071 44.8753C48.2801 46.074 48.4772 47.2749 48.6877 48.4736C48.8359 49.3177 49.0032 50.1589 49.152 51.003C49.308 51.8879 49.4491 52.7764 49.6029 53.6621C49.7184 54.3299 49.846 54.9955 49.9644 55.6626C50.0948 56.3981 50.2196 57.1342 50.3486 57.8697C50.4443 58.4148 50.5436 58.9584 50.6385 59.5035C50.7668 60.239 50.8916 60.9752 51.0206 61.7106C51.1347 62.3643 51.251 63.018 51.3687 63.6716C51.4963 64.3789 51.6338 65.0855 51.7522 65.7941C51.7876 66.0057 51.8443 66.2348 51.6444 66.4182C51.6104 66.4492 51.6097 66.5204 51.6033 66.5747C51.5969 66.6297 51.6005 66.6854 51.604 66.7411C51.6487 67.4145 51.519 68.0654 51.3382 68.7078C51.2857 68.8939 51.2127 69.0752 51.1326 69.2514C50.8214 69.9347 50.4592 70.5891 49.9942 71.1836C49.5575 71.7413 49.1045 72.2871 48.5807 72.7652C47.8619 73.4203 47.1006 74.0239 46.2783 74.5492C45.3383 75.15 44.3523 75.6598 43.3308 76.1076C41.9882 76.6964 40.5946 77.1265 39.1662 77.4417C38.5843 77.5701 37.998 77.6892 37.3997 77.7372C36.9432 77.7738 36.4888 77.8345 36.033 77.8817C35.6417 77.9219 35.2561 77.8634 34.8329 77.8253Z" fill="#B0A7BC"/>
<path d="M46.9255 27.1681C46.9028 27.2422 46.8794 27.2866 46.817 27.3557C46.7291 27.4057 46.6767 27.4248 46.6327 27.4565C46.0486 27.8768 45.422 28.2237 44.7712 28.5305C44.4586 28.6778 44.1517 28.8358 43.8426 28.9902C43.7561 29.0332 43.664 29.0741 43.6321 29.194C43.452 29.1707 43.3046 29.1475 43.1224 29.1185C42.612 29.0346 42.1364 28.9472 41.6388 28.9437C41.5686 28.883 41.5239 28.9014 41.4481 28.9528C41.1078 28.9289 40.8066 28.9056 40.5046 28.888C40.3812 28.8809 40.2558 28.8802 40.1324 28.888C39.8304 28.9063 39.5292 28.9317 39.2081 28.9352C39.0812 28.8717 38.9784 28.8598 38.8579 28.962C38.3106 28.9895 37.8017 29.0191 37.292 29.0494C37.2643 29.0509 37.2374 29.0572 37.2098 29.0607C36.7859 29.1101 36.3612 29.1545 35.9381 29.2095C35.556 29.2589 35.1753 29.3195 34.7606 29.3731C34.5543 29.3978 34.3807 29.4239 34.2077 29.4203C34.1801 29.3308 34.1666 29.2575 34.1226 29.2144C33.8753 28.9712 33.6094 28.7455 33.372 28.4931C32.9856 28.0834 32.7077 27.6004 32.5624 27.0595C32.4767 26.7422 32.393 26.4221 32.3491 26.0899C32.3179 25.8565 32.3271 25.6175 32.2753 25.3926C32.1733 24.9525 32.2158 24.5104 32.2045 24.0697C32.2023 23.9731 32.1938 23.8687 32.2257 23.7813C32.2895 23.6057 32.2824 23.4273 32.2867 23.2475C32.2888 23.1509 32.2789 23.0487 32.3051 22.9584C32.4185 22.5692 32.3349 22.1573 32.4518 21.7702C32.4646 20.9269 32.4348 20.0892 32.3016 19.2507C32.1881 18.5392 31.9996 17.8489 31.8273 17.1529C31.6593 16.4746 31.3481 15.8541 30.9547 15.2787C30.7208 14.9367 30.472 14.6031 30.2083 14.2837C29.8375 13.8345 29.4399 13.4086 29.0153 13.0081C28.9749 12.97 28.9267 12.9326 28.9047 12.884C28.7473 12.5399 28.4928 12.2634 28.2695 11.9652C28.8288 11.9616 29.3754 12.0681 29.9176 12.1817C30.5833 12.3213 31.2432 12.4877 31.9032 12.6499C32.5589 12.8113 33.1444 13.1343 33.7278 13.4587C34.0801 13.6547 34.4239 13.8655 34.7833 14.0468C35.2958 14.3056 35.7573 14.6327 36.2003 14.9931C36.5874 15.3083 36.9822 15.6136 37.3678 15.9295C37.6252 16.1403 37.8726 16.3632 38.1263 16.5789C38.2319 16.6685 38.3468 16.7482 38.4467 16.8434C38.5977 16.9865 38.7409 17.1374 38.8834 17.2883C38.9401 17.3483 38.9819 17.423 39.0401 17.4822C40.0105 18.4631 40.8087 19.5758 41.5728 20.7174C42.181 21.6271 42.7963 22.5332 43.4414 23.4174C43.8568 23.9865 44.2516 24.576 44.7457 25.0858C45.0973 25.6718 45.68 25.9863 46.24 26.3156C46.7901 26.64 46.6086 26.4933 46.9255 27.1681Z" fill="#BDB0DB"/>
<path d="M28.2443 11.9426C28.4917 12.262 28.7462 12.5391 28.9036 12.8833C28.9255 12.9312 28.9737 12.9693 29.0141 13.0074C29.4388 13.4079 29.8357 13.8345 30.2072 14.283C30.4709 14.6024 30.7197 14.9359 30.9536 15.2779C31.347 15.8533 31.6589 16.4739 31.8262 17.1522C31.9985 17.8475 32.187 18.5385 32.3004 19.25C32.4337 20.0877 32.4635 20.9261 32.4507 21.7695C32.3338 22.1566 32.4174 22.5684 32.304 22.9577C32.2778 23.0486 32.2877 23.1502 32.2856 23.2468C32.2813 23.4266 32.2884 23.6043 32.2246 23.7806C32.1927 23.868 32.2012 23.9724 32.2033 24.069C32.2147 24.5104 32.1721 24.9518 32.2742 25.3918C32.326 25.6168 32.3168 25.8558 32.3479 26.0892C32.3926 26.4206 32.4762 26.7415 32.5613 27.0588C32.7066 27.5996 32.9845 28.0827 33.3708 28.4924C33.609 28.7441 33.8748 28.9697 34.1215 29.2137C34.1655 29.2567 34.1789 29.3308 34.1726 29.4239C33.6055 29.5466 33.0696 29.6192 32.5408 29.7264C31.386 29.9605 30.232 30.1988 29.0914 30.4943C28.5683 30.6297 28.0409 30.7488 27.5092 30.8363C27.5021 30.6445 27.5 30.4922 27.5 30.3398C27.5135 25.9045 27.5276 21.4684 27.5404 17.033C27.5411 16.8391 27.5305 16.6452 27.5284 16.4407C27.5312 16.4294 27.5262 16.4076 27.5312 16.3688C27.534 16.0945 27.5326 15.859 27.5369 15.5903C27.5532 15.4704 27.5638 15.383 27.5985 15.292C27.8913 15.151 27.9849 14.8838 28.1011 14.6391C28.3421 14.1321 28.3194 13.6321 28.0217 13.1519C27.9196 12.9876 27.8084 12.829 27.5844 12.7669C27.5872 12.4496 27.5957 12.1704 27.6042 11.8911C27.8105 11.9003 28.0153 11.9102 28.2443 11.9426Z" fill="#D4CEE1"/>
<path d="M22.1397 12.5621C22.1461 12.4429 22.1525 12.3238 22.151 12.17C22.1489 11.8027 22.1588 11.4705 22.1603 11.1384C22.1659 10.1279 22.1695 9.11677 22.1702 8.10559C22.1702 7.95398 22.1702 7.79885 22.1404 7.65148C22.0872 7.39269 22.1702 7.1882 22.3531 7.01473C22.5771 6.80178 22.8401 6.64805 23.1215 6.52324C23.5057 6.3526 23.9083 6.24259 24.3237 6.19112C25.2041 6.08112 26.0739 6.12413 26.9189 6.41888C27.1422 6.49645 27.3676 6.58318 27.5143 6.78274C27.5597 6.84479 27.5696 6.93152 27.5604 7.04152C27.4215 7.15858 27.3137 7.23614 27.2166 7.3257C27.0855 7.44557 26.9486 7.54782 26.7686 7.52949C26.792 7.46109 26.8083 7.42301 26.8288 7.38775C27.0656 6.97595 26.9621 6.6544 26.5283 6.49927C26.3865 6.4485 26.2334 6.41042 26.0838 6.40337C25.2637 6.36388 24.4464 6.40689 23.6425 6.57683C23.3497 6.63818 23.0449 6.69812 22.8223 6.94422C22.5303 7.26647 22.6075 7.70718 23.013 7.85033C23.2186 7.92296 23.4433 7.96245 23.6623 7.97443C24.3981 8.01674 25.129 7.94905 25.8527 7.86937C25.8485 7.97655 25.8457 8.04565 25.8457 8.11546C25.8457 10.8063 25.8457 13.4971 25.8457 16.1887C25.8457 16.286 25.8513 16.3826 25.8435 16.4996C25.8088 16.5575 25.7854 16.5948 25.7315 16.6364C25.3728 16.8148 25.0333 16.9735 24.7164 17.1681C24.1826 17.4953 23.6 17.7139 23.0329 17.9678C22.8691 18.0411 22.7018 18.1088 22.5296 18.1596C22.3999 18.1976 22.2602 18.2033 22.1191 18.1849C22.122 17.6779 22.1369 17.2097 22.1397 16.7415C22.1475 15.4863 22.151 14.2312 22.1546 12.976C22.1546 12.8378 22.1447 12.7003 22.1397 12.5621Z" fill="#9445C9"/>
<path d="M25.8528 16.4796C25.85 16.3823 25.8443 16.2857 25.8443 16.1884C25.8436 13.4975 25.8436 10.8067 25.8443 8.11515C25.8443 8.04604 25.8471 7.97624 25.8854 7.86482C26.237 7.84719 26.4979 7.69841 26.7623 7.5609C26.948 7.54821 27.0848 7.44597 27.2152 7.32609C27.3123 7.23724 27.4201 7.15897 27.5498 7.07153C27.5817 7.2041 27.5909 7.3416 27.5902 7.4784C27.5874 8.79985 27.5824 10.1206 27.5789 11.442C27.5789 11.5654 27.5838 11.6895 27.5966 11.851C27.5973 12.1683 27.5888 12.4476 27.5796 12.803C27.569 13.2613 27.5519 13.6435 27.5519 14.0264C27.5519 14.4488 27.5668 14.8719 27.5746 15.2942C27.5647 15.3817 27.5541 15.4684 27.5059 15.5918C27.2166 15.6715 27.0175 15.8266 26.8261 15.9691C26.5255 16.1933 26.198 16.3491 25.8528 16.4796Z" fill="#7733AC"/>
<path d="M11.2086 37.7808C10.6734 37.4995 10.2098 37.1251 9.81427 36.6745C9.45984 36.2711 9.26278 35.7782 9.12951 35.2663C8.99766 34.76 8.91118 34.2452 8.84738 33.7227C8.79634 33.3081 8.79067 32.897 8.77791 32.4831C8.77508 32.4006 8.77366 32.3146 8.74885 32.237C8.68647 32.0452 8.68434 31.8583 8.74814 31.6665C8.76941 31.6024 8.78004 31.5304 8.77649 31.4627C8.75452 30.9776 8.81123 30.4974 8.86652 30.0172C8.88849 29.8261 8.91756 29.635 8.953 29.4453C9.07918 28.7684 9.20819 28.0921 9.33933 27.4166C9.42652 26.9703 9.53286 26.5274 9.60729 26.079C9.73063 25.3371 9.97873 24.6355 10.2552 23.941C10.3573 23.6843 10.453 23.4241 10.5579 23.1681C10.7145 22.7838 10.8549 22.391 11.0399 22.0208C11.3802 21.3404 11.7396 20.6684 12.1103 20.0041C12.2733 19.7115 12.5236 19.4887 12.822 19.3208C12.9524 19.2475 13.0687 19.1431 13.1778 19.0388C13.3473 18.8773 13.5408 18.8138 13.7761 18.7906C14.2525 18.7426 14.6509 18.9126 15.023 19.1692C15.1336 19.2454 15.2215 19.361 15.3059 19.4696C15.6539 19.9153 15.8446 20.4336 15.9736 20.9744C16.1239 21.6048 16.2423 22.2423 16.3947 22.872C16.6116 23.7731 16.898 24.6524 17.2475 25.5134C17.4821 26.0909 17.7025 26.6734 17.9925 27.2255C18.1406 27.5069 18.2994 27.784 18.4653 28.0555C18.9409 28.8354 19.4981 29.5603 20.0482 30.288C20.3395 30.6737 20.6848 31.0192 20.9747 31.4056C21.1937 31.6968 21.4517 31.9451 21.7062 32.2003C21.7722 32.2666 21.8615 32.3103 21.9791 32.3928C22.0309 32.4563 22.0444 32.4915 22.0429 32.5529C22.0174 32.6185 22.0068 32.658 21.9621 32.6967C21.7672 32.7348 21.6006 32.7588 21.4454 32.8138C20.3728 33.196 19.3081 33.5979 18.2611 34.0478C17.4055 34.4152 16.5634 34.8122 15.7198 35.2035C14.9124 35.578 14.1348 36.0102 13.3622 36.4516C12.6746 36.8444 11.9947 37.2478 11.3653 37.7294C11.3235 37.7597 11.2611 37.7639 11.2086 37.7808Z" fill="#F3E9FF"/>
<path d="M22.0594 32.5246C22.0459 32.4893 22.0324 32.4541 22.0098 32.3927C22.0176 32.1318 22.0488 31.8984 22.0495 31.6643C22.0693 27.2635 22.0849 22.8627 22.1055 18.3977C22.114 18.2962 22.1189 18.2588 22.1239 18.2221C22.2593 18.2024 22.3982 18.1967 22.5279 18.1586C22.6995 18.1086 22.8675 18.0402 23.0312 17.9668C23.5983 17.713 24.181 17.4944 24.7148 17.1672C25.0317 16.9726 25.3712 16.8139 25.7271 16.668C25.7235 16.8146 25.6654 16.9218 25.7143 17.0579C25.7547 17.1714 25.7583 17.3012 25.759 17.4239C25.7632 18.0056 25.7618 18.5867 25.7597 19.1684C25.759 19.2784 25.7668 19.3962 25.732 19.497C25.6704 19.674 25.6789 19.8517 25.6782 20.0308C25.6767 21.1661 25.6774 22.3014 25.676 23.4374C25.676 23.5615 25.6916 23.6947 25.6526 23.8076C25.5874 23.9987 25.5945 24.1891 25.5938 24.3823C25.5931 26.2932 25.5931 28.2042 25.5917 30.1151C25.5917 30.2667 25.581 30.4183 25.5676 30.5699C25.5527 30.7335 25.5165 30.8964 25.513 31.0607C25.5045 31.4485 25.5094 31.8364 25.5109 32.2235C25.5109 32.3201 25.4946 32.4252 25.5257 32.5119C25.6129 32.7552 25.5917 33.0034 25.5924 33.2516C25.5938 34.0964 25.5931 34.9411 25.5817 35.7958C25.5711 35.8056 25.542 35.812 25.5172 35.8042C25.4152 35.788 25.3648 35.8247 25.3025 35.9036C25.1309 35.9467 24.9884 35.977 24.8431 35.9735C24.841 35.5419 24.7113 35.1858 24.5007 34.8523C24.2257 34.4165 23.8479 34.0681 23.5147 33.6817C23.1071 33.2058 22.5754 32.8715 22.0594 32.5246Z" fill="#59277B"/>
<path d="M11.2016 37.8013C11.2632 37.7639 11.3256 37.7597 11.3667 37.7279C11.9962 37.2463 12.676 36.843 13.3636 36.4502C14.1363 36.0088 14.9146 35.5765 15.7213 35.2021C16.5656 34.8108 17.407 34.4138 18.2626 34.0464C19.3103 33.5965 20.3743 33.1946 21.4468 32.8124C21.6021 32.7574 21.7686 32.7334 21.9721 32.7334C22.0146 33.8102 22.0146 34.8488 22.0146 35.8762C22.2563 36.1773 22.5838 36.2316 22.9383 36.2873C23.09 36.3635 23.2204 36.3931 23.3664 36.2648C23.7705 36.2119 24.1398 36.1604 24.5205 36.128C24.558 36.1597 24.5843 36.1731 24.5956 36.2112C24.4545 36.343 24.3369 36.4615 24.2015 36.5546C23.9853 36.7034 23.7577 36.8366 23.5337 36.9741C22.6767 37.4981 21.7545 37.8633 20.7826 38.1193C20.1262 38.2921 19.4599 38.4183 18.79 38.5029C18.381 38.5551 17.9698 38.6214 17.5502 38.6143C16.4521 38.5967 15.3534 38.6073 14.2554 38.6051C14.1306 38.6051 13.9973 38.6221 13.8825 38.5854C13.6627 38.5149 13.4437 38.5304 13.1843 38.5297C12.4697 38.5353 11.841 38.3809 11.2802 37.9881C11.2384 37.9585 11.1775 37.9557 11.125 37.9409C11.1477 37.9021 11.1697 37.8619 11.2016 37.8013Z" fill="#EDB1FF"/>
<path d="M12.3458 42.9382C12.5344 42.9474 12.6847 42.958 12.8583 43.0214C12.8916 43.1286 12.8895 43.1879 12.9115 43.2365C13.0951 43.6399 13.2766 44.0439 13.4708 44.4416C14.0053 45.536 14.5738 46.6134 15.0799 47.7219C15.4592 48.5533 15.876 49.3685 16.2751 50.1907C16.7954 51.2625 17.3483 52.3181 17.853 53.3984C18.5151 54.8171 19.2289 56.2119 19.9201 57.6172C20.0852 57.9529 20.2539 58.2871 20.407 58.6284C20.4602 58.7469 20.5446 58.7476 20.6466 58.7836C20.4255 60.0105 20.7913 61.0034 21.6858 61.81C21.8595 61.9666 22.0637 62.0893 22.2529 62.2606C22.26 62.3481 22.2558 62.4073 22.277 62.4553C22.428 62.7951 22.5783 63.135 22.7406 63.4693C22.9944 63.9904 23.2574 64.5072 23.5176 65.0248C23.6168 65.2222 23.7203 65.4176 23.8174 65.6157C23.8585 65.6996 23.923 65.7384 24.0166 65.7835C24.0145 65.8914 24.0074 65.9598 24.0038 66.0289C23.9393 67.2876 24.4469 68.2544 25.5059 68.9391C25.552 68.9687 25.5931 69.0075 25.6108 69.0589C25.4754 69.1901 25.5782 69.2839 25.6229 69.3749C26.1425 70.4446 26.6628 71.5136 27.1895 72.5797C27.5879 73.3857 27.999 74.1853 28.3974 74.9913C28.5505 75.3009 28.688 75.6182 28.8263 75.9355C28.8532 75.9969 28.8497 76.0709 28.8603 76.1386C28.5711 76.1062 28.3038 75.968 28.0047 75.9694C27.921 75.9694 27.8168 75.9045 27.7587 75.8382C27.6602 75.7254 27.5772 75.5935 27.5099 75.4588C26.4934 73.4386 25.4769 71.4184 24.4681 69.3946C23.8989 68.253 23.3453 67.1029 22.781 65.9584C21.9155 64.2047 21.05 62.451 20.1795 60.6994C18.5739 57.4699 16.9641 54.2417 15.3571 51.0129C14.1825 48.6534 13.0072 46.2947 11.8361 43.9332C11.7071 43.673 11.6001 43.4015 11.4874 43.1336C11.4732 43.0997 11.4852 43.0553 11.4852 43.0094C11.6121 42.9107 11.756 42.9537 11.8893 42.946C12.0282 42.9375 12.1679 42.9411 12.3458 42.9382Z" fill="#B065E4"/>
<path d="M22.1157 18.184C22.1171 18.2594 22.1129 18.2968 22.0966 18.3596C21.7464 18.4555 21.4097 18.5344 21.0694 18.593C20.6335 18.6684 20.1997 18.7523 19.7609 18.8179C19.1066 18.9152 18.4544 18.8927 17.8044 18.8729C17.0906 18.8511 16.3952 18.6811 15.7898 18.2834C15.3815 18.0148 15.1228 17.6467 15.127 17.1093C15.1313 16.5424 15.3581 16.0855 15.7196 15.6892C16.3895 14.9551 17.182 14.3797 18.0695 13.9242C19.0003 13.4461 19.9728 13.0766 20.9737 12.7798C21.3296 12.674 21.6847 12.5358 22.103 12.5612C22.142 12.7001 22.1526 12.8376 22.1519 12.9751C22.1483 14.2302 22.1448 15.4854 22.137 16.7406C22.1334 17.2095 22.1186 17.6777 22.1157 18.184Z" fill="#F4EAFF"/>
<path d="M28.8854 76.1451C28.85 76.0703 28.8535 75.9963 28.8266 75.935C28.6883 75.6183 28.5508 75.3003 28.3977 74.9908C27.9993 74.1848 27.5882 73.3851 27.1898 72.5792C26.6631 71.513 26.1428 70.444 25.6232 69.3743C25.5792 69.2833 25.4765 69.1888 25.6402 69.0654C25.8075 69.1035 25.9181 69.1585 26.035 69.198C26.5745 69.3778 27.1196 69.4899 27.7207 69.3327C27.8668 69.3186 27.9781 69.3017 28.0936 69.3186C28.1489 69.6916 28.346 69.961 28.5175 70.2677C28.453 70.4108 28.3934 70.5265 28.3126 70.6626C27.8689 71.5215 27.8271 72.3845 28.1865 73.2469C28.6075 74.2546 29.3447 74.9125 30.4718 75.1417C30.6498 75.1804 30.7979 75.2065 30.9553 75.2503C30.9801 75.2897 31.0014 75.3046 31.0283 75.3447C31.0935 75.5394 31.1481 75.7072 31.224 75.8651C31.3296 76.0866 31.4316 76.308 31.4501 76.5569C31.1382 76.516 30.8256 76.4793 30.5137 76.4342C30.0664 76.3693 29.6191 76.2974 29.1356 76.2297C29.0364 76.2029 28.9733 76.1775 28.8854 76.1451Z" fill="#C16FFA"/>
<path d="M11.1003 37.9546C11.1776 37.9574 11.2385 37.9602 11.2804 37.9898C11.8411 38.3826 12.4698 38.5363 13.1822 38.5631C13.1936 38.6752 13.178 38.7563 13.144 38.829C12.9894 39.1604 13.027 39.4904 13.1333 39.8239C13.1652 39.9227 13.2212 39.9882 13.3226 40.02C13.3722 40.0355 13.4155 40.0714 13.4615 40.0975C13.0582 40.0982 12.6463 40.149 12.2522 40.0877C11.7836 40.015 11.3101 40.063 10.8451 39.9593C10.536 39.8902 10.2128 39.8832 9.89593 39.8521C9.75274 39.838 9.62019 39.8098 9.53583 39.6399C9.53016 39.4826 9.55922 39.3677 9.65917 39.2767C9.98242 38.9813 10.256 38.6358 10.6218 38.3826C10.7891 38.2677 10.9252 38.1069 11.1003 37.9546Z" fill="#E596FE"/>
<path d="M23.918 42.0222C24.132 41.9679 24.344 41.9038 24.5602 41.8607C25.8099 41.6125 27.0526 41.3312 28.2768 40.9765C29.0353 40.7565 29.7973 40.5442 30.5473 40.2981C31.3377 40.0386 32.1167 39.7453 32.9 39.464C33.5132 39.2432 34.1249 39.019 34.7665 38.8223C34.797 39.0134 34.8076 39.1734 34.8558 39.3384C34.9777 39.7615 35.0663 40.1945 35.179 40.6211C35.352 41.2748 35.5491 41.9221 35.7086 42.5786C35.9361 43.5164 36.1913 44.4472 36.4132 45.3865C36.5429 45.9365 36.7279 46.4738 36.8718 47.0203C37.1596 48.114 37.4346 49.2105 37.7182 50.3049C37.9082 51.0389 38.1038 51.7709 38.2938 52.5049C38.5391 53.4526 38.7787 54.4018 39.0246 55.3488C39.1388 55.7895 39.2664 56.2267 39.3812 56.6674C39.635 57.6419 39.8873 58.6164 40.1347 59.5923C40.1815 59.7785 40.1999 59.9717 40.2084 60.1755C40.1156 60.2037 40.0454 60.2171 39.9632 60.215C39.8632 60.1557 39.8299 60.2086 39.7782 60.2947C39.2281 60.4928 38.7822 60.7897 38.4122 61.1994C38.1775 61.4596 38.0138 61.7642 37.8295 62.0801C37.7572 62.1901 37.7047 62.2902 37.6657 62.3953C37.6572 62.4186 37.6948 62.4588 37.7118 62.5229C37.6934 62.6153 37.6757 62.6759 37.6374 62.7472C37.5403 62.8367 37.536 62.9143 37.626 63.0264C37.6282 63.2358 37.626 63.4086 37.6069 63.5954C37.5389 63.7076 37.5552 63.7844 37.6742 63.8634C37.7366 64.0799 37.7841 64.2674 37.8252 64.4818C37.8132 64.5946 37.8564 64.644 37.9542 64.6891C38.2952 65.3287 38.7808 65.7821 39.3982 66.1368C39.4563 66.2355 39.5258 66.2362 39.6321 66.2193C39.8505 66.2799 40.0376 66.3349 40.2347 66.4097C40.3254 66.5049 40.4034 66.5084 40.5147 66.4188C40.7252 66.4181 40.8989 66.4203 41.0867 66.44C41.1966 66.5056 41.2739 66.4908 41.3561 66.3772C42.0976 66.2172 42.693 65.8717 43.1665 65.3252C43.309 65.1602 43.4345 64.9804 43.5812 64.8365C43.7769 65.0798 43.8286 65.3372 43.8166 65.6249C43.3778 65.7694 43.0198 66.0014 42.6391 66.2475C42.4478 66.2976 42.3386 66.3949 42.3003 66.5909C42.1415 66.8455 42.004 67.081 41.8403 67.3257C41.7396 67.3863 41.741 67.4561 41.7623 67.5612C41.7325 67.6655 41.7063 67.7396 41.6616 67.8214C41.5737 67.8785 41.5617 67.9307 41.6396 68.016C41.6262 68.1091 41.612 68.1697 41.5716 68.2459C41.4433 68.4849 41.4716 68.7127 41.5269 68.9405C41.5319 68.9616 41.5666 68.9764 41.6014 69.0251C41.6389 69.2119 41.6637 69.3678 41.6793 69.5497C41.6567 69.6611 41.6942 69.7147 41.7878 69.7662C41.8176 69.8416 41.8325 69.8938 41.841 69.9742C41.8296 70.0927 41.8778 70.1392 41.9806 70.1794C42.2464 70.6109 42.5512 70.9699 42.9574 71.2294C43.1793 71.3711 43.421 71.4818 43.6585 71.6271C43.7095 71.7222 43.7613 71.7427 43.8577 71.6672C44.3255 71.7723 44.7615 71.8421 45.2081 71.7462C45.3024 71.7258 45.4009 71.7286 45.5016 71.754C45.5866 72.0988 45.6738 72.4091 45.7468 72.7229C45.778 72.8575 45.8099 72.9845 45.9255 73.0726C45.7794 73.3046 45.5306 73.4174 45.3194 73.5676C44.8111 73.9287 44.2717 74.2389 43.728 74.5471C42.9503 74.9878 42.1288 75.3178 41.2902 75.6041C40.3474 75.9256 39.3819 76.1809 38.403 76.3762C38.2002 76.4164 37.9932 76.4383 37.7522 76.4439C37.6998 76.3247 37.6402 76.2655 37.5552 76.1943C37.5098 76.0187 37.4921 75.8572 37.4134 75.7359C37.29 75.5441 37.2461 75.3298 37.1759 75.1232C37.1476 75.0393 37.1752 74.937 37.2106 74.8468C37.6586 74.9723 38.0783 75.078 38.515 75.04C39.3989 74.9638 40.1461 74.6112 40.733 73.9378C41.7857 72.7306 41.6779 71.1109 40.9343 70.0955C39.8164 68.5681 37.7076 68.3009 36.265 69.5292C35.9269 69.8177 35.6306 70.1505 35.4902 70.6074C35.4555 70.6399 35.4321 70.654 35.3775 70.6427C35.1897 70.2534 35.089 69.855 34.8742 69.5046C34.8678 69.494 34.8693 69.4778 34.8622 69.4538C34.8572 69.4432 34.8636 69.4199 34.8863 69.4319C34.9543 69.4263 34.999 69.408 35.0741 69.3868C35.7142 69.2211 36.226 68.9003 36.645 68.4334C37.7799 67.1677 37.6494 65.4831 36.7846 64.4289C35.9914 63.4622 34.9678 63.0913 33.7422 63.2605C33.3714 63.312 33.0085 63.422 32.681 63.6646C32.6165 63.685 32.5747 63.7026 32.5335 63.6885C32.5045 63.5122 32.4761 63.3677 32.4577 63.2048C32.4974 63.1533 32.5265 63.1216 32.5817 63.0814C32.883 62.9016 33.1084 62.6752 33.309 62.4256C33.7776 61.8432 34.0307 61.1775 34.0115 60.4279C33.9662 58.6538 32.4761 57.3274 30.8167 57.3471C30.5679 57.35 30.319 57.3916 30.0426 57.4085C29.8476 56.9819 29.6811 56.5609 29.5124 56.1414C29.1572 55.2578 28.7999 54.3743 28.4448 53.4907C28.0797 52.5811 27.7182 51.67 27.3503 50.7618C27.1376 50.2372 26.9087 49.7189 26.6981 49.1935C26.3437 48.3093 25.9999 47.4215 25.6476 46.5366C25.4995 46.1649 25.3364 45.799 25.1868 45.4274C25.0018 44.9662 24.8267 44.5015 24.6439 44.0396C24.4248 43.4875 24.1987 42.9389 23.9846 42.3854C23.9414 42.2718 23.9392 42.1435 23.918 42.0222Z" fill="#AF63E4"/>
<path d="M41.8189 35.2825C42.6483 34.7283 43.4784 34.1747 44.3226 33.6106C44.4438 33.7333 44.4566 33.8729 44.4871 34.002C44.5225 34.1493 44.5395 34.3016 44.5785 34.4476C44.8578 35.4905 45.0386 36.5532 45.2541 37.6095C45.4667 38.6517 45.6829 39.6932 45.8914 40.7368C46.0452 41.5089 46.1891 42.2832 46.3372 43.0567C46.423 43.5045 46.5102 43.9523 46.5967 44.4C46.7321 45.1052 46.8667 45.811 47.0029 46.5162C47.1631 47.3433 47.3268 48.1697 47.4835 48.9976C47.6068 49.6491 47.7188 50.3021 47.8407 50.9544C48.0236 51.9317 48.215 52.9076 48.3958 53.8856C48.5262 54.5915 48.6425 55.3002 48.7701 56.0074C48.858 56.4968 48.9558 56.9848 49.0444 57.4734C49.15 58.0573 49.2485 58.6433 49.3542 59.2271C49.4449 59.7299 49.542 60.232 49.6335 60.7347C49.7072 61.1423 49.7774 61.5506 49.8475 61.9589C49.9524 62.5709 50.0574 63.183 50.1594 63.7965C50.2544 64.369 50.3437 64.9416 50.4359 65.5142C50.5323 66.1136 50.623 66.7144 50.7287 67.3123C50.7492 67.428 50.7563 67.5281 50.7003 67.6318C50.6145 67.7897 50.5408 67.9561 50.443 68.1063C50.1864 68.5019 49.922 68.8919 49.6569 69.2818C49.6108 69.3502 49.5484 69.408 49.4442 69.4672C49.3513 69.3636 49.2932 69.2663 49.2684 69.1619C49.1855 68.8143 49.116 68.4631 49.038 68.1141C48.9501 67.7241 48.8551 67.3363 48.7694 66.9464C48.6014 66.1806 48.4397 65.4127 48.2703 64.6469C48.1335 64.0285 47.9861 63.4122 47.8507 62.7938C47.672 61.9737 47.5054 61.1501 47.3218 60.3314C47.2935 60.2052 47.2765 60.0514 47.1496 59.9548C47.2212 59.8716 47.2772 59.8096 47.3587 59.7348C47.5281 59.555 47.6848 59.3971 47.8138 59.2187C48.2065 58.675 48.3986 58.0622 48.3837 57.3937C48.3681 56.6957 48.137 56.0674 47.6926 55.5244C47.2907 55.0329 46.8086 54.6514 46.1558 54.4829C46.0636 54.4378 45.9878 54.411 45.9133 54.3454C45.9126 54.2107 45.9247 54.1106 45.9048 54.0175C45.7198 53.1692 45.5298 52.3223 45.3399 51.4755C45.2583 51.1123 45.1704 50.7506 45.0896 50.3874C44.8989 49.5264 44.7118 48.6655 44.5211 47.8045C44.4346 47.4138 44.3382 47.026 44.2525 46.6353C44.0306 45.6263 43.8122 44.6165 43.5911 43.6074C43.5081 43.2302 43.416 42.8551 43.3338 42.4785C43.1658 41.7113 43.0041 40.9434 42.8347 40.1769C42.6979 39.5578 42.5505 38.9408 42.4151 38.3217C42.2386 37.5143 42.0784 36.7034 41.8926 35.8981C41.843 35.6908 41.8139 35.4905 41.8189 35.2825Z" fill="#9339D3"/>
<path d="M23.8846 42.0222C23.9406 42.1435 23.9427 42.2718 23.986 42.3847C24.2 42.9382 24.4262 43.4868 24.6452 44.0389C24.8281 44.5008 25.0032 44.9662 25.1882 45.4267C25.3371 45.7983 25.5008 46.1642 25.649 46.5359C26.0013 47.4208 26.3451 48.3086 26.6995 49.1928C26.91 49.7182 27.139 50.2365 27.3517 50.7611C27.7196 51.6693 28.0811 52.5804 28.4461 53.49C28.8013 54.3743 29.1586 55.2571 29.5137 56.1406C29.6824 56.5602 29.849 56.9812 30.0475 57.4184C30.0794 57.4346 30.0822 57.4564 30.0496 57.4586C28.9672 57.7463 28.2547 58.4049 27.8705 59.4111C27.7777 59.6537 27.733 59.9146 27.6366 60.1656C27.5501 60.1346 27.4714 60.1191 27.4424 60.0718C27.3722 59.959 27.3247 59.8314 27.2687 59.7101C27.2127 59.5888 27.1666 59.4612 27.0972 59.3476C27.0681 59.2997 26.9908 59.2807 26.9256 59.2165C26.8505 58.4796 26.574 57.8654 26.109 57.3323C26.0729 57.2914 26.0388 57.2491 26.0133 57.1772C26.1324 56.9932 26.0339 56.8493 25.9842 56.7146C25.9119 56.5207 25.7999 56.3423 25.7156 56.1519C25.4476 55.5448 25.1868 54.9348 24.9202 54.327C24.7926 54.0358 24.6551 53.7481 24.5304 53.4562C24.161 52.5924 23.7967 51.7257 23.4281 50.8619C23.3196 50.6074 23.2019 50.357 23.0907 50.1039C22.8681 49.5976 22.6462 49.0913 22.4243 48.5843C22.3414 48.3946 22.2577 48.2042 22.1769 48.0138C21.9721 47.5301 21.7707 47.045 21.563 46.5634C21.3716 46.1205 21.1725 45.6812 20.9768 45.2398C20.7585 44.7469 20.5274 44.2582 20.3268 43.7583C20.1836 43.4001 19.9773 43.0651 19.9043 42.6794C19.9667 42.6547 20.0283 42.611 20.0921 42.6096C20.633 42.5934 21.1569 42.4615 21.6885 42.3833C22.4108 42.2768 23.1296 42.1435 23.8846 42.0222Z" fill="#C470FD"/>
<path d="M19.8664 42.6802C19.977 43.0652 20.1833 43.4001 20.3265 43.7583C20.5271 44.2583 20.7582 44.747 20.9765 45.2399C21.1721 45.6813 21.3713 46.1206 21.5627 46.5634C21.7711 47.0457 21.9717 47.5309 22.1766 48.0139C22.2574 48.205 22.3411 48.3947 22.424 48.5844C22.6459 49.0914 22.8678 49.5977 23.0903 50.104C23.2016 50.3571 23.3193 50.6074 23.4278 50.862C23.7964 51.7265 24.1607 52.5924 24.53 53.4562C24.6548 53.7488 24.7923 54.0358 24.9199 54.3271C25.1857 54.9349 25.4473 55.5449 25.7153 56.152C25.7989 56.3424 25.9116 56.5208 25.9839 56.7147C26.0336 56.8494 26.1321 56.9932 25.9875 57.1618C25.7642 57.0341 25.5848 56.8769 25.3856 56.7521C24.6917 56.3177 23.9268 56.2204 23.1343 56.3522C22.7522 56.4157 22.3765 56.5328 22.0483 56.8071C21.9859 56.8191 21.9505 56.8268 21.915 56.8028C21.898 56.7048 21.8916 56.6336 21.8633 56.5723C21.6485 56.1083 21.4309 55.6457 21.2111 55.1845C20.9134 54.5591 20.615 53.9336 20.3123 53.3102C19.8529 52.3639 19.3879 51.4205 18.9286 50.4742C18.6379 49.8755 18.3565 49.2733 18.0659 48.6746C17.6002 47.7156 17.1302 46.7594 16.6638 45.8012C16.2696 44.9923 15.8755 44.1835 15.4884 43.3719C15.4367 43.2626 15.4225 43.1357 15.3906 43.0172C15.9577 42.9636 16.5248 42.9122 17.0962 42.9291C17.5406 42.7937 18.0071 42.8748 18.4614 42.7888C18.908 42.707 19.3723 42.714 19.8664 42.6802Z" fill="#D67DFF"/>
<path d="M36.7051 38.0054C36.9362 37.7699 37.2552 37.6902 37.5366 37.5464C38.1292 37.2431 38.7282 36.9519 39.3229 36.6544C39.4966 36.5676 39.6674 36.4738 39.8666 36.4097C39.8737 36.7312 39.9652 37.0097 40.0268 37.2911C40.1686 37.937 40.326 38.5794 40.4706 39.2246C40.6662 40.0976 40.8562 40.9727 41.0497 41.8463C41.1334 42.2229 41.2248 42.598 41.3078 42.9753C41.4786 43.7552 41.6438 44.5365 41.8146 45.3171C41.894 45.6802 41.984 46.042 42.0641 46.4051C42.2505 47.252 42.4327 48.1003 42.6199 48.9472C42.7092 49.3505 42.8127 49.7517 42.8999 50.1558C43.0579 50.8821 43.2054 51.6112 43.3642 52.3375C43.4818 52.8755 43.6137 53.4107 43.73 53.9495C43.776 54.1645 43.7966 54.3845 43.8115 54.6236C43.2954 54.9056 42.8708 55.254 42.5709 55.7307C42.4178 55.9739 42.3058 56.2426 42.1527 56.512C42.0655 56.5804 42.0755 56.6488 42.101 56.7447C42.0925 56.8201 42.0811 56.8702 42.0506 56.9308C41.9847 56.995 41.9946 57.0408 42.0535 57.1198C42.0549 57.3842 42.0521 57.6113 42.0315 57.8369C42.0131 57.8355 41.9769 57.8369 41.9472 57.8306C41.8883 57.796 41.8422 57.7728 41.833 57.7389C41.6586 57.0859 41.485 56.433 41.3191 55.7779C41.0788 54.8295 40.8293 53.8832 40.5847 52.9362C40.2232 51.5343 39.8666 50.1311 39.486 48.7342C39.2861 48.003 39.1195 47.2633 38.9139 46.5327C38.6197 45.4849 38.3716 44.4244 38.1008 43.3695C37.9775 42.8885 37.8435 42.4105 37.7188 41.9303C37.3806 40.6222 37.0432 39.3135 36.7051 38.0054Z" fill="#A553E0"/>
<path d="M13.501 40.1011C13.4159 40.0715 13.3727 40.0362 13.323 40.0207C13.221 39.989 13.165 39.9234 13.1338 39.8247C13.0275 39.4911 12.9899 39.1604 13.1444 38.8297C13.1784 38.7571 13.194 38.6753 13.221 38.566C13.445 38.5322 13.6647 38.5166 13.8838 38.5872C13.9979 38.6238 14.1319 38.6069 14.2566 38.6069C15.3547 38.609 16.4534 38.5977 17.5514 38.6161C17.9711 38.6231 18.3822 38.5568 18.7912 38.5047C19.4611 38.42 20.1275 38.2938 20.7839 38.1211C21.7557 37.8651 22.678 37.4998 23.535 36.9759C23.759 36.8391 23.9865 36.7051 24.2027 36.5563C24.3381 36.4633 24.4558 36.3448 24.6196 36.2101C24.6911 36.1375 24.7252 36.0923 24.7819 36.0388C24.8187 36.0225 24.8329 36.0141 24.8471 36.0063C24.9903 35.9767 25.1328 35.9464 25.3277 35.9139C25.4347 35.878 25.4893 35.8448 25.5439 35.8117C25.5439 35.8117 25.5723 35.8054 25.6155 35.7955C26.1713 35.6389 26.6476 35.414 27.0885 35.1157C27.416 34.8943 27.5486 34.6038 27.5217 34.1941C27.4841 33.6152 27.5146 33.0313 27.5486 32.4467C28.0951 32.329 28.6105 32.2225 29.1216 32.0984C29.997 31.8862 30.8916 31.7811 31.7763 31.6231C31.967 31.5893 32.1584 31.5597 32.3512 31.5413C32.7375 31.5054 33.1245 31.48 33.5109 31.449C33.5938 31.4426 33.676 31.4299 33.7583 31.4201C33.9093 31.4031 34.0602 31.3735 34.2112 31.3714C34.6706 31.3643 35.1313 31.3559 35.5907 31.3721C35.9643 31.3848 36.3378 31.4208 36.7079 31.4687C36.8985 31.4934 37.085 31.5611 37.2686 31.6231C37.3388 31.6471 37.3955 31.7092 37.4585 31.7543C37.3636 31.9708 37.2402 32.1322 37.0956 32.2839C36.5647 32.8388 35.9394 33.2774 35.2986 33.6857C34.538 34.1701 33.7462 34.6059 32.9331 35.0001C32.6829 35.1214 32.4362 35.2518 32.1839 35.3689C31.7685 35.5621 31.3538 35.7574 30.9313 35.9351C30.4457 36.1396 29.9538 36.3293 29.4611 36.519C28.7877 36.7785 28.1164 37.0436 27.4359 37.284C25.8523 37.8432 24.246 38.3298 22.6028 38.688C21.9266 38.8354 21.2475 38.9693 20.5691 39.1047C20.1345 39.1915 19.7007 39.2789 19.2634 39.3494C18.6488 39.4481 18.0306 39.5278 17.4153 39.6209C16.9369 39.6935 16.4605 39.7774 15.982 39.8522C15.7637 39.886 15.5432 39.9128 15.3235 39.9389C15.008 39.9763 14.6919 40.0101 14.3757 40.0482C14.3516 40.051 14.3311 40.0785 14.3091 40.0948C14.0532 40.0983 13.7966 40.1011 13.501 40.1011Z" fill="#C584FE"/>
<path d="M36.6736 38.0103C37.0429 39.3134 37.3796 40.6214 37.7192 41.9295C37.8439 42.4097 37.9772 42.8877 38.1013 43.3687C38.372 44.4228 38.6194 45.4841 38.9143 46.5319C39.1199 47.2625 39.2872 48.0022 39.4864 48.7334C39.8677 50.1303 40.2236 51.5335 40.5851 52.9354C40.8297 53.8824 41.0792 54.8287 41.3195 55.7771C41.4854 56.4322 41.6591 57.0852 41.8334 57.7381C41.8427 57.7713 41.8887 57.7952 41.9511 57.8545C42.0128 57.925 42.0397 57.9638 42.0759 58.0272C42.0893 58.1034 42.095 58.1556 42.0915 58.2324C42.0688 58.3382 42.1007 58.3932 42.1907 58.4524C42.2474 58.597 42.2871 58.7147 42.2963 58.8374C42.19 58.8678 42.1489 58.9213 42.1687 58.9989C42.2198 59.1985 42.2793 59.3959 42.3332 59.5948C42.4232 59.9262 42.5132 60.2576 42.4509 60.5996C42.1028 60.4085 41.7569 60.2943 41.3996 60.1716C41.3365 60.0834 41.2841 60.0813 41.1962 60.161C40.8481 60.1631 40.5383 60.1631 40.2293 60.1631C40.1974 59.9734 40.1789 59.7802 40.1322 59.5941C39.8855 58.6181 39.6331 57.6429 39.3786 56.6691C39.2638 56.2284 39.1362 55.7912 39.0221 55.3505C38.7761 54.4028 38.5365 53.4544 38.2912 52.5066C38.1013 51.7726 37.9056 51.0406 37.7156 50.3066C37.4328 49.2122 37.157 48.1157 36.8692 47.022C36.7253 46.4748 36.541 45.9382 36.4106 45.3882C36.1887 44.4489 35.9335 43.5181 35.706 42.5803C35.5465 41.9238 35.3494 41.2765 35.1765 40.6228C35.0638 40.1969 34.9752 39.764 34.8532 39.3402C34.8057 39.1752 34.7944 39.0151 34.793 38.8141C35.0177 38.6801 35.241 38.5793 35.4671 38.4834C35.7932 38.3445 36.12 38.2077 36.4475 38.073C36.5091 38.0462 36.5772 38.0342 36.6736 38.0103Z" fill="#AD5DE5"/>
<path d="M43.8306 54.6012C43.7987 54.3833 43.7782 54.1633 43.7314 53.9483C43.6151 53.4095 43.4833 52.8743 43.3656 52.3363C43.2075 51.61 43.0594 50.8809 42.9013 50.1546C42.8134 49.7505 42.7106 49.35 42.6213 48.946C42.4334 48.0991 42.252 47.2508 42.0655 46.4039C41.9854 46.0408 41.8961 45.6797 41.816 45.3159C41.6452 44.536 41.48 43.7547 41.3092 42.9741C41.2269 42.5968 41.1348 42.2224 41.0511 41.8452C40.8569 40.9715 40.6676 40.0964 40.472 39.2234C40.3274 38.5782 40.17 37.9358 40.0283 37.2899C39.9666 37.0086 39.8744 36.73 39.8957 36.3993C40.2537 36.1575 40.6116 35.9501 40.9703 35.7456C41.234 35.5955 41.4999 35.4495 41.7919 35.2922C41.8139 35.4911 41.8429 35.6913 41.8904 35.8973C42.0762 36.7025 42.2371 37.5134 42.4129 38.3208C42.5483 38.94 42.6957 39.557 42.8325 40.1761C43.0019 40.9426 43.1636 41.7112 43.3316 42.4777C43.4145 42.8549 43.5067 43.2301 43.5889 43.6066C43.8108 44.6157 44.0284 45.6254 44.2503 46.6345C44.336 47.0252 44.4324 47.413 44.5189 47.8036C44.7096 48.6646 44.8968 49.5256 45.0874 50.3866C45.1683 50.7497 45.2561 51.1115 45.3377 51.4746C45.5276 52.3215 45.7176 53.1684 45.9026 54.0167C45.9232 54.1098 45.9104 54.2099 45.8729 54.3403C45.4915 54.3643 45.1512 54.3403 44.811 54.3495C44.609 54.3551 44.4083 54.4123 44.1794 54.4398C44.066 54.4242 44.0135 54.4644 43.9653 54.5596C43.905 54.5843 43.8675 54.5928 43.8306 54.6012Z" fill="#A24CDD"/>
<path d="M14.3468 40.0977C14.3319 40.0786 14.3525 40.0511 14.3766 40.0483C14.6921 40.0102 15.0082 39.9764 15.3244 39.939C15.5441 39.9129 15.7639 39.8861 15.9829 39.8523C16.4607 39.7776 16.9377 39.6936 17.4162 39.621C18.0315 39.5272 18.6497 39.4482 19.2642 39.3495C19.7016 39.2797 20.1354 39.1916 20.57 39.1048C21.2484 38.9695 21.9275 38.8355 22.6037 38.6881C24.2469 38.3299 25.8532 37.8433 27.4368 37.2842C28.1173 37.0437 28.7886 36.7786 29.462 36.5191C29.954 36.3294 30.4459 36.1397 30.9322 35.9352C31.3547 35.7575 31.7694 35.5622 32.1848 35.369C32.4371 35.2519 32.6831 35.1215 32.934 35.0002C33.7471 34.606 34.5396 34.1702 35.2995 33.6858C35.9403 33.2775 36.5663 32.8389 37.0965 32.284C37.2411 32.1324 37.3645 31.9709 37.4594 31.7544C37.3964 31.7093 37.3396 31.6472 37.2695 31.6232C37.0859 31.5612 36.8994 31.4935 36.7088 31.4688C36.338 31.4209 35.9644 31.3849 35.5916 31.3722C35.1322 31.356 34.6722 31.3652 34.2121 31.3715C34.0611 31.3736 33.9101 31.4032 33.7592 31.4202C33.6769 31.4293 33.594 31.442 33.5118 31.4491C33.1254 31.4801 32.7377 31.5055 32.3521 31.5414C32.1592 31.5591 31.9678 31.5887 31.7772 31.6232C30.8925 31.7812 29.9979 31.8863 29.1225 32.0985C28.6114 32.2226 28.096 32.3291 27.5438 32.4081C27.5091 31.8736 27.5133 31.3743 27.5169 30.8758C28.0421 30.7489 28.5695 30.6297 29.0927 30.4943C30.234 30.1989 31.388 29.9605 32.542 29.7264C33.0708 29.6192 33.6067 29.5459 34.1738 29.4535C34.3815 29.4232 34.5545 29.3971 34.7657 29.4013C34.8763 29.5889 35.0372 29.6256 35.1741 29.6749C35.5902 29.8251 36.0077 29.9774 36.4351 30.091C36.8753 30.2073 37.3276 30.2757 37.7855 30.2905C37.9089 30.2948 38.0336 30.3117 38.1548 30.3364C38.376 30.3815 38.5922 30.3822 38.8141 30.3314C38.9474 30.3011 39.0884 30.3046 39.2266 30.3237C39.2189 30.4767 39.3046 30.5549 39.3613 30.6487C39.6839 31.1748 39.7385 31.7318 39.5421 32.3136C39.4535 32.5752 39.3599 32.834 39.1834 33.054C39.1409 33.1069 39.104 33.1732 39.0934 33.238C39.0863 33.2782 39.1324 33.3276 39.1551 33.3734C39.0487 33.4369 38.9466 33.5102 38.8354 33.5624C37.8919 34.0052 36.9569 34.4664 35.9999 34.8782C34.9295 35.3394 33.8471 35.7758 32.7391 36.1446C31.8558 36.4387 30.9818 36.7595 30.0943 37.0402C29.1551 37.337 28.2045 37.5979 27.2603 37.8793C26.0899 38.2283 24.9047 38.5224 23.7159 38.8002C22.7717 39.0209 21.824 39.2254 20.8642 39.3742C20.29 39.4631 19.72 39.5822 19.1459 39.6746C18.8453 39.7233 18.5398 39.7416 18.2371 39.779C17.8798 39.8234 17.524 39.8727 17.1667 39.9207C17.1391 39.9242 17.1121 39.932 17.0845 39.9341C16.5996 39.9658 16.1155 39.999 15.6306 40.0258C15.4094 40.0385 15.1897 40.0335 14.9678 40.0829C14.7807 40.1224 14.5786 40.097 14.3468 40.0977Z" fill="#AE5DE7"/>
<path d="M15.3511 43.0182C15.422 43.1388 15.4354 43.2657 15.4879 43.375C15.8756 44.1866 16.2698 44.9954 16.6632 45.8042C17.1296 46.7625 17.5996 47.7187 18.0653 48.6777C18.356 49.2764 18.6374 49.8786 18.928 50.4772C19.3874 51.4236 19.8524 52.367 20.3117 53.3133C20.6144 53.9367 20.9129 54.5622 21.2106 55.1876C21.4303 55.6488 21.648 56.1114 21.8627 56.5753C21.8911 56.6367 21.8982 56.7079 21.901 56.8299C21.3729 57.2678 20.9951 57.7529 20.7725 58.3544C20.7243 58.4842 20.6853 58.6174 20.6428 58.7486C20.545 58.7472 20.4606 58.7465 20.4074 58.628C20.2543 58.2867 20.0856 57.9525 19.9204 57.6168C19.2293 56.2115 18.5155 54.8167 17.8534 53.398C17.3487 52.3177 16.7958 51.2621 16.2754 50.1903C15.8764 49.3673 15.4603 48.5529 15.0803 47.7215C14.5742 46.613 14.0057 45.5356 13.4712 44.4412C13.2769 44.0435 13.0955 43.6387 12.9119 43.2361C12.8899 43.1875 12.8913 43.1282 12.8828 43.0415C13.693 43.0112 14.5026 43.014 15.3511 43.0182Z" fill="#C470FD"/>
<path d="M47.1323 59.9744C47.2747 60.0505 47.2917 60.2035 47.3201 60.3305C47.5037 61.1498 47.6703 61.9727 47.8489 62.7928C47.9836 63.4119 48.1317 64.0275 48.2686 64.646C48.438 65.4117 48.5989 66.1796 48.7676 66.9454C48.8534 67.3354 48.9491 67.7239 49.0363 68.1132C49.115 68.4622 49.1837 68.8134 49.2666 69.161C49.2915 69.2654 49.3503 69.362 49.4198 69.4825C49.356 69.6384 49.2759 69.7822 49.1738 69.9092C48.9583 70.1764 48.7336 70.4366 48.5089 70.6961C48.3196 70.914 48.1403 71.1432 47.9304 71.3399C47.469 71.7722 46.9933 72.1896 46.5191 72.6078C46.344 72.7622 46.1561 72.9018 45.9491 73.0605C45.8081 72.9843 45.7769 72.8574 45.745 72.7227C45.6713 72.4089 45.5848 72.0986 45.5217 71.7348C45.6578 71.6424 45.7783 71.6079 45.8946 71.5627C47.0869 71.1023 47.9517 69.8605 47.9155 68.5934C47.8865 67.5765 47.4463 66.7649 46.6453 66.1423C46.5148 66.0407 46.378 65.9484 46.2462 65.8123C46.2816 65.4667 46.2206 65.172 46.1469 64.8772C46.0434 64.4654 45.9371 64.0543 45.8457 63.6397C45.6663 62.8239 45.5061 62.0045 45.3176 61.1914C45.2736 61.0004 45.2474 60.8149 45.2807 60.6125C45.4047 60.6005 45.4962 60.5991 45.6025 60.6153C45.7173 60.6844 45.7939 60.6682 45.8676 60.5427C46.0413 60.4814 46.1923 60.451 46.3277 60.3869C46.5999 60.2585 46.8643 60.1126 47.1323 59.9744Z" fill="#A24CDD"/>
<path d="M34.8662 69.4655C34.8683 69.4789 34.8669 69.4951 34.8733 69.5057C35.0881 69.8562 35.1887 70.2546 35.373 70.6762C35.3482 70.8666 35.3007 71.0091 35.232 71.1564C35.1235 71.2128 35.1313 71.265 35.2128 71.3546C35.1979 71.533 35.1795 71.6754 35.1419 71.8235C35.0462 71.9229 35.0462 71.9229 35.1724 72.0202C35.1937 72.1979 35.2022 72.3411 35.193 72.4962C35.115 72.6048 35.1802 72.6316 35.2709 72.681C35.3815 73.0272 35.5042 73.3339 35.6956 73.6068C36.0734 74.1462 36.532 74.5898 37.1785 74.8084C37.1771 74.8204 37.1764 74.8443 37.1764 74.8443C37.1742 74.9381 37.1459 75.0411 37.1743 75.1243C37.2444 75.3309 37.2884 75.546 37.4117 75.7371C37.4904 75.8591 37.5074 76.0198 37.5528 76.2271C37.5528 76.3548 37.5528 76.4182 37.5528 76.4817C37.2806 76.5289 37.0084 76.5769 36.7362 76.6241C36.6951 76.6312 36.6539 76.6389 36.6128 76.6411C35.9763 76.6686 35.3432 76.7729 34.6606 76.6982C34.5663 76.5247 34.5224 76.3809 34.4621 76.2441C34.2317 75.7194 33.9936 75.1976 33.7625 74.673C33.6739 74.472 33.6058 74.2647 33.6172 74.0137C33.922 73.5518 34.1509 73.0857 34.2877 72.5618C34.3863 72.4955 34.3664 72.4454 34.2863 72.3651C34.2842 72.1309 34.2863 71.9335 34.3076 71.7255C34.3912 71.6296 34.3395 71.5936 34.248 71.5379C34.1261 70.959 33.8837 70.4753 33.5137 70.055C33.3875 69.9119 33.2542 69.7751 33.1387 69.6072C33.177 69.4993 33.201 69.4197 33.2599 69.3435C33.8093 69.5134 34.3359 69.512 34.8662 69.4655Z" fill="#C470FD"/>
<path d="M39.1797 33.3582C39.1315 33.3264 39.0854 33.2771 39.0925 33.2362C39.1039 33.1713 39.1407 33.105 39.1825 33.0521C39.3591 32.8321 39.4533 32.5733 39.5412 32.3117C39.7376 31.7293 39.683 31.1729 39.3605 30.6469C39.3031 30.5531 39.218 30.4748 39.2619 30.3204C39.515 30.2597 39.734 30.2379 39.9502 30.2012C40.3153 30.1399 40.6825 30.0813 41.0433 29.9988C41.704 29.8465 42.3228 29.5729 42.9417 29.3043C43.0239 29.2683 43.0849 29.1851 43.1558 29.123C43.3039 29.1463 43.4513 29.1703 43.6661 29.1992C44.202 29.2133 44.638 29.3212 45.0116 29.6202C44.9853 29.6829 44.974 29.7598 44.9293 29.8049C44.7174 30.0221 44.5083 30.2386 44.2566 30.4184C43.4464 30.998 42.6191 31.5516 41.755 32.048C41.0476 32.4542 40.3401 32.8638 39.5738 33.1579C39.4462 33.2065 39.3279 33.2813 39.1797 33.3582Z" fill="#A553E0"/>
<path d="M33.6139 74.0405C33.6082 74.2641 33.6763 74.4721 33.7649 74.6723C33.9967 75.197 34.2341 75.7188 34.4645 76.2434C34.5248 76.3802 34.5687 76.5248 34.624 76.6961C34.0442 76.7257 33.4586 76.756 32.8781 76.7137C32.4258 76.6806 31.9658 76.6749 31.4859 76.5586C31.4327 76.3055 31.3306 76.0847 31.225 75.8626C31.1499 75.7047 31.0946 75.5375 31.0605 75.3429C31.2172 75.295 31.3654 75.362 31.4894 75.2026C31.6099 75.18 31.6992 75.1702 31.7999 75.1758C31.8977 75.2386 31.9332 75.1857 31.9877 75.1025C32.1501 75.044 32.2848 75.0002 32.4506 74.9622C32.6201 74.9452 32.7526 74.9128 32.8143 74.7309C33.0964 74.5172 33.3686 74.3346 33.5579 74.0441C33.5756 74.0441 33.6139 74.0405 33.6139 74.0405Z" fill="#D67DFF"/>
<path d="M45.0418 29.6193C44.6392 29.3203 44.2032 29.2124 43.6992 29.1976C43.6637 29.0728 43.7559 29.0319 43.8424 28.9889C44.1515 28.8345 44.4591 28.6765 44.771 28.5292C45.4217 28.2224 46.0484 27.8755 46.6325 27.4552C46.6764 27.4235 46.7289 27.4045 46.8062 27.377C46.8409 27.5123 46.8047 27.6393 46.7665 27.7732C46.6133 28.312 46.2717 28.697 45.8286 29.0185C45.6528 29.1462 45.5096 29.3189 45.3523 29.4719C45.2729 29.5495 45.1942 29.6257 45.0418 29.6193Z" fill="#D4CEE1"/>
<path d="M37.5818 76.4826C37.5542 76.4184 37.5542 76.355 37.5549 76.2598C37.6399 76.2668 37.6995 76.3261 37.7179 76.4473C37.6832 76.4762 37.6463 76.4798 37.5818 76.4826Z" fill="#BD6CF5"/>
<path d="M43.1211 29.1184C43.0842 29.1847 43.0233 29.2686 42.941 29.3045C42.3222 29.5732 41.7034 29.8468 41.0427 29.9991C40.6819 30.0823 40.3154 30.1401 39.9496 30.2015C39.7334 30.2382 39.5144 30.2593 39.2599 30.2896C39.0855 30.303 38.9452 30.2995 38.8119 30.3298C38.59 30.3806 38.3738 30.3799 38.1526 30.3348C38.0314 30.3101 37.9067 30.2932 37.7833 30.2889C37.3254 30.2748 36.8731 30.2064 36.4329 30.0894C36.0055 29.9758 35.588 29.8242 35.1719 29.6733C35.0351 29.624 34.8741 29.5873 34.7969 29.4011C35.1733 29.3165 35.5539 29.2566 35.936 29.2072C36.3592 29.1522 36.7838 29.1078 37.2077 29.0584C37.2354 29.0549 37.2623 29.0493 37.29 29.0472C37.7996 29.0168 38.3086 28.9872 38.8743 28.9795C39.0394 29.0486 39.1422 29.0591 39.2252 28.952C39.5271 28.9294 39.8284 28.904 40.1304 28.8857C40.2537 28.8779 40.3792 28.8786 40.5025 28.8857C40.8045 28.9033 41.1058 28.9273 41.4574 28.9689C41.5666 29.0359 41.6119 29.0154 41.6488 28.959C42.1351 28.947 42.6107 29.0345 43.1211 29.1184Z" fill="#9339D3"/>
<path d="M39.2082 28.9341C39.1444 29.0603 39.0409 29.0497 38.9141 28.9834C38.9786 28.8586 39.0814 28.8706 39.2082 28.9341Z" fill="#A553E0"/>
<path d="M41.6385 28.9437C41.6135 29.0184 41.5684 29.0389 41.4961 28.974C41.5226 28.9014 41.5677 28.883 41.6385 28.9437Z" fill="#A553E0"/>
<path d="M27.5097 30.8359C27.5118 31.3739 27.5082 31.8732 27.5097 32.4105C27.5139 33.031 27.4841 33.6142 27.521 34.1931C27.5472 34.6028 27.4147 34.8926 27.0879 35.1147C26.647 35.413 26.1713 35.638 25.6262 35.7846C25.5943 34.9399 25.5957 34.0958 25.5936 33.251C25.5929 33.0035 25.6141 32.7546 25.527 32.5113C25.4958 32.4246 25.5121 32.3195 25.5121 32.2229C25.5107 31.8351 25.5057 31.4473 25.5142 31.0602C25.5177 30.8966 25.5546 30.7337 25.5688 30.5694C25.5823 30.4185 25.5929 30.2662 25.5929 30.1146C25.595 28.2036 25.5943 26.2927 25.595 24.3817C25.595 24.1892 25.5886 23.9981 25.6538 23.807C25.6921 23.6935 25.6765 23.5609 25.6772 23.4368C25.6787 22.3015 25.6779 21.1663 25.6794 20.0303C25.6794 19.8512 25.6709 19.6735 25.7332 19.4965C25.7687 19.3956 25.7609 19.2779 25.7609 19.1679C25.763 18.5861 25.7644 18.0044 25.7602 17.4233C25.7595 17.3006 25.7559 17.1702 25.7155 17.0574C25.6666 16.922 25.7247 16.8148 25.758 16.6639C25.785 16.5934 25.8084 16.5553 25.8431 16.4975C26.199 16.3473 26.5265 16.1914 26.8263 15.9686C27.0177 15.8269 27.2169 15.6718 27.4997 15.6245C27.5338 15.8565 27.5359 16.092 27.5139 16.3642C27.482 16.4093 27.4728 16.4185 27.4643 16.427C27.4848 16.4347 27.5054 16.4418 27.5267 16.4495C27.5316 16.6434 27.5423 16.8374 27.5416 17.0313C27.5288 21.4666 27.5146 25.9027 27.5012 30.3381C27.5004 30.4918 27.5026 30.6448 27.5097 30.8359Z" fill="#511E6B"/>
<path d="M27.5983 15.2919C27.565 14.8737 27.5508 14.4506 27.5508 14.0283C27.5508 13.6461 27.5678 13.2632 27.5841 12.8429C27.8088 12.8288 27.9201 12.9875 28.0222 13.1518C28.3199 13.632 28.3419 14.1319 28.1016 14.6389C27.9846 14.8836 27.891 15.1502 27.5983 15.2919Z" fill="#F3E9FF"/>
<path d="M27.5293 16.4398C27.506 16.4433 27.4854 16.4356 27.4648 16.4285C27.4734 16.4193 27.4819 16.4109 27.5095 16.4045C27.5272 16.4067 27.5322 16.4285 27.5293 16.4398Z" fill="#B0A7BC"/>
<path d="M26.7679 7.53049C26.4985 7.69902 26.2376 7.84711 25.8889 7.82736C25.129 7.95006 24.3981 8.01705 23.6623 7.97474C23.444 7.96204 23.2186 7.92326 23.013 7.85063C22.6075 7.70749 22.5303 7.26607 22.8223 6.94452C23.0456 6.69842 23.3497 6.63919 23.6425 6.57714C24.4463 6.4079 25.2637 6.36418 26.0838 6.40367C26.2334 6.41072 26.3865 6.4488 26.5283 6.49957C26.9614 6.65541 27.0656 6.97625 26.8288 7.38806C26.8076 7.42472 26.7913 7.4628 26.7679 7.53049Z" fill="#B863F2"/>
<path d="M24.8435 35.9729C24.8314 36.0145 24.8165 36.0223 24.7527 36.0336C24.6379 36.0618 24.5734 36.0857 24.5089 36.1104C24.1395 36.1619 23.7709 36.2134 23.3456 36.2486C23.1627 36.2021 23.0358 36.1746 22.9196 36.2663C22.5836 36.2324 22.2561 36.1781 22.0144 35.8777C22.0144 34.8503 22.0144 33.8116 22.0059 32.7349C22.008 32.6573 22.0186 32.6178 22.0441 32.5522C22.5751 32.8724 23.1067 33.2066 23.515 33.6805C23.8475 34.0669 24.226 34.4152 24.5011 34.851C24.7116 35.1853 24.842 35.5414 24.8435 35.9729Z" fill="#7733AC"/>
<path d="M25.5185 35.8034C25.4887 35.8443 25.4342 35.8774 25.3555 35.9C25.3654 35.8231 25.4164 35.7872 25.5185 35.8034Z" fill="#7733AC"/>
<path d="M22.9395 36.2889C23.0366 36.1746 23.1642 36.2021 23.3116 36.2494C23.2216 36.3947 23.0912 36.365 22.9395 36.2889Z" fill="#BD6CF5"/>
<path d="M24.5215 36.1294C24.5746 36.0857 24.6392 36.061 24.7313 36.042C24.7242 36.0921 24.6909 36.1379 24.6342 36.1851C24.5853 36.1746 24.5591 36.1612 24.5215 36.1294Z" fill="#BD6CF5"/>
<path d="M20.6469 58.7828C20.6852 58.6164 20.7241 58.4838 20.7723 58.3541C20.9949 57.7526 21.3728 57.2675 21.9009 56.8606C21.9498 56.8289 21.9852 56.8211 22.0497 56.843C22.1164 56.9896 22.1426 57.1123 22.1943 57.223C22.5091 57.8859 22.8295 58.5466 23.1478 59.208C23.1719 59.2581 23.1967 59.3075 23.2194 59.3582C23.4469 59.8624 23.6702 60.368 23.9013 60.8708C24.1154 61.3362 24.3372 61.798 24.5527 62.2627C24.5754 62.3114 24.5797 62.3692 24.5655 62.4404C23.9389 62.6421 23.3448 62.6061 22.7558 62.4108C22.5871 62.3544 22.4212 62.2881 22.2539 62.2268C22.0639 62.0885 21.859 61.9659 21.6861 61.81C20.7915 61.0033 20.4257 60.0105 20.6469 58.7828Z" fill="#3C1D4C"/>
<path d="M27.6861 69.3292C27.119 69.4886 26.5732 69.3772 26.0344 69.1974C25.9174 69.1586 25.8069 69.1029 25.6644 69.0486C25.5928 69.007 25.5524 68.9689 25.5056 68.9386C24.4465 68.2539 23.939 67.2871 24.0035 66.0284C24.0071 65.9593 24.0141 65.8902 24.0297 65.7548C24.0588 65.6082 24.0751 65.5271 24.0985 65.4474C24.2793 64.8403 24.5763 64.3058 25.1193 63.9109C25.2398 63.9116 25.3114 63.9384 25.3539 64.0251C25.4709 64.2599 25.5963 64.4905 25.7069 64.7274C26.0153 65.3882 26.3187 66.0517 26.6242 66.7138C26.6532 66.7766 26.6873 66.8365 26.7156 66.8993C26.99 67.4987 27.2551 68.1023 27.5408 68.696C27.6407 68.9012 27.7045 69.1029 27.6861 69.3292Z" fill="#3C1D4C"/>
<path d="M25.0894 63.9096C24.5769 64.3059 24.2806 64.8404 24.0998 65.4475C24.0764 65.5265 24.0601 65.6076 24.0275 65.7161C23.9247 65.738 23.8602 65.6985 23.8184 65.6146C23.7206 65.4165 23.6178 65.2211 23.5185 65.0237C23.2584 64.5054 22.9954 63.9892 22.7416 63.4681C22.5786 63.1339 22.429 62.7933 22.278 62.4541C22.2567 62.4062 22.2603 62.347 22.2539 62.2595C22.4219 62.2877 22.5878 62.3547 22.7565 62.4104C23.3456 62.6057 23.9396 62.6417 24.5939 62.4422C24.686 62.4259 24.7229 62.4259 24.7597 62.4563C24.8852 62.9111 25.1071 63.2883 25.329 63.6804C25.2404 63.7714 25.1645 63.8405 25.0894 63.9096Z" fill="#C16FFA"/>
<path d="M32.4185 74.9577C32.2831 75.0014 32.1484 75.0452 31.9627 75.0952C31.8705 75.1213 31.828 75.1411 31.7862 75.1615C31.6969 75.1714 31.6075 75.1813 31.4565 75.1911C31.2432 75.189 31.0901 75.1538 30.9469 75.232C30.7987 75.2059 30.6499 75.1806 30.4719 75.1107C30.3798 74.8851 30.333 74.6961 30.2529 74.5212C30.0168 74.0051 29.7666 73.4952 29.5256 72.9819C29.432 72.7831 29.3505 72.5793 29.2576 72.3797C29.0308 71.8918 28.8004 71.4045 28.5707 70.9179C28.5176 70.8051 28.4651 70.6895 28.334 70.6422C28.3935 70.5266 28.4531 70.4109 28.5424 70.2537C28.636 70.1409 28.6998 70.0682 28.765 69.997C29.3505 69.3546 30.0728 69 30.9483 68.9605C31.0298 68.9569 31.1113 68.9358 31.2191 68.9379C31.2857 68.9633 31.3254 68.9739 31.3658 69.0176C31.4324 69.2446 31.487 69.4442 31.5671 69.6332C31.7068 69.9632 31.8656 70.2854 32.0102 70.614C32.2654 71.1944 32.5163 71.7768 32.7672 72.3586C32.926 72.7252 33.0742 73.0968 33.2429 73.4593C33.335 73.6574 33.3783 73.8817 33.5378 74.046C33.3677 74.3351 33.0962 74.5184 32.7857 74.7321C32.6297 74.8202 32.5241 74.8886 32.4185 74.9577Z" fill="#4B295C"/>
<path d="M25.1211 63.9105C25.165 63.84 25.2409 63.7716 25.3586 63.675C25.4252 63.6341 25.4507 63.6228 25.4741 63.6087C26.5062 62.9994 27.5596 62.9748 28.6328 63.4951C28.7065 63.5311 28.7838 63.5593 28.8731 63.6101C28.9632 63.7053 29.0404 63.7814 29.1148 63.8936C29.1276 64.0092 29.1276 64.0952 29.1588 64.1679C29.4771 64.9097 29.8003 65.6487 30.1207 66.3891C30.1533 66.4645 30.2143 66.4821 30.2887 66.5266C30.288 66.6761 30.2824 66.791 30.2653 66.9341C30.2327 67.0272 30.215 67.0935 30.1909 67.1577C29.8336 68.0983 29.2361 68.8148 28.2713 69.1864C28.2082 69.2111 28.1508 69.2506 28.0912 69.2837C27.9792 69.3006 27.868 69.3175 27.7219 69.3316C27.7063 69.1032 27.6425 68.9015 27.544 68.6963C27.2583 68.1026 26.9925 67.499 26.7189 66.8996C26.6905 66.8368 26.6565 66.7769 26.6274 66.7141C26.3219 66.052 26.0192 65.3885 25.7102 64.7277C25.5996 64.4901 25.4741 64.2602 25.3571 64.0254C25.3132 63.938 25.2409 63.9112 25.1211 63.9105Z" fill="#4B295C"/>
<path d="M28.3129 70.6621C28.4653 70.6889 28.5177 70.8045 28.5709 70.9181C28.8006 71.4053 29.031 71.8919 29.2578 72.3798C29.3507 72.5787 29.4322 72.7832 29.5257 72.982C29.7675 73.4954 30.0177 74.0052 30.253 74.5214C30.3324 74.6955 30.3799 74.8845 30.4423 75.0975C29.345 74.9113 28.6071 74.2541 28.1867 73.2465C27.8273 72.3841 27.8691 71.521 28.3129 70.6621Z" fill="#3C1D4C"/>
<path d="M28.0938 69.3177C28.1498 69.2507 28.2072 69.2105 28.2703 69.1865C29.2357 68.8149 29.8326 68.0985 30.1899 67.1578C30.214 67.0936 30.2317 67.0274 30.2941 66.9392C30.3884 66.9752 30.4599 67.0259 30.4911 67.0943C30.6598 67.4688 30.8378 67.8404 30.9732 68.2268C31.0533 68.4546 31.2291 68.6576 31.1915 68.9228C31.11 68.9355 31.0292 68.9566 30.9476 68.9602C30.0729 68.9996 29.3499 69.3543 28.7643 69.9967C28.6991 70.0679 28.6353 70.1406 28.5467 70.2259C28.3454 69.9601 28.149 69.6907 28.0938 69.3177Z" fill="#D27AFA"/>
<path d="M30.9551 75.2481C31.0898 75.1522 31.2436 75.1875 31.4251 75.2023C31.3641 75.3617 31.2152 75.2947 31.0579 75.3109C31.0012 75.3024 30.9799 75.2876 30.9551 75.2481Z" fill="#B065E4"/>
<path d="M46.243 65.851C46.377 65.9476 46.5138 66.0407 46.6443 66.1422C47.446 66.7649 47.8855 67.5772 47.9145 68.5933C47.9514 69.8604 47.0859 71.1022 45.8936 71.5627C45.7773 71.6078 45.6575 71.6423 45.5172 71.7016C45.3988 71.7291 45.2995 71.7263 45.206 71.746C44.7587 71.8419 44.3234 71.7721 43.8393 71.648C43.7436 71.6205 43.6975 71.6134 43.6507 71.6064C43.4182 71.4816 43.1765 71.3709 42.9546 71.2291C42.5491 70.9696 42.2436 70.6107 41.9792 70.1545C41.9232 70.0537 41.8835 70.0001 41.8445 69.9472C41.8296 69.895 41.8147 69.8428 41.7906 69.7427C41.7495 69.6383 41.7183 69.5812 41.6864 69.5248C41.6616 69.369 41.6375 69.2131 41.612 68.9903C41.6056 68.6927 41.6007 68.4629 41.5957 68.2323C41.6099 68.1709 41.6248 68.1103 41.656 68.0003C41.6744 67.9065 41.6772 67.8607 41.6793 67.8148C41.7056 67.7401 41.7311 67.666 41.7814 67.5462C41.8254 67.4397 41.8452 67.3783 41.8651 67.317C42.0026 67.0815 42.1401 66.846 42.3265 66.5893C42.4726 66.4616 42.5704 66.3552 42.6675 66.248C43.0184 66.0019 43.3771 65.7699 43.8513 65.6225C44.0186 65.5852 44.1285 65.5718 44.2362 65.5485C44.692 65.4512 45.1407 65.4984 45.5824 65.6211C45.8064 65.6832 46.0226 65.7734 46.243 65.851Z" fill="#211237"/>
<path d="M40.2069 60.1776C40.5393 60.1635 40.8491 60.1635 41.2142 60.1776C41.3162 60.1917 41.3623 60.1903 41.4077 60.1896C41.7579 60.2932 42.1038 60.4074 42.466 60.6218C42.5872 60.71 42.6659 60.7657 42.7404 60.827C43.4095 61.3721 43.8363 62.0526 43.9249 62.9227C43.9334 63.0038 43.9582 63.0828 43.9617 63.1928C43.9568 63.2859 43.966 63.3486 43.9596 63.4459C43.9135 63.9078 43.8207 64.3182 43.5967 64.6919C43.5768 64.7251 43.5754 64.7702 43.5655 64.8097C43.4322 64.9824 43.3067 65.1622 43.1643 65.3272C42.6907 65.8737 42.096 66.2193 41.329 66.368C41.2057 66.3892 41.1376 66.4068 41.0703 66.4252C40.8966 66.423 40.7229 66.4209 40.4918 66.404C40.3628 66.3906 40.2926 66.392 40.2218 66.3927C40.0346 66.337 39.8482 66.282 39.615 66.2009C39.5079 66.1551 39.447 66.1339 39.3867 66.1135C38.7785 65.7842 38.2929 65.3308 37.9541 64.6665C37.903 64.5636 37.8662 64.51 37.8293 64.4564C37.7818 64.2688 37.7336 64.082 37.6833 63.8401C37.6613 63.7181 37.6422 63.6504 37.623 63.5827C37.6245 63.41 37.6259 63.2372 37.6422 63.0073C37.6564 62.8797 37.6557 62.8092 37.6549 62.7387C37.6734 62.678 37.6911 62.6174 37.7294 62.5053C37.7833 62.3269 37.818 62.2006 37.852 62.0744C38.0115 61.767 38.1753 61.4616 38.4106 61.2014C38.7806 60.7918 39.2265 60.4949 39.8 60.3045C39.8921 60.2749 39.9332 60.2537 39.9744 60.2326C40.0445 60.2192 40.114 60.2051 40.2069 60.1776Z" fill="#211237"/>
<path d="M37.2105 74.8478C37.1779 74.8442 37.1779 74.8203 37.1914 74.7864C36.8993 73.9882 36.5973 73.2231 36.2869 72.4615C36.0324 71.8382 35.768 71.2198 35.5078 70.5993C35.6312 70.1529 35.9268 69.8201 36.2656 69.5317C37.7081 68.3026 39.8163 68.5706 40.9349 70.0979C41.6785 71.1133 41.7863 72.733 40.7336 73.9402C40.1466 74.6137 39.3988 74.9662 38.5155 75.0424C38.0775 75.0791 37.6578 74.974 37.2105 74.8478Z" fill="#211237"/>
<path d="M32.7051 63.662C33.0099 63.423 33.3728 63.3123 33.7436 63.2615C34.9692 63.0922 35.9928 63.4632 36.786 64.4299C37.6516 65.4841 37.782 67.1687 36.6464 68.4344C36.2274 68.9012 35.7156 69.2221 35.0663 69.3716C35.0075 69.342 34.9848 69.3314 34.9579 69.2954C34.6417 68.5134 34.3263 67.7624 34.0136 67.01C33.616 66.0539 33.2176 65.0984 32.827 64.1394C32.7646 63.9892 32.7441 63.8214 32.7051 63.662Z" fill="#211237"/>
<path d="M27.6641 60.1678C27.7307 59.9154 27.7754 59.6545 27.8682 59.4126C28.2531 58.4064 28.9655 57.7485 30.0579 57.4939C30.3471 58.1405 30.591 58.7568 30.8419 59.371C31.2126 60.2792 31.5876 61.1853 31.964 62.0914C32.0753 62.3594 32.1966 62.6238 32.3135 62.889C32.3603 62.9947 32.4227 63.0843 32.5538 63.0906C32.5248 63.1231 32.4964 63.1548 32.4248 63.2112C32.3178 63.2606 32.2533 63.2853 32.1895 63.3121C31.0532 63.8014 29.9743 63.7154 28.9549 63.0004C28.8996 62.9616 28.8344 62.9355 28.7614 62.8798C28.1915 62.3199 27.8299 61.6789 27.7172 60.9117C27.6818 60.6656 27.6811 60.4153 27.6641 60.1678Z" fill="#3C1D4C"/>
<path d="M32.5795 63.0819C32.4215 63.0833 32.3591 62.9937 32.313 62.888C32.1953 62.6221 32.0748 62.3584 31.9635 62.0904C31.5871 61.1843 31.2128 60.2782 30.8414 59.37C30.5904 58.7565 30.3466 58.1395 30.0893 57.4908C30.0786 57.4569 30.0758 57.4358 30.0723 57.4259C30.3168 57.3921 30.5656 57.3512 30.8144 57.3476C32.4739 57.3279 33.9639 58.6543 34.0093 60.4284C34.0285 61.178 33.7754 61.8436 33.3068 62.4261C33.1062 62.6757 32.8815 62.9028 32.5795 63.0819Z" fill="#211237"/>
<path d="M32.6807 63.6643C32.7431 63.8208 32.7636 63.988 32.8246 64.1389C33.2152 65.0979 33.6136 66.0533 34.0112 67.0095C34.3238 67.7612 34.6393 68.5122 34.9399 69.3019C34.9051 69.3661 34.8839 69.3929 34.8626 69.419C34.8626 69.419 34.8562 69.4423 34.8612 69.4528C34.3359 69.51 33.8092 69.5114 33.2435 69.3231C33.0904 69.2533 32.9883 69.2096 32.8884 69.1609C31.0163 68.24 30.5116 65.7198 32.0378 64.1671C32.193 64.0091 32.3667 63.8688 32.5318 63.72C32.5751 63.7024 32.6162 63.6855 32.6807 63.6643Z" fill="#3C1D4C"/>
<path d="M43.5819 64.8377C43.5784 64.7693 43.5798 64.7249 43.5997 64.6917C43.8237 64.318 43.9165 63.9076 43.9824 63.4373C44.0994 63.261 44.0994 63.261 43.9782 63.163C43.9612 63.0833 43.9364 63.0036 43.9279 62.9232C43.8393 62.0531 43.4118 61.3726 42.7433 60.8275C42.6689 60.7669 42.5895 60.7105 42.4988 60.6301C42.5172 60.2585 42.4272 59.927 42.3372 59.5956C42.2833 59.3968 42.2245 59.1993 42.1727 58.9998C42.1529 58.9222 42.194 58.8686 42.3223 58.8552C42.6009 59.2825 42.8872 59.6457 43.2629 59.9404C43.56 60.1738 43.8981 60.3247 44.2469 60.4905C44.3 60.5807 44.3511 60.592 44.4411 60.5194C44.5361 60.5384 44.5977 60.5581 44.6686 60.5941C44.7324 60.6703 44.7828 60.6667 44.8629 60.5948C45.0153 60.6019 45.1322 60.6124 45.2499 60.6237C45.2492 60.8162 45.2754 61.0017 45.3194 61.1928C45.5079 62.0065 45.6681 62.8259 45.8475 63.641C45.9382 64.0557 46.0452 64.4668 46.1487 64.8786C46.2225 65.1733 46.2834 65.4681 46.248 65.8136C46.0254 65.7755 45.8092 65.6853 45.5845 65.6232C45.1429 65.5005 44.6934 65.4533 44.2383 65.5506C44.1306 65.5739 44.0214 65.5865 43.8768 65.6077C43.8293 65.3383 43.7776 65.081 43.5819 64.8377Z" fill="#A553E0"/>
<path d="M32.5331 63.6896C32.3672 63.8694 32.1935 64.0097 32.0383 64.1677C30.5121 65.7204 31.0168 68.2406 32.8889 69.1615C32.9889 69.2109 33.091 69.2546 33.2094 69.3202C33.203 69.4196 33.1789 69.4993 33.1129 69.6001C32.9088 69.5183 32.7521 69.4041 32.5827 69.3159C32.2021 69.1178 31.8044 68.9725 31.3649 68.9852C31.3252 68.9747 31.2855 68.9641 31.2189 68.938C31.2295 68.658 31.0537 68.455 30.9736 68.2272C30.8382 67.8408 30.6603 67.4685 30.4916 67.0947C30.4604 67.0263 30.3888 66.9756 30.3058 66.9121C30.2817 66.7922 30.2874 66.6773 30.2966 66.4897C30.3016 66.3346 30.3058 66.2514 30.3058 66.1682C30.3002 65.2994 29.9408 64.5879 29.3226 63.9949C29.2645 63.9392 29.1865 63.9032 29.1171 63.8588C29.0398 63.7827 28.9632 63.7065 28.8718 63.5761C28.83 63.3159 28.803 63.11 28.7754 62.9041C28.8356 62.9358 28.9009 62.9619 28.9562 63.0007C29.9755 63.7157 31.0551 63.8017 32.1907 63.3123C32.2545 63.2848 32.319 63.2609 32.4147 63.2305C32.4757 63.3687 32.5047 63.5133 32.5331 63.6896Z" fill="#BD6CF5"/>
<path d="M35.4905 70.6089C35.7684 71.2195 36.0328 71.8379 36.2873 72.4613C36.5977 73.2229 36.8997 73.9886 37.1932 74.7749C36.5325 74.5901 36.0739 74.1466 35.6961 73.6072C35.5054 73.3343 35.382 73.0268 35.2771 72.6587C35.2495 72.5671 35.2303 72.5262 35.2112 72.4853C35.202 72.3414 35.1935 72.1983 35.1836 71.9938C35.1758 71.8944 35.168 71.8563 35.1602 71.8182C35.1786 71.6758 35.197 71.5333 35.2282 71.3387C35.2452 71.2414 35.2488 71.197 35.2523 71.1518C35.2998 71.0094 35.348 70.867 35.399 70.6928C35.4324 70.6547 35.4558 70.6413 35.4905 70.6089Z" fill="#3C1D4C"/>
<path d="M41.5729 68.2466C41.6037 68.4617 41.6087 68.6915 41.6016 68.9581C41.5679 68.9771 41.5328 68.9623 41.5278 68.9412C41.472 68.7134 41.4427 68.4849 41.5729 68.2466Z" fill="#9445C9"/>
<path d="M42.6383 66.248C42.5702 66.3552 42.4731 66.4617 42.3484 66.571C42.3377 66.3954 42.4469 66.2988 42.6383 66.248Z" fill="#9445C9"/>
<path d="M37.829 62.0825C37.8191 62.201 37.7851 62.3272 37.7312 62.4739C37.695 62.4612 37.6568 62.421 37.6653 62.3977C37.7042 62.2919 37.7567 62.1918 37.829 62.0825Z" fill="#9445C9"/>
<path d="M41.0859 66.4413C41.1391 66.4061 41.2072 66.3884 41.3 66.3821C41.2731 66.4921 41.1958 66.5062 41.0859 66.4413Z" fill="#9445C9"/>
<path d="M40.2324 66.4112C40.292 66.3908 40.3629 66.3894 40.4543 66.4056C40.4011 66.51 40.3232 66.5064 40.2324 66.4112Z" fill="#9445C9"/>
<path d="M37.607 63.5964C37.6442 63.6493 37.6643 63.717 37.6721 63.8094C37.5547 63.7861 37.5383 63.7093 37.607 63.5964Z" fill="#9445C9"/>
<path d="M37.6372 62.7493C37.658 62.8092 37.6587 62.8797 37.6408 62.9707C37.5349 62.9157 37.5391 62.8381 37.6372 62.7493Z" fill="#9445C9"/>
<path d="M43.6582 71.6272C43.6997 71.6138 43.747 71.6209 43.81 71.647C43.762 71.7422 43.7097 71.7224 43.6582 71.6272Z" fill="#9445C9"/>
<path d="M41.8395 69.9746C41.8861 70 41.9254 70.0536 41.9634 70.1319C41.8775 70.1403 41.8281 70.0931 41.8395 69.9746Z" fill="#9445C9"/>
<path d="M41.6784 69.551C41.72 69.5813 41.7522 69.6385 41.7787 69.7195C41.6935 69.716 41.6555 69.6624 41.6784 69.551Z" fill="#9445C9"/>
<path d="M34.8868 69.4322C34.8854 69.3935 34.9068 69.3674 34.9441 69.3335C34.9849 69.3314 35.007 69.342 35.0364 69.3744C35.0006 69.4083 34.9555 69.4266 34.8868 69.4322Z" fill="#59277B"/>
<path d="M39.9641 60.2175C39.9348 60.2542 39.8933 60.2753 39.8281 60.2894C39.8288 60.2112 39.8632 60.1583 39.9641 60.2175Z" fill="#9445C9"/>
<path d="M41.6621 67.822C41.6786 67.8608 41.6765 67.9066 41.6564 67.9687C41.5605 67.9313 41.5734 67.8791 41.6621 67.822Z" fill="#9445C9"/>
<path d="M41.8402 67.3276C41.8466 67.3798 41.8266 67.4412 41.7858 67.518C41.74 67.4574 41.7385 67.3883 41.8402 67.3276Z" fill="#9445C9"/>
<path d="M39.3965 66.1391C39.4482 66.1342 39.5092 66.1554 39.5843 66.1963C39.5234 66.2393 39.4546 66.2379 39.3965 66.1391Z" fill="#9445C9"/>
<path d="M37.8223 64.4827C37.866 64.5095 37.9032 64.5623 37.9383 64.6413C37.8538 64.6448 37.8102 64.5955 37.8223 64.4827Z" fill="#9445C9"/>
<path d="M44.2383 60.4694C43.896 60.3227 43.5578 60.1718 43.2608 59.9384C42.8851 59.643 42.5987 59.2798 42.3499 58.8483C42.2875 58.7136 42.2478 58.5958 42.2004 58.4273C42.1614 58.3201 42.1316 58.2623 42.1011 58.2052C42.0961 58.1537 42.0905 58.1015 42.0898 58.0113C42.0798 57.9266 42.065 57.8815 42.0508 57.8364C42.0529 57.6093 42.0557 57.383 42.0699 57.1066C42.0777 57.0114 42.0742 56.9655 42.0706 56.919C42.082 56.8689 42.0933 56.8189 42.1217 56.7265C42.1514 56.6221 42.1635 56.5601 42.1763 56.4973C42.3067 56.2399 42.4187 55.972 42.5718 55.7287C42.8716 55.252 43.2963 54.9037 43.8123 54.6216C43.8669 54.592 43.9045 54.5835 43.9909 54.5638C44.0959 54.5166 44.1519 54.4806 44.2079 54.4446C44.4092 54.4108 44.6098 54.3537 44.8118 54.348C45.1521 54.3389 45.4923 54.3621 45.8716 54.3769C45.9864 54.4087 46.0623 54.4355 46.1417 54.5102C46.0835 54.6583 46.0807 54.7634 46.1062 54.8762C46.2196 55.3698 46.3302 55.8641 46.438 56.3591C46.6733 57.4422 46.9058 58.5253 47.1461 59.6359C47.1894 59.6613 47.261 59.7029 47.3318 59.7445C47.2758 59.8066 47.2198 59.8693 47.1482 59.9518C46.8647 60.1105 46.6003 60.2564 46.3274 60.3848C46.192 60.4482 46.041 60.4793 45.8418 60.53C45.7206 60.5554 45.654 60.5752 45.5873 60.5949C45.4959 60.5963 45.4044 60.5984 45.2804 60.6104C45.1301 60.6097 45.0131 60.5991 44.8437 60.5759C44.7466 60.5674 44.7027 60.5709 44.658 60.5752C44.5963 60.5554 44.5339 60.5357 44.4234 60.4983C44.3291 60.4779 44.2837 60.4736 44.2383 60.4694Z" fill="#211237"/>
<path d="M47.358 59.734C47.2616 59.7044 47.19 59.6628 47.1467 59.6374C46.9071 58.5268 46.6739 57.4437 46.4386 56.3606C46.3308 55.8656 46.2196 55.3713 46.1068 54.8777C46.0806 54.7648 46.0834 54.6598 46.1579 54.53C46.8072 54.6506 47.2892 55.0321 47.6912 55.5236C48.1356 56.0658 48.3667 56.6941 48.3823 57.3929C48.3972 58.0614 48.2051 58.6742 47.8124 59.2178C47.6841 59.3962 47.5274 59.5542 47.358 59.734Z" fill="#150B24"/>
<path d="M24.7585 62.4266C24.7217 62.4266 24.6848 62.4266 24.6203 62.4245C24.5799 62.3687 24.5756 62.3116 24.553 62.2623C24.3375 61.7976 24.1156 61.3357 23.9015 60.8703C23.6704 60.3675 23.4471 59.862 23.2196 59.3578C23.1969 59.307 23.1721 59.2576 23.148 59.2076C22.8297 58.5462 22.5086 57.8861 22.1946 57.2226C22.1421 57.1119 22.1166 56.9892 22.0762 56.8376C22.376 56.5344 22.751 56.4166 23.1338 56.3531C23.9263 56.2213 24.6912 56.3186 25.3852 56.753C25.5844 56.8778 25.7637 57.0343 25.9771 57.1923C26.0373 57.2494 26.0713 57.2917 26.1075 57.3326C26.5732 57.865 26.849 58.4792 26.9184 59.252C26.9206 59.3888 26.922 59.4579 26.9177 59.527C26.8561 60.4747 26.4506 61.2454 25.7254 61.861C25.4348 62.1085 25.0881 62.251 24.7585 62.4266Z" fill="#4B295C"/>
<path d="M24.7598 62.4573C25.0894 62.2514 25.4353 62.109 25.7267 61.8622C26.4518 61.2473 26.8573 60.4759 26.919 59.5281C26.9232 59.459 26.9218 59.3899 26.9289 59.2856C26.9906 59.282 27.0678 59.3011 27.0969 59.349C27.1664 59.4626 27.2124 59.5902 27.2684 59.7115C27.3244 59.8335 27.3712 59.9604 27.4421 60.0732C27.4712 60.1198 27.5506 60.136 27.6363 60.167C27.6824 60.4159 27.6831 60.6662 27.7193 60.9109C27.832 61.6781 28.1935 62.3191 28.7634 62.879C28.8031 63.1089 28.8308 63.3148 28.8591 63.5559C28.7847 63.5595 28.7067 63.5312 28.633 63.4953C27.5598 62.9749 26.5064 62.9989 25.4743 63.6088C25.4509 63.6229 25.4254 63.6342 25.3722 63.6532C25.1064 63.2894 24.8852 62.9121 24.7598 62.4573Z" fill="#D27AFA"/>
<path d="M42.052 56.9302C42.0749 56.9654 42.0785 57.012 42.067 57.0691C41.9962 57.0402 41.9861 56.9936 42.052 56.9302Z" fill="#9445C9"/>
<path d="M42.155 56.5115C42.165 56.5615 42.1529 56.6236 42.1199 56.7026C42.077 56.6483 42.067 56.5806 42.155 56.5115Z" fill="#9445C9"/>
<path d="M42.0336 57.8363C42.0665 57.8829 42.0816 57.9287 42.083 57.9879C42.0422 57.9632 42.0143 57.9245 41.9828 57.861C41.9785 57.8363 42.015 57.8349 42.0336 57.8363Z" fill="#9445C9"/>
<path d="M42.0931 58.2317C42.1325 58.2634 42.1633 58.3212 42.1847 58.4023C42.1024 58.3918 42.0702 58.3368 42.0931 58.2317Z" fill="#9445C9"/>
<path d="M41.4028 60.1714C41.3641 60.1904 41.3176 60.1911 41.2539 60.1756C41.2861 60.0811 41.3398 60.0825 41.4028 60.1714Z" fill="#9445C9"/>
<path d="M44.1808 54.4403C44.1524 54.4819 44.0964 54.5178 44.0156 54.5496C44.0149 54.465 44.0674 54.4248 44.1808 54.4403Z" fill="#9445C9"/>
<path d="M45.6035 60.6146C45.6553 60.5772 45.7212 60.5575 45.8133 60.5476C45.7942 60.6675 45.7184 60.6837 45.6035 60.6146Z" fill="#9445C9"/>
<path d="M31.3652 69.0175C31.804 68.9724 32.2024 69.1177 32.5824 69.3158C32.7525 69.404 32.9084 69.5182 33.0984 69.6275C33.2558 69.7742 33.3891 69.911 33.5145 70.0541C33.8838 70.4744 34.1263 70.9574 34.2397 71.5582C34.261 71.6513 34.2758 71.6936 34.2907 71.7352C34.2879 71.9326 34.2851 72.1301 34.273 72.3818C34.2659 72.4805 34.268 72.5242 34.2702 72.568C34.1525 73.0848 33.9235 73.5509 33.6187 74.0128C33.6131 74.0403 33.5748 74.0438 33.5556 74.0445C33.3763 73.8809 33.3338 73.6567 33.2416 73.4586C33.0729 73.0961 32.9247 72.7252 32.766 72.3578C32.5143 71.7761 32.2641 71.1936 32.0089 70.6133C31.8643 70.2847 31.7055 69.9631 31.5658 69.6324C31.4865 69.4442 31.4319 69.2446 31.3652 69.0175Z" fill="#3C1D4C"/>
<path d="M35.2326 71.1553C35.2498 71.1948 35.2462 71.2392 35.2262 71.3005C35.1302 71.2639 35.1231 71.2117 35.2326 71.1553Z" fill="#BD6CF5"/>
<path d="M34.3095 71.7242C34.2766 71.6932 34.2616 71.6509 34.2559 71.5874C34.3418 71.5923 34.3947 71.6283 34.3095 71.7242Z" fill="#BD6CF5"/>
<path d="M35.1433 71.8223C35.1698 71.8547 35.1777 71.8928 35.1734 71.9584C35.0467 71.9217 35.0467 71.9217 35.1433 71.8223Z" fill="#BD6CF5"/>
<path d="M34.2884 72.5611C34.2669 72.5245 34.2648 72.48 34.2769 72.4187C34.3679 72.4448 34.3879 72.4949 34.2884 72.5611Z" fill="#BD6CF5"/>
<path d="M35.1932 72.4961C35.2312 72.525 35.2498 72.5659 35.2634 72.6294C35.1804 72.6315 35.1152 72.6047 35.1932 72.4961Z" fill="#BD6CF5"/>
<path d="M32.4492 74.964C32.5244 74.8899 32.63 74.8208 32.764 74.7517C32.7512 74.9146 32.6186 74.947 32.4492 74.964Z" fill="#AF63E4"/>
<path d="M31.7988 75.1766C31.8296 75.1406 31.8718 75.1202 31.9377 75.1089C31.9334 75.1865 31.8976 75.2386 31.7988 75.1766Z" fill="#B065E4"/>
<path d="M29.1133 63.8931C29.1842 63.9022 29.2621 63.9375 29.3203 63.9939C29.9391 64.5876 30.2978 65.2984 30.3035 66.1672C30.3042 66.2504 30.2999 66.3336 30.2893 66.4542C30.2113 66.4817 30.1504 66.464 30.1177 66.3886C29.7973 65.6482 29.4741 64.9085 29.1558 64.1674C29.1268 64.0947 29.126 64.0087 29.1133 63.8931Z" fill="#3C1D4C"/>
<path d="M43.9642 63.1921C44.0995 63.2605 44.0995 63.2605 43.9965 63.403C43.9678 63.348 43.9592 63.2852 43.9642 63.1921Z" fill="#A24CDD"/>
<path d="M44.2461 60.4884C44.2855 60.4743 44.3313 60.4778 44.3928 60.5003C44.3513 60.5892 44.2998 60.5779 44.2461 60.4884Z" fill="#9445C9"/>
<path d="M44.668 60.5925C44.7038 60.5727 44.7489 60.5685 44.8111 60.5812C44.7832 60.6651 44.7324 60.6686 44.668 60.5925Z" fill="#9445C9"/>
</svg>
