<svg width="79" height="69" viewBox="0 0 79 69" fill="none" xmlns="http://www.w3.org/2000/svg">
<path d="M1.26646 43.6107C1.24177 43.4044 1.2346 43.1934 1.1884 42.9919C1.02194 42.2695 0.837169 41.5511 0.669913 40.8287C0.532923 40.2377 0.38717 39.6491 0.33779 39.0391C0.302746 38.6058 0.203189 38.1781 0.138676 37.7472C0.121951 37.6341 0.121952 37.5186 0.119562 37.4039C0.114783 37.1371 0.12434 36.8735 0.0319515 36.6115C-0.0166322 36.4737 0.00566958 36.3088 0.00566958 36.1567C0.00407667 35.1428 0.0160237 34.1297 0.000891044 33.1158C-0.0102593 32.3504 0.0845175 31.6002 0.213543 30.8491C0.284428 30.4381 0.301153 30.0184 0.352126 29.6042C0.382391 29.3597 0.417436 29.1136 0.474781 28.8747C0.664337 28.0798 0.84354 27.281 1.06814 26.4957C1.19318 26.0584 1.40663 25.6467 1.56991 25.2198C1.79371 24.6336 2.01114 24.0458 2.22459 23.4556C2.60052 22.4162 3.04494 21.4071 3.53397 20.4171C3.86211 19.7537 4.2006 19.0942 4.5606 18.4483C4.96838 17.7172 5.35626 16.9725 5.88749 16.3154C6.00696 16.168 6.09616 15.996 6.20528 15.8399C6.68475 15.1526 7.15704 14.4612 7.65005 13.7843C7.87385 13.4776 8.16456 13.2267 8.39951 12.9225C8.77066 12.4414 9.20314 12.0066 9.62446 11.5653C10.0338 11.1368 10.4472 10.7099 10.8845 10.3101C11.305 9.92543 11.7845 9.60366 12.189 9.20464C12.7498 8.6511 13.4044 8.2242 14.0233 7.7519C14.8556 7.11633 15.7325 6.54209 16.615 5.97581C17.5157 5.39758 18.4627 4.90457 19.3946 4.38528C20.1934 3.94007 21.0377 3.57449 21.87 3.18901C22.4585 2.91662 23.0543 2.66096 23.6548 2.41724C24.2729 2.16636 24.8917 1.91309 25.5257 1.7084C26.5213 1.38663 27.5264 1.09353 28.5586 0.907162C28.9138 0.842649 29.2627 0.746278 29.6171 0.676987C30.0074 0.59973 30.4008 0.535218 30.7927 0.46752C31.2036 0.395839 31.6146 0.320971 32.0264 0.258051C32.1769 0.234954 32.3314 0.238937 32.4835 0.234955C32.7495 0.22699 33.0108 0.228582 33.2776 0.156901C33.511 0.0939813 33.7706 0.127432 34.0183 0.119468C34.36 0.108317 34.7041 0.152919 35.0402 0.0278759C35.1596 -0.0167256 35.3054 0.00557524 35.4384 0.00557524C36.9118 0.00477878 38.3845 0.00159286 39.8579 0.00796451C40.065 0.00876096 40.2713 0.0637162 40.4784 0.0812383C40.7061 0.10115 40.9347 0.110708 41.1633 0.117876C41.5432 0.130619 41.9287 0.0740703 42.2983 0.218229C42.3492 0.23814 42.4121 0.232565 42.4687 0.231768C43.1568 0.222211 43.8282 0.362388 44.506 0.447608C45.9404 0.627607 47.3565 0.895216 48.7599 1.2361C49.7953 1.48698 50.845 1.68211 51.8669 1.9784C53.0743 2.32804 54.2658 2.73662 55.4493 3.16193C56.417 3.50998 57.3704 3.90184 58.3142 4.31121C58.976 4.59873 59.61 4.94838 60.2567 5.27015C60.5307 5.40634 60.8063 5.54014 61.0771 5.68191C62.1427 6.24023 63.1606 6.87102 64.1402 7.5719C64.5727 7.88093 65.0219 8.16924 65.4417 8.49659C65.8009 8.77774 66.1449 9.0788 66.4946 9.37189C66.524 9.39658 66.5471 9.42764 66.5766 9.45233C66.9509 9.76773 67.385 9.99472 67.6853 10.42C67.968 10.8206 68.3694 11.1384 68.7262 11.4849C69.2328 11.9779 69.6613 12.5362 70.1137 13.077C70.8743 13.9858 71.5361 14.9622 72.1717 15.957C72.4481 16.3903 72.7061 16.8371 72.9427 17.2934C73.3998 18.1759 73.8451 19.0648 74.2783 19.9592C74.4942 20.4044 74.6742 20.8671 74.8693 21.3227C74.8844 21.3577 74.8908 21.3968 74.9075 21.4302C75.4396 22.4712 75.7191 23.6053 76.115 24.6965C76.2966 25.1983 76.4909 25.696 76.6486 26.2058C76.7888 26.659 76.8835 27.1257 77.0022 27.5852C77.1448 28.138 77.3057 28.6859 77.4315 29.2427C77.5948 29.9642 77.7764 30.6826 77.852 31.4218C77.8735 31.6288 77.9054 31.8383 77.9651 32.0366C78.1149 32.5336 78.0201 33.0609 78.1714 33.5594C78.2192 33.7179 78.1865 33.9011 78.1905 34.0732C78.2001 34.434 78.1666 34.794 78.2813 35.1524C78.3371 35.3268 78.2957 35.5315 78.306 35.7226C78.3275 36.1025 78.2518 36.4864 78.3634 36.8631C78.3833 36.9308 78.361 37.0113 78.3546 37.0854C78.3395 37.2558 78.314 37.4254 78.3076 37.5959C78.2941 37.9758 78.3108 38.3517 78.216 38.7324C78.1539 38.9809 78.1802 39.27 78.2375 39.5249C78.2837 39.7272 78.2686 39.8952 78.2009 40.0768C78.1141 40.311 78.075 40.5507 78.0695 40.804C78.0647 41.0294 77.9962 41.2524 77.9627 41.477C77.8703 42.0967 77.7397 42.7075 77.5908 43.3168C77.3184 44.4287 76.9186 45.4943 76.4893 46.552C75.97 47.8303 75.2962 49.0258 74.5077 50.1528C73.9852 50.8999 73.4038 51.6047 72.8009 52.2937C72.2211 52.9563 71.6022 53.576 70.981 54.1964C70.4179 54.7587 69.8198 55.2844 69.1715 55.7495C68.9246 55.9271 68.6832 56.1119 68.4419 56.2967C67.8979 56.7132 67.3683 57.1497 66.81 57.5455C66.2986 57.9079 65.7411 58.2074 65.2314 58.5721C64.3927 59.1719 63.4864 59.6609 62.6206 60.2144C61.915 60.6652 61.1543 61.03 60.424 61.4426C59.7605 61.8177 59.1051 62.2072 58.4456 62.5895C58.3962 62.6181 58.3468 62.6476 58.2959 62.6739C56.5094 63.5874 54.7341 64.5248 52.9309 65.4025C52.0246 65.8438 51.0704 66.1878 50.1298 66.5558C48.7806 67.0846 47.3796 67.4454 45.9747 67.7815C45.3861 67.9225 44.7625 67.9169 44.1779 68.0675C43.5957 68.2172 42.9936 68.0715 42.4225 68.2666C42.3014 68.308 42.1565 68.2817 42.0227 68.2817C41.3529 68.2825 40.683 68.2849 40.014 68.2809C39.6341 68.2785 39.2486 68.3239 38.8799 68.1814C38.8456 68.1678 38.8042 68.1734 38.766 68.1702C38.2546 68.1296 37.7409 68.1073 37.232 68.0444C36.7047 67.9791 36.1823 67.8779 35.659 67.7863C35.3603 67.7338 35.0664 67.6501 34.7662 67.6111C33.7634 67.4805 32.7894 67.2169 31.8169 66.9588C30.4741 66.602 29.1225 66.2754 27.8052 65.8247C26.7045 65.4487 25.5862 65.1254 24.4895 64.7399C23.3936 64.3544 22.3064 63.9394 21.2296 63.5022C20.0094 63.0076 18.7909 62.5034 17.6312 61.8766C16.8268 61.4418 15.9993 61.0475 15.2387 60.5298C14.8142 60.2407 14.3267 60.0424 13.9118 59.7429C13.0022 59.0858 12.06 58.4742 11.203 57.743C10.6822 57.2986 10.1533 56.8637 9.63561 56.4145C9.188 56.0259 8.74995 55.63 8.34217 55.2039C7.86987 54.7109 7.42943 54.1884 6.97943 53.6755C6.1097 52.6839 5.38493 51.592 4.65776 50.5016C4.36228 50.0588 4.11936 49.5809 3.85414 49.1182C3.69246 48.8371 3.52441 48.5599 3.37547 48.2724C3.25362 48.0366 3.14609 47.7985 3.08158 47.5325C3.01627 47.2625 2.86415 47.0076 2.7184 46.7655C2.49937 46.4031 2.36397 46.0073 2.22539 45.6138C2.08044 45.1996 1.953 44.7831 1.69734 44.4143C1.593 44.263 1.56831 44.0583 1.49504 43.8831C1.46 43.7987 1.39469 43.7262 1.30708 43.6298C1.26566 43.6099 1.26566 43.6107 1.26646 43.6107ZM11.747 21.2399C11.3934 21.9439 11.0382 22.6472 10.6869 23.3529C10.663 23.4015 10.6646 23.462 10.6009 23.5679C10.5348 23.7264 10.4679 23.8857 10.3413 24.0896C10.2433 24.2369 10.1326 24.3795 10.1262 24.6368C10.1039 24.7076 10.0824 24.7785 10.0028 24.89C9.9765 24.9752 9.95021 25.0605 9.88809 25.2094C9.86579 25.2787 9.84349 25.348 9.76703 25.4627C9.74234 25.5487 9.71844 25.6339 9.65632 25.7916C9.60057 25.9445 9.54482 26.0975 9.42296 26.291C9.40066 26.3213 9.3696 26.3491 9.35765 26.3826C9.008 27.3805 8.65597 28.3769 8.31748 29.3789C8.25297 29.5692 8.24819 29.7803 8.19084 30.0654C8.17651 30.1809 8.16217 30.2964 8.08332 30.4636C8.01562 30.7089 7.94713 30.955 7.82686 31.2203C7.73368 31.284 7.69306 31.3533 7.79739 31.5213C7.77907 31.6034 7.75996 31.6854 7.69465 31.7921C7.61182 31.8598 7.58076 31.9315 7.67394 32.0852C7.66279 32.133 7.65084 32.1816 7.58315 32.258C7.46925 32.36 7.45014 32.4683 7.55607 32.6587C7.54332 32.7064 7.53138 32.7542 7.45651 32.8418C7.35138 32.9518 7.35854 33.0704 7.40554 33.2735C7.39598 33.3556 7.38642 33.4376 7.30916 33.573C7.23509 33.714 7.24545 33.8549 7.28288 34.0859C7.18651 34.4021 7.34341 34.7016 7.30518 35.0448C7.24784 35.1532 7.30518 35.2081 7.42624 35.3188C7.43182 35.3706 7.43819 35.4224 7.39439 35.5315C7.43501 35.7824 7.47084 36.034 7.52023 36.2833C7.52899 36.3255 7.59669 36.3558 7.6604 36.4737C7.66677 36.5589 7.67315 36.6441 7.63332 36.7835C7.8173 37.3418 8.00766 37.8977 8.18367 38.4576C8.37164 39.0566 8.56518 39.6555 8.72208 40.2632C9.09004 41.6841 9.43013 43.1097 9.95419 44.4876C10.2537 45.2745 10.5651 46.0519 10.9601 46.7949C11.2389 47.3198 11.5726 47.7993 12.009 48.215C12.9218 49.0848 13.7804 50.0102 14.7465 50.825C15.1256 51.1444 15.4736 51.5028 15.8687 51.8015C16.431 52.226 16.9925 52.6521 17.6049 53.0097C18.4954 53.529 19.3587 54.0929 20.2874 54.5468C21.4901 55.1346 22.7349 55.6189 23.9846 56.0936C24.5556 56.3102 25.1275 56.5236 25.7001 56.7355C26.4695 57.0198 27.2285 57.3408 28.013 57.575C29.7302 58.0879 31.4609 58.5538 33.1844 59.0436C33.5874 59.1583 33.9864 59.2897 34.3855 59.4164C34.7853 59.543 35.1795 59.6864 35.5833 59.7987C36.2444 59.9819 36.9142 60.1332 37.5729 60.3243C37.9058 60.4207 38.2371 60.494 38.6457 60.5601C39.0296 60.6819 39.439 60.6588 39.8237 60.7417C40.3676 60.8596 40.918 60.8396 41.4636 60.9161C42.3508 61.0403 43.25 60.901 44.1365 60.7998C44.6207 60.7441 45.1161 60.6493 45.5494 60.3825C45.6298 60.3331 45.7238 60.3052 45.8098 60.2646C46.3259 60.0201 46.85 59.7899 47.3557 59.5247C48.0805 59.1448 48.791 58.7378 49.5086 58.3443C49.9761 58.0879 50.4524 57.8474 50.9119 57.5774C51.847 57.0286 52.7716 56.4631 53.7043 55.9104C53.8166 55.8435 53.9512 55.8148 54.1471 55.7367C54.6083 55.4691 55.0638 55.1904 55.5322 54.9363C56.3039 54.5182 57.0908 54.1263 57.861 53.705C58.7809 53.2024 59.6968 52.6919 60.6032 52.1646C61.492 51.6477 62.3737 51.1157 63.2458 50.5701C63.746 50.2571 64.2326 49.9202 64.7033 49.565C65.2943 49.1182 65.9028 48.6817 66.4324 48.168C67.3221 47.3047 68.2516 46.4756 69.0154 45.4904C69.5315 44.8237 70.0109 44.1388 70.1686 43.2842C70.2132 43.042 70.2841 42.8039 70.3279 42.5618C70.4259 42.0202 70.5637 41.4802 70.5947 40.9346C70.6306 40.3078 70.7986 39.6906 70.7301 39.0574C70.7198 38.9642 70.7198 38.8583 70.7548 38.7746C70.8615 38.5166 70.8472 38.2482 70.8376 37.983C70.8074 37.1658 70.899 36.3478 70.7437 35.5283C70.656 35.0671 70.7381 34.5813 70.621 34.1098C70.535 33.7617 70.5485 33.3898 70.4697 33.0394C70.1113 31.4417 69.6382 29.8735 69.0878 28.3339C68.7485 27.3853 68.2993 26.475 67.8884 25.5519C67.6088 24.9251 67.299 24.311 67.0234 23.6818C66.9175 23.4405 66.8705 23.1729 66.7861 22.828C66.7877 22.6759 66.7901 22.523 66.8219 22.2952C66.8355 22.1877 66.8482 22.0793 66.9119 21.9392C67.0019 21.8221 66.986 21.7233 66.8649 21.58C66.853 21.5409 66.8418 21.5019 66.8681 21.4071C66.7104 21.0694 66.5551 20.7309 66.3918 20.3964C66.3711 20.3534 66.3034 20.3327 66.2317 20.2284C65.9625 19.7688 65.6591 19.334 65.2903 18.876C65.2011 18.6912 65.0848 18.5343 64.8356 18.4172C64.646 18.2125 64.4564 18.0071 64.2717 17.7243C63.7986 17.0505 63.2156 16.4795 62.5816 15.863C62.2941 15.4281 61.8576 15.1534 61.4634 14.834C61.4124 14.7926 61.3208 14.8005 61.1631 14.7615C61.136 14.7735 61.1089 14.7862 61.085 14.8069C61.085 14.8069 61.0938 14.8037 61.1193 14.7233C61.0181 14.478 60.7943 14.3497 60.5928 14.2167C60.0051 13.8273 59.4189 13.4298 58.8016 13.0905C57.0271 12.1141 55.1722 11.3089 53.271 10.612C51.7832 10.0664 50.2588 9.6395 48.7296 9.23171C48.0861 9.05968 47.4298 8.93623 46.7488 8.73791C46.6732 8.65986 46.5951 8.60809 46.4143 8.69172C46.0097 8.59933 45.6091 8.48225 45.1997 8.42092C44.8302 8.36517 44.463 8.23774 44.0313 8.23376C43.9979 8.21703 43.966 8.19075 43.931 8.18597C43.3185 8.10155 42.706 8.01951 42.0936 7.93588C41.8706 7.90562 41.6483 7.86739 41.4245 7.84827C41.3584 7.8427 41.2883 7.88889 41.1251 7.90163C40.7738 7.87455 40.4218 7.84748 40.0132 7.76146C39.7998 7.71049 39.5863 7.65951 39.2837 7.78535C39.1164 7.77102 38.9492 7.74553 38.7819 7.74553C38.2236 7.74394 37.6653 7.7519 37.0018 7.71925C36.8314 7.71447 36.6617 7.70093 36.4913 7.7073C35.4535 7.74473 34.4149 7.78376 33.378 7.83155C33.2736 7.83632 33.1717 7.90084 32.9718 7.93429C32.7814 7.95818 32.5911 7.98287 32.3298 7.96615C32.2175 7.94305 32.114 7.94863 31.9555 8.04898C31.7922 8.07686 31.6281 8.10473 31.4147 8.08721C31.2984 8.04978 31.1941 8.05535 31.0427 8.17243C30.9153 8.19951 30.7871 8.22738 30.6206 8.21146C30.5338 8.17721 30.4717 8.20269 30.3482 8.28632C30.267 8.30544 30.1858 8.32455 30.04 8.30783C29.9787 8.3373 29.9182 8.36676 29.7732 8.39783C29.6928 8.41853 29.6115 8.43924 29.465 8.42411C29.4052 8.45676 29.3447 8.48862 29.2109 8.52287C29.1639 8.53721 29.1177 8.55234 29.003 8.53402C28.9441 8.56827 28.8851 8.60252 28.7513 8.63995C28.7051 8.65588 28.6582 8.67101 28.5443 8.65349C28.4853 8.68853 28.4272 8.72437 28.2934 8.7626C28.2464 8.77853 28.1994 8.79366 28.0871 8.77296C28.0274 8.80482 27.9668 8.83667 27.8227 8.87331C27.0883 9.10189 26.4082 9.44835 25.6707 9.80357C25.6045 9.86092 25.5384 9.91826 25.3959 9.99791C25.0884 10.1628 24.781 10.3268 24.3915 10.4845C24.3382 10.5029 24.28 10.514 24.2315 10.5411C23.2526 11.0867 22.2738 11.633 21.2981 12.185C21.2232 12.228 21.1763 12.3204 21.0687 12.4064C21.0687 12.4064 21.0265 12.4327 20.9556 12.4263C20.8903 12.4868 20.8242 12.5474 20.7159 12.6246C20.7159 12.6246 20.6777 12.6493 20.5996 12.6485C20.4371 12.7178 20.2587 12.7648 20.1464 12.9743C20.1464 12.9743 20.1058 12.999 20.0278 12.995C19.8629 13.0603 19.6837 13.1065 19.5754 13.3239C19.5754 13.3239 19.534 13.351 19.4631 13.3438C19.3978 13.4043 19.3317 13.4649 19.1995 13.5485C19.1206 13.5995 19.041 13.6512 18.892 13.6935C18.8283 13.754 18.7638 13.8153 18.6547 13.8934C18.6547 13.8934 18.6141 13.9189 18.5432 13.9149C18.4771 13.9754 18.411 14.0359 18.2787 14.1196C18.1999 14.1705 18.1211 14.2207 17.9713 14.2645C17.9084 14.3266 17.8447 14.3888 17.7364 14.4692C17.7364 14.4692 17.6965 14.4971 17.6257 14.4923C17.5627 14.5544 17.499 14.6166 17.3907 14.6962C17.3907 14.6962 17.3501 14.7225 17.2792 14.7185C17.2171 14.7822 17.155 14.8451 17.0259 14.9463C16.2757 15.495 15.6584 16.1824 14.9591 16.8777C14.7823 16.9868 14.6198 17.1079 14.572 17.3731C14.572 17.3731 14.5537 17.4129 14.482 17.4408C14.4 17.518 14.3044 17.5849 14.2367 17.6733C13.5136 18.6156 12.792 19.5601 12.0752 20.5071C11.9278 20.7047 11.8004 20.9165 11.747 21.2399Z" fill="#FEFEFE"/>
<path d="M66.7967 22.9167C66.8707 23.1724 66.9169 23.44 67.0229 23.6813C67.2976 24.3105 67.6082 24.9238 67.8878 25.5514C68.2988 26.4737 68.748 27.384 69.0873 28.3334C69.6376 29.8729 70.1107 31.4412 70.4691 33.0388C70.548 33.3893 70.5344 33.7612 70.6204 34.1093C70.7375 34.5808 70.6555 35.0666 70.7431 35.5278C70.8984 36.3465 70.8076 37.1645 70.8371 37.9824C70.8466 38.2485 70.8602 38.5161 70.7542 38.7741C70.72 38.8578 70.7192 38.9645 70.7295 39.0569C70.798 39.6908 70.63 40.3081 70.5942 40.9341C70.5631 41.4797 70.4253 42.0197 70.3273 42.5613C70.2835 42.8042 70.2127 43.0415 70.1681 43.2837C70.0104 44.1383 69.5309 44.824 69.0148 45.4898C68.251 46.4751 67.3215 47.3042 66.4319 48.1675C65.9022 48.6812 65.2945 49.1177 64.7028 49.5645C64.2321 49.9205 63.7454 50.2566 63.2453 50.5696C62.3731 51.1152 61.4923 51.6472 60.6026 52.1641C59.6963 52.6914 58.7803 53.2019 57.8604 53.7045C57.0903 54.1258 56.3034 54.5177 55.5316 54.9358C55.0625 55.1899 54.6077 55.4686 54.1099 55.7084C54.0701 55.5228 54 55.4137 53.832 55.44C53.7029 55.4599 53.5755 55.5108 53.4568 55.5666C52.7336 55.9083 52.0121 56.2523 51.2929 56.602C51.1224 56.6848 50.9727 56.8202 50.7967 56.8831C50.2415 57.0807 49.739 57.4168 49.144 57.5099C49.0707 57.5211 49.0046 57.5705 48.9338 57.5984C48.2233 57.8803 47.4954 58.093 46.7339 58.1893C46.3015 58.2435 45.8746 58.3438 45.4421 58.39C45.1028 58.4267 44.7611 58.4394 44.4187 58.3518C43.8595 58.2092 43.3315 58.0077 42.8552 57.6764C42.684 57.5569 42.5 57.4542 42.3144 57.3562C41.4311 56.8895 40.6427 56.2954 39.9442 55.5825C39.7992 55.4344 39.6989 55.2416 39.5547 55.0911C39.1055 54.6204 38.7136 54.1067 38.3696 53.5571C38.2079 53.2991 38.0574 53.0323 37.9164 52.7623C37.7053 52.3577 37.4895 51.9539 37.3071 51.5357C37.0259 50.8898 36.8053 50.2216 36.5983 49.5478C36.2239 48.3284 35.9085 47.0979 35.6871 45.8411C35.6377 45.5591 35.6194 45.2748 35.57 44.9952C35.4752 44.4529 35.3645 43.9137 35.3606 43.3601C35.3598 43.2845 35.3653 43.2 35.3359 43.1339C35.2228 42.8775 35.2538 42.6083 35.2475 42.3422C35.2443 42.2084 35.2706 42.0643 35.2299 41.9432C35.0969 41.5506 35.1376 41.1492 35.1344 40.7509C35.1288 40.0628 35.1376 39.3739 35.1288 38.6857C35.1264 38.4786 35.073 38.2716 35.0643 38.0637C35.0491 37.6838 35.0093 37.2983 35.0603 36.9255C35.0938 36.6802 35.128 36.4373 35.1328 36.1904C35.1352 36.0757 35.1145 35.9515 35.1511 35.8487C35.2642 35.5333 35.2546 35.2092 35.2443 34.8858C35.2291 34.4223 35.3176 33.9763 35.4577 33.5398C35.5589 33.226 35.621 32.913 35.5828 32.5395C35.6202 32.3483 35.6306 32.1882 35.6983 32.0576C36.1331 31.2094 36.5497 30.35 37.0307 29.5281C37.5787 28.5914 38.1617 27.6731 38.8315 26.8161C39.4981 25.9631 40.1584 25.1069 40.9772 24.3822C41.6199 23.8135 42.2841 23.2759 42.9564 22.7431C43.8133 22.0629 44.7269 21.4823 45.7057 21.0012C46.2194 20.7487 46.7387 20.5058 47.266 20.2828C47.6515 20.1203 48.0473 19.9754 48.4503 19.8631C49.1472 19.668 49.8489 19.488 50.5545 19.3318C51.2952 19.167 52.0144 18.8691 52.7966 18.9304C52.8523 18.9344 52.9097 18.9137 52.9662 18.9073C53.2115 18.8811 53.4576 18.8588 53.7021 18.8285C54.0701 18.7823 54.4205 18.9034 54.7797 18.9376C55.1963 18.9774 55.6176 18.9981 56.0262 19.081C57.635 19.4059 59.1969 19.8957 60.7277 20.4859C61.3147 20.7121 61.8969 20.9526 62.4783 21.1924C63.0071 21.4106 63.5264 21.6543 64.0624 21.855C64.6144 22.0621 65.1695 22.2779 65.8003 22.305C65.9938 22.4794 66.1611 22.6252 66.3299 22.7686C66.4661 22.8824 66.6127 22.9581 66.7967 22.9167ZM48.7745 47.7916C49.723 47.5869 50.5681 47.1393 51.3932 46.6535C52.3975 46.0617 53.3907 45.45 54.3863 44.8431C55.4145 44.2163 56.4507 43.6014 57.4638 42.9515C58.4394 42.3255 59.2614 41.5291 59.8978 40.5542C60.347 39.8661 60.5755 39.1118 60.5931 38.2835C60.6273 36.7145 60.5843 35.1487 60.4672 33.5852C60.3947 32.6119 60.2482 31.6458 59.9878 30.7044C59.5131 28.9849 58.5653 27.5871 57.0887 26.5653C56.4818 26.1455 55.8159 25.8707 55.084 25.7584C53.8128 25.5633 52.5664 25.6318 51.3566 26.0977C51.0356 26.2212 50.7114 26.3399 50.3976 26.4792C48.7211 27.2239 47.3082 28.3119 46.2186 29.7893C45.0391 31.3894 44.3494 33.2085 44.0196 35.1542C43.6732 37.1971 43.6023 39.2592 43.7942 41.3252C43.901 42.4729 44.1518 43.5895 44.5525 44.6711C44.8002 45.3385 45.1402 45.959 45.5616 46.53C46.2322 47.4388 47.1274 47.9087 48.2751 47.8442C48.4089 47.837 48.5419 47.8219 48.7745 47.7916ZM37.9801 32.5267C37.7356 32.4566 37.4887 32.4367 37.2609 32.5689C36.7552 32.8636 36.4326 33.2865 36.3983 33.8887C36.3864 34.0973 36.4023 34.3068 36.3952 34.5163C36.3832 34.8484 36.5321 35.1009 36.7695 35.3127C36.9742 35.4951 37.5827 35.5493 37.7874 35.3693C37.9984 35.1837 38.2174 34.979 38.3512 34.7377C38.5328 34.4088 38.6412 34.0384 38.771 33.6832C38.8554 33.453 38.806 33.23 38.6794 33.0285C38.5336 32.7991 38.3544 32.6056 37.9801 32.5267ZM65.8839 25.6079C65.8959 24.9453 65.504 24.6211 64.9218 24.4507C64.8262 24.4833 64.7386 24.5216 64.647 24.5431C64.3157 24.6203 64.1357 24.8585 64.0122 25.146C63.97 25.2447 63.9517 25.3722 63.9732 25.4765C64.0784 25.9878 64.6916 26.3853 65.1926 26.2674C65.508 26.1925 65.735 25.9998 65.8839 25.6079ZM67.5995 43.607C67.7867 43.607 67.977 43.6381 68.1395 43.4947C68.3147 43.3402 68.4509 43.1626 68.521 42.9396C68.5656 42.7962 68.5998 42.6481 68.6301 42.5007C68.7225 42.0571 68.4079 41.6915 67.9571 41.6509C67.5987 41.6191 67.3773 41.803 67.1909 42.0476C66.9767 42.3271 66.8914 42.6592 66.9536 43.0097C67.0077 43.3179 67.2084 43.5083 67.5995 43.607ZM61.6731 39.127C61.6476 39.2982 61.6651 39.4583 61.7264 39.6255C61.8284 39.9035 62.2234 40.1265 62.5762 40.0317C62.8614 39.9553 63.1847 39.4559 63.1346 39.1827C63.1218 39.1118 63.0844 39.0401 63.0406 38.982C62.9848 38.9063 62.9139 38.8418 62.8454 38.7765C62.5794 38.5224 62.3516 38.4993 62.0243 38.6626C61.857 38.7462 61.7758 38.8864 61.6731 39.127ZM62.2099 40.5152C61.8722 40.5709 61.7129 40.829 61.6866 41.1117C61.6587 41.4112 61.8626 41.6374 62.1342 41.7823C62.4934 41.9743 62.9944 41.7154 63.0286 41.31C63.0446 41.1205 63.0446 40.9357 62.8972 40.7748C62.7323 40.5964 62.5539 40.4769 62.2099 40.5152ZM37.55 38.1545C37.6105 38.082 37.6918 38.0191 37.7268 37.9363C37.8431 37.6591 37.7515 37.3732 37.5229 37.2433C37.2991 37.1159 36.9917 37.1812 36.8189 37.4106C36.7416 37.5133 36.6986 37.64 36.6381 37.7594C36.6954 37.8741 36.7225 38.0024 36.8013 38.0677C36.9272 38.172 37.0801 38.2548 37.2354 38.3066C37.3015 38.3281 37.4019 38.2477 37.55 38.1545ZM66.7449 27.5441C66.9153 27.5457 67.042 27.4947 67.0475 27.294C67.0539 27.0336 66.8341 26.7182 66.5912 26.6433C66.3036 26.5549 65.9795 26.7261 65.919 26.9993C65.8624 27.2542 66.0536 27.4915 66.365 27.5393C66.4566 27.5545 66.5529 27.5441 66.7449 27.5441Z" fill="#F7E8E6"/>
<path d="M65.7786 22.276C65.1725 22.2784 64.6181 22.0626 64.0662 21.8555C63.531 21.6548 63.0117 21.4111 62.482 21.1928C61.9006 20.9531 61.3184 20.7126 60.7314 20.4864C59.2006 19.897 57.6388 19.4072 56.03 19.0814C55.6214 18.9986 55.2 18.9779 54.7835 18.9381C54.4243 18.9038 54.0739 18.7827 53.7059 18.8289C53.4614 18.8592 53.2153 18.8815 52.97 18.9078C52.9134 18.9142 52.8561 18.9349 52.8003 18.9309C52.0182 18.8704 51.299 19.1682 50.5583 19.3323C49.8518 19.4892 49.1502 19.6692 48.4541 19.8635C48.0519 19.9758 47.6552 20.1208 47.2697 20.2833C46.7425 20.5055 46.2232 20.7492 45.7095 21.0017C44.7306 21.4827 43.8171 22.0633 42.9601 22.7435C42.2879 23.2764 41.6237 23.814 40.9809 24.3826C40.1614 25.1074 39.5019 25.9636 38.8353 26.8166C38.1655 27.6736 37.5825 28.5919 37.0345 29.5285C36.5534 30.3505 36.1369 31.2098 35.702 32.0581C35.6351 32.1887 35.6248 32.3488 35.5483 32.5487C35.2472 32.8983 34.845 33.6151 34.7319 33.9775C34.5273 34.6322 34.3194 35.2861 34.1123 35.94C33.8765 36.6863 33.7443 37.4549 33.6496 38.2282C33.5795 38.7953 33.5293 39.3608 33.327 39.9016C33.2609 40.0792 33.2258 40.2687 33.1765 40.4527C32.9606 41.2627 32.7567 42.0767 32.325 42.8102C32.2486 42.94 32.1897 43.0866 32.1562 43.2331C31.9555 44.1244 31.7755 45.0196 31.8042 45.9411C31.8289 46.7216 31.7628 47.5013 31.9029 48.2819C31.969 48.6498 31.9499 49.0377 32.0328 49.4128C32.1976 50.1551 32.3282 50.9014 32.5775 51.627C32.795 52.2602 33.0562 52.8726 33.3055 53.4907C33.4481 53.8443 33.5962 54.1979 33.7746 54.534C34.141 55.2246 34.536 55.9 34.9072 56.5889C35.1174 56.9784 35.3564 57.3408 35.6821 57.645C35.8772 57.8274 36.0716 58.0161 36.2356 58.2248C36.8537 59.0109 37.5737 59.6839 38.414 60.2263C38.5231 60.2964 38.5756 60.3816 38.5836 60.5035C38.2379 60.4947 37.9066 60.4222 37.5729 60.3251C36.9142 60.1339 36.2444 59.9834 35.5834 59.7994C35.1795 59.6871 34.7853 59.5437 34.3855 59.4171C33.9857 59.2905 33.5874 59.1583 33.1844 59.0444C31.4609 58.5546 29.7294 58.0886 28.013 57.5757C27.2285 57.3415 26.4695 57.0206 25.7001 56.7362C25.1275 56.5244 24.5548 56.3117 23.9846 56.0943C22.7349 55.6196 21.4901 55.1354 20.2874 54.5476C19.3588 54.0936 18.4954 53.5297 17.605 53.0104C16.9925 52.6528 16.431 52.2267 15.8687 51.8022C15.4736 51.5043 15.1256 51.1459 14.7465 50.8257C13.7804 50.0118 12.9218 49.0855 12.0091 48.2158C11.5726 47.8 11.2389 47.3213 10.9601 46.7957C10.5651 46.0526 10.2537 45.2752 9.95421 44.4883C9.43014 43.1105 9.09006 41.6848 8.72209 40.264C8.5644 39.6563 8.37165 39.0581 8.18369 38.4584C8.00767 37.8977 7.81732 37.3418 7.6875 36.7826C7.94157 37.0909 8.03714 37.4397 8.1367 37.7894C8.37245 38.6169 8.62652 39.4388 9.16572 40.1349C9.32899 40.346 9.48191 40.5682 9.6659 40.7601C10.2354 41.3519 10.7865 41.9668 11.4014 42.5076C12.2217 43.2284 13.1615 43.7763 14.1683 44.2144C16.0081 45.0148 17.9204 45.4919 19.9274 45.5683C21.0934 45.6129 22.2587 45.5867 23.4167 45.4345C24.7293 45.2617 25.99 44.8882 27.2238 44.4151C27.9947 44.1196 28.7283 43.7556 29.3957 43.2666C30.0536 42.7847 30.5681 42.1842 30.9233 41.4045C31.4442 40.4901 31.742 39.5272 32.0288 38.5595C32.2717 37.7392 32.4764 36.9045 32.7711 36.1025C33.0673 35.2957 33.3015 34.4769 33.5086 33.6271C33.6981 33.5068 33.8264 33.3794 33.8702 33.1835C33.9586 32.7884 34.215 32.4396 34.2063 31.9752C34.3082 31.7052 34.395 31.4743 34.5169 31.2274C34.8888 30.7487 35.1023 30.2206 35.3388 29.7045C35.3532 29.6735 35.3388 29.6297 35.3564 29.5612C35.4081 29.4417 35.4408 29.3541 35.5029 29.2506C35.5618 29.1773 35.5905 29.1191 35.6542 29.0467C35.8398 28.9153 35.9226 28.7639 35.9362 28.5497C35.9457 28.5282 35.9593 28.4828 35.9943 28.47C36.1863 28.3442 36.2651 28.1905 36.2842 27.9778C36.2938 27.9571 36.3073 27.9125 36.3408 27.9006C36.4714 27.8384 36.5072 27.7572 36.508 27.6306C36.5176 27.6091 36.5319 27.5645 36.5662 27.5541C36.7 27.4952 36.7358 27.4139 36.751 27.2777C36.9971 27.0069 37.2209 26.7672 37.4797 26.5171C37.6151 26.4654 37.6565 26.3849 37.6733 26.2543C37.725 26.1762 37.7593 26.1245 37.8301 26.0616C38.0125 25.9803 38.1145 25.8792 38.1272 25.6769C38.179 25.598 38.214 25.5455 38.2833 25.4841C38.4179 25.4316 38.4593 25.3519 38.4769 25.2205C38.5263 25.1393 38.5573 25.0843 38.6258 25.0214C38.8249 24.9593 38.9086 24.843 38.9532 24.6486C39.4971 24.2201 39.8508 23.6674 40.288 23.1911C40.3111 23.1656 40.3135 23.1202 40.3565 23.0645C40.5883 22.8574 40.7874 22.6702 41.0247 22.4799C41.2215 22.4281 41.3146 22.3198 41.3744 22.1398C41.5345 22.014 41.6611 21.9041 41.8244 21.7926C41.9653 21.7615 42.0155 21.6866 42.0649 21.5719C42.1453 21.5194 42.1963 21.4803 42.2831 21.4413C42.3763 21.3736 42.4345 21.3067 42.5213 21.2271C42.6033 21.1769 42.6551 21.1395 42.7435 21.1012C42.8407 21.0351 42.902 20.969 42.9856 20.8965C43.0087 20.8902 43.0509 20.8671 43.0868 20.8679C43.1839 20.8034 43.2445 20.7372 43.3289 20.6664C43.3528 20.6608 43.3958 20.6393 43.4348 20.6401C43.6427 20.5796 43.8195 20.5294 43.9007 20.3207C43.9254 20.3151 43.97 20.2936 44.0098 20.2952C44.287 20.1917 44.5554 20.1351 44.7267 19.8651C44.9576 19.7648 45.1504 19.6724 45.3821 19.5872C45.6681 19.5059 45.9301 19.4438 46.1189 19.1929C46.2304 19.1666 46.3028 19.1443 46.4175 19.1292C46.4964 19.1276 46.5354 19.1244 46.5697 19.1093C47.7301 18.6123 48.9303 18.277 50.1999 18.2348C50.458 18.226 50.6308 18.1105 50.7821 17.8875C50.9111 17.8764 50.9972 17.862 51.1294 17.8636C51.3372 17.8796 51.4997 17.8915 51.6582 17.874C51.7371 17.8652 51.8087 17.7999 51.9322 17.7657C52.1401 17.7569 52.3002 17.7426 52.5112 17.7466C53.0186 17.7697 53.4741 17.7792 53.9305 17.776C54.0189 17.7752 54.1073 17.7259 54.2371 17.7043C54.4434 17.7282 54.6083 17.7466 54.8018 17.7991C55.04 17.9051 55.251 17.9122 55.5043 17.8565C55.6325 17.8732 55.7201 17.8756 55.8316 17.9122C55.9901 18.0205 56.1271 18.0166 56.3031 17.9759C56.3915 17.9903 56.4433 17.9919 56.5166 18.0269C56.6361 18.1265 56.7372 18.1241 56.8774 18.089C56.965 18.1058 57.0168 18.1089 57.094 18.1456C58.1437 18.4737 59.1783 18.7381 60.1731 19.1276C60.2042 19.1396 60.2472 19.1212 60.3205 19.1332C60.432 19.1642 60.5076 19.1794 60.5992 19.2264C60.6749 19.345 60.7529 19.3841 60.8963 19.3705C61.2388 19.5147 61.5438 19.6405 61.8656 19.8014C62.0806 20.0188 62.3012 20.1534 62.6095 20.1965C62.803 20.2936 62.9647 20.3693 63.1399 20.4808C63.3414 20.7126 63.566 20.8384 63.8695 20.8862C63.985 20.9443 64.0718 20.9826 64.1697 21.0534C64.2335 21.1793 64.3091 21.2207 64.4461 21.2239C64.5672 21.2892 64.658 21.3322 64.7583 21.4103C65.0068 21.6468 65.2657 21.8149 65.5675 21.9694C65.6511 22.0912 65.7149 22.1836 65.7786 22.276ZM30.7441 55.0199C30.8731 55.309 31.1113 55.5081 31.347 55.6961C31.742 56.0099 32.3959 55.9669 32.7058 55.6069C33.018 55.2437 33.1518 54.8184 33.0307 54.3333C32.916 53.8762 32.6094 53.5735 32.2223 53.3505C31.9077 53.1689 31.5397 53.1936 31.2204 53.2908C30.846 53.4039 30.4749 53.963 30.5776 54.4464C30.6127 54.6121 30.6621 54.7754 30.7441 55.0199ZM29.6872 55.0493C29.7995 54.7172 29.7445 54.413 29.5271 54.1414C29.3352 53.9001 29.0102 53.8698 28.7673 54.0538C28.5331 54.2314 28.4559 54.46 28.4726 54.7507C28.5045 55.305 28.9306 55.5639 29.4148 55.301C29.496 55.2564 29.5613 55.1824 29.6872 55.0493ZM29.1631 52.0372C29.1974 51.9703 29.2452 51.9065 29.2619 51.8357C29.2937 51.6971 29.2635 51.5657 29.14 51.4796C29.0006 51.3825 28.7235 51.3952 28.5984 51.4948C28.479 51.5895 28.4368 51.8412 28.5164 52.0268C28.5769 52.1678 28.6996 52.2243 28.8422 52.2044C28.9314 52.1917 29.0142 52.1367 29.1631 52.0372Z" fill="#D4C3BF"/>
<path d="M21.0271 12.4314C21.0271 12.4314 21.0693 12.4051 21.1314 12.4043C21.2445 12.4441 21.2963 12.4847 21.3297 12.511C21.0995 12.9116 20.8614 13.2613 20.6902 13.6412C20.4162 14.2481 20.1581 14.8614 19.9582 15.5001C19.7902 16.0377 19.7272 16.5777 19.7583 17.1337C19.8085 18.0273 20.3676 18.768 21.2039 18.8643C21.3727 18.8835 21.5408 18.932 21.7096 18.932C22.299 18.932 22.8844 18.9249 23.4754 18.8444C24.0759 18.7624 24.6812 18.7059 25.2793 18.5959C25.5223 18.5513 25.766 18.5131 26.0097 18.4757C26.572 18.3889 27.1383 18.322 27.6974 18.216C28.779 18.0121 29.8502 17.7652 30.9493 17.6505C31.5904 17.5836 32.2244 17.4498 32.8727 17.4411C32.9301 17.4403 32.9914 17.4435 33.0432 17.4244C33.357 17.3073 33.6835 17.3399 34.0061 17.3304C34.1582 17.3256 34.3111 17.3192 34.4633 17.3041C34.7086 17.2794 34.9523 17.2444 35.1976 17.2189C35.3115 17.2069 35.4341 17.2332 35.5393 17.1998C35.9311 17.0747 36.3333 17.109 36.7324 17.1074C37.7064 17.1034 38.6805 17.1074 39.6546 17.1082C39.7884 17.1082 39.9285 17.0851 40.0544 17.1177C40.5808 17.2547 41.116 17.2133 41.6481 17.2173C41.9372 17.2197 42.2191 17.2412 42.4828 17.3837C42.3147 17.5502 42.1642 17.6944 41.9922 17.8051C41.3693 18.2049 40.7353 18.5848 40.1651 19.0627C39.7143 19.4394 39.2229 19.7707 38.796 20.1721C38.0473 20.877 37.3233 21.6089 36.6145 22.3544C36.3867 22.5941 36.131 22.8387 36.0116 23.2058C35.8061 23.2504 35.6396 23.2783 35.4302 23.3118C34.8694 23.44 34.3613 23.5905 33.8357 23.6909C33.1459 23.8231 32.4697 24.0349 31.7967 24.2412C30.2269 24.7207 28.7065 25.334 27.1884 25.9536C26.2184 26.3494 25.2443 26.7373 24.275 27.1339C24.1723 27.1762 24.0831 27.2534 23.9445 27.3147C23.7087 27.3012 23.5415 27.353 23.4116 27.5027C23.2938 27.6389 23.1377 27.6724 22.9585 27.619C22.784 27.345 22.5101 27.3538 22.2839 27.3323C21.5623 27.2622 20.859 27.0957 20.1613 26.9277C18.9427 26.6346 17.7393 26.2849 16.5573 25.8556C15.5498 25.4901 14.5782 25.0632 13.6567 24.5184C13.5659 24.465 13.4384 24.4722 13.3261 24.4117C13.3221 24.3185 13.3198 24.2651 13.3166 24.1592C13.3166 23.5348 13.3213 22.9629 13.3166 22.3918C13.311 21.7021 13.4496 21.0371 13.6264 20.376C13.7291 19.9921 13.8088 19.6011 13.9099 19.2164C14.0485 18.6843 14.1544 18.1396 14.4945 17.6816C14.5447 17.6147 14.5367 17.5048 14.5559 17.4148C14.5559 17.4148 14.5742 17.375 14.6259 17.3519C14.8728 17.2324 15.0321 17.1074 15.0361 16.8637C15.6605 16.1843 16.2786 15.4969 17.0981 14.9307C17.2757 14.8956 17.3315 14.8263 17.353 14.7244C17.353 14.7244 17.3936 14.6981 17.4518 14.6909C17.6182 14.6678 17.6756 14.6001 17.6987 14.4982C17.6987 14.4982 17.7385 14.4703 17.7966 14.4623C17.9615 14.4384 18.0188 14.3723 18.0435 14.272C18.1224 14.221 18.2012 14.1708 18.3502 14.1127C18.5365 14.0968 18.5923 14.0251 18.6154 13.92C18.6154 13.92 18.656 13.8945 18.7141 13.8873C18.836 13.8212 18.8997 13.7623 18.9634 13.7025C19.0423 13.6515 19.1219 13.5998 19.2709 13.5408C19.4549 13.5241 19.5106 13.454 19.5353 13.3505C19.5353 13.3505 19.5767 13.3234 19.6396 13.3162C19.8722 13.2501 20.0554 13.2111 20.1064 12.9985C20.1064 12.9985 20.147 12.9738 20.2099 12.9682C20.4464 12.9077 20.6312 12.8662 20.6782 12.648C20.6782 12.648 20.7164 12.6233 20.7746 12.6185C20.9458 12.6042 21.0024 12.5349 21.0271 12.4314Z" fill="#FF825A"/>
<path d="M35.6202 29.0623C35.5907 29.1204 35.5621 29.1786 35.4665 29.2471C35.308 29.1969 35.2164 29.1364 35.1177 29.0719C35.0667 29.0997 35.0046 29.1141 34.9727 29.1539C34.5609 29.6708 34.1117 30.1598 33.7709 30.7309C33.6155 30.9905 33.4475 31.243 33.2993 31.5066C33.2085 31.6691 33.1448 31.8467 33.0381 32.0195C32.9863 32.0235 32.9664 32.0251 32.9011 32.0323C32.6152 32.0912 32.3755 32.1486 32.1333 32.198C30.7754 32.4735 29.5226 33.0366 28.2769 33.6172C27.1332 34.1501 26.0508 34.796 24.9636 35.4324C24.0581 35.9628 23.131 36.455 22.2278 36.9894C21.2553 37.5653 20.2287 38.0216 19.1917 38.4637C18.2742 38.8547 17.3129 39.0929 16.35 39.327C16.0194 39.4075 15.6754 39.4409 15.3361 39.476C14.9108 39.5198 14.5054 39.3891 14.0984 39.2944C13.8595 39.2386 13.6149 39.1693 13.3999 39.0546C12.754 38.7106 12.1917 38.2518 11.717 37.6951C11.4207 37.3478 11.1435 36.9831 10.8728 36.6159C10.6115 36.2615 10.3965 35.8824 10.2674 35.4539C10.152 35.0708 10.0309 34.6861 9.87001 34.3213C9.56178 33.6228 9.21851 32.9402 8.89993 32.2465C8.78922 32.0044 8.69843 31.7519 8.61878 31.4979C8.52241 31.1896 8.44834 30.8742 8.36392 30.562C8.33365 30.4513 8.24684 30.4219 8.14648 30.4139C8.16082 30.2984 8.17516 30.1829 8.23409 30.0045C8.32967 29.8213 8.38781 29.7042 8.43002 29.5808C8.71436 28.7421 9.00108 27.9043 9.27267 27.0608C9.35789 26.7964 9.52356 26.5495 9.48772 26.2516C9.54347 26.0987 9.59922 25.9458 9.70993 25.7435C9.86763 25.6192 9.86683 25.5237 9.81984 25.4185C9.84214 25.3492 9.86444 25.2799 9.9409 25.1653C10.0946 25.049 10.0986 24.955 10.0596 24.8499C10.0819 24.779 10.1034 24.7081 10.1806 24.5918C10.3718 24.4054 10.4682 24.2517 10.4012 24.0446C10.4674 23.8861 10.5343 23.7268 10.6728 23.5532C10.9046 23.5922 10.9006 23.7261 10.9094 23.8591C10.9221 24.0438 10.8966 24.2517 10.9731 24.4078C11.1372 24.7415 11.345 25.0561 11.5585 25.362C11.6732 25.5268 11.8086 25.6965 12.0459 25.761C12.069 25.9179 12.0722 26.035 12.1081 26.1417C12.3255 26.7956 12.6186 27.4208 13.0359 27.964C13.3338 28.3519 13.6914 28.719 14.0904 29.0002C14.5691 29.3371 15.1059 29.6023 15.6427 29.8428C16.0736 30.0364 16.534 30.1765 16.9935 30.2865C17.4523 30.3964 17.9254 30.4442 18.3945 30.5079C18.5633 30.531 18.7378 30.5365 18.9074 30.5206C19.2276 30.4904 19.5501 30.4585 19.8639 30.3908C20.6429 30.2227 21.4194 30.0483 22.1745 29.7839C22.6213 29.6278 23.084 29.5171 23.5738 29.4191C23.663 29.4661 23.7188 29.494 23.7729 29.4916C24.5312 29.4589 25.2862 29.5211 26.0508 29.4096C26.8011 29.2996 27.5497 29.1913 28.2896 29.0297C29.5393 28.7565 30.7427 28.3519 31.849 27.694C32.604 27.2448 33.3193 26.7462 33.9062 26.0812C34.0894 25.8733 34.2264 25.6559 34.2583 25.3516C34.4773 25.2807 34.6549 25.221 34.8365 25.1772C35.6553 24.9765 36.4764 24.783 37.3621 24.6675C37.6353 24.6746 37.8511 24.6603 38.0733 24.603C38.3146 24.5416 38.5854 24.4715 38.779 24.6953C38.6396 24.7925 38.5687 24.8897 38.5886 25.0314C38.5575 25.0864 38.5257 25.1414 38.4397 25.2282C38.2692 25.2975 38.2406 25.3859 38.2485 25.4958C38.2143 25.5483 38.1792 25.6009 38.0884 25.6853C37.8622 25.7761 37.7722 25.8884 37.7937 26.0748C37.7595 26.1266 37.7245 26.1791 37.636 26.2628C37.4648 26.3313 37.4361 26.4197 37.4449 26.5296C37.2211 26.7701 36.9981 27.0106 36.7153 27.2886C36.5417 27.3698 36.5178 27.459 36.533 27.5682C36.533 27.5682 36.5186 27.6128 36.4724 27.6414C36.3107 27.7163 36.29 27.8063 36.3084 27.9162C36.3084 27.9162 36.2948 27.96 36.247 27.9887C36.0153 28.1201 35.9484 28.2834 35.9603 28.4865C35.9603 28.4865 35.9468 28.5311 35.8998 28.5605C35.672 28.6959 35.6035 28.8584 35.6202 29.0623Z" fill="#F76342"/>
<path d="M38.6143 60.5319C38.5753 60.3814 38.5227 60.2969 38.4136 60.226C37.5733 59.6837 36.8533 59.0106 36.2353 58.2245C36.0704 58.0151 35.8769 57.8271 35.6817 57.6447C35.356 57.3397 35.1171 56.9781 34.9068 56.5886C34.5356 55.9005 34.1406 55.2251 33.7742 54.5338C33.5958 54.1977 33.4477 53.844 33.3051 53.4904C33.0558 52.8716 32.7946 52.2591 32.5772 51.6267C32.3279 50.9019 32.1972 50.1549 32.0324 49.4126C31.9488 49.0382 31.9687 48.6504 31.9026 48.2816C31.7624 47.5011 31.8285 46.7205 31.8038 45.9408C31.7751 45.0193 31.9551 44.1241 32.1558 43.2329C32.1885 43.0863 32.2482 42.9398 32.3247 42.8099C32.7564 42.0764 32.9603 41.2624 33.1761 40.4524C33.2255 40.2685 33.2597 40.0789 33.3266 39.9013C33.5289 39.3605 33.5791 38.7942 33.6492 38.2279C33.744 37.4554 33.8762 36.686 34.1119 35.9397C34.319 35.2858 34.5269 34.6319 34.7316 33.9773C34.8447 33.6149 35.2469 32.8981 35.5471 32.593C35.6252 32.9132 35.5623 33.2262 35.4619 33.5392C35.3217 33.9749 35.2333 34.4209 35.2485 34.8852C35.2596 35.2086 35.2684 35.5327 35.1553 35.8481C35.1186 35.9509 35.1394 36.0751 35.137 36.1898C35.1322 36.4375 35.0979 36.6796 35.0645 36.9249C35.0135 37.2969 35.0533 37.6832 35.0685 38.0631C35.0764 38.2709 35.1298 38.4772 35.133 38.6851C35.1417 39.3732 35.133 40.0614 35.1386 40.7503C35.1417 41.1493 35.1011 41.5507 35.2341 41.9426C35.2756 42.0637 35.2485 42.2078 35.2517 42.3416C35.258 42.6076 35.227 42.8768 35.3401 43.1333C35.3695 43.1994 35.364 43.2838 35.3647 43.3595C35.3679 43.913 35.4794 44.4522 35.5742 44.9946C35.6236 45.2742 35.6411 45.5577 35.6913 45.8405C35.9119 47.0973 36.2273 48.3278 36.6024 49.5472C36.8095 50.2218 37.0301 50.89 37.3113 51.5351C37.4937 51.9533 37.7095 52.3571 37.9206 52.7617C38.0616 53.0317 38.2113 53.2985 38.3738 53.5565C38.7186 54.1061 39.1097 54.6206 39.5589 55.0905C39.7022 55.241 39.8026 55.4338 39.9484 55.5819C40.646 56.2947 41.4345 56.8889 42.3186 57.3556C42.5034 57.4536 42.6874 57.5563 42.8594 57.6758C43.3357 58.0079 43.8637 58.2086 44.4228 58.3512C44.7653 58.4388 45.107 58.4261 45.4463 58.3894C45.8796 58.3432 46.3065 58.2429 46.7381 58.1887C47.4995 58.0931 48.2275 57.8805 48.9379 57.5977C49.0088 57.5699 49.0757 57.5205 49.1482 57.5093C49.7432 57.4161 50.2457 57.08 50.8009 56.8825C50.9769 56.8196 51.1266 56.685 51.297 56.6014C52.0162 56.2517 52.7378 55.9077 53.461 55.566C53.5797 55.5094 53.7079 55.4593 53.8361 55.4393C54.005 55.4131 54.0743 55.5222 54.0783 55.7229C53.954 55.8129 53.8202 55.8424 53.7079 55.9085C52.7753 56.4612 51.8506 57.0267 50.9155 57.5754C50.456 57.8454 49.9797 58.086 49.5122 58.3424C48.7946 58.7359 48.0841 59.1429 47.3594 59.5228C46.8536 59.788 46.3296 60.0174 45.8134 60.2627C45.7274 60.3033 45.6335 60.3312 45.553 60.3806C45.1189 60.6474 44.6243 60.7421 44.1401 60.7979C43.2536 60.8998 42.3544 61.0384 41.4672 60.9142C40.9224 60.8377 40.3713 60.8576 39.8273 60.7398C39.4394 60.6593 39.03 60.6824 38.6143 60.5319ZM34.7905 49.2772C34.7905 49.2389 34.7929 49.2007 34.7897 49.1633C34.7563 48.7212 34.4433 48.3676 34.0211 48.3254C33.8969 48.3127 33.7456 48.3342 33.6428 48.3979C33.149 48.7013 33.0383 49.3966 33.4047 49.8419C33.5879 50.0641 33.8658 50.1748 34.1159 50.1111C34.4703 50.0219 34.7802 49.8116 34.7905 49.2772ZM32.9714 46.3574C32.9682 46.4521 32.9451 46.5509 32.965 46.6409C33.055 47.0471 33.4349 47.1689 33.7384 46.8958C34.0132 46.6481 34.0578 46.4195 33.8977 46.081C33.744 45.7552 33.458 45.6907 33.2175 45.9408C33.1275 46.0332 33.0733 46.1606 32.9714 46.3574Z" fill="#ECD8D6"/>
<path d="M30.8905 41.4295C30.5664 42.1845 30.0518 42.785 29.394 43.2669C28.7265 43.7551 27.993 44.1199 27.222 44.4154C25.9883 44.8885 24.7275 45.262 23.415 45.4349C22.2569 45.587 21.0925 45.6133 19.9257 45.5687C17.9179 45.4922 16.0064 45.0151 14.1665 44.2147C13.1598 43.7766 12.22 43.2295 11.3997 42.5079C10.784 41.9671 10.2329 41.3522 9.66418 40.7605C9.4802 40.5685 9.32728 40.3463 9.16401 40.1352C8.62481 39.4399 8.37153 38.6172 8.13499 37.7897C8.03543 37.44 7.93986 37.0912 7.70888 36.7559C7.67225 36.6452 7.66508 36.5599 7.6611 36.3895C7.6372 36.0152 7.60136 35.7284 7.44207 35.4736C7.43649 35.4218 7.43012 35.37 7.42773 35.2498C7.43172 35.1311 7.43331 35.0825 7.44526 35.0005C7.47791 34.9392 7.49942 34.9105 7.53287 34.8659C7.57747 34.9734 7.62526 35.069 7.65791 35.1693C7.90641 35.953 8.20428 36.7145 8.66543 37.401C8.87728 37.7164 9.08038 38.039 9.31135 38.3408C9.84179 39.0337 10.3133 39.7808 11.0699 40.2706C11.4371 40.508 11.782 40.7796 12.1523 41.0121C12.9758 41.529 13.9308 41.5155 14.8475 41.6501C14.9375 41.6636 15.0347 41.6278 15.1287 41.6111C15.241 41.592 15.3525 41.5497 15.464 41.5513C15.8335 41.5537 16.176 41.4366 16.5225 41.3339C17.5666 41.0233 18.5709 40.6035 19.5514 40.1408C20.8106 39.5467 22.0331 38.876 23.2692 38.2333C23.6579 38.031 24.037 37.8112 24.4201 37.5977C25.019 37.264 25.6108 36.916 26.2185 36.5982C27.5366 35.9076 28.8882 35.2864 30.2741 34.7432C30.8579 34.5147 31.4512 34.3108 32.039 34.1411C32.0239 34.5377 31.8933 34.8547 31.7276 35.155C31.4305 35.6926 31.2418 36.2708 31.0578 36.8514C30.9837 37.0864 30.9503 37.3373 30.8571 37.5635C30.5879 38.2134 30.3187 38.8649 30.0104 39.4965C29.6496 40.2348 29.1694 40.8951 28.5951 41.4868C28.4366 41.6501 28.2734 41.8134 28.1411 41.9981C28.005 42.1869 27.852 42.3446 27.6585 42.4744C27.1663 42.8042 26.729 43.1992 26.33 43.6365C26.2663 43.7057 26.1962 43.7758 26.2623 43.9176C26.3531 43.9264 26.4678 43.9646 26.5689 43.9431C27.4865 43.748 28.3554 43.4087 29.171 42.9531C29.7253 42.6441 30.1411 42.1598 30.5337 41.6676C30.6325 41.5402 30.7169 41.4287 30.8905 41.4295Z" fill="#F76342"/>
<path d="M32.3993 8.00511C32.5897 7.98122 32.78 7.95653 33.0126 7.97326C33.0182 8.21856 32.8318 8.25759 32.6876 8.34122C32.2105 8.61918 31.7271 8.88599 31.2564 9.17431C30.8024 9.45227 30.491 9.85289 30.3174 10.3594C30.1302 10.9066 30.3102 11.5708 30.796 11.8687C31.1998 12.1164 31.6299 12.3585 32.0815 12.4836C32.8294 12.6907 33.5956 12.8539 34.3817 12.8571C34.4765 12.8571 34.58 12.8468 34.6652 12.8786C34.9615 12.9885 35.2673 12.9623 35.5716 12.9702C35.7237 12.9742 35.887 12.9495 36.0272 12.9941C36.3457 13.0945 36.6683 13.0666 36.9909 13.0857C37.5787 13.12 38.1656 13.1685 38.7534 13.2115C38.7909 13.2147 38.8275 13.2299 38.8649 13.2346C39.3723 13.2992 39.8796 13.3676 40.3886 13.425C40.8409 13.476 41.2981 13.4935 41.7481 13.5604C42.629 13.691 43.5067 13.8439 44.386 13.9905C45.5838 14.1896 46.7817 14.3863 47.9772 14.5958C48.2551 14.6444 48.5259 14.7375 48.7912 14.8514C48.7266 14.9375 48.6765 15.0052 48.6128 15.0227C48.3021 15.1095 47.9875 15.1812 47.6753 15.2616C46.753 15.5006 45.869 15.8486 44.9945 16.2213C44.9435 16.2429 44.9268 16.3464 44.8519 16.4077C44.6464 16.3687 44.4823 16.3336 44.2705 16.297C43.9264 16.2182 43.6277 16.1608 43.3187 16.1807C43.2431 16.1855 43.165 16.1783 43.0901 16.1648C42.3582 16.0318 41.6239 15.929 40.8768 15.949C40.8003 15.9513 40.7191 15.9617 40.6482 15.9418C40.066 15.7793 39.4702 15.859 38.8809 15.8359C38.348 15.8144 37.8112 15.8837 37.2824 15.7658C36.6588 15.9052 36.0248 15.804 35.3964 15.8414C35.2634 15.8494 35.12 15.8311 34.9981 15.8733C34.7361 15.9641 34.4701 15.9458 34.2033 15.9553C34.0504 15.9609 33.8879 15.9386 33.7477 15.9848C33.4849 16.0716 33.2197 16.0605 32.9536 16.0692C32.839 16.0732 32.7243 16.0772 32.6104 16.0907C32.064 16.1576 31.5168 16.2253 30.9713 16.2978C30.5571 16.3528 30.1414 16.4013 29.7304 16.477C29.0757 16.5965 28.4258 16.7414 27.7719 16.8657C27.1929 16.9748 26.6107 17.0648 26.0316 17.1731C25.5832 17.2575 25.1372 17.3579 24.6904 17.4495C24.1687 17.5562 23.6367 17.6104 23.1158 17.7075C22.5416 17.8143 21.9745 17.784 21.4034 17.784C21.0841 17.784 20.8905 17.5913 20.9073 17.279C20.9296 16.8824 20.9662 16.477 21.0745 16.0979C21.1988 15.6598 21.4138 15.2489 21.5763 14.8212C21.7746 14.3019 22.0541 13.8264 22.3066 13.335C22.5902 12.7838 22.9868 12.3243 23.3556 11.8408C23.5276 11.6154 23.7283 11.406 23.9433 11.2204C24.1815 11.0149 24.3671 10.7839 24.473 10.4885C24.7804 10.3236 25.0878 10.1595 25.4686 9.98669C25.6071 9.92537 25.6732 9.87121 25.7393 9.81785C26.4084 9.4459 27.0885 9.09944 27.8818 8.88918C28.0538 8.96325 28.108 8.89475 28.1518 8.80635C28.1988 8.79042 28.2458 8.77529 28.3485 8.77847C28.5206 8.84537 28.5715 8.77529 28.6114 8.68369C28.6576 8.66776 28.7046 8.65263 28.8057 8.65741C28.9809 8.73148 29.0303 8.65821 29.0701 8.56343C29.1171 8.54909 29.1633 8.53396 29.2645 8.54033C29.4349 8.61838 29.4875 8.5475 29.5297 8.4567C29.6101 8.436 29.6914 8.41529 29.8307 8.41688C30.006 8.50449 30.0593 8.43201 30.1039 8.34122C30.1852 8.3221 30.2664 8.30299 30.4082 8.30697C30.5627 8.37547 30.6208 8.33644 30.6591 8.25122C30.7865 8.22414 30.9147 8.19626 31.1051 8.19467C31.293 8.27591 31.3966 8.26316 31.4635 8.12936C31.6267 8.10148 31.7908 8.07361 32.017 8.07201C32.2161 8.17396 32.3228 8.14051 32.3993 8.00511Z" fill="#FF835B"/>
<path d="M32.0406 34.0946C31.4512 34.3096 30.8578 34.5135 30.274 34.7421C28.8882 35.2853 27.5366 35.9065 26.2185 36.597C25.6108 36.9148 25.0198 37.2629 24.4201 37.5966C24.037 37.81 23.6579 38.0299 23.2692 38.2322C22.0339 38.8757 20.8105 39.5455 19.5513 40.1397C18.5709 40.6024 17.5666 41.0229 16.5224 41.3328C16.176 41.4355 15.8335 41.5534 15.4639 41.5502C15.3524 41.5494 15.2409 41.5908 15.1286 41.6099C15.0354 41.6259 14.9375 41.6617 14.8475 41.649C13.9308 41.5144 12.9758 41.5271 12.1523 41.011C11.7819 40.7784 11.4371 40.5076 11.0699 40.2695C10.3133 39.7797 9.84256 39.0318 9.31132 38.3397C9.08035 38.0386 8.87725 37.7153 8.6654 37.3999C8.20425 36.7125 7.90717 35.9511 7.65788 35.1682C7.62602 35.067 7.57744 34.9715 7.53284 34.8647C7.49938 34.9094 7.47788 34.938 7.42372 34.993C7.39027 35.0193 7.34487 35.0105 7.34487 35.0105C7.34248 34.7007 7.18478 34.402 7.32098 34.0213C7.4739 33.815 7.48744 33.6693 7.37514 33.5195C7.38469 33.4375 7.39425 33.3555 7.44363 33.2113C7.57505 33.0417 7.57664 32.9246 7.5185 32.8019C7.53124 32.7541 7.54319 32.7064 7.59018 32.5972C7.62921 32.434 7.63398 32.332 7.63876 32.2301C7.64991 32.1823 7.66186 32.1337 7.70566 32.0278C7.73912 31.9027 7.74071 31.835 7.74151 31.7681C7.75982 31.6861 7.77894 31.6041 7.82991 31.4607C7.86814 31.3333 7.87372 31.2672 7.87929 31.2011C7.94699 30.9557 8.01549 30.7096 8.11584 30.438C8.24885 30.4205 8.33566 30.45 8.36593 30.5607C8.45035 30.8729 8.52442 31.1883 8.62079 31.4965C8.70044 31.7506 8.79124 32.0031 8.90194 32.2452C9.21973 32.9389 9.5638 33.6223 9.87202 34.32C10.0329 34.6848 10.1548 35.0694 10.2695 35.4525C10.3985 35.8802 10.6135 36.2601 10.8748 36.6146C11.1456 36.9825 11.4227 37.3465 11.719 37.6938C12.1937 38.2505 12.756 38.7092 13.4019 39.0533C13.617 39.168 13.8615 39.2373 14.1004 39.293C14.5066 39.3878 14.9128 39.5176 15.3381 39.4746C15.6782 39.4396 16.0215 39.4069 16.352 39.3257C17.3149 39.0915 18.2762 38.8534 19.1937 38.4623C20.2307 38.0203 21.2574 37.5639 22.2298 36.9881C23.1322 36.4537 24.0601 35.9607 24.9657 35.431C26.0528 34.7947 27.1352 34.1487 28.2789 33.6159C29.5246 33.0361 30.7774 32.4722 32.1353 32.1966C32.3775 32.1472 32.6172 32.0899 32.9047 32.0748C32.8115 32.4786 32.6849 32.8505 32.5272 33.2081C32.434 33.42 32.3591 33.6247 32.3647 33.8859C32.2421 33.9743 32.1409 34.0348 32.0406 34.0946Z" fill="#F28F6B"/>
<path d="M37.1063 7.75535C37.6646 7.75136 38.2229 7.7434 38.7812 7.7442C38.9485 7.7442 39.1157 7.77048 39.3579 7.82066C39.6502 7.92818 39.866 7.97756 40.0699 7.81906C40.4211 7.84614 40.7732 7.87322 41.1937 7.93614C41.3777 8.0134 41.4924 8.05481 41.6469 8.11136C41.4995 8.26428 41.3713 8.37738 41.2678 8.50959C41.1276 8.688 40.9834 8.86879 40.8807 9.0695C40.5963 9.62702 40.8074 10.0077 41.2909 10.2435C41.3761 10.2849 41.4669 10.3183 41.5593 10.3406C41.8731 10.4155 42.1861 10.4967 42.5039 10.5525C43.2708 10.6855 44.0434 10.7851 44.8064 10.9356C46.0728 11.1857 47.3423 11.4318 48.5944 11.7416C50.1817 12.1343 51.7802 12.4871 53.3349 13.0032C53.389 13.0215 53.4408 13.0478 53.4957 13.0621C55.0281 13.4683 56.4928 14.0617 57.9487 14.6805C58.0841 14.7379 58.2004 14.8422 58.2992 14.9545C57.7759 14.9003 57.2797 14.8143 56.7819 14.7331C56.4482 14.6781 56.1145 14.6176 55.7784 14.5842C55.5163 14.5579 55.2567 14.5372 54.9947 14.4997C54.5877 14.4424 54.1664 14.4806 53.7514 14.487C53.7052 14.4878 53.6606 14.5475 53.5698 14.5794C53.3293 14.5977 53.162 14.5173 52.99 14.4408C52.7176 14.3189 52.4396 14.2082 52.0996 14.2027C50.7886 13.8068 49.4808 13.5591 48.1706 13.3401C47.3471 13.2031 46.5291 13.0303 45.6953 12.9403C44.753 12.8383 43.8196 12.6583 42.8822 12.5118C42.6568 12.4767 42.4338 12.4282 42.2076 12.4035C41.7353 12.3517 41.2606 12.3214 40.7891 12.2657C40.2993 12.2075 39.8142 12.092 39.3236 12.0697C38.7151 12.0419 38.117 11.8794 37.5029 11.9351C37.4472 11.9399 37.3842 11.9383 37.3325 11.9192C37.0187 11.799 36.6921 11.8356 36.3688 11.8284C36.0438 11.8213 35.7109 11.8595 35.3979 11.7958C35.0745 11.7305 34.7559 11.7185 34.4326 11.7105C34.337 11.7082 34.2406 11.7097 34.1466 11.6954C33.6775 11.6253 33.2076 11.5584 32.7409 11.4764C32.3236 11.4031 31.9285 11.2629 31.5988 10.9858C31.4355 10.8488 31.414 10.6807 31.5518 10.5358C31.7342 10.343 31.919 10.1383 32.1396 9.99737C32.6214 9.69153 33.1121 9.39127 33.6274 9.14755C34.1594 8.89587 34.7225 8.70631 35.276 8.50242C35.8304 8.29773 36.3903 8.11057 36.9446 7.90747C37.0099 7.88358 37.0537 7.80712 37.1063 7.75535Z" fill="#FF835B"/>
<path d="M24.4332 10.4851C24.3687 10.7838 24.1831 11.0155 23.9442 11.221C23.7291 11.4066 23.5284 11.6161 23.3564 11.8415C22.9876 12.3249 22.591 12.7845 22.3075 13.3356C22.055 13.827 21.7754 14.3033 21.5771 14.8218C21.4138 15.2495 21.1988 15.6605 21.0753 16.0985C20.9678 16.4784 20.9304 16.883 20.9081 17.2797C20.8906 17.5919 21.0849 17.7846 21.4043 17.7846C21.9745 17.7846 22.5424 17.8149 23.1167 17.7082C23.6375 17.611 24.1696 17.5568 24.6913 17.4501C25.1389 17.3585 25.5841 17.2582 26.0325 17.1737C26.6115 17.0654 27.1937 16.9754 27.7727 16.8663C28.4266 16.7429 29.0765 16.5979 29.7312 16.4776C30.1422 16.4028 30.5579 16.3534 30.9721 16.2984C31.5185 16.226 32.0648 16.1583 32.6112 16.0914C32.7251 16.0778 32.8398 16.073 32.9545 16.0699C33.2213 16.0611 33.4857 16.0722 33.7485 15.9854C33.8887 15.9392 34.0512 15.9615 34.2041 15.956C34.4709 15.9464 34.737 15.9655 34.999 15.8739C35.1208 15.8317 35.2634 15.85 35.3972 15.8421C36.0256 15.8046 36.6588 15.9058 37.2832 15.7664C37.8121 15.8843 38.3489 15.8158 38.8817 15.8365C39.4711 15.8596 40.0668 15.7799 40.649 15.9424C40.7207 15.9623 40.8012 15.9512 40.8776 15.9496C41.6247 15.9297 42.359 16.0324 43.091 16.1654C43.1658 16.179 43.2439 16.1861 43.3196 16.1814C43.6286 16.1614 43.9272 16.2188 44.2657 16.3375C44.2283 16.4506 44.1582 16.5398 44.0674 16.5891C43.7425 16.7652 43.4072 16.9205 43.0846 17.0997C43.0153 17.1379 42.9827 17.2414 42.8887 17.3179C42.7262 17.3283 42.6091 17.3362 42.4912 17.3434C42.2197 17.2383 41.9385 17.2167 41.6494 17.2144C41.1174 17.2104 40.5821 17.251 40.0557 17.1148C39.9298 17.0821 39.7897 17.1052 39.6559 17.1052C38.6818 17.1044 37.7077 17.1005 36.7337 17.1044C36.3346 17.106 35.9332 17.0718 35.5406 17.1968C35.4354 17.2303 35.3128 17.204 35.1989 17.216C34.9536 17.2414 34.7099 17.2765 34.4646 17.3012C34.3132 17.3163 34.1603 17.3227 34.0074 17.3275C33.684 17.337 33.3575 17.3044 33.0445 17.4214C32.9927 17.4406 32.9314 17.4374 32.874 17.4382C32.2257 17.4477 31.5917 17.5807 30.9506 17.6476C29.8515 17.7623 28.7803 18.01 27.6987 18.2131C27.1396 18.3182 26.5733 18.3859 26.011 18.4728C25.7673 18.5102 25.5236 18.5484 25.2806 18.593C24.6825 18.7021 24.078 18.7595 23.4767 18.8415C22.8857 18.922 22.3003 18.9299 21.7109 18.9291C21.5421 18.9291 21.374 18.8805 21.2052 18.8614C20.3681 18.7659 19.809 18.0244 19.7596 17.1307C19.7285 16.5756 19.7915 16.0348 19.9595 15.4972C20.1594 14.8584 20.4183 14.2444 20.6915 13.6383C20.8627 13.2584 21.1008 12.9095 21.331 12.5081C21.2976 12.4818 21.2458 12.442 21.1566 12.3934C21.1789 12.3162 21.2251 12.223 21.3007 12.1808C22.2756 11.628 23.2553 11.0824 24.2341 10.5369C24.2811 10.5114 24.3384 10.5002 24.4332 10.4851Z" fill="#FFB18D"/>
<path d="M37.0547 7.73569C37.0547 7.80578 37.0109 7.88224 36.948 7.90534C36.3936 8.10844 35.8329 8.2956 35.2794 8.50029C34.7259 8.70498 34.1628 8.89374 33.6307 9.14542C33.1154 9.38914 32.6248 9.6894 32.1429 9.99524C31.9215 10.1354 31.7375 10.3401 31.5552 10.5336C31.4174 10.6794 31.4389 10.8474 31.6022 10.9836C31.9319 11.2608 32.3269 11.401 32.7443 11.4743C33.211 11.5563 33.6809 11.6232 34.15 11.6933C34.244 11.7076 34.3404 11.706 34.4359 11.7084C34.7593 11.7164 35.0779 11.7283 35.4012 11.7936C35.7142 11.8566 36.048 11.8191 36.3721 11.8263C36.6955 11.8335 37.022 11.7976 37.3358 11.9171C37.3876 11.937 37.4497 11.9386 37.5063 11.933C38.1203 11.8773 38.7185 12.0397 39.327 12.0676C39.8176 12.0899 40.3026 12.2054 40.7924 12.2635C41.264 12.3193 41.7386 12.3496 42.2109 12.4013C42.4371 12.426 42.6601 12.4746 42.8855 12.5096C43.823 12.6562 44.7564 12.8362 45.6986 12.9381C46.5325 13.0289 47.3505 13.201 48.174 13.338C49.485 13.5562 50.7919 13.8047 52.0719 14.2332C51.7158 14.3511 51.3622 14.4076 51.007 14.4578C50.651 14.508 50.291 14.5382 49.9381 14.6051C49.8187 14.6274 49.7143 14.7349 49.5535 14.8042C49.2699 14.8066 49.0366 14.8074 48.8032 14.809C48.5292 14.7365 48.2592 14.6434 47.9805 14.5948C46.7842 14.3861 45.5863 14.1894 44.3892 13.9895C43.5108 13.8429 42.6323 13.69 41.7514 13.5594C41.3014 13.4925 40.8442 13.4742 40.3918 13.424C39.8837 13.3666 39.3764 13.2981 38.8682 13.2336C38.8308 13.2288 38.7941 13.2129 38.7567 13.2105C38.1697 13.1667 37.5819 13.1189 36.9942 13.0847C36.6716 13.0656 36.349 13.0942 36.0304 12.9931C35.8903 12.9485 35.7278 12.9732 35.5749 12.9692C35.2706 12.9612 34.9648 12.9875 34.6685 12.8776C34.5825 12.8458 34.4797 12.8561 34.385 12.8561C33.5989 12.8529 32.8327 12.6896 32.0848 12.4826C31.6332 12.3575 31.2031 12.1154 30.7993 11.8677C30.3135 11.5698 30.1335 10.9056 30.3207 10.3584C30.4943 9.85188 30.8057 9.45126 31.2597 9.1733C31.7304 8.88498 32.2138 8.61817 32.6909 8.3402C32.8351 8.25658 33.0214 8.21755 33.0644 7.97383C33.1728 7.89817 33.2747 7.83286 33.379 7.82808C34.4168 7.7803 35.4546 7.74127 36.4924 7.70384C36.6612 7.69906 36.8317 7.7126 37.0547 7.73569Z" fill="#FFB18D"/>
<path d="M58.3255 14.9245C58.2004 14.8417 58.0842 14.7381 57.9488 14.68C56.4936 14.0619 55.029 13.4686 53.4958 13.0616C53.4408 13.0473 53.3891 13.021 53.3349 13.0027C51.7802 12.4866 50.1809 12.1337 48.5944 11.7411C47.3416 11.4313 46.0728 11.1851 44.8065 10.9351C44.0434 10.7845 43.2701 10.685 42.5039 10.552C42.1861 10.497 41.8731 10.4158 41.5593 10.3401C41.4677 10.3178 41.3761 10.2844 41.2909 10.2429C40.8066 10.0072 40.5956 9.62648 40.8807 9.06896C40.9827 8.86826 41.1276 8.68746 41.2678 8.50906C41.3721 8.37684 41.4996 8.26375 41.6469 8.11083C41.4924 8.05428 41.3769 8.01286 41.2407 7.94039C41.2877 7.88702 41.3578 7.84083 41.4239 7.8464C41.6477 7.86552 41.8699 7.90375 42.0929 7.93402C42.7054 8.01685 43.3179 8.09888 43.9303 8.1841C43.9654 8.18888 43.9972 8.21516 44.0363 8.30277C43.8308 8.45729 43.6205 8.54091 43.4095 8.62295C43.0192 8.77507 42.6273 8.92242 42.2403 9.0825C42.1359 9.12551 42.0372 9.20118 42.1184 9.38755C42.5652 9.43772 43.0375 9.47277 43.5027 9.54763C44.3262 9.67985 45.1489 9.82321 45.9669 9.98569C46.9529 10.1824 47.9413 10.3791 48.9162 10.6228C50.0774 10.9128 51.2251 11.2576 52.3807 11.5714C53.722 11.9354 55.0481 12.3416 56.3527 12.8243C57.8189 13.3666 59.2709 13.9369 60.6647 14.6473C60.7985 14.7158 60.949 14.7509 61.0916 14.8019C61.0916 14.8019 61.0828 14.805 61.0972 14.821C61.1569 14.8194 61.2015 14.8019 61.2461 14.7835C61.3186 14.7979 61.4102 14.7899 61.4611 14.8313C61.8546 15.1507 62.2918 15.4255 62.5435 15.901C62.3747 15.8747 62.248 15.7855 62.1071 15.7456C61.1696 15.4772 60.2226 15.2447 59.2621 15.0726C59.2239 15.0655 59.1737 15.1276 59.0869 15.1507C58.8057 15.0726 58.5652 14.9986 58.3255 14.9245Z" fill="#FFB18D"/>
<path d="M61.1057 14.7629C60.9504 14.7525 60.7998 14.7175 60.666 14.649C59.2714 13.9386 57.8195 13.3683 56.354 12.8259C55.0494 12.3433 53.7233 11.9371 52.3821 11.5731C51.2264 11.2593 50.0788 10.9152 48.9175 10.6245C47.9419 10.3808 46.9543 10.1841 45.9682 9.98735C45.1503 9.82408 44.3275 9.68151 43.504 9.5493C43.0389 9.47443 42.5666 9.44019 42.1198 9.38921C42.0385 9.20284 42.1373 9.12718 42.2416 9.08417C42.6287 8.92408 43.0206 8.77754 43.4108 8.62462C43.6219 8.54178 43.8322 8.45895 44.0615 8.34267C44.4637 8.23594 44.8309 8.36417 45.2005 8.41913C45.6098 8.48046 46.0105 8.59674 46.4812 8.73293C46.6245 8.77992 46.7026 8.78391 46.7798 8.78789C47.4305 8.93364 48.0868 9.05789 48.7304 9.22992C50.2595 9.63771 51.784 10.0646 53.2717 10.6102C55.1729 11.3071 57.0278 12.1123 58.8023 13.0887C59.4196 13.428 60.005 13.8263 60.5936 14.2149C60.7935 14.3495 61.0181 14.477 61.1057 14.7629Z" fill="#FF835B"/>
<path d="M58.3011 14.9539C58.568 14.9977 58.8077 15.0718 59.108 15.1873C59.1948 15.2558 59.2171 15.2916 59.2497 15.3067C59.9872 15.6492 60.7383 15.9654 61.4623 16.3358C62.2874 16.7579 63.087 17.2302 63.901 17.6746C64.0125 17.7359 64.1447 17.7598 64.2674 17.8012C64.4569 18.0059 64.6465 18.2114 64.856 18.4878C64.95 18.7554 65.0742 18.9003 65.2884 18.9497C65.6596 19.3344 65.9638 19.7685 66.2442 20.3077C66.421 20.7601 66.5476 21.1535 66.8312 21.4633C66.8431 21.5024 66.8543 21.5414 66.8511 21.6656C66.8455 21.8249 66.8543 21.8982 66.863 21.9723C66.8495 22.0798 66.8368 22.1881 66.7698 22.3339C66.6153 22.3721 66.5325 22.3482 66.4943 22.2383C66.4568 22.1316 66.4075 22.028 66.3605 21.8815C66.249 21.4952 66.1653 21.1256 65.9161 20.8612C65.4748 20.3921 64.9946 19.9604 64.5007 19.512C64.4522 19.5104 64.4331 19.5104 64.4131 19.512C64.4131 19.5136 64.4163 19.5128 64.3996 19.4778C63.8437 18.8621 63.1946 18.4448 62.4626 18.1493C62.3049 18.0856 62.1448 18.0234 61.9967 17.9406C61.4185 17.6157 60.8554 17.27 60.2381 17.0072C59.1008 16.5229 57.9435 16.096 56.7767 15.6922C55.8082 15.3561 54.8342 15.0383 53.8633 14.7094C53.7765 14.6799 53.6984 14.625 53.6172 14.582C53.6626 14.5501 53.708 14.4904 53.7534 14.4896C54.1683 14.4832 54.5897 14.445 54.9966 14.5023C55.2579 14.5389 55.5183 14.5605 55.7804 14.5867C56.1165 14.6202 56.4502 14.6815 56.7839 14.7357C57.2809 14.8137 57.7771 14.8997 58.3011 14.9539Z" fill="#F76342"/>
<path d="M14.5195 17.4275C14.5363 17.5032 14.5442 17.6131 14.4941 17.68C14.1532 18.1379 14.048 18.6827 13.9095 19.2147C13.8091 19.5994 13.7287 19.9897 13.6259 20.3744C13.4491 21.0354 13.3097 21.7013 13.3161 22.3902C13.3209 22.9613 13.3161 23.5331 13.2747 24.1599C13.1321 24.1743 12.9927 24.1615 12.9378 24.0867C12.6805 23.7394 12.4496 23.373 12.2035 23.0178C12.1302 22.9127 12.0378 22.8219 11.9518 22.6714C11.9478 22.2771 11.943 21.9362 11.9438 21.5945C11.9446 21.4384 11.9342 21.2911 11.8068 21.1788C11.8012 20.9168 11.9287 20.7057 12.0776 20.509C12.7944 19.562 13.516 18.6174 14.2392 17.6752C14.3069 17.586 14.4017 17.5183 14.5195 17.4275Z" fill="#FFB18D"/>
<path d="M64.2669 17.7625C64.1419 17.7601 64.0096 17.7363 63.8981 17.6749C63.0842 17.2305 62.2845 16.7582 61.4594 16.3361C60.7362 15.9657 59.9852 15.6495 59.2468 15.3071C59.2142 15.2919 59.1919 15.2553 59.1465 15.194C59.1728 15.1287 59.2229 15.0673 59.2612 15.0737C60.2217 15.2457 61.1687 15.4783 62.1061 15.7467C62.2471 15.7873 62.3737 15.8765 62.5521 15.9402C63.214 16.4786 63.7962 17.0505 64.2669 17.7625Z" fill="#F28F6B"/>
<path d="M11.7775 21.2078C11.9336 21.289 11.9439 21.4363 11.9431 21.5925C11.9416 21.9333 11.9463 22.275 11.9145 22.7019C11.8651 22.8413 11.838 22.8955 11.8356 22.9496C11.799 23.8791 11.8229 24.8038 12.0427 25.7141C11.8101 25.695 11.6747 25.5254 11.5601 25.3605C11.3466 25.0546 11.1387 24.74 10.9747 24.4063C10.8982 24.251 10.9237 24.0424 10.9109 23.8576C10.9014 23.7246 10.9062 23.5908 10.7007 23.5262C10.6656 23.4601 10.664 23.3996 10.6879 23.351C11.04 22.6462 11.3944 21.9429 11.7775 21.2078Z" fill="#FB744F"/>
<path d="M66.3611 21.9229C66.4049 22.0273 66.4543 22.1308 66.4917 22.2375C66.5308 22.3474 66.6128 22.3721 66.7522 22.3713C66.7888 22.5234 66.7872 22.6756 66.7912 22.8731C66.6136 22.9583 66.4663 22.8826 66.3332 22.7696C66.1644 22.6262 65.9971 22.4804 65.8036 22.306C65.7144 22.1842 65.6499 22.0918 65.5742 21.9325C65.5997 21.8066 65.6371 21.7485 65.716 21.6943C65.9573 21.7732 66.1588 21.8481 66.3611 21.9229Z" fill="#F28F6B"/>
<path d="M9.45547 26.2717C9.52477 26.5489 9.3591 26.7958 9.27388 27.0602C9.00229 27.9029 8.71557 28.7407 8.43123 29.5802C8.38981 29.7037 8.33088 29.8215 8.24805 29.9625C8.24805 29.7817 8.25362 29.5714 8.31734 29.3803C8.65504 28.3784 9.00786 27.382 9.35751 26.384C9.36946 26.3498 9.39972 26.3219 9.45547 26.2717Z" fill="#FFB18D"/>
<path d="M66.8484 21.4345C66.5458 21.1525 66.4191 20.7591 66.2559 20.3441C66.3029 20.333 66.3697 20.3529 66.3913 20.3959C66.5545 20.7304 66.7098 21.0697 66.8484 21.4345Z" fill="#F28F6B"/>
<path d="M7.41797 35.5024C7.60195 35.7278 7.63779 36.0146 7.64974 36.3483C7.59558 36.3562 7.52788 36.326 7.51912 36.2838C7.46894 36.0345 7.4331 35.7828 7.41797 35.5024Z" fill="#D4C3BF"/>
<path d="M40.0402 7.79067C39.8658 7.97863 39.65 7.92925 39.4062 7.82491C39.5847 7.65846 39.7981 7.71023 40.0402 7.79067Z" fill="#FFB18D"/>
<path d="M14.9972 16.8696C15.0307 17.1054 14.8714 17.2304 14.638 17.3332C14.6205 17.1078 14.783 16.9875 14.9972 16.8696Z" fill="#FFB18D"/>
<path d="M65.2884 18.9123C65.0726 18.9004 64.9483 18.7554 64.8711 18.5212C65.0845 18.534 65.2 18.6901 65.2884 18.9123Z" fill="#F28F6B"/>
<path d="M20.6394 12.6467C20.6314 12.865 20.4467 12.9064 20.2324 12.9589C20.2595 12.763 20.4379 12.7152 20.6394 12.6467Z" fill="#FFB18D"/>
<path d="M20.0687 12.9949C20.0567 13.2091 19.8727 13.2481 19.6641 13.3055C19.6856 13.1048 19.8648 13.0586 20.0687 12.9949Z" fill="#FFB18D"/>
<path d="M10.3729 24.0659C10.4693 24.2507 10.3729 24.4044 10.2025 24.5589C10.134 24.3789 10.2455 24.2364 10.3729 24.0659Z" fill="#F28F6B"/>
<path d="M7.34143 33.5464C7.48718 33.6698 7.47444 33.8148 7.33346 33.9765C7.24426 33.8546 7.23391 33.7136 7.34143 33.5464Z" fill="#D4C3BF"/>
<path d="M7.48678 32.822C7.57598 32.9248 7.57519 33.0418 7.45492 33.1717C7.35775 33.0705 7.34979 32.9518 7.48678 32.822Z" fill="#D4C3BF"/>
<path d="M7.61027 32.2434C7.63336 32.331 7.62858 32.433 7.59274 32.5596C7.44938 32.468 7.4685 32.3597 7.61027 32.2434Z" fill="#D4C3BF"/>
<path d="M31.4392 8.10804C31.397 8.26494 31.2935 8.27689 31.1445 8.19565C31.1931 8.05388 31.2975 8.04751 31.4392 8.10804Z" fill="#FFB18D"/>
<path d="M32.3644 7.98407C32.3238 8.14018 32.2171 8.17363 32.0586 8.07407C32.1128 7.94584 32.2171 7.94106 32.3644 7.98407Z" fill="#FFB18D"/>
<path d="M17.3153 14.7205C17.3288 14.8248 17.2731 14.8933 17.1289 14.91C17.1552 14.8447 17.2173 14.7818 17.3153 14.7205Z" fill="#FFB18D"/>
<path d="M17.6634 14.4939C17.6753 14.5982 17.6188 14.6659 17.4746 14.6803C17.5017 14.6158 17.5646 14.5536 17.6634 14.4939Z" fill="#FFB18D"/>
<path d="M7.32313 35.0285C7.34384 35.0117 7.38924 35.0197 7.41154 35.0269C7.43225 35.0826 7.43145 35.132 7.41313 35.2132C7.30243 35.2093 7.24508 35.1543 7.32313 35.0285Z" fill="#D4C3BF"/>
<path d="M18.0079 14.2671C18.0183 14.3706 17.9609 14.4367 17.8184 14.4511C17.8454 14.3874 17.9092 14.326 18.0079 14.2671Z" fill="#FFB18D"/>
<path d="M18.5787 13.9155C18.5907 14.023 18.5357 14.0947 18.3828 14.0987C18.4115 14.035 18.4776 13.9745 18.5787 13.9155Z" fill="#FFB18D"/>
<path d="M18.9283 13.6958C18.8996 13.7595 18.8359 13.8185 18.7363 13.8758C18.765 13.8137 18.8287 13.7523 18.9283 13.6958Z" fill="#FFB18D"/>
<path d="M19.4998 13.3455C19.511 13.4522 19.4544 13.5223 19.3047 13.5278C19.3334 13.4633 19.3995 13.4028 19.4998 13.3455Z" fill="#FFB18D"/>
<path d="M20.9909 12.4282C21.0012 12.5349 20.9447 12.6042 20.7949 12.6098C20.8244 12.5461 20.8897 12.4856 20.9909 12.4282Z" fill="#FFB18D"/>
<path d="M25.7053 9.81104C25.6735 9.87316 25.6082 9.92732 25.5078 9.97749C25.5389 9.91696 25.605 9.85962 25.7053 9.81104Z" fill="#FFB18D"/>
<path d="M28.119 8.78931C28.1078 8.89603 28.0537 8.96373 27.9238 8.88807C27.9668 8.8355 28.0266 8.80285 28.119 8.78931Z" fill="#FFB18D"/>
<path d="M46.764 8.76187C46.7018 8.78417 46.6238 8.78098 46.5234 8.74275C46.5951 8.60576 46.6732 8.65753 46.764 8.76187Z" fill="#FFB18D"/>
<path d="M28.5787 8.66919C28.5723 8.77671 28.5213 8.8476 28.3867 8.7791C28.4273 8.72255 28.4863 8.68751 28.5787 8.66919Z" fill="#FFB18D"/>
<path d="M29.0373 8.54858C29.0317 8.65929 28.9815 8.73336 28.8438 8.6569C28.8852 8.60115 28.9449 8.5669 29.0373 8.54858Z" fill="#FFB18D"/>
<path d="M29.4987 8.43994C29.4891 8.54906 29.4365 8.61994 29.3027 8.54109C29.3457 8.48613 29.4055 8.45428 29.4987 8.43994Z" fill="#FFB18D"/>
<path d="M30.0714 8.32324C30.0586 8.43236 30.0053 8.50483 29.873 8.41643C29.9169 8.36466 29.9782 8.33519 30.0714 8.32324Z" fill="#FFB18D"/>
<path d="M30.638 8.23127C30.6189 8.33879 30.5607 8.37782 30.4492 8.30932C30.4691 8.201 30.532 8.17552 30.638 8.23127Z" fill="#FFB18D"/>
<path d="M9.7933 25.4399C9.86738 25.5228 9.86817 25.6176 9.72959 25.706C9.71764 25.6343 9.74154 25.5483 9.7933 25.4399Z" fill="#F28F6B"/>
<path d="M10.0326 24.8687C10.1003 24.9531 10.0963 25.0479 9.96091 25.1323C9.95136 25.0598 9.97764 24.9746 10.0326 24.8687Z" fill="#F28F6B"/>
<path d="M66.8851 21.9547C66.8516 21.8974 66.8421 21.8233 66.8469 21.6951C66.9831 21.7221 66.9998 21.8217 66.8851 21.9547Z" fill="#F28F6B"/>
<path d="M7.85263 31.2109C7.87334 31.2667 7.86776 31.3328 7.83351 31.418C7.69254 31.3543 7.73316 31.285 7.85263 31.2109Z" fill="#D4C3BF"/>
<path d="M7.71841 31.7798C7.74071 31.8347 7.73992 31.9016 7.70965 31.9901C7.58063 31.9311 7.61169 31.8602 7.71841 31.7798Z" fill="#D4C3BF"/>
<path d="M61.2052 14.7725C61.2028 14.8027 61.1582 14.821 61.0977 14.8179C61.1088 14.7844 61.1359 14.7725 61.2052 14.7725Z" fill="#FF835B"/>
<path d="M48.7258 47.8007C48.5426 47.8215 48.4096 47.8374 48.2766 47.8446C47.1289 47.9091 46.2337 47.4392 45.5631 46.5304C45.1417 45.9593 44.8009 45.3389 44.554 44.6715C44.1533 43.5899 43.9025 42.4733 43.7957 41.3256C43.6038 39.2596 43.6755 37.1975 44.0211 35.1546C44.3509 33.2097 45.0406 31.3898 46.2201 29.7897C47.3097 28.3123 48.7226 27.2243 50.3991 26.4796C50.7129 26.3403 51.0371 26.2216 51.3581 26.0981C52.5679 25.6322 53.8143 25.5637 55.0855 25.7588C55.8174 25.8711 56.4833 26.1467 57.0902 26.5657C58.5668 27.5875 59.5146 28.9853 59.9893 30.7048C60.2489 31.6462 60.3962 32.6123 60.4687 33.5856C60.585 35.1491 60.628 36.7149 60.5946 38.2839C60.577 39.1122 60.3485 39.8665 59.8993 40.5546C59.2629 41.5295 58.4417 42.3267 57.4653 42.9519C56.4522 43.6018 55.416 44.2167 54.3878 44.8435C53.3922 45.4504 52.399 46.0613 51.3947 46.6539C50.5696 47.1389 49.7245 47.5865 48.7258 47.8007ZM48.0894 33.9599C48.0894 33.9599 48.0918 33.9735 48.0257 34.0213C47.9429 34.2594 47.8202 34.488 47.8322 34.8034C47.8322 34.8034 47.8338 34.8583 47.7788 34.9141C47.7669 35.0152 47.7549 35.1164 47.7047 35.2988C47.3925 36.597 47.1751 37.9048 47.2372 39.2946C47.2085 39.4029 47.1918 39.5096 47.285 39.6896C47.2946 39.9748 47.2707 40.2655 47.3846 40.6326C47.3607 41.3765 47.5638 42.0663 47.8959 42.7225C48.1284 43.1821 48.5354 43.4617 48.956 43.7245C48.9687 43.7325 48.9934 43.7221 49.0985 43.7619C49.21 43.7858 49.3207 43.8145 49.433 43.832C49.9173 43.9069 50.3768 43.8639 50.8061 43.5907C51.1271 43.3868 51.4728 43.2219 51.7977 43.0244C52.9685 42.3116 54.1377 41.5964 55.3005 40.87C55.4909 40.7513 55.6693 40.596 55.8111 40.4232C56.1742 39.9827 56.5191 39.5272 56.8584 39.0676C56.9691 38.9179 57.075 38.7458 57.118 38.5674C57.2033 38.2186 57.2431 37.8578 57.361 37.4413C57.4717 37.2772 57.5067 37.0948 57.5075 36.8989C57.5123 36.1367 57.541 35.3745 57.5282 34.6122C57.5091 33.4566 57.2765 32.3455 56.7604 31.3022C56.6672 31.1142 56.5669 30.9302 56.4809 30.7391C56.1639 30.031 55.6167 29.538 54.974 29.1422C54.6108 28.9184 54.199 28.7925 53.7729 28.8507C53.2282 28.9248 52.6842 29.0331 52.1474 29.3851C51.4178 29.714 50.8173 30.2397 50.1634 30.6849C50.1506 30.6937 50.1499 30.7192 50.0782 30.7741C49.6776 31.1596 49.3861 31.6231 49.0539 32.1313C49.0189 32.2117 48.9846 32.2922 48.8994 32.4347C48.7465 32.6625 48.588 32.8863 48.4446 33.1197C48.3793 33.2264 48.3443 33.353 48.2463 33.5044C48.2392 33.5418 48.232 33.5792 48.1969 33.6629C48.1969 33.6629 48.189 33.7154 48.134 33.7569C48.1237 33.8222 48.1117 33.8867 48.0894 33.9599Z" fill="#392B52"/>
<path d="M38.023 32.544C38.3551 32.6053 38.5343 32.7988 38.68 33.0282C38.8067 33.2297 38.8561 33.4527 38.7716 33.6829C38.6418 34.0389 38.5335 34.4085 38.3519 34.7374C38.2189 34.9787 37.9999 35.1826 37.788 35.369C37.5841 35.549 36.9748 35.4948 36.7701 35.3125C36.5328 35.1006 36.3839 34.8481 36.3958 34.516C36.4038 34.3073 36.387 34.0971 36.399 33.8884C36.4332 33.2855 36.7558 32.8634 37.2616 32.5687C37.4893 32.4365 37.7362 32.4564 38.023 32.544Z" fill="#ECD8D6"/>
<path d="M65.8698 25.6489C65.7376 26.0001 65.5098 26.1928 65.1952 26.2669C64.6943 26.3848 64.081 25.9874 63.9758 25.476C63.9543 25.3717 63.9727 25.2443 64.0149 25.1455C64.1383 24.858 64.3183 24.619 64.6496 24.5426C64.7412 24.5211 64.8289 24.4828 64.9244 24.4502C65.5058 24.6206 65.8977 24.9448 65.8698 25.6489Z" fill="#ECD8D6"/>
<path d="M67.5559 43.5997C67.2102 43.5081 67.0095 43.3178 66.9554 43.0095C66.8932 42.6591 66.9785 42.327 67.1927 42.0474C67.3791 41.8037 67.6005 41.6189 67.9589 41.6508C68.4097 41.6914 68.7243 42.057 68.6319 42.5006C68.6008 42.648 68.5674 42.7953 68.5228 42.9395C68.4535 43.1617 68.3165 43.3401 68.1413 43.4946C67.9788 43.638 67.7885 43.6061 67.5559 43.5997Z" fill="#ECD8D6"/>
<path d="M61.6885 39.0851C61.7753 38.886 61.8566 38.7458 62.0246 38.6621C62.352 38.4989 62.5805 38.522 62.8458 38.776C62.9142 38.8414 62.9851 38.9067 63.0409 38.9815C63.0839 39.0405 63.1213 39.1121 63.1349 39.1822C63.185 39.4554 62.8617 39.9548 62.5765 40.0313C62.2237 40.126 61.8287 39.903 61.7267 39.6251C61.6646 39.4586 61.6471 39.2985 61.6885 39.0851Z" fill="#ECD8D6"/>
<path d="M62.2568 40.5132C62.5554 40.4766 62.7346 40.596 62.8987 40.7752C63.0461 40.9353 63.0461 41.1209 63.0301 41.3105C62.9959 41.7159 62.4957 41.9747 62.1357 41.7828C61.8641 41.6378 61.6602 41.4116 61.6881 41.1121C61.7144 40.8286 61.8745 40.5706 62.2568 40.5132Z" fill="#ECD8D6"/>
<path d="M37.5188 38.1836C37.4025 38.2473 37.3021 38.3278 37.236 38.3062C37.0807 38.2545 36.927 38.1716 36.8019 38.0673C36.7231 38.0012 36.696 37.873 36.6387 37.7591C36.6992 37.6396 36.743 37.513 36.8195 37.4102C36.9915 37.1809 37.2997 37.1155 37.5235 37.243C37.7521 37.3728 37.8429 37.6587 37.7274 37.9359C37.6924 38.0187 37.6103 38.0816 37.5188 38.1836Z" fill="#ECD8D6"/>
<path d="M66.6962 27.5446C66.5528 27.5438 66.4565 27.5541 66.3641 27.5398C66.0535 27.4912 65.8615 27.2539 65.9181 26.9998C65.9794 26.7266 66.3027 26.5554 66.5903 26.6438C66.8332 26.7186 67.053 27.034 67.0466 27.2945C67.0418 27.4944 66.9152 27.5454 66.6962 27.5446Z" fill="#ECD8D6"/>
<path d="M42.481 17.3822C42.6068 17.3368 42.7247 17.3289 42.9358 17.3257C43.7983 17.434 44.5645 17.5582 45.3482 17.6036C45.4088 17.7701 45.4813 17.7996 45.6278 17.6761C45.8317 17.6801 45.9878 17.6841 46.1511 17.7191C46.2124 17.8848 46.2849 17.9135 46.4298 17.7916C46.7142 17.8275 46.9531 17.8625 47.2199 17.9302C47.4127 17.9971 47.5911 18.0035 47.7384 18.0736C47.8786 18.1405 48.0928 18.0592 48.1868 18.2942C48.0642 18.3571 47.9566 18.4296 47.838 18.471C47.4819 18.5968 47.1204 18.7059 46.7643 18.831C46.6074 18.8859 46.4282 18.921 46.3765 19.1209C46.3032 19.1432 46.2307 19.1655 46.0762 19.1854C45.7409 19.2555 45.4781 19.312 45.3435 19.5797C45.1515 19.672 44.9588 19.7644 44.6848 19.8616C44.4395 19.9381 44.2698 19.9978 44.1161 20.0862C44.05 20.1244 44.0174 20.2224 43.9696 20.2933C43.9696 20.2933 43.925 20.3148 43.8597 20.3188C43.6191 20.3745 43.4328 20.4127 43.3961 20.6389C43.3961 20.6389 43.3531 20.6604 43.2918 20.6644C43.111 20.6804 43.0664 20.76 43.0513 20.8667C43.0513 20.8667 43.0091 20.8898 42.9485 20.8946C42.7653 20.9113 42.7215 20.9926 42.708 21.1009C42.6554 21.1383 42.6037 21.1765 42.485 21.2275C42.3034 21.2578 42.2612 21.3374 42.2476 21.441C42.1967 21.48 42.1457 21.519 42.027 21.5724C41.8399 21.6034 41.8008 21.6887 41.7881 21.7946C41.6607 21.9045 41.534 22.0136 41.3349 22.1411C41.0856 22.1936 40.9988 22.3067 40.9869 22.4827C40.7869 22.6707 40.587 22.8579 40.3027 23.0602C40.0462 23.0713 39.8638 23.1048 39.7054 23.0578C39.2179 22.9112 38.7233 22.9702 38.1817 22.959C37.9253 22.9797 37.7198 23.0084 37.5127 23.0227C37.0221 23.057 36.545 23.2083 36.0488 23.1876C36.1293 22.838 36.3849 22.5926 36.6127 22.3529C37.3216 21.6074 38.0455 20.8755 38.7942 20.1706C39.2203 19.7692 39.7125 19.4387 40.1633 19.0612C40.7336 18.5841 41.3676 18.2034 41.9904 17.8036C42.1624 17.6928 42.313 17.5487 42.481 17.3822Z" fill="#F76342"/>
<path d="M48.7924 14.8525C49.0345 14.8095 49.2679 14.8079 49.5793 14.8389C50.3415 15.0277 51.0288 15.1679 51.7082 15.3431C52.6464 15.586 53.5791 15.8488 54.5109 16.1148C55.0414 16.2662 55.5599 16.4597 56.0927 16.6015C57.105 16.8715 58.1037 17.1773 59.0802 17.5596C59.8982 17.8798 60.6962 18.2414 61.4513 18.689C61.7698 18.8778 62.0956 19.0092 62.4635 19.1C62.5384 19.2226 62.5942 19.3285 62.681 19.3851C62.9812 19.5802 63.2584 19.7977 63.522 20.0422C63.8645 20.36 64.2388 20.6427 64.606 20.9326C64.7446 21.0417 64.7589 21.1811 64.7534 21.3444C64.751 21.3531 64.7518 21.3715 64.7518 21.3715C64.661 21.3284 64.5702 21.2862 64.4403 21.1867C64.3543 21.021 64.2635 21.0059 64.1608 21.017C64.074 20.9796 63.988 20.9414 63.8637 20.8466C63.6439 20.5726 63.4058 20.4691 63.1294 20.442C62.9677 20.3671 62.806 20.2915 62.6037 20.1577C62.3735 19.8861 62.1394 19.7674 61.8511 19.765C61.546 19.6392 61.2418 19.5133 60.8882 19.3357C60.7822 19.178 60.689 19.1724 60.5863 19.1931C60.5106 19.178 60.435 19.1629 60.3107 19.0976C60.2215 19.0092 60.1881 18.9542 60.1395 18.9351C59.1893 18.5576 58.2073 18.2828 57.2165 18.0383C57.1767 18.0287 57.1201 18.0853 57.0715 18.1108C57.0198 18.1076 56.9688 18.1044 56.8692 18.059C56.7227 17.879 56.6144 17.879 56.4981 17.9937C56.4463 17.9921 56.3946 17.9897 56.2934 17.9443C56.1062 17.75 55.9605 17.7579 55.8092 17.879C55.7223 17.8766 55.6355 17.8734 55.4906 17.8232C55.2166 17.6201 54.9976 17.6313 54.7762 17.7643C54.6113 17.746 54.4464 17.7277 54.2091 17.6655C53.634 17.5023 53.1259 17.574 52.6201 17.5851C52.5668 17.5859 52.515 17.6775 52.4633 17.7277C52.3032 17.742 52.1439 17.7563 51.9033 17.7396C51.6429 17.6998 51.4605 17.6767 51.2821 17.6926C51.2128 17.699 51.1507 17.7938 51.0854 17.8487C51.0002 17.8631 50.9141 17.8774 50.7541 17.8599C50.1926 17.8312 49.7664 17.6393 49.3786 17.3748C49.1922 17.2482 49.0098 17.2084 48.7613 17.1972C48.5049 17.1144 48.2866 17.0515 48.0708 16.9822C47.3468 16.7488 46.5854 16.7074 45.8479 16.5417C45.5365 16.4717 45.2123 16.4549 44.8945 16.4135C44.9272 16.3482 44.9439 16.2447 44.9949 16.2232C45.8694 15.8504 46.7535 15.5024 47.6758 15.2634C47.988 15.1822 48.3026 15.1113 48.6132 15.0245C48.6777 15.0062 48.7271 14.9385 48.7924 14.8525Z" fill="#F76342"/>
<path d="M32.0384 34.1406C32.1403 34.0355 32.2415 33.975 32.4079 33.8858C32.6652 33.8029 32.8547 33.7408 33.0483 33.697C33.1876 33.6651 33.3318 33.658 33.4744 33.6396C33.3007 34.4791 33.0666 35.2971 32.7703 36.1047C32.4756 36.9067 32.2717 37.7414 32.028 38.5617C31.7413 39.5294 31.4434 40.4924 30.9225 41.4067C30.7178 41.4298 30.6334 41.5421 30.5323 41.6687C30.1396 42.1609 29.7239 42.6452 29.1695 42.9542C28.354 43.409 27.485 43.7483 26.5675 43.9442C26.4664 43.9657 26.3517 43.9275 26.2609 43.9187C26.1948 43.7769 26.2657 43.7068 26.3286 43.6376C26.7276 43.2003 27.1648 42.8053 27.6571 42.4755C27.8514 42.3457 28.0043 42.188 28.1397 41.9992C28.2719 41.8153 28.4352 41.652 28.5937 41.4879C29.1671 40.8962 29.6482 40.2359 30.009 39.4976C30.3172 38.866 30.5864 38.2145 30.8556 37.5646C30.9488 37.3384 30.9823 37.0883 31.0563 36.8526C31.2403 36.2719 31.4291 35.6937 31.7261 35.1561C31.8926 34.8534 32.024 34.5373 32.0384 34.1406Z" fill="#E85231"/>
<path d="M30.7233 54.9794C30.6612 54.7748 30.6118 54.6115 30.576 54.445C30.4732 53.9616 30.8444 53.4025 31.2187 53.2894C31.5381 53.193 31.906 53.1675 32.2206 53.3491C32.6077 53.5721 32.9144 53.8748 33.029 54.3319C33.1509 54.817 33.0171 55.2415 32.7041 55.6055C32.3943 55.9655 31.7404 56.0085 31.3453 55.6947C31.1096 55.5075 30.8714 55.3084 30.7233 54.9794Z" fill="#ECD8D6"/>
<path d="M38.2318 22.96C38.724 22.9695 39.2186 22.9114 39.7061 23.0571C39.8645 23.1049 40.0469 23.0707 40.2715 23.0794C40.313 23.1209 40.3114 23.1662 40.2875 23.1917C39.8502 23.6672 39.4966 24.22 38.9231 24.6485C38.8499 24.6755 38.8307 24.6755 38.8108 24.6755C38.5838 24.4693 38.3138 24.5393 38.0725 24.6007C37.8503 24.6572 37.6345 24.6723 37.3629 24.6238C37.3318 24.5075 37.3302 24.4223 37.3701 24.3657C37.5947 24.0447 37.8193 23.7222 38.0654 23.4171C38.18 23.2754 38.2501 23.1392 38.2318 22.96Z" fill="#FB825B"/>
<path d="M48.7994 17.2141C49.008 17.2086 49.1912 17.2476 49.3768 17.3742C49.7647 17.6386 50.1908 17.8298 50.7085 17.8561C50.6312 18.1109 50.4584 18.2264 50.2003 18.2344C48.9308 18.2766 47.7305 18.6119 46.5701 19.1089C46.5358 19.1232 46.4968 19.1272 46.418 19.1288C46.4275 18.9209 46.6075 18.8859 46.7644 18.8309C47.1204 18.7067 47.482 18.5968 47.8381 18.4709C47.9567 18.4287 48.0642 18.357 48.1869 18.2941C48.0929 18.0592 47.8787 18.1404 47.7385 18.0735C47.5911 18.0034 47.4127 17.9971 47.2455 17.8983C47.3092 17.7971 47.3721 17.7462 47.443 17.7279C47.8245 17.6275 48.2068 17.5295 48.5923 17.4427C48.7261 17.4125 48.7826 17.3384 48.7994 17.2141Z" fill="#FB825B"/>
<path d="M33.0703 32.0168C33.146 31.8464 33.2097 31.668 33.3005 31.5063C33.4486 31.2427 33.6167 30.9902 33.772 30.7306C34.1129 30.1595 34.5621 29.6705 34.9738 29.1536C35.0057 29.1137 35.0678 29.0994 35.1188 29.0715C35.2176 29.136 35.3091 29.1966 35.4382 29.2619C35.4422 29.3551 35.4095 29.4435 35.3211 29.5733C34.9037 30.0703 34.6983 30.6079 34.4729 31.1336C34.4601 31.163 34.4784 31.206 34.4824 31.2427C34.3956 31.4744 34.3088 31.7054 34.1575 31.977C33.7513 32.0176 33.4104 32.0176 33.0703 32.0168Z" fill="#E85231"/>
<path d="M33.0397 32.0191C33.4108 32.0175 33.7517 32.0175 34.1412 32.0159C34.2153 32.4396 33.958 32.7884 33.8704 33.1835C33.8266 33.3794 33.6984 33.5068 33.5088 33.6271C33.3328 33.6566 33.1886 33.6645 33.0493 33.6956C32.8557 33.7394 32.6662 33.8015 32.4304 33.8565C32.3595 33.6247 32.4344 33.4192 32.5276 33.2082C32.6853 32.8498 32.8119 32.4786 32.9497 32.0692C32.968 32.0246 32.9887 32.023 33.0397 32.0191Z" fill="#FB744F"/>
<path d="M29.6593 55.0858C29.5597 55.1821 29.4952 55.2562 29.4131 55.3008C28.9289 55.5628 28.5028 55.304 28.4709 54.7505C28.4542 54.4605 28.5315 54.2312 28.7656 54.0536C29.0085 53.8696 29.3335 53.9006 29.5254 54.1412C29.7429 54.4128 29.7978 54.717 29.6593 55.0858Z" fill="#ECD8D6"/>
<path d="M57.0977 18.1438C57.1208 18.0841 57.1773 18.0268 57.2171 18.0371C58.2079 18.2824 59.1899 18.5572 60.1401 18.9339C60.1887 18.953 60.2222 19.008 60.2755 19.0813C60.2508 19.1203 60.2078 19.1386 60.1768 19.1259C59.182 18.7364 58.1474 18.472 57.0977 18.1438Z" fill="#FB825B"/>
<path d="M29.1308 52.0685C29.0138 52.1362 28.9301 52.192 28.8409 52.2039C28.6984 52.2239 28.5757 52.1673 28.5152 52.0263C28.4355 51.8408 28.4785 51.5891 28.5972 51.4943C28.7223 51.3947 28.9994 51.382 29.1388 51.4792C29.2623 51.5652 29.2925 51.6966 29.2607 51.8352C29.2447 51.9061 29.1969 51.9698 29.1308 52.0685Z" fill="#ECD8D6"/>
<path d="M52.5156 17.7459C52.5164 17.6774 52.5682 17.5858 52.6216 17.585C53.1273 17.5738 53.6354 17.5021 54.1691 17.6598C54.1117 17.7251 54.0233 17.7745 53.9349 17.7753C53.4785 17.7785 53.023 17.7697 52.5156 17.7459Z" fill="#FB825B"/>
<path d="M34.5174 31.2272C34.4783 31.2057 34.46 31.1627 34.4728 31.1333C34.6982 30.6068 34.9028 30.07 35.3019 29.6033C35.3393 29.6296 35.3536 29.6734 35.3393 29.7036C35.1028 30.2205 34.8893 30.7486 34.5174 31.2272Z" fill="#F28F6B"/>
<path d="M65.6751 21.6884C65.6377 21.7466 65.5995 21.8055 65.5588 21.9003C65.2689 21.8127 65.0101 21.6446 64.7616 21.4081C64.7512 21.3722 64.7504 21.3539 64.7982 21.3491C65.0427 21.3866 65.245 21.4128 65.4338 21.4789C65.527 21.5116 65.5955 21.6167 65.6751 21.6884Z" fill="#FB825B"/>
<path d="M51.1309 17.8641C51.1492 17.794 51.2113 17.6985 51.2806 17.6929C51.459 17.677 51.6414 17.7001 51.854 17.7343C51.811 17.8004 51.7386 17.8657 51.6597 17.8745C51.5004 17.892 51.3379 17.8801 51.1309 17.8641Z" fill="#FB825B"/>
<path d="M44.0117 20.2959C44.0189 20.2242 44.0515 20.1263 44.1176 20.0872C44.2714 19.9988 44.441 19.9391 44.6473 19.8706C44.5573 20.135 44.2881 20.1916 44.0117 20.2959Z" fill="#FB825B"/>
<path d="M63.1426 20.4789C63.4062 20.4693 63.6443 20.5729 63.8347 20.8261C63.5687 20.8357 63.3441 20.7106 63.1426 20.4789Z" fill="#FB825B"/>
<path d="M61.8672 19.8003C62.138 19.7684 62.3721 19.8863 62.5705 20.1364C62.3036 20.1523 62.0822 20.0177 61.8672 19.8003Z" fill="#FB825B"/>
<path d="M45.3848 19.5868C45.4795 19.3128 45.7432 19.2555 46.0402 19.1902C45.9327 19.4427 45.6715 19.5056 45.3848 19.5868Z" fill="#FB825B"/>
<path d="M54.8047 17.7985C54.9982 17.6305 55.2172 17.6201 55.4498 17.8089C55.2539 17.9116 55.0428 17.9045 54.8047 17.7985Z" fill="#FB825B"/>
<path d="M35.995 28.4712C35.9473 28.2808 36.0142 28.1175 36.2372 28.0068C36.2666 28.1916 36.187 28.3453 35.995 28.4712Z" fill="#F28F6B"/>
<path d="M35.6551 29.0474C35.6033 28.8578 35.6718 28.6953 35.8901 28.5798C35.9227 28.7638 35.8407 28.9159 35.6551 29.0474Z" fill="#F28F6B"/>
<path d="M43.4356 20.6414C43.4332 20.4136 43.6203 20.3762 43.8362 20.3252C43.8203 20.5307 43.6426 20.5809 43.4356 20.6414Z" fill="#FB825B"/>
<path d="M55.834 17.9116C55.9598 17.7571 56.1056 17.7491 56.2561 17.9315C56.1295 18.0159 55.9925 18.0199 55.834 17.9116Z" fill="#FB825B"/>
<path d="M41.0258 22.4816C41.0003 22.3079 41.0871 22.1948 41.3038 22.1582C41.3149 22.3215 41.2225 22.429 41.0258 22.4816Z" fill="#FB825B"/>
<path d="M38.778 24.6931C38.8306 24.6748 38.8497 24.6756 38.8983 24.6764C38.9078 24.8436 38.8242 24.9599 38.6251 25.0212C38.5686 24.8874 38.6386 24.7902 38.778 24.6931Z" fill="#F28F6B"/>
<path d="M37.8298 26.0621C37.7717 25.886 37.8617 25.7737 38.0704 25.7092C38.115 25.8797 38.0122 25.9816 37.8298 26.0621Z" fill="#F28F6B"/>
<path d="M56.5195 18.0257C56.6143 17.8784 56.7226 17.8784 56.8325 18.0448C56.7401 18.1229 56.639 18.1253 56.5195 18.0257Z" fill="#FB825B"/>
<path d="M38.2838 25.484C38.2407 25.3836 38.2694 25.2952 38.4223 25.2522C38.4598 25.3518 38.4184 25.4314 38.2838 25.484Z" fill="#F28F6B"/>
<path d="M37.479 26.5177C37.436 26.4165 37.4647 26.3281 37.6184 26.2859C37.6559 26.3854 37.6144 26.4651 37.479 26.5177Z" fill="#F28F6B"/>
<path d="M36.568 27.5541C36.5186 27.4562 36.5433 27.367 36.693 27.3152C36.7376 27.4139 36.7018 27.496 36.568 27.5541Z" fill="#F28F6B"/>
<path d="M36.3419 27.9017C36.2901 27.8046 36.3109 27.7138 36.463 27.6604C36.5084 27.7584 36.4725 27.8396 36.3419 27.9017Z" fill="#F28F6B"/>
<path d="M41.8245 21.7928C41.8014 21.6884 41.8404 21.604 41.9981 21.5857C42.0156 21.686 41.9654 21.7617 41.8245 21.7928Z" fill="#FB825B"/>
<path d="M42.2849 21.4417C42.2626 21.3381 42.3048 21.2585 42.4569 21.241C42.4354 21.3071 42.378 21.3748 42.2849 21.4417Z" fill="#FB825B"/>
<path d="M64.1738 21.0511C64.2646 21.0065 64.3554 21.0216 64.4112 21.1642C64.3132 21.2191 64.2367 21.1769 64.1738 21.0511Z" fill="#FB825B"/>
<path d="M42.7457 21.102C42.7234 20.9945 42.7672 20.9125 42.9272 20.9021C42.9034 20.9698 42.842 21.0359 42.7457 21.102Z" fill="#FB825B"/>
<path d="M43.0887 20.8692C43.068 20.7616 43.1126 20.6828 43.2703 20.6716C43.2464 20.7385 43.1851 20.8038 43.0887 20.8692Z" fill="#FB825B"/>
<path d="M60.6035 19.2252C60.6903 19.1726 60.7835 19.1774 60.8512 19.3176C60.7572 19.3837 60.6792 19.3439 60.6035 19.2252Z" fill="#FB825B"/>
<path d="M38.1826 22.9583C38.2511 23.1391 38.1802 23.2753 38.0664 23.417C37.8202 23.7221 37.5956 24.0447 37.371 24.3656C37.3312 24.4222 37.3328 24.5074 37.3137 24.6205C36.4758 24.7806 35.6555 24.9733 34.8367 25.1748C34.6551 25.2194 34.4775 25.2784 34.2131 25.3492C33.7623 25.4671 33.388 25.5436 33.032 25.6718C31.6015 26.1863 30.1735 26.7104 28.7502 27.244C28.1099 27.4845 27.4719 27.737 26.8491 28.019C25.8957 28.4506 24.9424 28.8783 23.9404 29.1898C23.8002 29.2336 23.6736 29.3188 23.5398 29.3849C23.0842 29.5163 22.6215 29.6262 22.1747 29.7823C21.4196 30.0467 20.6423 30.2212 19.8642 30.3892C19.5504 30.4569 19.2278 30.488 18.9076 30.519C18.7388 30.535 18.5635 30.5294 18.3947 30.5063C17.9264 30.4426 17.4525 30.3948 16.9937 30.2849C16.5334 30.175 16.073 30.0348 15.6429 29.8413C15.1061 29.6007 14.5693 29.3355 14.0907 28.9986C13.6924 28.7183 13.3348 28.3511 13.0361 27.9624C12.6188 27.4192 12.3265 26.7932 12.1083 26.1401C12.0732 26.0334 12.0693 25.9171 12.0462 25.7594C11.8216 24.8045 11.7977 23.879 11.8343 22.9495C11.8367 22.8946 11.8638 22.8412 11.9155 22.7544C12.0358 22.8197 12.129 22.9105 12.2015 23.0156C12.4484 23.3709 12.6793 23.7372 12.9358 24.0845C12.9915 24.1593 13.1309 24.1721 13.2735 24.2111C13.3181 24.2629 13.3205 24.3154 13.3229 24.4548C13.3053 24.8578 13.467 25.1294 13.5451 25.4225C13.7235 26.0979 14.0684 26.6817 14.5287 27.2058C14.9277 27.6606 15.4351 27.9592 15.9615 28.2292C16.1981 28.3503 16.445 28.4785 16.7014 28.5279C17.2964 28.6426 17.8993 28.7254 18.5022 28.7907C18.683 28.8106 18.8734 28.7119 19.0605 28.6999C19.7893 28.6529 20.4838 28.4658 21.1719 28.2364C21.7677 28.0381 22.3674 27.8501 22.9648 27.6574C23.136 27.6685 23.2913 27.6343 23.4092 27.4989C23.539 27.3491 23.7063 27.2974 23.9779 27.3452C24.7831 27.4981 25.4999 27.4376 26.2039 27.2432C27.0299 27.0154 27.8478 26.7582 28.6753 26.5384C30.3598 26.0907 31.9703 25.4536 33.5258 24.6731C33.9335 24.4684 34.3031 24.196 34.7419 24.0399C34.9642 23.9602 35.1529 23.7667 35.3345 23.6018C35.4094 23.5341 35.4277 23.4043 35.4715 23.3024C35.638 23.2745 35.8044 23.2466 36.0099 23.202C36.5451 23.206 37.0222 23.0547 37.5128 23.0204C37.7207 23.0077 37.927 22.979 38.1826 22.9583Z" fill="#F28F6B"/>
<path d="M22.958 27.6161C22.3686 27.851 21.7689 28.039 21.1731 28.2373C20.485 28.4667 19.7905 28.6538 19.0617 28.7008C18.8738 28.7128 18.6834 28.8107 18.5034 28.7916C17.9005 28.7263 17.2976 28.6435 16.7026 28.5288C16.4462 28.4794 16.1993 28.3512 15.9627 28.2301C15.4355 27.9609 14.9281 27.6614 14.5299 27.2067C14.0703 26.6826 13.7247 26.0988 13.5463 25.4234C13.469 25.1303 13.3073 24.8579 13.3257 24.4955C13.4372 24.4701 13.5646 24.4621 13.6554 24.5162C14.5769 25.061 15.5486 25.4879 16.5561 25.8535C17.738 26.2828 18.9423 26.6324 20.16 26.9255C20.8577 27.0936 21.561 27.2608 22.2826 27.3301C22.5096 27.3508 22.7836 27.3429 22.958 27.6161Z" fill="#FB744F"/>
<path d="M35.4295 23.3096C35.4287 23.4059 35.4104 23.5358 35.3363 23.6035C35.1539 23.7691 34.9659 23.9627 34.7437 24.0415C34.3049 24.1984 33.9361 24.47 33.5275 24.6747C31.9713 25.4544 30.3616 26.0924 28.6771 26.54C27.8496 26.7598 27.0316 27.0171 26.2057 27.2449C25.5009 27.4392 24.7848 27.4997 24.0234 27.3468C24.0832 27.2512 24.1724 27.174 24.2751 27.1318C25.2452 26.7351 26.2185 26.3473 27.1886 25.9514C28.7066 25.3318 30.2278 24.7193 31.7968 24.239C32.4698 24.0335 33.146 23.8209 33.8358 23.6887C34.3606 23.5883 34.8688 23.4378 35.4295 23.3096Z" fill="#FFB18D"/>
<path d="M23.5742 29.4177C23.673 29.3181 23.8004 29.2329 23.9406 29.1891C24.9425 28.8777 25.8959 28.45 26.8492 28.0183C27.4721 27.7363 28.1092 27.4839 28.7504 27.2433C30.1736 26.7089 31.6017 26.1856 33.0321 25.6711C33.3881 25.5429 33.7617 25.4664 34.1735 25.3677C34.2268 25.6544 34.0906 25.8718 33.9066 26.0797C33.3196 26.7447 32.6044 27.2441 31.8494 27.6925C30.7431 28.3504 29.5397 28.755 28.29 29.0282C27.5509 29.1899 26.8015 29.2982 26.0512 29.4081C25.2866 29.5204 24.5316 29.4583 23.7733 29.4901C23.7192 29.4925 23.6634 29.4646 23.5742 29.4177Z" fill="#FB744F"/>
<path d="M34.7906 49.325C34.7802 49.8124 34.4704 50.0227 34.1176 50.1119C33.8675 50.1756 33.5887 50.0649 33.4063 49.8427C33.04 49.3975 33.1499 48.7022 33.6445 48.3987C33.748 48.335 33.8993 48.3135 34.0228 48.3263C34.4449 48.3685 34.7579 48.7221 34.7914 49.1641C34.793 49.2016 34.7906 49.2398 34.7906 49.325Z" fill="#D4C3BF"/>
<path d="M32.987 46.3144C33.073 46.1599 33.1272 46.0324 33.2172 45.9393C33.4577 45.6892 33.7436 45.7537 33.8973 46.0794C34.0574 46.4179 34.012 46.6473 33.738 46.8942C33.4346 47.1674 33.0547 47.0455 32.9647 46.6393C32.9448 46.5509 32.9679 46.4514 32.987 46.3144Z" fill="#D4C3BF"/>
<path d="M48.7603 17.1969C48.7834 17.3379 48.7269 17.4127 48.5931 17.443C48.2084 17.5298 47.8253 17.6278 47.4438 17.7281C47.3729 17.7465 47.31 17.7974 47.2184 17.8651C46.954 17.8619 46.715 17.8277 46.4108 17.7624C46.2786 17.717 46.2125 17.7019 46.1456 17.6859C45.9887 17.6827 45.8326 17.6788 45.6088 17.6461C45.4758 17.6015 45.4089 17.5856 45.3428 17.5696C44.5646 17.5569 43.7984 17.4327 42.9805 17.3212C42.9805 17.2407 43.0131 17.1372 43.0824 17.0989C43.405 16.9197 43.7411 16.7644 44.0652 16.5884C44.1568 16.539 44.2261 16.449 44.3121 16.3383C44.4818 16.3336 44.6451 16.3686 44.8513 16.4076C45.2113 16.453 45.5355 16.4697 45.8469 16.5398C46.5844 16.7055 47.3458 16.7469 48.0698 16.9803C48.2857 17.0512 48.5039 17.1141 48.7603 17.1969Z" fill="#F28F6B"/>
<path d="M62.4574 19.0615C62.095 19.0097 61.7693 18.8791 61.4507 18.6896C60.6957 18.242 59.8976 17.8804 59.0797 17.5602C58.1032 17.1779 57.1044 16.8721 56.0921 16.6021C55.5593 16.4595 55.0408 16.2668 54.5104 16.1154C53.5785 15.8494 52.6459 15.5866 51.7077 15.3437C51.0291 15.1684 50.3409 15.0275 49.6289 14.8387C49.7117 14.7368 49.8161 14.63 49.9355 14.6077C50.2884 14.5408 50.6484 14.5106 51.0044 14.4604C51.3596 14.4102 51.714 14.3529 52.0995 14.2661C52.4404 14.2087 52.7184 14.3194 52.9907 14.4405C53.1628 14.5169 53.33 14.5974 53.5706 14.5791C53.698 14.6221 53.7761 14.6778 53.8621 14.7073C54.8329 15.037 55.807 15.3548 56.7755 15.6901C57.9415 16.0947 59.0988 16.5216 60.2369 17.0051C60.8542 17.2679 61.4164 17.6136 61.9955 17.9385C62.1436 18.0213 62.3037 18.0835 62.4614 18.1472C63.1925 18.4435 63.8424 18.86 64.3506 19.4765C64.208 19.4972 64.0933 19.494 63.985 19.4661C63.4753 19.3347 62.9672 19.1969 62.4574 19.0615Z" fill="#F28F6B"/>
<path d="M62.4629 19.1003C62.9663 19.1967 63.4752 19.3345 63.9849 19.4659C64.0932 19.4938 64.2079 19.4978 64.3672 19.5113C64.415 19.5105 64.4118 19.5113 64.4214 19.5296C64.4636 19.536 64.4954 19.5233 64.5281 19.5105C64.9924 19.9581 65.4727 20.3898 65.9139 20.8589C66.1632 21.1233 66.2469 21.4929 66.3584 21.8792C66.16 21.8465 65.9585 21.7725 65.7156 21.6928C65.5953 21.6155 65.5277 21.5112 65.4337 21.4786C65.2449 21.4132 65.0418 21.387 64.8005 21.34C64.7583 21.1823 64.7439 21.0421 64.6054 20.933C64.2382 20.6431 63.8639 20.3595 63.5214 20.0426C63.2578 19.798 62.9806 19.5806 62.6803 19.3855C62.5935 19.3289 62.5386 19.223 62.4629 19.1003Z" fill="#FB744F"/>
<path d="M64.498 19.51C64.4948 19.5236 64.4621 19.5363 64.4199 19.5283C64.4295 19.5092 64.4494 19.5092 64.498 19.51Z" fill="#F28F6B"/>
<path d="M52.2273 29.3767C52.6853 29.0326 53.2293 28.9243 53.774 28.851C54.2002 28.7937 54.6119 28.9187 54.9751 29.1425C55.6178 29.5384 56.165 30.0314 56.482 30.7394C56.5672 30.9306 56.6684 31.1153 56.7616 31.3025C57.2777 32.3451 57.5102 33.4569 57.5293 34.6126C57.5421 35.3748 57.5134 36.137 57.5086 36.8992C57.507 37.0951 57.4728 37.2775 57.2848 37.4782C56.8101 37.5412 56.4557 37.4257 56.1379 37.1891C56.0615 37.1326 55.9834 37.0768 55.9014 37.029C55.6218 36.8658 55.3574 36.638 55.0555 36.5623C54.69 36.4707 54.3953 36.2828 54.0855 36.1012C53.8059 35.9379 53.5264 35.7666 53.1735 35.7499C53.1297 35.3039 53.07 34.9089 53.0596 34.513C53.0421 33.8496 52.8772 33.1973 52.9242 32.5306C52.9282 32.4749 52.9202 32.416 52.9067 32.361C52.7538 31.7366 52.6041 31.1106 52.4408 30.4885C52.3452 30.1222 52.2154 29.7638 52.2273 29.3767Z" fill="#FB825B"/>
<path d="M53.1806 35.8018C53.5271 35.7675 53.8074 35.9388 54.0862 36.102C54.396 36.2836 54.6907 36.4716 55.0563 36.5632C55.3581 36.6389 55.6226 36.8666 55.9021 37.0299C55.9842 37.0777 56.0622 37.1334 56.1387 37.19C56.4565 37.4265 56.8109 37.542 57.2553 37.5094C57.2442 37.859 57.2043 38.219 57.1191 38.5687C57.0761 38.7463 56.9702 38.9183 56.8595 39.0688C56.5202 39.5284 56.1753 39.9832 55.8121 40.4244C55.6696 40.5972 55.4912 40.7525 55.3016 40.8712C54.1388 41.5968 52.9696 42.312 51.7988 43.0256C51.4738 43.2232 51.1282 43.388 50.8072 43.5919C50.3779 43.8643 49.9184 43.9073 49.4341 43.8332C49.3218 43.8157 49.2111 43.787 49.0677 43.7034C49.055 43.5895 49.0662 43.5314 49.094 43.4836C49.677 42.4824 50.2537 41.4781 50.8494 40.4849C51.4555 39.4742 52.0314 38.4476 52.5522 37.3899C52.8063 36.8762 53.0325 36.3545 53.1806 35.8018Z" fill="#F5E5E3"/>
<path d="M53.1759 35.7507C53.0342 36.3544 52.808 36.8761 52.5555 37.3882C52.0338 38.4451 51.4588 39.4726 50.8527 40.4833C50.2569 41.4764 49.6803 42.4816 49.0973 43.4819C49.0694 43.5297 49.0583 43.5878 49.0272 43.681C48.9961 43.7224 48.9723 43.7328 48.9587 43.7248C48.5382 43.4628 48.1312 43.1832 47.8986 42.7229C47.5665 42.0666 47.3634 41.3769 47.4431 40.5764C47.8078 40.551 48.0595 40.4498 48.2515 40.2013C48.3558 40.0659 48.4745 39.9417 48.5788 39.8063C48.8926 39.3993 49.2088 38.9939 49.5123 38.5805C49.76 38.2436 50.0228 37.9163 50.1861 37.522C50.2514 37.3651 50.3541 37.2242 50.4457 37.0784C50.7953 36.5201 51.0518 35.9028 51.0765 35.2609C51.1203 34.1204 51.1952 32.9703 50.9761 31.8361C50.8973 31.4307 50.8065 31.023 50.5644 30.6837C50.4067 30.7044 50.2761 30.7219 50.1462 30.7394C50.1526 30.7219 50.1534 30.6956 50.1661 30.6869C50.82 30.2416 51.4206 29.7168 52.1899 29.3831C52.2178 29.7654 52.3468 30.1238 52.4432 30.4909C52.6057 31.113 52.7554 31.7382 52.9091 32.3634C52.9227 32.4183 52.9306 32.4773 52.9267 32.533C52.8789 33.1997 53.0437 33.852 53.0621 34.5154C53.0724 34.9097 53.1321 35.3047 53.1759 35.7507Z" fill="#A5C175"/>
<path d="M50.1112 30.7572C50.2736 30.7213 50.4042 30.7046 50.5619 30.6831C50.8041 31.0224 50.8949 31.4302 50.9737 31.8356C51.1935 32.9697 51.1179 34.1206 51.0741 35.2603C51.0494 35.9023 50.7929 36.5195 50.4433 37.0778C50.3525 37.2228 50.2489 37.3646 50.1836 37.5215C50.0204 37.9149 49.7567 38.2423 49.5098 38.58C49.2056 38.9941 48.8902 39.3995 48.5764 39.8057C48.472 39.9411 48.3534 40.0654 48.249 40.2007C48.0563 40.4492 47.8054 40.5504 47.4494 40.5257C47.2702 40.2645 47.2941 39.9746 47.3204 39.6209C47.4335 39.4266 47.4239 39.3215 47.2837 39.2474C47.1754 37.9046 47.3929 36.596 47.7608 35.238C47.8914 35.0748 47.8787 34.9672 47.8333 34.8581C47.8333 34.8581 47.8317 34.8032 47.8819 34.7602C48.0356 34.4798 48.1543 34.2457 48.0913 33.9725C48.0913 33.9725 48.089 33.9589 48.1272 33.9398C48.1734 33.8522 48.1813 33.7837 48.1901 33.7152C48.1901 33.7152 48.1981 33.6626 48.2395 33.6252C48.2865 33.5488 48.2913 33.5097 48.2968 33.4707C48.3454 33.3536 48.3805 33.227 48.4458 33.1203C48.5891 32.8869 48.7484 32.6631 48.9611 32.3947C49.1228 32.2983 49.1435 32.2107 49.1204 32.1056C49.3872 31.6245 49.6787 31.161 50.1112 30.7572Z" fill="#DAE38A"/>
<path d="M48.0577 33.9976C48.1533 34.2468 48.0346 34.481 47.8936 34.7359C47.8195 34.489 47.9422 34.2596 48.0577 33.9976Z" fill="#A5C175"/>
<path d="M47.2612 39.2712C47.4245 39.3222 47.434 39.4273 47.3257 39.5731C47.1927 39.5094 47.2087 39.4035 47.2612 39.2712Z" fill="#A5C175"/>
<path d="M49.0875 32.1189C49.1432 32.2113 49.1225 32.2989 48.9863 32.3642C48.9855 32.2925 49.0206 32.2121 49.0875 32.1189Z" fill="#A5C175"/>
<path d="M47.8067 34.8872C47.88 34.9684 47.892 35.076 47.7805 35.1986C47.7558 35.1174 47.7677 35.0162 47.8067 34.8872Z" fill="#A5C175"/>
<path d="M48.1619 33.7363C48.181 33.7841 48.1731 33.8526 48.1317 33.9362C48.1102 33.8869 48.1221 33.8223 48.1619 33.7363Z" fill="#A5C175"/>
<path d="M48.2722 33.4888C48.2913 33.5111 48.2865 33.5501 48.2539 33.6043C48.2332 33.5804 48.2404 33.5429 48.2722 33.4888Z" fill="#A5C175"/>
<path d="M45.3496 17.6032C45.4093 17.5865 45.4754 17.6024 45.5623 17.6462C45.4826 17.7991 45.4101 17.7696 45.3496 17.6032Z" fill="#FB825B"/>
<path d="M46.1523 17.719C46.2121 17.7023 46.279 17.7175 46.365 17.7613C46.2862 17.9142 46.2137 17.8847 46.1523 17.719Z" fill="#FB825B"/>
</svg>
